<svg width="449" height="336" viewBox="0 0 449 336" fill="none" xmlns="http://www.w3.org/2000/svg">
<rect x="111.879" y="0.5" width="112.393" height="167.495" fill="#0D439F"/>
<rect y="0.5" width="112.393" height="167.495" fill="#DBDBDB"/>
<rect x="0.5" y="168.494" width="111.393" height="166.495" fill="#F7F7F7" stroke="#E0E0E0"/>
<rect x="111.879" y="167.994" width="112.393" height="167.495" fill="#FF6200"/>
<rect x="223.743" y="0.5" width="112.393" height="167.495" fill="#033468"/>
<rect x="336.607" y="0.5" width="112.393" height="167.495" fill="#CDFDF6"/>
<rect x="336.607" y="167.994" width="112.393" height="167.495" fill="#FFEBDE"/>
<rect x="223.743" y="167.994" width="112.393" height="167.495" fill="#81B2FD"/>
<path d="M144.899 96.5187H142.827L142.463 99.4587H144.451V100.229H142.365L142.043 102.889H141.287L141.609 100.229H138.739L138.403 102.889H137.647L137.969 100.229H135.981V99.4587H138.067L138.431 96.5187H136.429V95.7487H138.529L138.851 93.0887H139.621L139.285 95.7487H142.169L142.491 93.0887H143.247L142.925 95.7487H144.899V96.5187ZM141.707 99.4587L142.071 96.5187H139.201L138.823 99.4587H141.707ZM149.957 102.973C147.689 102.973 146.051 101.111 146.051 97.9887C146.051 94.8667 147.689 93.0047 149.957 93.0047C152.225 93.0047 153.877 94.8667 153.877 97.9887C153.877 101.111 152.225 102.973 149.957 102.973ZM149.957 102.049C151.665 102.049 152.841 100.607 152.841 97.9887C152.841 95.3707 151.665 93.9287 149.957 93.9287C148.249 93.9287 147.073 95.3707 147.073 97.9887C147.073 100.607 148.249 102.049 149.957 102.049ZM156.189 102.889V93.0887H160.179C163.315 93.0887 165.429 95.1047 165.429 97.9887C165.429 100.873 163.315 102.889 160.179 102.889H156.189ZM157.225 101.993H160.123C162.727 101.993 164.407 100.341 164.407 97.9887C164.407 95.6367 162.727 93.9847 160.123 93.9847H157.225V101.993ZM175.217 99.4167V100.313H173.257V102.889H172.249V100.313H166.719V99.5847L171.913 93.0887H173.033L168.021 99.4167H172.277V97.1487H173.257V99.4167H175.217ZM179.27 97.2887C181.37 97.4007 182.42 98.5067 182.42 100.075C182.42 101.713 181.23 102.973 178.864 102.973C177.45 102.973 176.092 102.483 175.336 101.713L175.826 100.915C176.456 101.573 177.59 102.049 178.864 102.049C180.488 102.049 181.384 101.293 181.384 100.075C181.384 98.8987 180.558 98.1287 178.738 98.1287H178.038V97.3867L180.754 93.9847H175.742V93.0887H182.042V93.8027L179.27 97.2887ZM186.892 93.0047C189.496 93.0047 190.91 94.8107 190.91 97.9047C190.91 101.237 189.09 102.973 186.43 102.973C185.548 102.973 184.722 102.819 184.106 102.441L184.512 101.629C185.016 101.965 185.688 102.091 186.416 102.091C188.53 102.091 189.888 100.733 189.888 98.0727C189.888 97.8487 189.874 97.5687 189.846 97.2747C189.356 98.3527 188.208 98.9547 186.85 98.9547C184.904 98.9547 183.546 97.8067 183.546 96.0147C183.546 94.1807 184.988 93.0047 186.892 93.0047ZM187.004 98.1007C188.502 98.1007 189.524 97.1767 189.524 95.9587C189.524 94.8807 188.628 93.8587 186.934 93.8587C185.52 93.8587 184.54 94.6847 184.54 95.9867C184.54 97.2747 185.492 98.1007 187.004 98.1007ZM199.959 93.9847H194.275V97.8347H199.343V98.7307H194.275V102.889H193.239V93.0887H199.959V93.9847Z" fill="white"/>
<path d="M138.498 66.856H142.143C143.373 66.856 144.295 67.186 144.91 67.846C145.525 68.506 145.833 69.4735 145.833 70.7485V72.301C145.833 73.576 145.525 74.5435 144.91 75.2035C144.295 75.8635 143.373 76.1935 142.143 76.1935H140.973V82.606H138.498V66.856ZM142.143 73.9435C142.548 73.9435 142.848 73.831 143.043 73.606C143.253 73.381 143.358 72.9985 143.358 72.4585V70.591C143.358 70.051 143.253 69.6685 143.043 69.4435C142.848 69.2185 142.548 69.106 142.143 69.106H140.973V73.9435H142.143ZM147.177 66.856H150.844C152.119 66.856 153.049 67.156 153.634 67.756C154.219 68.341 154.512 69.2485 154.512 70.4785V71.446C154.512 73.081 153.972 74.116 152.892 74.551V74.596C153.492 74.776 153.912 75.1435 154.152 75.6985C154.407 76.2535 154.534 76.996 154.534 77.926V80.6935C154.534 81.1435 154.549 81.511 154.579 81.796C154.609 82.066 154.684 82.336 154.804 82.606H152.284C152.194 82.351 152.134 82.111 152.104 81.886C152.074 81.661 152.059 81.256 152.059 80.671V77.791C152.059 77.071 151.939 76.5685 151.699 76.2835C151.474 75.9985 151.077 75.856 150.507 75.856H149.652V82.606H147.177V66.856ZM150.552 73.606C151.047 73.606 151.414 73.4785 151.654 73.2235C151.909 72.9685 152.037 72.541 152.037 71.941V70.726C152.037 70.156 151.932 69.7435 151.722 69.4885C151.527 69.2335 151.212 69.106 150.777 69.106H149.652V73.606H150.552ZM156.251 66.856H158.726V82.606H156.251V66.856ZM160.58 66.856H164.113L165.688 78.1285H165.733L167.308 66.856H170.84V82.606H168.5V70.681H168.455L166.655 82.606H164.585L162.785 70.681H162.74V82.606H160.58V66.856ZM174.6 66.856H177.952L180.517 82.606H178.042L177.592 79.4785V79.5235H174.78L174.33 82.606H172.035L174.6 66.856ZM177.3 77.386L176.197 69.601H176.152L175.072 77.386H177.3ZM181.718 66.856H185.385C186.66 66.856 187.59 67.156 188.175 67.756C188.76 68.341 189.053 69.2485 189.053 70.4785V71.446C189.053 73.081 188.513 74.116 187.433 74.551V74.596C188.033 74.776 188.453 75.1435 188.693 75.6985C188.948 76.2535 189.075 76.996 189.075 77.926V80.6935C189.075 81.1435 189.09 81.511 189.12 81.796C189.15 82.066 189.225 82.336 189.345 82.606H186.825C186.735 82.351 186.675 82.111 186.645 81.886C186.615 81.661 186.6 81.256 186.6 80.671V77.791C186.6 77.071 186.48 76.5685 186.24 76.2835C186.015 75.9985 185.618 75.856 185.048 75.856H184.193V82.606H181.718V66.856ZM185.093 73.606C185.588 73.606 185.955 73.4785 186.195 73.2235C186.45 72.9685 186.578 72.541 186.578 71.941V70.726C186.578 70.156 186.473 69.7435 186.263 69.4885C186.068 69.2335 185.753 69.106 185.318 69.106H184.193V73.606H185.093ZM192.713 75.901L189.721 66.856H192.353L194.041 72.6385H194.086L195.773 66.856H198.181L195.188 75.901V82.606H192.713V75.901Z" fill="white"/>
<path d="M27.0203 96.5187H24.9483L24.5843 99.4587H26.5723V100.229H24.4863L24.1643 102.889H23.4083L23.7303 100.229H20.8603L20.5243 102.889H19.7683L20.0903 100.229H18.1023V99.4587H20.1883L20.5523 96.5187H18.5503V95.7487H20.6503L20.9723 93.0887H21.7423L21.4063 95.7487H24.2903L24.6123 93.0887H25.3683L25.0463 95.7487H27.0203V96.5187ZM23.8283 99.4587L24.1923 96.5187H21.3223L20.9443 99.4587H23.8283ZM29.0403 102.889V93.0887H33.0303C36.1663 93.0887 38.2803 95.1047 38.2803 97.9887C38.2803 100.873 36.1663 102.889 33.0303 102.889H29.0403ZM30.0763 101.993H32.9743C35.5783 101.993 37.2583 100.341 37.2583 97.9887C37.2583 95.6367 35.5783 93.9847 32.9743 93.9847H30.0763V101.993ZM46.7807 97.8347C48.0407 98.1147 48.7967 98.9407 48.7967 100.271C48.7967 101.937 47.5647 102.889 45.1147 102.889H40.6067V93.0887H44.8347C47.0187 93.0887 48.2787 94.0127 48.2787 95.6087C48.2787 96.7287 47.6767 97.4707 46.7807 97.8347ZM44.7647 93.9427H41.6427V97.4987H44.7647C46.3327 97.4987 47.2427 96.8967 47.2427 95.7207C47.2427 94.5447 46.3327 93.9427 44.7647 93.9427ZM45.1007 102.035C46.8227 102.035 47.7607 101.475 47.7607 100.187C47.7607 98.9127 46.8227 98.3527 45.1007 98.3527H41.6427V102.035H45.1007ZM51.1614 102.889V93.0887H55.1514C58.2874 93.0887 60.4014 95.1047 60.4014 97.9887C60.4014 100.873 58.2874 102.889 55.1514 102.889H51.1614ZM52.1974 101.993H55.0954C57.6994 101.993 59.3794 100.341 59.3794 97.9887C59.3794 95.6367 57.6994 93.9847 55.0954 93.9847H52.1974V101.993ZM68.9018 97.8347C70.1618 98.1147 70.9178 98.9407 70.9178 100.271C70.9178 101.937 69.6858 102.889 67.2358 102.889H62.7278V93.0887H66.9558C69.1398 93.0887 70.3998 94.0127 70.3998 95.6087C70.3998 96.7287 69.7978 97.4707 68.9018 97.8347ZM66.8858 93.9427H63.7638V97.4987H66.8858C68.4538 97.4987 69.3638 96.8967 69.3638 95.7207C69.3638 94.5447 68.4538 93.9427 66.8858 93.9427ZM67.2218 102.035C68.9438 102.035 69.8818 101.475 69.8818 100.187C69.8818 98.9127 68.9438 98.3527 67.2218 98.3527H63.7638V102.035H67.2218ZM73.2825 102.889V93.0887H77.2725C80.4085 93.0887 82.5225 95.1047 82.5225 97.9887C82.5225 100.873 80.4085 102.889 77.2725 102.889H73.2825ZM74.3185 101.993H77.2165C79.8205 101.993 81.5005 100.341 81.5005 97.9887C81.5005 95.6367 79.8205 93.9847 77.2165 93.9847H74.3185V101.993ZM91.0229 97.8347C92.2829 98.1147 93.0389 98.9407 93.0389 100.271C93.0389 101.937 91.8069 102.889 89.3569 102.889H84.8489V93.0887H89.0769C91.2609 93.0887 92.5209 94.0127 92.5209 95.6087C92.5209 96.7287 91.9189 97.4707 91.0229 97.8347ZM89.0069 93.9427H85.8849V97.4987H89.0069C90.5749 97.4987 91.4849 96.8967 91.4849 95.7207C91.4849 94.5447 90.5749 93.9427 89.0069 93.9427ZM89.3429 102.035C91.0649 102.035 92.0029 101.475 92.0029 100.187C92.0029 98.9127 91.0649 98.3527 89.3429 98.3527H85.8849V102.035H89.3429Z" fill="#333333"/>
<path d="M30.1188 66.856H33.8538C35.1288 66.856 36.0588 67.156 36.6438 67.756C37.2288 68.341 37.5213 69.2485 37.5213 70.4785V71.1085C37.5213 71.9185 37.3863 72.5785 37.1163 73.0885C36.8613 73.5985 36.4638 73.966 35.9238 74.191V74.236C37.1538 74.656 37.7688 75.751 37.7688 77.521V78.871C37.7688 80.086 37.4463 81.016 36.8013 81.661C36.1713 82.291 35.2413 82.606 34.0113 82.606H30.1188V66.856ZM33.5613 73.2685C34.0563 73.2685 34.4238 73.141 34.6638 72.886C34.9188 72.631 35.0463 72.2035 35.0463 71.6035V70.726C35.0463 70.156 34.9413 69.7435 34.7313 69.4885C34.5363 69.2335 34.2213 69.106 33.7863 69.106H32.5938V73.2685H33.5613ZM34.0113 80.356C34.4463 80.356 34.7688 80.2435 34.9788 80.0185C35.1888 79.7785 35.2938 79.3735 35.2938 78.8035V77.431C35.2938 76.711 35.1663 76.216 34.9113 75.946C34.6713 75.661 34.2663 75.5185 33.6963 75.5185H32.5938V80.356H34.0113ZM42.793 82.831C41.578 82.831 40.648 82.486 40.003 81.796C39.358 81.106 39.0355 80.131 39.0355 78.871V70.591C39.0355 69.331 39.358 68.356 40.003 67.666C40.648 66.976 41.578 66.631 42.793 66.631C44.008 66.631 44.938 66.976 45.583 67.666C46.228 68.356 46.5505 69.331 46.5505 70.591V78.871C46.5505 80.131 46.228 81.106 45.583 81.796C44.938 82.486 44.008 82.831 42.793 82.831ZM42.793 80.581C43.648 80.581 44.0755 80.0635 44.0755 79.0285V70.4335C44.0755 69.3985 43.648 68.881 42.793 68.881C41.938 68.881 41.5105 69.3985 41.5105 70.4335V79.0285C41.5105 80.0635 41.938 80.581 42.793 80.581ZM48.2243 66.856H51.8918C53.1668 66.856 54.0968 67.156 54.6818 67.756C55.2668 68.341 55.5593 69.2485 55.5593 70.4785V71.446C55.5593 73.081 55.0193 74.116 53.9393 74.551V74.596C54.5393 74.776 54.9593 75.1435 55.1993 75.6985C55.4543 76.2535 55.5818 76.996 55.5818 77.926V80.6935C55.5818 81.1435 55.5968 81.511 55.6268 81.796C55.6568 82.066 55.7318 82.336 55.8518 82.606H53.3318C53.2418 82.351 53.1818 82.111 53.1518 81.886C53.1218 81.661 53.1068 81.256 53.1068 80.671V77.791C53.1068 77.071 52.9868 76.5685 52.7468 76.2835C52.5218 75.9985 52.1243 75.856 51.5543 75.856H50.6993V82.606H48.2243V66.856ZM51.5993 73.606C52.0943 73.606 52.4618 73.4785 52.7018 73.2235C52.9568 72.9685 53.0843 72.541 53.0843 71.941V70.726C53.0843 70.156 52.9793 69.7435 52.7693 69.4885C52.5743 69.2335 52.2593 69.106 51.8243 69.106H50.6993V73.606H51.5993ZM57.299 66.856H61.079C62.309 66.856 63.2315 67.186 63.8465 67.846C64.4615 68.506 64.769 69.4735 64.769 70.7485V78.7135C64.769 79.9885 64.4615 80.956 63.8465 81.616C63.2315 82.276 62.309 82.606 61.079 82.606H57.299V66.856ZM61.034 80.356C61.439 80.356 61.7465 80.236 61.9565 79.996C62.1815 79.756 62.294 79.366 62.294 78.826V70.636C62.294 70.096 62.1815 69.706 61.9565 69.466C61.7465 69.226 61.439 69.106 61.034 69.106H59.774V80.356H61.034ZM66.4396 66.856H73.1896V69.106H68.9146V73.2685H72.3121V75.5185H68.9146V80.356H73.1896V82.606H66.4396V66.856ZM74.6134 66.856H78.2809C79.5559 66.856 80.4859 67.156 81.0709 67.756C81.6559 68.341 81.9484 69.2485 81.9484 70.4785V71.446C81.9484 73.081 81.4084 74.116 80.3284 74.551V74.596C80.9284 74.776 81.3484 75.1435 81.5884 75.6985C81.8434 76.2535 81.9709 76.996 81.9709 77.926V80.6935C81.9709 81.1435 81.9859 81.511 82.0159 81.796C82.0459 82.066 82.1209 82.336 82.2409 82.606H79.7209C79.6309 82.351 79.5709 82.111 79.5409 81.886C79.5109 81.661 79.4959 81.256 79.4959 80.671V77.791C79.4959 77.071 79.3759 76.5685 79.1359 76.2835C78.9109 75.9985 78.5134 75.856 77.9434 75.856H77.0884V82.606H74.6134V66.856ZM77.9884 73.606C78.4834 73.606 78.8509 73.4785 79.0909 73.2235C79.3459 72.9685 79.4734 72.541 79.4734 71.941V70.726C79.4734 70.156 79.3684 69.7435 79.1584 69.4885C78.9634 69.2335 78.6484 69.106 78.2134 69.106H77.0884V73.606H77.9884Z" fill="#333333"/>
<path d="M34.5203 264.371H32.4483L32.0843 267.311H34.0723V268.081H31.9863L31.6643 270.741H30.9083L31.2303 268.081H28.3603L28.0243 270.741H27.2683L27.5903 268.081H25.6023V267.311H27.6883L28.0523 264.371H26.0503V263.601H28.1503L28.4723 260.941H29.2423L28.9063 263.601H31.7903L32.1123 260.941H32.8683L32.5463 263.601H34.5203V264.371ZM31.3283 267.311L31.6923 264.371H28.8223L28.4443 267.311H31.3283ZM43.2603 261.837H37.5763V265.687H42.6443V266.583H37.5763V270.741H36.5403V260.941H43.2603V261.837ZM44.3884 260.941H51.5844V261.655L47.4824 270.741H46.3904L50.4224 261.837H45.3824V263.671H44.3884V260.941ZM60.5006 261.837H54.8166V265.687H59.8846V266.583H54.8166V270.741H53.7806V260.941H60.5006V261.837ZM61.6287 260.941H68.8247V261.655L64.7227 270.741H63.6307L67.6627 261.837H62.6227V263.671H61.6287V260.941ZM77.7408 261.837H72.0568V265.687H77.1248V266.583H72.0568V270.741H71.0208V260.941H77.7408V261.837ZM78.8689 260.941H86.0649V261.655L81.9629 270.741H80.8709L84.9029 261.837H79.8629V263.671H78.8689V260.941Z" fill="#333333"/>
<path d="M11.6188 233.991H15.3538C16.6288 233.991 17.5588 234.291 18.1438 234.891C18.7288 235.476 19.0213 236.384 19.0213 237.614V238.244C19.0213 239.054 18.8863 239.714 18.6163 240.224C18.3613 240.734 17.9638 241.101 17.4238 241.326V241.371C18.6538 241.791 19.2688 242.886 19.2688 244.656V246.006C19.2688 247.221 18.9463 248.151 18.3013 248.796C17.6713 249.426 16.7413 249.741 15.5113 249.741H11.6188V233.991ZM15.0613 240.404C15.5563 240.404 15.9238 240.276 16.1638 240.021C16.4188 239.766 16.5463 239.339 16.5463 238.739V237.861C16.5463 237.291 16.4413 236.879 16.2313 236.624C16.0363 236.369 15.7213 236.241 15.2863 236.241H14.0938V240.404H15.0613ZM15.5113 247.491C15.9463 247.491 16.2688 247.379 16.4788 247.154C16.6888 246.914 16.7938 246.509 16.7938 245.939V244.566C16.7938 243.846 16.6663 243.351 16.4113 243.081C16.1713 242.796 15.7663 242.654 15.1963 242.654H14.0938V247.491H15.5113ZM22.628 233.991H25.9805L28.5455 249.741H26.0705L25.6205 246.614V246.659H22.808L22.358 249.741H20.063L22.628 233.991ZM25.328 244.521L24.2255 236.736H24.1805L23.1005 244.521H25.328ZM33.1898 249.966C32.0048 249.966 31.0973 249.629 30.4673 248.954C29.8523 248.279 29.5448 247.326 29.5448 246.096V237.636C29.5448 236.406 29.8523 235.454 30.4673 234.779C31.0973 234.104 32.0048 233.766 33.1898 233.766C34.3748 233.766 35.2748 234.104 35.8898 234.779C36.5198 235.454 36.8348 236.406 36.8348 237.636V239.301H34.4948V237.479C34.4948 236.504 34.0823 236.016 33.2573 236.016C32.4323 236.016 32.0198 236.504 32.0198 237.479V246.276C32.0198 247.236 32.4323 247.716 33.2573 247.716C34.0823 247.716 34.4948 247.236 34.4948 246.276V243.869H36.8348V246.096C36.8348 247.326 36.5198 248.279 35.8898 248.954C35.2748 249.629 34.3748 249.966 33.1898 249.966ZM38.3156 233.991H40.7906V240.629L43.9406 233.991H46.4156L43.4681 239.774L46.4606 249.741H43.8731L41.7806 242.721L40.7906 244.724V249.741H38.3156V233.991ZM50.7904 249.966C49.5904 249.966 48.6754 249.629 48.0454 248.954C47.4154 248.264 47.1004 247.281 47.1004 246.006V237.726C47.1004 236.451 47.4154 235.476 48.0454 234.801C48.6754 234.111 49.5904 233.766 50.7904 233.766C51.9904 233.766 52.9054 234.111 53.5354 234.801C54.1654 235.476 54.4804 236.451 54.4804 237.726V239.076H52.1404V237.569C52.1404 236.534 51.7129 236.016 50.8579 236.016C50.0029 236.016 49.5754 236.534 49.5754 237.569V246.186C49.5754 247.206 50.0029 247.716 50.8579 247.716C51.7129 247.716 52.1404 247.206 52.1404 246.186V243.104H50.9029V240.854H54.4804V246.006C54.4804 247.281 54.1654 248.264 53.5354 248.954C52.9054 249.629 51.9904 249.966 50.7904 249.966ZM56.0695 233.991H59.737C61.012 233.991 61.942 234.291 62.527 234.891C63.112 235.476 63.4045 236.384 63.4045 237.614V238.581C63.4045 240.216 62.8645 241.251 61.7845 241.686V241.731C62.3845 241.911 62.8045 242.279 63.0445 242.834C63.2995 243.389 63.427 244.131 63.427 245.061V247.829C63.427 248.279 63.442 248.646 63.472 248.931C63.502 249.201 63.577 249.471 63.697 249.741H61.177C61.087 249.486 61.027 249.246 60.997 249.021C60.967 248.796 60.952 248.391 60.952 247.806V244.926C60.952 244.206 60.832 243.704 60.592 243.419C60.367 243.134 59.9695 242.991 59.3995 242.991H58.5445V249.741H56.0695V233.991ZM59.4445 240.741C59.9395 240.741 60.307 240.614 60.547 240.359C60.802 240.104 60.9295 239.676 60.9295 239.076V237.861C60.9295 237.291 60.8245 236.879 60.6145 236.624C60.4195 236.369 60.1045 236.241 59.6695 236.241H58.5445V240.741H59.4445ZM68.7217 249.966C67.5067 249.966 66.5767 249.621 65.9317 248.931C65.2867 248.241 64.9642 247.266 64.9642 246.006V237.726C64.9642 236.466 65.2867 235.491 65.9317 234.801C66.5767 234.111 67.5067 233.766 68.7217 233.766C69.9367 233.766 70.8667 234.111 71.5117 234.801C72.1567 235.491 72.4792 236.466 72.4792 237.726V246.006C72.4792 247.266 72.1567 248.241 71.5117 248.931C70.8667 249.621 69.9367 249.966 68.7217 249.966ZM68.7217 247.716C69.5767 247.716 70.0042 247.199 70.0042 246.164V237.569C70.0042 236.534 69.5767 236.016 68.7217 236.016C67.8667 236.016 67.4392 236.534 67.4392 237.569V246.164C67.4392 247.199 67.8667 247.716 68.7217 247.716ZM77.753 249.966C76.553 249.966 75.638 249.629 75.008 248.954C74.378 248.264 74.063 247.281 74.063 246.006V233.991H76.538V246.186C76.538 246.726 76.643 247.116 76.853 247.356C77.078 247.596 77.393 247.716 77.798 247.716C78.203 247.716 78.5105 247.596 78.7205 247.356C78.9455 247.116 79.058 246.726 79.058 246.186V233.991H81.443V246.006C81.443 247.281 81.128 248.264 80.498 248.954C79.868 249.629 78.953 249.966 77.753 249.966ZM83.2057 233.991H86.3107L88.7182 243.419H88.7632V233.991H90.9682V249.741H88.4257L85.4557 238.244H85.4107V249.741H83.2057V233.991ZM92.8078 233.991H96.5878C97.8178 233.991 98.7403 234.321 99.3553 234.981C99.9703 235.641 100.278 236.609 100.278 237.884V245.849C100.278 247.124 99.9703 248.091 99.3553 248.751C98.7403 249.411 97.8178 249.741 96.5878 249.741H92.8078V233.991ZM96.5428 247.491C96.9478 247.491 97.2553 247.371 97.4653 247.131C97.6903 246.891 97.8028 246.501 97.8028 245.961V237.771C97.8028 237.231 97.6903 236.841 97.4653 236.601C97.2553 236.361 96.9478 236.241 96.5428 236.241H95.2828V247.491H96.5428Z" fill="#333333"/>
<path d="M132.215 249.966C131.015 249.966 130.108 249.629 129.493 248.954C128.878 248.264 128.57 247.281 128.57 246.006V245.106H130.91V246.186C130.91 247.206 131.338 247.716 132.193 247.716C132.613 247.716 132.928 247.596 133.138 247.356C133.363 247.101 133.475 246.696 133.475 246.141C133.475 245.481 133.325 244.904 133.025 244.409C132.725 243.899 132.17 243.291 131.36 242.586C130.34 241.686 129.628 240.876 129.223 240.156C128.818 239.421 128.615 238.596 128.615 237.681C128.615 236.436 128.93 235.476 129.56 234.801C130.19 234.111 131.105 233.766 132.305 233.766C133.49 233.766 134.383 234.111 134.983 234.801C135.598 235.476 135.905 236.451 135.905 237.726V238.379H133.565V237.569C133.565 237.029 133.46 236.639 133.25 236.399C133.04 236.144 132.733 236.016 132.328 236.016C131.503 236.016 131.09 236.519 131.09 237.524C131.09 238.094 131.24 238.626 131.54 239.121C131.855 239.616 132.418 240.216 133.228 240.921C134.263 241.821 134.975 242.639 135.365 243.374C135.755 244.109 135.95 244.971 135.95 245.961C135.95 247.251 135.628 248.241 134.983 248.931C134.353 249.621 133.43 249.966 132.215 249.966ZM137.369 233.991H144.119V236.241H139.844V240.404H143.242V242.654H139.844V247.491H144.119V249.741H137.369V233.991ZM149.03 249.966C147.845 249.966 146.938 249.629 146.308 248.954C145.693 248.279 145.385 247.326 145.385 246.096V237.636C145.385 236.406 145.693 235.454 146.308 234.779C146.938 234.104 147.845 233.766 149.03 233.766C150.215 233.766 151.115 234.104 151.73 234.779C152.36 235.454 152.675 236.406 152.675 237.636V239.301H150.335V237.479C150.335 236.504 149.923 236.016 149.098 236.016C148.273 236.016 147.86 236.504 147.86 237.479V246.276C147.86 247.236 148.273 247.716 149.098 247.716C149.923 247.716 150.335 247.236 150.335 246.276V243.869H152.675V246.096C152.675 247.326 152.36 248.279 151.73 248.954C151.115 249.629 150.215 249.966 149.03 249.966ZM157.778 249.966C156.563 249.966 155.633 249.621 154.988 248.931C154.343 248.241 154.02 247.266 154.02 246.006V237.726C154.02 236.466 154.343 235.491 154.988 234.801C155.633 234.111 156.563 233.766 157.778 233.766C158.993 233.766 159.923 234.111 160.568 234.801C161.213 235.491 161.535 236.466 161.535 237.726V246.006C161.535 247.266 161.213 248.241 160.568 248.931C159.923 249.621 158.993 249.966 157.778 249.966ZM157.778 247.716C158.633 247.716 159.06 247.199 159.06 246.164V237.569C159.06 236.534 158.633 236.016 157.778 236.016C156.923 236.016 156.495 236.534 156.495 237.569V246.164C156.495 247.199 156.923 247.716 157.778 247.716ZM163.209 233.991H166.314L168.721 243.419H168.766V233.991H170.971V249.741H168.429L165.459 238.244H165.414V249.741H163.209V233.991ZM172.811 233.991H176.591C177.821 233.991 178.744 234.321 179.359 234.981C179.974 235.641 180.281 236.609 180.281 237.884V245.849C180.281 247.124 179.974 248.091 179.359 248.751C178.744 249.411 177.821 249.741 176.591 249.741H172.811V233.991ZM176.546 247.491C176.951 247.491 177.259 247.371 177.469 247.131C177.694 246.891 177.806 246.501 177.806 245.961V237.771C177.806 237.231 177.694 236.841 177.469 236.601C177.259 236.361 176.951 236.241 176.546 236.241H175.286V247.491H176.546ZM183.82 233.991H187.173L189.738 249.741H187.263L186.813 246.614V246.659H184L183.55 249.741H181.255L183.82 233.991ZM186.52 244.521L185.418 236.736H185.373L184.293 244.521H186.52ZM190.938 233.991H194.606C195.881 233.991 196.811 234.291 197.396 234.891C197.981 235.476 198.273 236.384 198.273 237.614V238.581C198.273 240.216 197.733 241.251 196.653 241.686V241.731C197.253 241.911 197.673 242.279 197.913 242.834C198.168 243.389 198.296 244.131 198.296 245.061V247.829C198.296 248.279 198.311 248.646 198.341 248.931C198.371 249.201 198.446 249.471 198.566 249.741H196.046C195.956 249.486 195.896 249.246 195.866 249.021C195.836 248.796 195.821 248.391 195.821 247.806V244.926C195.821 244.206 195.701 243.704 195.461 243.419C195.236 243.134 194.838 242.991 194.268 242.991H193.413V249.741H190.938V233.991ZM194.313 240.741C194.808 240.741 195.176 240.614 195.416 240.359C195.671 240.104 195.798 239.676 195.798 239.076V237.861C195.798 237.291 195.693 236.879 195.483 236.624C195.288 236.369 194.973 236.241 194.538 236.241H193.413V240.741H194.313ZM201.934 243.036L198.942 233.991H201.574L203.262 239.774H203.307L204.994 233.991H207.402L204.409 243.036V249.741H201.934V243.036Z" fill="white"/>
<path d="M145.899 264.371H143.827L143.463 267.311H145.451V268.081H143.365L143.043 270.741H142.287L142.609 268.081H139.739L139.403 270.741H138.647L138.969 268.081H136.981V267.311H139.067L139.431 264.371H137.429V263.601H139.529L139.851 260.941H140.621L140.285 263.601H143.169L143.491 260.941H144.247L143.925 263.601H145.899V264.371ZM142.707 267.311L143.071 264.371H140.201L139.823 267.311H142.707ZM154.639 261.837H148.955V265.687H154.023V266.583H148.955V270.741H147.919V260.941H154.639V261.837ZM163.498 261.837H157.814V265.687H162.882V266.583H157.814V270.741H156.778V260.941H163.498V261.837ZM168.638 264.875C170.584 264.875 171.942 266.023 171.942 267.815C171.942 269.649 170.5 270.825 168.596 270.825C165.992 270.825 164.578 269.019 164.578 265.925C164.578 262.593 166.398 260.857 169.058 260.857C169.94 260.857 170.766 261.011 171.382 261.389L170.976 262.201C170.472 261.865 169.8 261.739 169.072 261.739C166.958 261.739 165.6 263.097 165.6 265.757C165.6 265.981 165.614 266.261 165.642 266.555C166.132 265.477 167.28 264.875 168.638 264.875ZM168.554 269.971C169.968 269.971 170.948 269.145 170.948 267.843C170.948 266.555 169.996 265.729 168.484 265.729C166.986 265.729 165.964 266.653 165.964 267.871C165.964 268.949 166.86 269.971 168.554 269.971ZM174.412 269.845H179.802V270.741H172.928V270.027L177.002 266.037C178.108 264.945 178.318 264.287 178.318 263.615C178.318 262.481 177.52 261.781 176.022 261.781C174.874 261.781 173.992 262.131 173.348 262.873L172.634 262.257C173.39 261.361 174.608 260.857 176.106 260.857C178.094 260.857 179.354 261.865 179.354 263.503C179.354 264.441 179.06 265.281 177.744 266.569L174.412 269.845ZM184.918 270.825C182.65 270.825 181.012 268.963 181.012 265.841C181.012 262.719 182.65 260.857 184.918 260.857C187.186 260.857 188.838 262.719 188.838 265.841C188.838 268.963 187.186 270.825 184.918 270.825ZM184.918 269.901C186.626 269.901 187.802 268.459 187.802 265.841C187.802 263.223 186.626 261.781 184.918 261.781C183.21 261.781 182.034 263.223 182.034 265.841C182.034 268.459 183.21 269.901 184.918 269.901ZM194.188 270.825C191.92 270.825 190.282 268.963 190.282 265.841C190.282 262.719 191.92 260.857 194.188 260.857C196.456 260.857 198.108 262.719 198.108 265.841C198.108 268.963 196.456 270.825 194.188 270.825ZM194.188 269.901C195.896 269.901 197.072 268.459 197.072 265.841C197.072 263.223 195.896 261.781 194.188 261.781C192.48 261.781 191.304 263.223 191.304 265.841C191.304 268.459 192.48 269.901 194.188 269.901Z" fill="white"/>
<path d="M258.362 66.8564H260.837V82.6064H258.362V66.8564ZM266.178 82.8314C264.993 82.8314 264.085 82.4939 263.455 81.8189C262.84 81.1439 262.533 80.1914 262.533 78.9614V70.5014C262.533 69.2714 262.84 68.3189 263.455 67.6439C264.085 66.9689 264.993 66.6314 266.178 66.6314C267.363 66.6314 268.263 66.9689 268.878 67.6439C269.508 68.3189 269.823 69.2714 269.823 70.5014V72.1664H267.483V70.3439C267.483 69.3689 267.07 68.8814 266.245 68.8814C265.42 68.8814 265.008 69.3689 265.008 70.3439V79.1414C265.008 80.1014 265.42 80.5814 266.245 80.5814C267.07 80.5814 267.483 80.1014 267.483 79.1414V76.7339H269.823V78.9614C269.823 80.1914 269.508 81.1439 268.878 81.8189C268.263 82.4939 267.363 82.8314 266.178 82.8314ZM274.925 82.8314C273.71 82.8314 272.78 82.4864 272.135 81.7964C271.49 81.1064 271.168 80.1314 271.168 78.8714V70.5914C271.168 69.3314 271.49 68.3564 272.135 67.6664C272.78 66.9764 273.71 66.6314 274.925 66.6314C276.14 66.6314 277.07 66.9764 277.715 67.6664C278.36 68.3564 278.683 69.3314 278.683 70.5914V78.8714C278.683 80.1314 278.36 81.1064 277.715 81.7964C277.07 82.4864 276.14 82.8314 274.925 82.8314ZM274.925 80.5814C275.78 80.5814 276.208 80.0639 276.208 79.0289V70.4339C276.208 69.3989 275.78 68.8814 274.925 68.8814C274.07 68.8814 273.643 69.3989 273.643 70.4339V79.0289C273.643 80.0639 274.07 80.5814 274.925 80.5814ZM280.356 66.8564H283.461L285.869 76.2839H285.914V66.8564H288.119V82.6064H285.576L282.606 71.1089H282.561V82.6064H280.356V66.8564ZM297.027 70.5914H294.439V68.8364C295.144 68.8364 295.707 68.7764 296.127 68.6564C296.562 68.5364 296.907 68.3414 297.162 68.0714C297.417 67.7864 297.642 67.3814 297.837 66.8564H299.502V82.6064H297.027V70.5914Z" fill="white"/>
<path d="M258.263 96.5187H256.191L255.827 99.4587H257.815V100.229H255.729L255.407 102.889H254.651L254.973 100.229H252.103L251.767 102.889H251.011L251.333 100.229H249.345V99.4587H251.431L251.795 96.5187H249.793V95.7487H251.893L252.215 93.0887H252.985L252.649 95.7487H255.533L255.855 93.0887H256.611L256.289 95.7487H258.263V96.5187ZM255.071 99.4587L255.435 96.5187H252.565L252.187 99.4587H255.071ZM263.321 102.973C261.053 102.973 259.415 101.111 259.415 97.9887C259.415 94.8667 261.053 93.0047 263.321 93.0047C265.589 93.0047 267.241 94.8667 267.241 97.9887C267.241 101.111 265.589 102.973 263.321 102.973ZM263.321 102.049C265.029 102.049 266.205 100.607 266.205 97.9887C266.205 95.3707 265.029 93.9287 263.321 93.9287C261.613 93.9287 260.437 95.3707 260.437 97.9887C260.437 100.607 261.613 102.049 263.321 102.049ZM271.88 97.2887C273.98 97.4007 275.03 98.5067 275.03 100.075C275.03 101.713 273.84 102.973 271.474 102.973C270.06 102.973 268.702 102.483 267.946 101.713L268.436 100.915C269.066 101.573 270.2 102.049 271.474 102.049C273.098 102.049 273.994 101.293 273.994 100.075C273.994 98.8987 273.168 98.1287 271.348 98.1287H270.648V97.3867L273.364 93.9847H268.352V93.0887H274.652V93.8027L271.88 97.2887ZM279.714 97.2887C281.814 97.4007 282.864 98.5067 282.864 100.075C282.864 101.713 281.674 102.973 279.308 102.973C277.894 102.973 276.536 102.483 275.78 101.713L276.27 100.915C276.9 101.573 278.034 102.049 279.308 102.049C280.932 102.049 281.828 101.293 281.828 100.075C281.828 98.8987 281.002 98.1287 279.182 98.1287H278.482V97.3867L281.198 93.9847H276.186V93.0887H282.486V93.8027L279.714 97.2887ZM292.614 99.4167V100.313H290.654V102.889H289.646V100.313H284.116V99.5847L289.31 93.0887H290.43L285.418 99.4167H289.674V97.1487H290.654V99.4167H292.614ZM297.6 97.0227C299.546 97.0227 300.904 98.1707 300.904 99.9627C300.904 101.797 299.462 102.973 297.558 102.973C294.954 102.973 293.54 101.167 293.54 98.0727C293.54 94.7407 295.36 93.0047 298.02 93.0047C298.902 93.0047 299.728 93.1587 300.344 93.5367L299.938 94.3487C299.434 94.0127 298.762 93.8867 298.034 93.8867C295.92 93.8867 294.562 95.2447 294.562 97.9047C294.562 98.1287 294.576 98.4087 294.604 98.7027C295.094 97.6247 296.242 97.0227 297.6 97.0227ZM297.516 102.119C298.93 102.119 299.91 101.293 299.91 99.9907C299.91 98.7027 298.958 97.8767 297.446 97.8767C295.948 97.8767 294.926 98.8007 294.926 100.019C294.926 101.097 295.822 102.119 297.516 102.119ZM307.686 97.7507C308.918 98.1567 309.604 98.9967 309.604 100.159C309.604 101.895 308.134 102.973 305.796 102.973C303.444 102.973 302.016 101.895 302.016 100.159C302.016 98.9827 302.688 98.1567 303.906 97.7507C302.912 97.3587 302.366 96.6167 302.366 95.5947C302.366 93.9987 303.724 93.0047 305.796 93.0047C307.868 93.0047 309.254 93.9987 309.254 95.5947C309.254 96.6167 308.694 97.3587 307.686 97.7507ZM303.374 95.6227C303.374 96.7007 304.27 97.3867 305.796 97.3867C307.322 97.3867 308.232 96.7007 308.232 95.6367C308.232 94.5307 307.266 93.8587 305.796 93.8587C304.312 93.8587 303.374 94.5307 303.374 95.6227ZM305.796 102.119C307.532 102.119 308.568 101.363 308.568 100.145C308.568 98.9407 307.532 98.1847 305.796 98.1847C304.06 98.1847 303.038 98.9407 303.038 100.145C303.038 101.363 304.06 102.119 305.796 102.119Z" fill="white"/>
<path d="M354.344 82.831C353.144 82.831 352.237 82.4935 351.622 81.8185C351.007 81.1285 350.699 80.146 350.699 78.871V77.971H353.039V79.051C353.039 80.071 353.467 80.581 354.322 80.581C354.742 80.581 355.057 80.461 355.267 80.221C355.492 79.966 355.604 79.561 355.604 79.006C355.604 78.346 355.454 77.7685 355.154 77.2735C354.854 76.7635 354.299 76.156 353.489 75.451C352.469 74.551 351.757 73.741 351.352 73.021C350.947 72.286 350.744 71.461 350.744 70.546C350.744 69.301 351.059 68.341 351.689 67.666C352.319 66.976 353.234 66.631 354.434 66.631C355.619 66.631 356.512 66.976 357.112 67.666C357.727 68.341 358.034 69.316 358.034 70.591V71.2435H355.694V70.4335C355.694 69.8935 355.589 69.5035 355.379 69.2635C355.169 69.0085 354.862 68.881 354.457 68.881C353.632 68.881 353.219 69.3835 353.219 70.3885C353.219 70.9585 353.369 71.491 353.669 71.986C353.984 72.481 354.547 73.081 355.357 73.786C356.392 74.686 357.104 75.5035 357.494 76.2385C357.884 76.9735 358.079 77.836 358.079 78.826C358.079 80.116 357.757 81.106 357.112 81.796C356.482 82.486 355.559 82.831 354.344 82.831ZM359.498 66.856H361.973V82.606H359.498V66.856ZM367.337 82.831C366.137 82.831 365.222 82.4935 364.592 81.8185C363.962 81.1285 363.647 80.146 363.647 78.871V70.591C363.647 69.316 363.962 68.341 364.592 67.666C365.222 66.976 366.137 66.631 367.337 66.631C368.537 66.631 369.452 66.976 370.082 67.666C370.712 68.341 371.027 69.316 371.027 70.591V71.941H368.687V70.4335C368.687 69.3985 368.26 68.881 367.405 68.881C366.55 68.881 366.122 69.3985 366.122 70.4335V79.051C366.122 80.071 366.55 80.581 367.405 80.581C368.26 80.581 368.687 80.071 368.687 79.051V75.9685H367.45V73.7185H371.027V78.871C371.027 80.146 370.712 81.1285 370.082 81.8185C369.452 82.4935 368.537 82.831 367.337 82.831ZM372.616 66.856H375.721L378.129 76.2835H378.174V66.856H380.379V82.606H377.836L374.866 71.1085H374.821V82.606H372.616V66.856ZM384.131 66.856H387.483L390.048 82.606H387.573L387.123 79.4785V79.5235H384.311L383.861 82.606H381.566L384.131 66.856ZM386.831 77.386L385.728 69.601H385.683L384.603 77.386H386.831ZM392.151 69.106H389.564V66.856H397.214V69.106H394.626V82.606H392.151V69.106ZM402.012 82.831C400.812 82.831 399.897 82.4935 399.267 81.8185C398.637 81.1285 398.322 80.146 398.322 78.871V66.856H400.797V79.051C400.797 79.591 400.902 79.981 401.112 80.221C401.337 80.461 401.652 80.581 402.057 80.581C402.462 80.581 402.77 80.461 402.98 80.221C403.205 79.981 403.317 79.591 403.317 79.051V66.856H405.702V78.871C405.702 80.146 405.387 81.1285 404.757 81.8185C404.127 82.4935 403.212 82.831 402.012 82.831ZM407.465 66.856H411.132C412.407 66.856 413.337 67.156 413.922 67.756C414.507 68.341 414.8 69.2485 414.8 70.4785V71.446C414.8 73.081 414.26 74.116 413.18 74.551V74.596C413.78 74.776 414.2 75.1435 414.44 75.6985C414.695 76.2535 414.822 76.996 414.822 77.926V80.6935C414.822 81.1435 414.837 81.511 414.867 81.796C414.897 82.066 414.972 82.336 415.092 82.606H412.572C412.482 82.351 412.422 82.111 412.392 81.886C412.362 81.661 412.347 81.256 412.347 80.671V77.791C412.347 77.071 412.227 76.5685 411.987 76.2835C411.762 75.9985 411.365 75.856 410.795 75.856H409.94V82.606H407.465V66.856ZM410.84 73.606C411.335 73.606 411.702 73.4785 411.942 73.2235C412.197 72.9685 412.325 72.541 412.325 71.941V70.726C412.325 70.156 412.22 69.7435 412.01 69.4885C411.815 69.2335 411.5 69.106 411.065 69.106H409.94V73.606H410.84ZM416.539 66.856H423.289V69.106H419.014V73.2685H422.412V75.5185H419.014V80.356H423.289V82.606H416.539V66.856ZM431.782 70.591H429.194V68.836C429.899 68.836 430.462 68.776 430.882 68.656C431.317 68.536 431.662 68.341 431.917 68.071C432.172 67.786 432.397 67.381 432.592 66.856H434.257V82.606H431.782V70.591Z" fill="#333333"/>
<path d="M367.128 96.5187H365.056L364.692 99.4587H366.68V100.229H364.594L364.272 102.889H363.516L363.838 100.229H360.968L360.632 102.889H359.876L360.198 100.229H358.21V99.4587H360.296L360.66 96.5187H358.658V95.7487H360.758L361.08 93.0887H361.85L361.514 95.7487H364.398L364.72 93.0887H365.476L365.154 95.7487H367.128V96.5187ZM363.936 99.4587L364.3 96.5187H361.43L361.052 99.4587H363.936ZM373.404 102.973C370.464 102.973 368.28 100.859 368.28 97.9887C368.28 95.1187 370.464 93.0047 373.418 93.0047C374.846 93.0047 376.134 93.4807 377.002 94.4327L376.344 95.0907C375.546 94.2787 374.566 93.9287 373.446 93.9287C371.08 93.9287 369.302 95.6647 369.302 97.9887C369.302 100.313 371.08 102.049 373.446 102.049C374.566 102.049 375.546 101.699 376.344 100.873L377.002 101.531C376.134 102.483 374.846 102.973 373.404 102.973ZM379.21 102.889V93.0887H383.2C386.336 93.0887 388.45 95.1047 388.45 97.9887C388.45 100.873 386.336 102.889 383.2 102.889H379.21ZM380.246 101.993H383.144C385.748 101.993 387.428 100.341 387.428 97.9887C387.428 95.6367 385.748 93.9847 383.144 93.9847H380.246V101.993ZM397.497 93.9847H391.813V97.8347H396.881V98.7307H391.813V102.889H390.777V93.0887H397.497V93.9847ZM399.636 102.889V93.0887H403.626C406.762 93.0887 408.876 95.1047 408.876 97.9887C408.876 100.873 406.762 102.889 403.626 102.889H399.636ZM400.672 101.993H403.57C406.174 101.993 407.854 100.341 407.854 97.9887C407.854 95.6367 406.174 93.9847 403.57 93.9847H400.672V101.993ZM417.922 93.9847H412.238V97.8347H417.306V98.7307H412.238V102.889H411.202V93.0887H417.922V93.9847ZM423.062 97.0227C425.008 97.0227 426.366 98.1707 426.366 99.9627C426.366 101.797 424.924 102.973 423.02 102.973C420.416 102.973 419.002 101.167 419.002 98.0727C419.002 94.7407 420.822 93.0047 423.482 93.0047C424.364 93.0047 425.19 93.1587 425.806 93.5367L425.4 94.3487C424.896 94.0127 424.224 93.8867 423.496 93.8867C421.382 93.8867 420.024 95.2447 420.024 97.9047C420.024 98.1287 420.038 98.4087 420.066 98.7027C420.556 97.6247 421.704 97.0227 423.062 97.0227ZM422.978 102.119C424.392 102.119 425.372 101.293 425.372 99.9907C425.372 98.7027 424.42 97.8767 422.908 97.8767C421.41 97.8767 420.388 98.8007 420.388 100.019C420.388 101.097 421.284 102.119 422.978 102.119Z" fill="#333333"/>
<path d="M354.344 249.966C353.144 249.966 352.237 249.629 351.622 248.954C351.007 248.264 350.699 247.281 350.699 246.006V245.106H353.039V246.186C353.039 247.206 353.467 247.716 354.322 247.716C354.742 247.716 355.057 247.596 355.267 247.356C355.492 247.101 355.604 246.696 355.604 246.141C355.604 245.481 355.454 244.904 355.154 244.409C354.854 243.899 354.299 243.291 353.489 242.586C352.469 241.686 351.757 240.876 351.352 240.156C350.947 239.421 350.744 238.596 350.744 237.681C350.744 236.436 351.059 235.476 351.689 234.801C352.319 234.111 353.234 233.766 354.434 233.766C355.619 233.766 356.512 234.111 357.112 234.801C357.727 235.476 358.034 236.451 358.034 237.726V238.379H355.694V237.569C355.694 237.029 355.589 236.639 355.379 236.399C355.169 236.144 354.862 236.016 354.457 236.016C353.632 236.016 353.219 236.519 353.219 237.524C353.219 238.094 353.369 238.626 353.669 239.121C353.984 239.616 354.547 240.216 355.357 240.921C356.392 241.821 357.104 242.639 357.494 243.374C357.884 244.109 358.079 244.971 358.079 245.961C358.079 247.251 357.757 248.241 357.112 248.931C356.482 249.621 355.559 249.966 354.344 249.966ZM359.498 233.991H361.973V249.741H359.498V233.991ZM367.337 249.966C366.137 249.966 365.222 249.629 364.592 248.954C363.962 248.264 363.647 247.281 363.647 246.006V237.726C363.647 236.451 363.962 235.476 364.592 234.801C365.222 234.111 366.137 233.766 367.337 233.766C368.537 233.766 369.452 234.111 370.082 234.801C370.712 235.476 371.027 236.451 371.027 237.726V239.076H368.687V237.569C368.687 236.534 368.26 236.016 367.405 236.016C366.55 236.016 366.122 236.534 366.122 237.569V246.186C366.122 247.206 366.55 247.716 367.405 247.716C368.26 247.716 368.687 247.206 368.687 246.186V243.104H367.45V240.854H371.027V246.006C371.027 247.281 370.712 248.264 370.082 248.954C369.452 249.629 368.537 249.966 367.337 249.966ZM372.616 233.991H375.721L378.129 243.419H378.174V233.991H380.379V249.741H377.836L374.866 238.244H374.821V249.741H372.616V233.991ZM384.131 233.991H387.483L390.048 249.741H387.573L387.123 246.614V246.659H384.311L383.861 249.741H381.566L384.131 233.991ZM386.831 244.521L385.728 236.736H385.683L384.603 244.521H386.831ZM392.151 236.241H389.564V233.991H397.214V236.241H394.626V249.741H392.151V236.241ZM402.012 249.966C400.812 249.966 399.897 249.629 399.267 248.954C398.637 248.264 398.322 247.281 398.322 246.006V233.991H400.797V246.186C400.797 246.726 400.902 247.116 401.112 247.356C401.337 247.596 401.652 247.716 402.057 247.716C402.462 247.716 402.77 247.596 402.98 247.356C403.205 247.116 403.317 246.726 403.317 246.186V233.991H405.702V246.006C405.702 247.281 405.387 248.264 404.757 248.954C404.127 249.629 403.212 249.966 402.012 249.966ZM407.465 233.991H411.132C412.407 233.991 413.337 234.291 413.922 234.891C414.507 235.476 414.8 236.384 414.8 237.614V238.581C414.8 240.216 414.26 241.251 413.18 241.686V241.731C413.78 241.911 414.2 242.279 414.44 242.834C414.695 243.389 414.822 244.131 414.822 245.061V247.829C414.822 248.279 414.837 248.646 414.867 248.931C414.897 249.201 414.972 249.471 415.092 249.741H412.572C412.482 249.486 412.422 249.246 412.392 249.021C412.362 248.796 412.347 248.391 412.347 247.806V244.926C412.347 244.206 412.227 243.704 411.987 243.419C411.762 243.134 411.365 242.991 410.795 242.991H409.94V249.741H407.465V233.991ZM410.84 240.741C411.335 240.741 411.702 240.614 411.942 240.359C412.197 240.104 412.325 239.676 412.325 239.076V237.861C412.325 237.291 412.22 236.879 412.01 236.624C411.815 236.369 411.5 236.241 411.065 236.241H409.94V240.741H410.84ZM416.539 233.991H423.289V236.241H419.014V240.404H422.412V242.654H419.014V247.491H423.289V249.741H416.539V233.991ZM428.272 248.031C428.272 246.906 428.452 245.946 428.812 245.151C429.172 244.341 429.817 243.449 430.747 242.474C431.662 241.499 432.292 240.666 432.637 239.976C432.997 239.286 433.177 238.566 433.177 237.816C433.177 237.141 433.064 236.676 432.839 236.421C432.629 236.151 432.314 236.016 431.894 236.016C431.039 236.016 430.612 236.534 430.612 237.569V239.256H428.272V237.726C428.272 236.451 428.587 235.476 429.217 234.801C429.847 234.111 430.762 233.766 431.962 233.766C433.162 233.766 434.077 234.111 434.707 234.801C435.337 235.476 435.652 236.451 435.652 237.726C435.652 238.686 435.419 239.624 434.954 240.539C434.504 241.454 433.717 242.504 432.592 243.689C431.857 244.469 431.362 245.106 431.107 245.601C430.852 246.081 430.724 246.599 430.724 247.154V247.491H435.427V249.741H428.272V248.031Z" fill="#333333"/>
<path d="M367.628 264.371H365.556L365.192 267.311H367.18V268.081H365.094L364.772 270.741H364.016L364.338 268.081H361.468L361.132 270.741H360.376L360.698 268.081H358.71V267.311H360.796L361.16 264.371H359.158V263.601H361.258L361.58 260.941H362.35L362.014 263.601H364.898L365.22 260.941H365.976L365.654 263.601H367.628V264.371ZM364.436 267.311L364.8 264.371H361.93L361.552 267.311H364.436ZM376.368 261.837H370.684V265.687H375.752V266.583H370.684V270.741H369.648V260.941H376.368V261.837ZM385.227 261.837H379.543V265.687H384.611V266.583H379.543V270.741H378.507V260.941H385.227V261.837ZM388.403 269.845H394.297V270.741H387.367V260.941H394.087V261.837H388.403V265.323H393.471V266.205H388.403V269.845ZM402.906 265.687C404.166 265.967 404.922 266.793 404.922 268.123C404.922 269.789 403.69 270.741 401.24 270.741H396.732V260.941H400.96C403.144 260.941 404.404 261.865 404.404 263.461C404.404 264.581 403.802 265.323 402.906 265.687ZM400.89 261.795H397.768V265.351H400.89C402.458 265.351 403.368 264.749 403.368 263.573C403.368 262.397 402.458 261.795 400.89 261.795ZM401.226 269.887C402.948 269.887 403.886 269.327 403.886 268.039C403.886 266.765 402.948 266.205 401.226 266.205H397.768V269.887H401.226ZM407.286 270.741V260.941H411.276C414.412 260.941 416.526 262.957 416.526 265.841C416.526 268.725 414.412 270.741 411.276 270.741H407.286ZM408.322 269.845H411.22C413.824 269.845 415.504 268.193 415.504 265.841C415.504 263.489 413.824 261.837 411.22 261.837H408.322V269.845ZM419.889 269.845H425.783V270.741H418.853V260.941H425.573V261.837H419.889V265.323H424.957V266.205H419.889V269.845Z" fill="#333333"/>
<path d="M257.862 233.991H260.337V249.741H257.862V233.991ZM265.678 249.966C264.493 249.966 263.585 249.629 262.955 248.954C262.34 248.279 262.033 247.326 262.033 246.096V237.636C262.033 236.406 262.34 235.454 262.955 234.779C263.585 234.104 264.493 233.766 265.678 233.766C266.863 233.766 267.763 234.104 268.378 234.779C269.008 235.454 269.323 236.406 269.323 237.636V239.301H266.983V237.479C266.983 236.504 266.57 236.016 265.745 236.016C264.92 236.016 264.508 236.504 264.508 237.479V246.276C264.508 247.236 264.92 247.716 265.745 247.716C266.57 247.716 266.983 247.236 266.983 246.276V243.869H269.323V246.096C269.323 247.326 269.008 248.279 268.378 248.954C267.763 249.629 266.863 249.966 265.678 249.966ZM274.425 249.966C273.21 249.966 272.28 249.621 271.635 248.931C270.99 248.241 270.668 247.266 270.668 246.006V237.726C270.668 236.466 270.99 235.491 271.635 234.801C272.28 234.111 273.21 233.766 274.425 233.766C275.64 233.766 276.57 234.111 277.215 234.801C277.86 235.491 278.183 236.466 278.183 237.726V246.006C278.183 247.266 277.86 248.241 277.215 248.931C276.57 249.621 275.64 249.966 274.425 249.966ZM274.425 247.716C275.28 247.716 275.708 247.199 275.708 246.164V237.569C275.708 236.534 275.28 236.016 274.425 236.016C273.57 236.016 273.143 236.534 273.143 237.569V246.164C273.143 247.199 273.57 247.716 274.425 247.716ZM279.856 233.991H282.961L285.369 243.419H285.414V233.991H287.619V249.741H285.076L282.106 238.244H282.061V249.741H279.856V233.991ZM293.017 248.031C293.017 246.906 293.197 245.946 293.557 245.151C293.917 244.341 294.562 243.449 295.492 242.474C296.407 241.499 297.037 240.666 297.382 239.976C297.742 239.286 297.922 238.566 297.922 237.816C297.922 237.141 297.809 236.676 297.584 236.421C297.374 236.151 297.059 236.016 296.639 236.016C295.784 236.016 295.357 236.534 295.357 237.569V239.256H293.017V237.726C293.017 236.451 293.332 235.476 293.962 234.801C294.592 234.111 295.507 233.766 296.707 233.766C297.907 233.766 298.822 234.111 299.452 234.801C300.082 235.476 300.397 236.451 300.397 237.726C300.397 238.686 300.164 239.624 299.699 240.539C299.249 241.454 298.462 242.504 297.337 243.689C296.602 244.469 296.107 245.106 295.852 245.601C295.597 246.081 295.469 246.599 295.469 247.154V247.491H300.172V249.741H293.017V248.031Z" fill="white"/>
<path d="M257.263 264.371H255.191L254.827 267.311H256.815V268.081H254.729L254.407 270.741H253.651L253.973 268.081H251.103L250.767 270.741H250.011L250.333 268.081H248.345V267.311H250.431L250.795 264.371H248.793V263.601H250.893L251.215 260.941H251.985L251.649 263.601H254.533L254.855 260.941H255.611L255.289 263.601H257.263V264.371ZM254.071 267.311L254.435 264.371H251.565L251.187 267.311H254.071ZM264.029 265.603C265.261 266.009 265.947 266.849 265.947 268.011C265.947 269.747 264.477 270.825 262.139 270.825C259.787 270.825 258.359 269.747 258.359 268.011C258.359 266.835 259.031 266.009 260.249 265.603C259.255 265.211 258.709 264.469 258.709 263.447C258.709 261.851 260.067 260.857 262.139 260.857C264.211 260.857 265.597 261.851 265.597 263.447C265.597 264.469 265.037 265.211 264.029 265.603ZM259.717 263.475C259.717 264.553 260.613 265.239 262.139 265.239C263.665 265.239 264.575 264.553 264.575 263.489C264.575 262.383 263.609 261.711 262.139 261.711C260.655 261.711 259.717 262.383 259.717 263.475ZM262.139 269.971C263.875 269.971 264.911 269.215 264.911 267.997C264.911 266.793 263.875 266.037 262.139 266.037C260.403 266.037 259.381 266.793 259.381 267.997C259.381 269.215 260.403 269.971 262.139 269.971ZM266.741 260.941H270.059V270.741H269.051V261.837H266.741V260.941ZM279.444 265.687C280.704 265.967 281.46 266.793 281.46 268.123C281.46 269.789 280.228 270.741 277.778 270.741H273.27V260.941H277.498C279.682 260.941 280.942 261.865 280.942 263.461C280.942 264.581 280.34 265.323 279.444 265.687ZM277.428 261.795H274.306V265.351H277.428C278.996 265.351 279.906 264.749 279.906 263.573C279.906 262.397 278.996 261.795 277.428 261.795ZM277.764 269.887C279.486 269.887 280.424 269.327 280.424 268.039C280.424 266.765 279.486 266.205 277.764 266.205H274.306V269.887H277.764ZM284.258 269.845H289.648V270.741H282.774V270.027L286.848 266.037C287.954 264.945 288.164 264.287 288.164 263.615C288.164 262.481 287.366 261.781 285.868 261.781C284.72 261.781 283.838 262.131 283.194 262.873L282.48 262.257C283.236 261.361 284.454 260.857 285.952 260.857C287.94 260.857 289.2 261.865 289.2 263.503C289.2 264.441 288.906 265.281 287.59 266.569L284.258 269.845ZM298.501 261.837H292.817V265.687H297.885V266.583H292.817V270.741H291.781V260.941H298.501V261.837ZM300.641 270.741V260.941H304.631C307.767 260.941 309.881 262.957 309.881 265.841C309.881 268.725 307.767 270.741 304.631 270.741H300.641ZM301.677 269.845H304.575C307.179 269.845 308.859 268.193 308.859 265.841C308.859 263.489 307.179 261.837 304.575 261.837H301.677V269.845Z" fill="white"/>
</svg>
