<svg width="166" height="37" viewBox="0 0 166 37" fill="none" xmlns="http://www.w3.org/2000/svg">
<path d="M154.608 6.19811H148.949V1.27734H165.68V6.19811H160.021V26.7227H154.608V6.19811Z" fill="black"/>
<path d="M122.488 1.27734H129.278L134.543 21.8953H134.642V1.27734H139.464V35.7227H133.904L127.408 10.5776H127.31V35.7227H122.488V1.27734Z" fill="black"/>
<path d="M97.7222 7.69141H100.055H103.135V16.6833H110.565V21.27H103.135V31.1313H112.484V35.718H97.7222V7.69141Z" fill="black"/>
<path d="M79.623 36.2146C77.0314 36.2146 75.0467 35.4765 73.6689 34.0003C72.3239 32.5241 71.6514 30.441 71.6514 27.7509V9.24887C71.6514 6.55885 72.3239 4.47573 73.6689 2.9995C75.0467 1.52327 77.0314 0.785156 79.623 0.785156C82.2146 0.785156 84.1829 1.52327 85.5279 2.9995C86.9057 4.47573 87.5946 6.55885 87.5946 9.24887V12.8902H82.477V8.90442C82.477 6.77209 81.5749 5.70592 79.7706 5.70592C77.9664 5.70592 77.0642 6.77209 77.0642 8.90442V28.1446C77.0642 30.2441 77.9664 31.2939 79.7706 31.2939C81.5749 31.2939 82.477 30.2441 82.477 28.1446V22.8794H87.5946V27.7509C87.5946 30.441 86.9057 32.5241 85.5279 34.0003C84.1829 35.4765 82.2146 36.2146 79.623 36.2146Z" fill="black"/>
<path d="M44.1069 1.27734H50.8976L56.1628 21.8953H56.2612V1.27734H61.0836V35.7227H55.5231L49.0277 10.5776H48.9293V35.7227H44.1069V1.27734Z" fill="black"/>
<path d="M28.0554 10.5352H35.0554V35.7227H28.0554V10.5352Z" fill="black"/>
<path d="M0.645996 1.27734H6.10804L9.65099 27.9971H9.74941L13.2924 1.27734H18.2623L13.0463 35.7227H5.862L0.645996 1.27734Z" fill="black"/>
<circle cx="31.5554" cy="5.22266" r="3.5" fill="#145174"/>
<path d="M97.7222 0.785156H110.672V5.78516H97.7222V0.785156Z" fill="#676827"/>
<path d="M154.555 27.7227H160.055V35.7227H154.555V27.7227Z" fill="#155A32"/>
</svg>
