<svg width="128" height="229" viewBox="0 0 128 229" fill="none" xmlns="http://www.w3.org/2000/svg">
<path d="M64 229C43.3054 229 27.4651 224.123 16.479 214.369C5.49301 204.616 0 190.833 0 173.022V55.9778C0 38.1667 5.49301 24.3843 16.479 14.6306C27.4651 4.87685 43.3054 0 64 0C84.6946 0 100.535 4.87685 111.521 14.6306C122.507 24.3843 128 38.1667 128 55.9778V173.022C128 190.833 122.507 204.616 111.521 214.369C100.535 224.123 84.6946 229 64 229ZM64 197.194C78.5629 197.194 85.8443 189.879 85.8443 175.249V53.7514C85.8443 39.1208 78.5629 31.8056 64 31.8056C49.4371 31.8056 42.1557 39.1208 42.1557 53.7514V175.249C42.1557 189.879 49.4371 197.194 64 197.194Z" fill="#004B80" fill-opacity="0.04"/>
</svg>
