<svg width="729" height="335" viewBox="0 0 729 335" fill="none" xmlns="http://www.w3.org/2000/svg">
<rect x="139.206" y="24.7274" width="100.741" height="42.1281" rx="3" fill="#676827"/>
<path d="M161.143 40.5814C162.599 40.5814 163.766 40.922 164.643 41.6034C165.53 42.2754 165.973 43.526 165.973 45.3554C165.973 47.138 165.53 48.398 164.643 49.1354C163.766 49.8634 162.697 50.2274 161.437 50.2274H159.127V40.5814H161.143ZM160.457 41.6454V49.1774H161.535C162.431 49.1774 163.159 48.902 163.719 48.3514C164.279 47.8007 164.559 46.802 164.559 45.3554C164.559 44.338 164.414 43.5587 164.125 43.0174C163.836 42.4667 163.467 42.1027 163.019 41.9254C162.571 41.7387 162.044 41.6454 161.437 41.6454H160.457ZM170.685 42.6814C171.721 42.6814 172.523 43.0267 173.093 43.7174C173.671 44.408 173.961 45.346 173.961 46.5314C173.961 47.2967 173.83 47.9734 173.569 48.5614C173.307 49.14 172.929 49.5927 172.435 49.9194C171.94 50.2367 171.352 50.3954 170.671 50.3954C169.635 50.3954 168.827 50.05 168.249 49.3594C167.67 48.6687 167.381 47.7307 167.381 46.5454C167.381 45.78 167.511 45.108 167.773 44.5294C168.034 43.9414 168.412 43.4887 168.907 43.1714C169.401 42.8447 169.994 42.6814 170.685 42.6814ZM170.685 43.7174C169.406 43.7174 168.767 44.66 168.767 46.5454C168.767 48.4214 169.401 49.3594 170.671 49.3594C171.94 49.3594 172.575 48.4167 172.575 46.5314C172.575 44.6554 171.945 43.7174 170.685 43.7174ZM178.623 42.6814C179.061 42.6814 179.463 42.7467 179.827 42.8774C180.191 42.9987 180.541 43.1994 180.877 43.4794L180.261 44.2914C179.999 44.1047 179.743 43.9694 179.491 43.8854C179.248 43.792 178.977 43.7454 178.679 43.7454C178.081 43.7454 177.615 43.9834 177.279 44.4594C176.952 44.9354 176.789 45.64 176.789 46.5734C176.789 47.5067 176.952 48.1974 177.279 48.6454C177.605 49.084 178.072 49.3034 178.679 49.3034C178.968 49.3034 179.234 49.2614 179.477 49.1774C179.719 49.084 179.99 48.9394 180.289 48.7434L180.877 49.5834C180.205 50.1247 179.453 50.3954 178.623 50.3954C177.624 50.3954 176.835 50.0594 176.257 49.3874C175.687 48.7154 175.403 47.7867 175.403 46.6014C175.403 45.8174 175.533 45.1314 175.795 44.5434C176.056 43.9554 176.425 43.498 176.901 43.1714C177.386 42.8447 177.96 42.6814 178.623 42.6814ZM187.817 50.2274H186.711L186.613 49.0794C186.333 49.5367 186.011 49.8727 185.647 50.0874C185.283 50.2927 184.84 50.3954 184.317 50.3954C183.673 50.3954 183.169 50.1994 182.805 49.8074C182.441 49.4154 182.259 48.86 182.259 48.1414V42.8494H183.547V48.0014C183.547 48.5054 183.636 48.8647 183.813 49.0794C183.991 49.2847 184.28 49.3874 184.681 49.3874C185.4 49.3874 186.016 48.9627 186.529 48.1134V42.8494H187.817V50.2274ZM197.73 42.6814C198.336 42.6814 198.822 42.8867 199.186 43.2974C199.55 43.6987 199.732 44.2447 199.732 44.9354V50.2274H198.444V45.1174C198.444 44.1654 198.098 43.6894 197.408 43.6894C197.044 43.6894 196.736 43.7967 196.484 44.0114C196.232 44.2167 195.961 44.5434 195.672 44.9914V50.2274H194.384V45.1174C194.384 44.1654 194.038 43.6894 193.348 43.6894C192.974 43.6894 192.662 43.7967 192.41 44.0114C192.158 44.226 191.892 44.5527 191.612 44.9914V50.2274H190.324V42.8494H191.43L191.542 43.9274C192.092 43.0967 192.802 42.6814 193.67 42.6814C194.127 42.6814 194.514 42.798 194.832 43.0314C195.158 43.2647 195.392 43.5914 195.532 44.0114C195.821 43.582 196.138 43.2554 196.484 43.0314C196.838 42.798 197.254 42.6814 197.73 42.6814ZM207.746 46.3214C207.746 46.536 207.736 46.7554 207.718 46.9794H203.014C203.07 47.7914 203.275 48.3887 203.63 48.7714C203.984 49.154 204.442 49.3454 205.002 49.3454C205.356 49.3454 205.683 49.294 205.982 49.1914C206.28 49.0887 206.593 48.9254 206.92 48.7014L207.48 49.4714C206.696 50.0874 205.837 50.3954 204.904 50.3954C203.877 50.3954 203.074 50.0594 202.496 49.3874C201.926 48.7154 201.642 47.7914 201.642 46.6154C201.642 45.85 201.763 45.1734 202.006 44.5854C202.258 43.988 202.612 43.5214 203.07 43.1854C203.536 42.8494 204.082 42.6814 204.708 42.6814C205.688 42.6814 206.439 43.0034 206.962 43.6474C207.484 44.2914 207.746 45.1827 207.746 46.3214ZM206.472 45.9434C206.472 45.2154 206.327 44.66 206.038 44.2774C205.748 43.8947 205.314 43.7034 204.736 43.7034C203.681 43.7034 203.107 44.478 203.014 46.0274H206.472V45.9434ZM213.121 42.6814C213.793 42.6814 214.315 42.882 214.689 43.2834C215.071 43.6847 215.263 44.2354 215.263 44.9354V50.2274H213.975V45.1174C213.975 44.5947 213.877 44.226 213.681 44.0114C213.485 43.7967 213.195 43.6894 212.813 43.6894C212.421 43.6894 212.075 43.8014 211.777 44.0254C211.478 44.2494 211.198 44.5714 210.937 44.9914V50.2274H209.649V42.8494H210.755L210.867 43.9414C211.128 43.5494 211.45 43.2414 211.833 43.0174C212.225 42.7934 212.654 42.6814 213.121 42.6814ZM221.422 49.8914C220.936 50.2274 220.386 50.3954 219.77 50.3954C219.144 50.3954 218.654 50.218 218.3 49.8634C217.954 49.4994 217.782 48.9767 217.782 48.2954V43.8434H216.494V42.8494H217.782V41.1834L219.07 41.0294V42.8494H220.82L220.68 43.8434H219.07V48.2394C219.07 48.622 219.135 48.902 219.266 49.0794C219.406 49.2474 219.634 49.3314 219.952 49.3314C220.241 49.3314 220.568 49.2334 220.932 49.0374L221.422 49.8914Z" fill="white"/>
<rect x="139.206" y="133.711" width="100.741" height="43.044" rx="3" fill="#676827"/>
<path d="M171.367 160.211V150.565H176.491L176.337 151.629H172.697V154.919H175.847V155.969H172.697V160.211H171.367ZM180.299 152.665C181.335 152.665 182.138 153.01 182.707 153.701C183.286 154.392 183.575 155.33 183.575 156.515C183.575 157.28 183.445 157.957 183.183 158.545C182.922 159.124 182.544 159.576 182.049 159.903C181.555 160.22 180.967 160.379 180.285 160.379C179.249 160.379 178.442 160.034 177.863 159.343C177.285 158.652 176.995 157.714 176.995 156.529C176.995 155.764 177.126 155.092 177.387 154.513C177.649 153.925 178.027 153.472 178.521 153.155C179.016 152.828 179.609 152.665 180.299 152.665ZM180.299 153.701C179.021 153.701 178.381 154.644 178.381 156.529C178.381 158.405 179.016 159.343 180.285 159.343C181.555 159.343 182.189 158.4 182.189 156.515C182.189 154.639 181.559 153.701 180.299 153.701ZM187.019 160.379C186.543 160.379 186.165 160.239 185.885 159.959C185.614 159.67 185.479 159.268 185.479 158.755V149.865L186.767 149.711V158.727C186.767 158.932 186.8 159.082 186.865 159.175C186.94 159.268 187.061 159.315 187.229 159.315C187.406 159.315 187.565 159.287 187.705 159.231L188.041 160.127C187.733 160.295 187.392 160.379 187.019 160.379ZM195.14 149.865V160.211H194.006L193.88 159.189C193.638 159.562 193.334 159.856 192.97 160.071C192.606 160.276 192.2 160.379 191.752 160.379C190.875 160.379 190.189 160.034 189.694 159.343C189.209 158.652 188.966 157.724 188.966 156.557C188.966 155.801 189.083 155.129 189.316 154.541C189.55 153.953 189.886 153.496 190.324 153.169C190.763 152.833 191.276 152.665 191.864 152.665C192.62 152.665 193.283 152.968 193.852 153.575V149.711L195.14 149.865ZM192.032 159.357C192.424 159.357 192.76 159.268 193.04 159.091C193.32 158.904 193.591 158.629 193.852 158.265V154.653C193.61 154.336 193.348 154.098 193.068 153.939C192.798 153.771 192.49 153.687 192.144 153.687C191.575 153.687 191.132 153.925 190.814 154.401C190.506 154.877 190.352 155.586 190.352 156.529C190.352 157.481 190.497 158.19 190.786 158.657C191.076 159.124 191.491 159.357 192.032 159.357ZM203.213 156.305C203.213 156.52 203.204 156.739 203.185 156.963H198.481C198.537 157.775 198.743 158.372 199.097 158.755C199.452 159.138 199.909 159.329 200.469 159.329C200.824 159.329 201.151 159.278 201.449 159.175C201.748 159.072 202.061 158.909 202.387 158.685L202.947 159.455C202.163 160.071 201.305 160.379 200.371 160.379C199.345 160.379 198.542 160.043 197.963 159.371C197.394 158.699 197.109 157.775 197.109 156.599C197.109 155.834 197.231 155.157 197.473 154.569C197.725 153.972 198.08 153.505 198.537 153.169C199.004 152.833 199.55 152.665 200.175 152.665C201.155 152.665 201.907 152.987 202.429 153.631C202.952 154.275 203.213 155.166 203.213 156.305ZM201.939 155.927C201.939 155.199 201.795 154.644 201.505 154.261C201.216 153.878 200.782 153.687 200.203 153.687C199.149 153.687 198.575 154.462 198.481 156.011H201.939V155.927ZM208.322 152.665C208.584 152.665 208.826 152.693 209.05 152.749L208.812 154.009C208.588 153.953 208.374 153.925 208.168 153.925C207.711 153.925 207.342 154.093 207.062 154.429C206.782 154.765 206.563 155.288 206.404 155.997V160.211H205.116V152.833H206.222L206.348 154.331C206.544 153.78 206.81 153.365 207.146 153.085C207.482 152.805 207.874 152.665 208.322 152.665Z" fill="white"/>
<circle cx="36.1753" cy="155.233" r="36.1753" fill="#155A32"/>
<path d="M21.2366 139.244C21.8153 139.244 22.3006 139.318 22.6926 139.468C23.094 139.617 23.5 139.86 23.9106 140.196L23.1826 141.05C22.5946 140.574 21.974 140.336 21.3206 140.336C20.518 140.336 19.8693 140.644 19.3746 141.26C18.8893 141.876 18.6466 142.865 18.6466 144.228C18.6466 145.553 18.8893 146.533 19.3746 147.168C19.86 147.793 20.504 148.106 21.3066 148.106C21.7173 148.106 22.0766 148.036 22.3846 147.896C22.6926 147.756 23.0193 147.56 23.3646 147.308L24.0226 148.148C23.724 148.456 23.3413 148.712 22.8746 148.918C22.408 149.123 21.8713 149.226 21.2646 149.226C20.4806 149.226 19.7806 149.034 19.1646 148.652C18.558 148.26 18.082 147.69 17.7366 146.944C17.4006 146.188 17.2326 145.282 17.2326 144.228C17.2326 143.173 17.41 142.272 17.7646 141.526C18.1193 140.77 18.6 140.2 19.2066 139.818C19.8133 139.435 20.49 139.244 21.2366 139.244ZM28.4735 141.512C28.7349 141.512 28.9775 141.54 29.2015 141.596L28.9635 142.856C28.7395 142.8 28.5249 142.772 28.3195 142.772C27.8622 142.772 27.4935 142.94 27.2135 143.276C26.9335 143.612 26.7142 144.134 26.5555 144.844V149.058H25.2675V141.68H26.3735L26.4995 143.178C26.6955 142.627 26.9615 142.212 27.2975 141.932C27.6335 141.652 28.0255 141.512 28.4735 141.512ZM35.6621 145.152C35.6621 145.366 35.6528 145.586 35.6341 145.81H30.9301C30.9861 146.622 31.1914 147.219 31.5461 147.602C31.9008 147.984 32.3581 148.176 32.9181 148.176C33.2728 148.176 33.5994 148.124 33.8981 148.022C34.1968 147.919 34.5094 147.756 34.8361 147.532L35.3961 148.302C34.6121 148.918 33.7534 149.226 32.8201 149.226C31.7934 149.226 30.9908 148.89 30.4121 148.218C29.8428 147.546 29.5581 146.622 29.5581 145.446C29.5581 144.68 29.6794 144.004 29.9221 143.416C30.1741 142.818 30.5288 142.352 30.9861 142.016C31.4528 141.68 31.9988 141.512 32.6241 141.512C33.6041 141.512 34.3554 141.834 34.8781 142.478C35.4008 143.122 35.6621 144.013 35.6621 145.152ZM34.3881 144.774C34.3881 144.046 34.2434 143.49 33.9541 143.108C33.6648 142.725 33.2308 142.534 32.6521 142.534C31.5974 142.534 31.0234 143.308 30.9301 144.858H34.3881V144.774ZM42.3983 147.336C42.3983 147.634 42.4496 147.858 42.5523 148.008C42.655 148.148 42.809 148.255 43.0143 148.33L42.7203 149.226C42.3376 149.179 42.0296 149.072 41.7963 148.904C41.563 148.736 41.3903 148.474 41.2783 148.12C40.7836 148.857 40.051 149.226 39.0803 149.226C38.3523 149.226 37.7783 149.02 37.3583 148.61C36.9383 148.199 36.7283 147.662 36.7283 147C36.7283 146.216 37.0083 145.614 37.5683 145.194C38.1376 144.774 38.9403 144.564 39.9763 144.564H41.1103V144.018C41.1103 143.495 40.9843 143.122 40.7323 142.898C40.4803 142.674 40.093 142.562 39.5703 142.562C39.029 142.562 38.3663 142.692 37.5823 142.954L37.2603 142.016C38.175 141.68 39.0243 141.512 39.8083 141.512C40.6763 141.512 41.325 141.726 41.7543 142.156C42.1836 142.576 42.3983 143.178 42.3983 143.962V147.336ZM39.3743 148.26C40.1116 148.26 40.6903 147.877 41.1103 147.112V145.418H40.1443C38.7816 145.418 38.1003 145.922 38.1003 146.93C38.1003 147.368 38.2076 147.7 38.4223 147.924C38.637 148.148 38.9543 148.26 39.3743 148.26ZM48.6135 148.722C48.1282 149.058 47.5775 149.226 46.9615 149.226C46.3362 149.226 45.8462 149.048 45.4915 148.694C45.1462 148.33 44.9735 147.807 44.9735 147.126V142.674H43.6855V141.68H44.9735V140.014L46.2615 139.86V141.68H48.0115L47.8715 142.674H46.2615V147.07C46.2615 147.452 46.3269 147.732 46.4575 147.91C46.5975 148.078 46.8262 148.162 47.1435 148.162C47.4329 148.162 47.7595 148.064 48.1235 147.868L48.6135 148.722ZM55.161 145.152C55.161 145.366 55.1517 145.586 55.133 145.81H50.429C50.485 146.622 50.6904 147.219 51.045 147.602C51.3997 147.984 51.857 148.176 52.417 148.176C52.7717 148.176 53.0984 148.124 53.397 148.022C53.6957 147.919 54.0084 147.756 54.335 147.532L54.895 148.302C54.111 148.918 53.2524 149.226 52.319 149.226C51.2924 149.226 50.4897 148.89 49.911 148.218C49.3417 147.546 49.057 146.622 49.057 145.446C49.057 144.68 49.1784 144.004 49.421 143.416C49.673 142.818 50.0277 142.352 50.485 142.016C50.9517 141.68 51.4977 141.512 52.123 141.512C53.103 141.512 53.8544 141.834 54.377 142.478C54.8997 143.122 55.161 144.013 55.161 145.152ZM53.887 144.774C53.887 144.046 53.7424 143.49 53.453 143.108C53.1637 142.725 52.7297 142.534 52.151 142.534C51.0964 142.534 50.5224 143.308 50.429 144.858H53.887V144.774ZM28.1977 162.512C28.8697 162.512 29.3924 162.712 29.7657 163.114C30.1484 163.515 30.3397 164.066 30.3397 164.766V170.058H29.0517V164.948C29.0517 164.425 28.9537 164.056 28.7577 163.842C28.5617 163.627 28.2724 163.52 27.8897 163.52C27.4977 163.52 27.1524 163.632 26.8537 163.856C26.555 164.08 26.275 164.402 26.0137 164.822V170.058H24.7257V162.68H25.8317L25.9437 163.772C26.205 163.38 26.527 163.072 26.9097 162.848C27.3017 162.624 27.731 162.512 28.1977 162.512ZM38.3468 166.152C38.3468 166.366 38.3375 166.586 38.3188 166.81H33.6148C33.6708 167.622 33.8762 168.219 34.2308 168.602C34.5855 168.984 35.0428 169.176 35.6028 169.176C35.9575 169.176 36.2842 169.124 36.5828 169.022C36.8815 168.919 37.1942 168.756 37.5208 168.532L38.0808 169.302C37.2968 169.918 36.4382 170.226 35.5048 170.226C34.4782 170.226 33.6755 169.89 33.0968 169.218C32.5275 168.546 32.2428 167.622 32.2428 166.446C32.2428 165.68 32.3642 165.004 32.6068 164.416C32.8588 163.818 33.2135 163.352 33.6708 163.016C34.1375 162.68 34.6835 162.512 35.3088 162.512C36.2888 162.512 37.0402 162.834 37.5628 163.478C38.0855 164.122 38.3468 165.013 38.3468 166.152ZM37.0728 165.774C37.0728 165.046 36.9282 164.49 36.6388 164.108C36.3495 163.725 35.9155 163.534 35.3368 163.534C34.2822 163.534 33.7082 164.308 33.6148 165.858H37.0728V165.774ZM48.6777 162.68L46.9977 170.058H45.2477L43.9597 163.842L42.6297 170.058H40.9217L39.1997 162.68H40.4877L41.8177 169.162L43.2737 162.68H44.7157L46.1017 169.162L47.4457 162.68H48.6777Z" fill="white"/>
<path d="M34.6753 115.058C34.6753 115.886 35.3469 116.558 36.1753 116.558C37.0037 116.558 37.6753 115.886 37.6753 115.058H34.6753ZM136.267 46.8521C136.853 46.2663 136.853 45.3166 136.267 44.7308L126.721 35.1848C126.135 34.5991 125.185 34.5991 124.599 35.1848C124.014 35.7706 124.014 36.7204 124.599 37.3062L133.085 45.7914L124.599 54.2767C124.014 54.8625 124.014 55.8123 124.599 56.398C125.185 56.9838 126.135 56.9838 126.721 56.398L136.267 46.8521ZM37.6753 115.058V69.7914H34.6753V115.058H37.6753ZM60.1753 47.2914H135.206V44.2914H60.1753V47.2914ZM37.6753 69.7914C37.6753 57.365 47.7489 47.2914 60.1753 47.2914V44.2914C46.092 44.2914 34.6753 55.7082 34.6753 69.7914H37.6753Z" fill="#85E0A3"/>
<rect x="139" y="241" width="101" height="60" rx="6" fill="#676827"/>
<path d="M171.152 255.354V265H169.822V255.354H171.152ZM181.133 257.454C181.74 257.454 182.225 257.659 182.589 258.07C182.953 258.471 183.135 259.017 183.135 259.708V265H181.847V259.89C181.847 258.938 181.502 258.462 180.811 258.462C180.447 258.462 180.139 258.569 179.887 258.784C179.635 258.989 179.364 259.316 179.075 259.764V265H177.787V259.89C177.787 258.938 177.442 258.462 176.751 258.462C176.378 258.462 176.065 258.569 175.813 258.784C175.561 258.999 175.295 259.325 175.015 259.764V265H173.727V257.622H174.833L174.945 258.7C175.496 257.869 176.205 257.454 177.073 257.454C177.53 257.454 177.918 257.571 178.235 257.804C178.562 258.037 178.795 258.364 178.935 258.784C179.224 258.355 179.542 258.028 179.887 257.804C180.242 257.571 180.657 257.454 181.133 257.454ZM188.965 257.454C189.907 257.454 190.598 257.79 191.037 258.462C191.475 259.134 191.695 260.081 191.695 261.304C191.695 262.461 191.443 263.395 190.939 264.104C190.435 264.813 189.721 265.168 188.797 265.168C187.975 265.168 187.331 264.888 186.865 264.328V267.828L185.577 267.982V257.622H186.683L186.781 258.616C187.051 258.243 187.378 257.958 187.761 257.762C188.143 257.557 188.545 257.454 188.965 257.454ZM188.489 264.118C189.702 264.118 190.309 263.18 190.309 261.304C190.309 259.419 189.753 258.476 188.643 258.476C188.279 258.476 187.947 258.583 187.649 258.798C187.35 259.013 187.089 259.288 186.865 259.624V263.222C187.051 263.511 187.285 263.735 187.565 263.894C187.845 264.043 188.153 264.118 188.489 264.118ZM196.507 257.454C197.543 257.454 198.346 257.799 198.915 258.49C199.494 259.181 199.783 260.119 199.783 261.304C199.783 262.069 199.653 262.746 199.391 263.334C199.13 263.913 198.752 264.365 198.257 264.692C197.763 265.009 197.175 265.168 196.493 265.168C195.457 265.168 194.65 264.823 194.071 264.132C193.493 263.441 193.203 262.503 193.203 261.318C193.203 260.553 193.334 259.881 193.595 259.302C193.857 258.714 194.235 258.261 194.729 257.944C195.224 257.617 195.817 257.454 196.507 257.454ZM196.507 258.49C195.229 258.49 194.589 259.433 194.589 261.318C194.589 263.194 195.224 264.132 196.493 264.132C197.763 264.132 198.397 263.189 198.397 261.304C198.397 259.428 197.767 258.49 196.507 258.49ZM204.963 257.454C205.224 257.454 205.467 257.482 205.691 257.538L205.453 258.798C205.229 258.742 205.014 258.714 204.809 258.714C204.352 258.714 203.983 258.882 203.703 259.218C203.423 259.554 203.204 260.077 203.045 260.786V265H201.757V257.622H202.863L202.989 259.12C203.185 258.569 203.451 258.154 203.787 257.874C204.123 257.594 204.515 257.454 204.963 257.454ZM210.727 264.664C210.242 265 209.691 265.168 209.075 265.168C208.45 265.168 207.96 264.991 207.605 264.636C207.26 264.272 207.087 263.749 207.087 263.068V258.616H205.799V257.622H207.087V255.956L208.375 255.802V257.622H210.125L209.985 258.616H208.375V263.012C208.375 263.395 208.441 263.675 208.571 263.852C208.711 264.02 208.94 264.104 209.257 264.104C209.547 264.104 209.873 264.006 210.237 263.81L210.727 264.664ZM165.014 275.654V286H163.88L163.754 284.978C163.511 285.351 163.208 285.645 162.844 285.86C162.48 286.065 162.074 286.168 161.626 286.168C160.748 286.168 160.062 285.823 159.568 285.132C159.082 284.441 158.84 283.513 158.84 282.346C158.84 281.59 158.956 280.918 159.19 280.33C159.423 279.742 159.759 279.285 160.198 278.958C160.636 278.622 161.15 278.454 161.738 278.454C162.494 278.454 163.156 278.757 163.726 279.364V275.5L165.014 275.654ZM161.906 285.146C162.298 285.146 162.634 285.057 162.914 284.88C163.194 284.693 163.464 284.418 163.726 284.054V280.442C163.483 280.125 163.222 279.887 162.942 279.728C162.671 279.56 162.363 279.476 162.018 279.476C161.448 279.476 161.005 279.714 160.688 280.19C160.38 280.666 160.226 281.375 160.226 282.318C160.226 283.27 160.37 283.979 160.66 284.446C160.949 284.913 161.364 285.146 161.906 285.146ZM170.287 278.454C171.323 278.454 172.125 278.799 172.695 279.49C173.273 280.181 173.563 281.119 173.563 282.304C173.563 283.069 173.432 283.746 173.171 284.334C172.909 284.913 172.531 285.365 172.037 285.692C171.542 286.009 170.954 286.168 170.273 286.168C169.237 286.168 168.429 285.823 167.851 285.132C167.272 284.441 166.983 283.503 166.983 282.318C166.983 281.553 167.113 280.881 167.375 280.302C167.636 279.714 168.014 279.261 168.509 278.944C169.003 278.617 169.596 278.454 170.287 278.454ZM170.287 279.49C169.008 279.49 168.369 280.433 168.369 282.318C168.369 284.194 169.003 285.132 170.273 285.132C171.542 285.132 172.177 284.189 172.177 282.304C172.177 280.428 171.547 279.49 170.287 279.49ZM178.225 278.454C178.663 278.454 179.065 278.519 179.429 278.65C179.793 278.771 180.143 278.972 180.479 279.252L179.863 280.064C179.601 279.877 179.345 279.742 179.093 279.658C178.85 279.565 178.579 279.518 178.281 279.518C177.683 279.518 177.217 279.756 176.881 280.232C176.554 280.708 176.391 281.413 176.391 282.346C176.391 283.279 176.554 283.97 176.881 284.418C177.207 284.857 177.674 285.076 178.281 285.076C178.57 285.076 178.836 285.034 179.079 284.95C179.321 284.857 179.592 284.712 179.891 284.516L180.479 285.356C179.807 285.897 179.055 286.168 178.225 286.168C177.226 286.168 176.437 285.832 175.859 285.16C175.289 284.488 175.005 283.559 175.005 282.374C175.005 281.59 175.135 280.904 175.397 280.316C175.658 279.728 176.027 279.271 176.503 278.944C176.988 278.617 177.562 278.454 178.225 278.454ZM187.419 286H186.313L186.215 284.852C185.935 285.309 185.613 285.645 185.249 285.86C184.885 286.065 184.442 286.168 183.919 286.168C183.275 286.168 182.771 285.972 182.407 285.58C182.043 285.188 181.861 284.633 181.861 283.914V278.622H183.149V283.774C183.149 284.278 183.238 284.637 183.415 284.852C183.593 285.057 183.882 285.16 184.283 285.16C185.002 285.16 185.618 284.735 186.131 283.886V278.622H187.419V286ZM197.332 278.454C197.939 278.454 198.424 278.659 198.788 279.07C199.152 279.471 199.334 280.017 199.334 280.708V286H198.046V280.89C198.046 279.938 197.701 279.462 197.01 279.462C196.646 279.462 196.338 279.569 196.086 279.784C195.834 279.989 195.563 280.316 195.274 280.764V286H193.986V280.89C193.986 279.938 193.641 279.462 192.95 279.462C192.577 279.462 192.264 279.569 192.012 279.784C191.76 279.999 191.494 280.325 191.214 280.764V286H189.926V278.622H191.032L191.144 279.7C191.695 278.869 192.404 278.454 193.272 278.454C193.729 278.454 194.117 278.571 194.434 278.804C194.761 279.037 194.994 279.364 195.134 279.784C195.423 279.355 195.741 279.028 196.086 278.804C196.441 278.571 196.856 278.454 197.332 278.454ZM207.348 282.094C207.348 282.309 207.338 282.528 207.32 282.752H202.616C202.672 283.564 202.877 284.161 203.232 284.544C203.586 284.927 204.044 285.118 204.604 285.118C204.958 285.118 205.285 285.067 205.584 284.964C205.882 284.861 206.195 284.698 206.522 284.474L207.082 285.244C206.298 285.86 205.439 286.168 204.506 286.168C203.479 286.168 202.676 285.832 202.098 285.16C201.528 284.488 201.244 283.564 201.244 282.388C201.244 281.623 201.365 280.946 201.608 280.358C201.86 279.761 202.214 279.294 202.672 278.958C203.138 278.622 203.684 278.454 204.31 278.454C205.29 278.454 206.041 278.776 206.564 279.42C207.086 280.064 207.348 280.955 207.348 282.094ZM206.074 281.716C206.074 280.988 205.929 280.433 205.64 280.05C205.35 279.667 204.916 279.476 204.338 279.476C203.283 279.476 202.709 280.251 202.616 281.8H206.074V281.716ZM212.723 278.454C213.395 278.454 213.917 278.655 214.291 279.056C214.673 279.457 214.865 280.008 214.865 280.708V286H213.577V280.89C213.577 280.367 213.479 279.999 213.283 279.784C213.087 279.569 212.797 279.462 212.415 279.462C212.023 279.462 211.677 279.574 211.379 279.798C211.08 280.022 210.8 280.344 210.539 280.764V286H209.251V278.622H210.357L210.469 279.714C210.73 279.322 211.052 279.014 211.435 278.79C211.827 278.566 212.256 278.454 212.723 278.454ZM221.024 285.664C220.538 286 219.988 286.168 219.372 286.168C218.746 286.168 218.256 285.991 217.902 285.636C217.556 285.272 217.384 284.749 217.384 284.068V279.616H216.096V278.622H217.384V276.956L218.672 276.802V278.622H220.422L220.282 279.616H218.672V284.012C218.672 284.395 218.737 284.675 218.868 284.852C219.008 285.02 219.236 285.104 219.554 285.104C219.843 285.104 220.17 285.006 220.534 284.81L221.024 285.664Z" fill="white"/>
<rect x="304.055" y="191.408" width="100.741" height="62.2764" rx="6" fill="#676827"/>
<path d="M322.404 216.408V206.762H327.528L327.374 207.826H323.734V211.116H326.884V212.166H323.734V216.408H322.404ZM332.051 208.862C332.312 208.862 332.555 208.89 332.779 208.946L332.541 210.206C332.317 210.15 332.102 210.122 331.897 210.122C331.439 210.122 331.071 210.29 330.791 210.626C330.511 210.962 330.291 211.485 330.133 212.194V216.408H328.845V209.03H329.951L330.077 210.528C330.273 209.978 330.539 209.562 330.875 209.282C331.211 209.002 331.603 208.862 332.051 208.862ZM336.719 208.862C337.755 208.862 338.558 209.208 339.127 209.898C339.706 210.589 339.995 211.527 339.995 212.712C339.995 213.478 339.865 214.154 339.603 214.742C339.342 215.321 338.964 215.774 338.469 216.1C337.975 216.418 337.387 216.576 336.705 216.576C335.669 216.576 334.862 216.231 334.283 215.54C333.705 214.85 333.415 213.912 333.415 212.726C333.415 211.961 333.546 211.289 333.807 210.71C334.069 210.122 334.447 209.67 334.941 209.352C335.436 209.026 336.029 208.862 336.719 208.862ZM336.719 209.898C335.441 209.898 334.801 210.841 334.801 212.726C334.801 214.602 335.436 215.54 336.705 215.54C337.975 215.54 338.609 214.598 338.609 212.712C338.609 210.836 337.979 209.898 336.719 209.898ZM349.655 208.862C350.262 208.862 350.747 209.068 351.111 209.478C351.475 209.88 351.657 210.426 351.657 211.116V216.408H350.369V211.298C350.369 210.346 350.024 209.87 349.333 209.87C348.969 209.87 348.661 209.978 348.409 210.192C348.157 210.398 347.886 210.724 347.597 211.172V216.408H346.309V211.298C346.309 210.346 345.964 209.87 345.273 209.87C344.9 209.87 344.587 209.978 344.335 210.192C344.083 210.407 343.817 210.734 343.537 211.172V216.408H342.249V209.03H343.355L343.467 210.108C344.018 209.278 344.727 208.862 345.595 208.862C346.052 208.862 346.44 208.979 346.757 209.212C347.084 209.446 347.317 209.772 347.457 210.192C347.746 209.763 348.064 209.436 348.409 209.212C348.764 208.979 349.179 208.862 349.655 208.862ZM359.68 216.576C359.204 216.576 358.826 216.436 358.546 216.156C358.275 215.867 358.14 215.466 358.14 214.952V206.062L359.428 205.908V214.924C359.428 215.13 359.461 215.279 359.526 215.372C359.601 215.466 359.722 215.512 359.89 215.512C360.067 215.512 360.226 215.484 360.366 215.428L360.702 216.324C360.394 216.492 360.053 216.576 359.68 216.576ZM365.141 208.862C366.177 208.862 366.98 209.208 367.549 209.898C368.128 210.589 368.417 211.527 368.417 212.712C368.417 213.478 368.287 214.154 368.025 214.742C367.764 215.321 367.386 215.774 366.891 216.1C366.397 216.418 365.809 216.576 365.127 216.576C364.091 216.576 363.284 216.231 362.705 215.54C362.127 214.85 361.837 213.912 361.837 212.726C361.837 211.961 361.968 211.289 362.229 210.71C362.491 210.122 362.869 209.67 363.363 209.352C363.858 209.026 364.451 208.862 365.141 208.862ZM365.141 209.898C363.863 209.898 363.223 210.841 363.223 212.726C363.223 214.602 363.858 215.54 365.127 215.54C366.397 215.54 367.031 214.598 367.031 212.712C367.031 210.836 366.401 209.898 365.141 209.898ZM373.359 208.862C373.798 208.862 374.199 208.928 374.563 209.058C374.927 209.18 375.277 209.38 375.613 209.66L374.997 210.472C374.736 210.286 374.479 210.15 374.227 210.066C373.984 209.973 373.714 209.926 373.415 209.926C372.818 209.926 372.351 210.164 372.015 210.64C371.688 211.116 371.525 211.821 371.525 212.754C371.525 213.688 371.688 214.378 372.015 214.826C372.342 215.265 372.808 215.484 373.415 215.484C373.704 215.484 373.97 215.442 374.213 215.358C374.456 215.265 374.726 215.12 375.025 214.924L375.613 215.764C374.941 216.306 374.19 216.576 373.359 216.576C372.36 216.576 371.572 216.24 370.993 215.568C370.424 214.896 370.139 213.968 370.139 212.782C370.139 211.998 370.27 211.312 370.531 210.724C370.792 210.136 371.161 209.679 371.637 209.352C372.122 209.026 372.696 208.862 373.359 208.862ZM382.316 214.686C382.316 214.985 382.367 215.209 382.47 215.358C382.573 215.498 382.727 215.606 382.932 215.68L382.638 216.576C382.255 216.53 381.947 216.422 381.714 216.254C381.481 216.086 381.308 215.825 381.196 215.47C380.701 216.208 379.969 216.576 378.998 216.576C378.27 216.576 377.696 216.371 377.276 215.96C376.856 215.55 376.646 215.013 376.646 214.35C376.646 213.566 376.926 212.964 377.486 212.544C378.055 212.124 378.858 211.914 379.894 211.914H381.028V211.368C381.028 210.846 380.902 210.472 380.65 210.248C380.398 210.024 380.011 209.912 379.488 209.912C378.947 209.912 378.284 210.043 377.5 210.304L377.178 209.366C378.093 209.03 378.942 208.862 379.726 208.862C380.594 208.862 381.243 209.077 381.672 209.506C382.101 209.926 382.316 210.528 382.316 211.312V214.686ZM379.292 215.61C380.029 215.61 380.608 215.228 381.028 214.462V212.768H380.062C378.699 212.768 378.018 213.272 378.018 214.28C378.018 214.719 378.125 215.05 378.34 215.274C378.555 215.498 378.872 215.61 379.292 215.61ZM386.42 216.576C385.944 216.576 385.566 216.436 385.286 216.156C385.016 215.867 384.88 215.466 384.88 214.952V206.062L386.168 205.908V214.924C386.168 215.13 386.201 215.279 386.266 215.372C386.341 215.466 386.462 215.512 386.63 215.512C386.808 215.512 386.966 215.484 387.106 215.428L387.442 216.324C387.134 216.492 386.794 216.576 386.42 216.576ZM340.741 227.062V237.408H339.607L339.481 236.386C339.238 236.76 338.935 237.054 338.571 237.268C338.207 237.474 337.801 237.576 337.353 237.576C336.476 237.576 335.79 237.231 335.295 236.54C334.81 235.85 334.567 234.921 334.567 233.754C334.567 232.998 334.684 232.326 334.917 231.738C335.15 231.15 335.486 230.693 335.925 230.366C336.364 230.03 336.877 229.862 337.465 229.862C338.221 229.862 338.884 230.166 339.453 230.772V226.908L340.741 227.062ZM337.633 236.554C338.025 236.554 338.361 236.466 338.641 236.288C338.921 236.102 339.192 235.826 339.453 235.462V231.85C339.21 231.533 338.949 231.295 338.669 231.136C338.398 230.968 338.09 230.884 337.745 230.884C337.176 230.884 336.732 231.122 336.415 231.598C336.107 232.074 335.953 232.784 335.953 233.726C335.953 234.678 336.098 235.388 336.387 235.854C336.676 236.321 337.092 236.554 337.633 236.554ZM349.094 233.502C349.094 233.717 349.085 233.936 349.066 234.16H344.362C344.418 234.972 344.623 235.57 344.978 235.952C345.333 236.335 345.79 236.526 346.35 236.526C346.705 236.526 347.031 236.475 347.33 236.372C347.629 236.27 347.941 236.106 348.268 235.882L348.828 236.652C348.044 237.268 347.185 237.576 346.252 237.576C345.225 237.576 344.423 237.24 343.844 236.568C343.275 235.896 342.99 234.972 342.99 233.796C342.99 233.031 343.111 232.354 343.354 231.766C343.606 231.169 343.961 230.702 344.418 230.366C344.885 230.03 345.431 229.862 346.056 229.862C347.036 229.862 347.787 230.184 348.31 230.828C348.833 231.472 349.094 232.364 349.094 233.502ZM347.82 233.124C347.82 232.396 347.675 231.841 347.386 231.458C347.097 231.076 346.663 230.884 346.084 230.884C345.029 230.884 344.455 231.659 344.362 233.208H347.82V233.124ZM356.64 230.03L354.134 237.408H352.58L350.032 230.03H351.432L353.364 236.26L355.282 230.03H356.64ZM359.527 230.03V237.408H358.239V230.03H359.527ZM358.869 226.488C359.14 226.488 359.359 226.572 359.527 226.74C359.695 226.908 359.779 227.118 359.779 227.37C359.779 227.622 359.695 227.832 359.527 228C359.359 228.159 359.14 228.238 358.869 228.238C358.608 228.238 358.393 228.159 358.225 228C358.057 227.832 357.973 227.622 357.973 227.37C357.973 227.118 358.057 226.908 358.225 226.74C358.393 226.572 358.608 226.488 358.869 226.488ZM365.004 229.862C365.443 229.862 365.844 229.928 366.208 230.058C366.572 230.18 366.922 230.38 367.258 230.66L366.642 231.472C366.381 231.286 366.124 231.15 365.872 231.066C365.629 230.973 365.359 230.926 365.06 230.926C364.463 230.926 363.996 231.164 363.66 231.64C363.333 232.116 363.17 232.821 363.17 233.754C363.17 234.688 363.333 235.378 363.66 235.826C363.987 236.265 364.453 236.484 365.06 236.484C365.349 236.484 365.615 236.442 365.858 236.358C366.101 236.265 366.371 236.12 366.67 235.924L367.258 236.764C366.586 237.306 365.835 237.576 365.004 237.576C364.005 237.576 363.217 237.24 362.638 236.568C362.069 235.896 361.784 234.968 361.784 233.782C361.784 232.998 361.915 232.312 362.176 231.724C362.437 231.136 362.806 230.679 363.282 230.352C363.767 230.026 364.341 229.862 365.004 229.862ZM374.426 233.502C374.426 233.717 374.417 233.936 374.398 234.16H369.694C369.75 234.972 369.956 235.57 370.31 235.952C370.665 236.335 371.122 236.526 371.682 236.526C372.037 236.526 372.364 236.475 372.662 236.372C372.961 236.27 373.274 236.106 373.6 235.882L374.16 236.652C373.376 237.268 372.518 237.576 371.584 237.576C370.558 237.576 369.755 237.24 369.176 236.568C368.607 235.896 368.322 234.972 368.322 233.796C368.322 233.031 368.444 232.354 368.686 231.766C368.938 231.169 369.293 230.702 369.75 230.366C370.217 230.03 370.763 229.862 371.388 229.862C372.368 229.862 373.12 230.184 373.642 230.828C374.165 231.472 374.426 232.364 374.426 233.502ZM373.152 233.124C373.152 232.396 373.008 231.841 372.718 231.458C372.429 231.076 371.995 230.884 371.416 230.884C370.362 230.884 369.788 231.659 369.694 233.208H373.152V233.124Z" fill="white"/>
<rect x="304.055" y="292" width="100.741" height="42.1281" rx="3" fill="#676827"/>
<path d="M321.191 317.5V307.854H326.315L326.161 308.918H322.521V312.208H325.671V313.258H322.521V317.5H321.191ZM330.558 309.954C330.819 309.954 331.062 309.982 331.286 310.038L331.048 311.298C330.824 311.242 330.609 311.214 330.404 311.214C329.946 311.214 329.578 311.382 329.298 311.718C329.018 312.054 328.798 312.577 328.64 313.286V317.5H327.352V310.122H328.458L328.584 311.62C328.78 311.069 329.046 310.654 329.382 310.374C329.718 310.094 330.11 309.954 330.558 309.954ZM334.946 309.954C335.982 309.954 336.785 310.299 337.354 310.99C337.933 311.681 338.222 312.619 338.222 313.804C338.222 314.569 338.092 315.246 337.83 315.834C337.569 316.413 337.191 316.865 336.696 317.192C336.202 317.509 335.614 317.668 334.932 317.668C333.896 317.668 333.089 317.323 332.51 316.632C331.932 315.941 331.642 315.003 331.642 313.818C331.642 313.053 331.773 312.381 332.034 311.802C332.296 311.214 332.674 310.761 333.168 310.444C333.663 310.117 334.256 309.954 334.946 309.954ZM334.946 310.99C333.668 310.99 333.028 311.933 333.028 313.818C333.028 315.694 333.663 316.632 334.932 316.632C336.202 316.632 336.836 315.689 336.836 313.804C336.836 311.928 336.206 310.99 334.946 310.99ZM347.602 309.954C348.209 309.954 348.694 310.159 349.058 310.57C349.422 310.971 349.604 311.517 349.604 312.208V317.5H348.316V312.39C348.316 311.438 347.971 310.962 347.28 310.962C346.916 310.962 346.608 311.069 346.356 311.284C346.104 311.489 345.833 311.816 345.544 312.264V317.5H344.256V312.39C344.256 311.438 343.911 310.962 343.22 310.962C342.847 310.962 342.534 311.069 342.282 311.284C342.03 311.499 341.764 311.825 341.484 312.264V317.5H340.196V310.122H341.302L341.414 311.2C341.965 310.369 342.674 309.954 343.542 309.954C343.999 309.954 344.387 310.071 344.704 310.304C345.031 310.537 345.264 310.864 345.404 311.284C345.693 310.855 346.011 310.528 346.356 310.304C346.711 310.071 347.126 309.954 347.602 309.954ZM358.285 309.954C358.724 309.954 359.125 310.019 359.489 310.15C359.853 310.271 360.203 310.472 360.539 310.752L359.923 311.564C359.662 311.377 359.405 311.242 359.153 311.158C358.91 311.065 358.64 311.018 358.341 311.018C357.744 311.018 357.277 311.256 356.941 311.732C356.614 312.208 356.451 312.913 356.451 313.846C356.451 314.779 356.614 315.47 356.941 315.918C357.268 316.357 357.734 316.576 358.341 316.576C358.63 316.576 358.896 316.534 359.139 316.45C359.382 316.357 359.652 316.212 359.951 316.016L360.539 316.856C359.867 317.397 359.116 317.668 358.285 317.668C357.286 317.668 356.498 317.332 355.919 316.66C355.35 315.988 355.065 315.059 355.065 313.874C355.065 313.09 355.196 312.404 355.457 311.816C355.718 311.228 356.087 310.771 356.563 310.444C357.048 310.117 357.622 309.954 358.285 309.954ZM363.599 317.668C363.123 317.668 362.745 317.528 362.465 317.248C362.194 316.959 362.059 316.557 362.059 316.044V307.154L363.347 307V316.016C363.347 316.221 363.379 316.371 363.445 316.464C363.519 316.557 363.641 316.604 363.809 316.604C363.986 316.604 364.145 316.576 364.285 316.52L364.621 317.416C364.313 317.584 363.972 317.668 363.599 317.668ZM368.78 309.954C369.816 309.954 370.618 310.299 371.188 310.99C371.766 311.681 372.056 312.619 372.056 313.804C372.056 314.569 371.925 315.246 371.664 315.834C371.402 316.413 371.024 316.865 370.53 317.192C370.035 317.509 369.447 317.668 368.766 317.668C367.73 317.668 366.922 317.323 366.344 316.632C365.765 315.941 365.476 315.003 365.476 313.818C365.476 313.053 365.606 312.381 365.868 311.802C366.129 311.214 366.507 310.761 367.002 310.444C367.496 310.117 368.089 309.954 368.78 309.954ZM368.78 310.99C367.501 310.99 366.862 311.933 366.862 313.818C366.862 315.694 367.496 316.632 368.766 316.632C370.035 316.632 370.67 315.689 370.67 313.804C370.67 311.928 370.04 310.99 368.78 310.99ZM379.518 317.5H378.412L378.314 316.352C378.034 316.809 377.712 317.145 377.348 317.36C376.984 317.565 376.54 317.668 376.018 317.668C375.374 317.668 374.87 317.472 374.506 317.08C374.142 316.688 373.96 316.133 373.96 315.414V310.122H375.248V315.274C375.248 315.778 375.336 316.137 375.514 316.352C375.691 316.557 375.98 316.66 376.382 316.66C377.1 316.66 377.716 316.235 378.23 315.386V310.122H379.518V317.5ZM387.736 307.154V317.5H386.602L386.476 316.478C386.233 316.851 385.93 317.145 385.566 317.36C385.202 317.565 384.796 317.668 384.348 317.668C383.471 317.668 382.785 317.323 382.29 316.632C381.805 315.941 381.562 315.013 381.562 313.846C381.562 313.09 381.679 312.418 381.912 311.83C382.145 311.242 382.481 310.785 382.92 310.458C383.359 310.122 383.872 309.954 384.46 309.954C385.216 309.954 385.879 310.257 386.448 310.864V307L387.736 307.154ZM384.628 316.646C385.02 316.646 385.356 316.557 385.636 316.38C385.916 316.193 386.187 315.918 386.448 315.554V311.942C386.205 311.625 385.944 311.387 385.664 311.228C385.393 311.06 385.085 310.976 384.74 310.976C384.171 310.976 383.727 311.214 383.41 311.69C383.102 312.166 382.948 312.875 382.948 313.818C382.948 314.77 383.093 315.479 383.382 315.946C383.671 316.413 384.087 316.646 384.628 316.646Z" fill="white"/>
<path d="M37.6753 195.408C37.6753 194.58 37.0037 193.908 36.1753 193.908C35.3469 193.908 34.6753 194.58 34.6753 195.408H37.6753ZM136.061 272.061C136.646 271.475 136.646 270.525 136.061 269.939L126.515 260.393C125.929 259.808 124.979 259.808 124.393 260.393C123.808 260.979 123.808 261.929 124.393 262.515L132.879 271L124.393 279.485C123.808 280.071 123.808 281.021 124.393 281.607C124.979 282.192 125.929 282.192 126.515 281.607L136.061 272.061ZM34.6753 195.408V247H37.6753V195.408H34.6753ZM60.1753 272.5H135V269.5H60.1753V272.5ZM34.6753 247C34.6753 261.083 46.092 272.5 60.1753 272.5V269.5C47.7489 269.5 37.6753 259.426 37.6753 247H34.6753Z" fill="#85E0A3"/>
<path d="M76.3506 153.733C75.5222 153.733 74.8506 154.405 74.8506 155.233C74.8506 156.061 75.5222 156.733 76.3506 156.733V153.733ZM136.267 156.294C136.853 155.708 136.853 154.758 136.267 154.172L126.721 144.626C126.135 144.041 125.185 144.041 124.6 144.626C124.014 145.212 124.014 146.162 124.6 146.748L133.085 155.233L124.6 163.718C124.014 164.304 124.014 165.254 124.6 165.84C125.185 166.425 126.135 166.425 126.721 165.84L136.267 156.294ZM76.3506 156.733H135.206V153.733H76.3506V156.733Z" fill="#85E0A3"/>
<path d="M244 269.5C243.172 269.5 242.5 270.172 242.5 271C242.5 271.828 243.172 272.5 244 272.5V269.5ZM301.116 223.607C301.702 223.021 301.702 222.072 301.116 221.486L291.57 211.94C290.984 211.354 290.035 211.354 289.449 211.94C288.863 212.526 288.863 213.475 289.449 214.061L297.934 222.547L289.449 231.032C288.863 231.618 288.863 232.567 289.449 233.153C290.035 233.739 290.984 233.739 291.57 233.153L301.116 223.607ZM272.028 246.773H273.528H272.028ZM272.028 246.773H273.528H272.028ZM244 272.5H248.028V269.5H244V272.5ZM296.028 224.047H300.055V221.047H296.028V224.047ZM273.528 246.773C273.528 234.328 283.62 224.047 296.028 224.047V221.047C281.926 221.047 270.528 232.708 270.528 246.773H273.528ZM248.028 272.5C262.129 272.5 273.528 260.838 273.528 246.773H270.528C270.528 259.218 260.436 269.5 248.028 269.5V272.5Z" fill="#85E0A3"/>
<path d="M244 269.5C243.172 269.5 242.5 270.172 242.5 271C242.5 271.828 243.172 272.5 244 272.5V269.5ZM301.116 314.125C301.702 313.539 301.702 312.589 301.116 312.003L291.57 302.457C290.984 301.872 290.035 301.872 289.449 302.457C288.863 303.043 288.863 303.993 289.449 304.579L297.934 313.064L289.449 321.549C288.863 322.135 288.863 323.085 289.449 323.671C290.035 324.256 290.984 324.256 291.57 323.671L301.116 314.125ZM272.028 292.032H273.528H272.028ZM272.028 292.032H273.528H272.028ZM244 272.5H250.996V269.5H244V272.5ZM293.06 314.564H300.055V311.564H293.06V314.564ZM270.528 292.032C270.528 304.476 280.616 314.564 293.06 314.564V311.564C282.273 311.564 273.528 302.819 273.528 292.032H270.528ZM250.996 272.5C261.783 272.5 270.528 281.245 270.528 292.032H273.528C273.528 279.588 263.44 269.5 250.996 269.5V272.5Z" fill="#85E0A3"/>
<rect x="304.055" width="100.741" height="42.1281" rx="3" fill="#676827"/>
<path d="M329.465 20.404C330.127 20.516 330.664 20.7493 331.075 21.104C331.485 21.4587 331.691 22.0093 331.691 22.756C331.691 24.5853 330.417 25.5 327.869 25.5H325.209V15.854H327.491C328.713 15.854 329.647 16.0547 330.291 16.456C330.944 16.8573 331.271 17.4687 331.271 18.29C331.271 18.85 331.093 19.3167 330.739 19.69C330.393 20.0633 329.969 20.3013 329.465 20.404ZM326.539 16.904V19.942H327.995C328.555 19.942 329.012 19.8067 329.367 19.536C329.731 19.2653 329.913 18.8827 329.913 18.388C329.913 17.828 329.721 17.4407 329.339 17.226C328.965 17.0113 328.396 16.904 327.631 16.904H326.539ZM327.869 24.436C328.653 24.436 329.25 24.3193 329.661 24.086C330.081 23.8527 330.291 23.4093 330.291 22.756C330.291 22.1213 330.09 21.664 329.689 21.384C329.287 21.104 328.765 20.964 328.121 20.964H326.539V24.436H327.869ZM334.972 25.668C334.496 25.668 334.118 25.528 333.838 25.248C333.568 24.9587 333.432 24.5573 333.432 24.044V15.154L334.72 15V24.016C334.72 24.2213 334.753 24.3707 334.818 24.464C334.893 24.5573 335.014 24.604 335.182 24.604C335.36 24.604 335.518 24.576 335.658 24.52L335.994 25.416C335.686 25.584 335.346 25.668 334.972 25.668ZM342.351 23.778C342.351 24.0767 342.403 24.3007 342.505 24.45C342.608 24.59 342.762 24.6973 342.967 24.772L342.673 25.668C342.291 25.6213 341.983 25.514 341.749 25.346C341.516 25.178 341.343 24.9167 341.231 24.562C340.737 25.2993 340.004 25.668 339.033 25.668C338.305 25.668 337.731 25.4627 337.311 25.052C336.891 24.6413 336.681 24.1047 336.681 23.442C336.681 22.658 336.961 22.056 337.521 21.636C338.091 21.216 338.893 21.006 339.929 21.006H341.063V20.46C341.063 19.9373 340.937 19.564 340.685 19.34C340.433 19.116 340.046 19.004 339.523 19.004C338.982 19.004 338.319 19.1347 337.535 19.396L337.213 18.458C338.128 18.122 338.977 17.954 339.761 17.954C340.629 17.954 341.278 18.1687 341.707 18.598C342.137 19.018 342.351 19.62 342.351 20.404V23.778ZM339.327 24.702C340.065 24.702 340.643 24.3193 341.063 23.554V21.86H340.097C338.735 21.86 338.053 22.364 338.053 23.372C338.053 23.8107 338.161 24.142 338.375 24.366C338.59 24.59 338.907 24.702 339.327 24.702ZM348.315 17.954C348.987 17.954 349.509 18.1547 349.883 18.556C350.265 18.9573 350.457 19.508 350.457 20.208V25.5H349.169V20.39C349.169 19.8673 349.071 19.4987 348.875 19.284C348.679 19.0693 348.389 18.962 348.007 18.962C347.615 18.962 347.269 19.074 346.971 19.298C346.672 19.522 346.392 19.844 346.131 20.264V25.5H344.843V18.122H345.949L346.061 19.214C346.322 18.822 346.644 18.514 347.027 18.29C347.419 18.066 347.848 17.954 348.315 17.954ZM354.18 15V25.5H352.892V15.154L354.18 15ZM358.422 18.122L355.706 21.384L358.73 25.5H357.19L354.264 21.468L356.98 18.122H358.422ZM369.165 15.154V25.5H368.031L367.905 24.478C367.662 24.8513 367.359 25.1453 366.995 25.36C366.631 25.5653 366.225 25.668 365.777 25.668C364.9 25.668 364.214 25.3227 363.719 24.632C363.234 23.9413 362.991 23.0127 362.991 21.846C362.991 21.09 363.108 20.418 363.341 19.83C363.574 19.242 363.91 18.7847 364.349 18.458C364.788 18.122 365.301 17.954 365.889 17.954C366.645 17.954 367.308 18.2573 367.877 18.864V15L369.165 15.154ZM366.057 24.646C366.449 24.646 366.785 24.5573 367.065 24.38C367.345 24.1933 367.616 23.918 367.877 23.554V19.942C367.634 19.6247 367.373 19.3867 367.093 19.228C366.822 19.06 366.514 18.976 366.169 18.976C365.6 18.976 365.156 19.214 364.839 19.69C364.531 20.166 364.377 20.8753 364.377 21.818C364.377 22.77 364.522 23.4793 364.811 23.946C365.1 24.4127 365.516 24.646 366.057 24.646ZM374.438 17.954C375.474 17.954 376.277 18.2993 376.846 18.99C377.425 19.6807 377.714 20.6187 377.714 21.804C377.714 22.5693 377.583 23.246 377.322 23.834C377.061 24.4127 376.683 24.8653 376.188 25.192C375.693 25.5093 375.105 25.668 374.424 25.668C373.388 25.668 372.581 25.3227 372.002 24.632C371.423 23.9413 371.134 23.0033 371.134 21.818C371.134 21.0527 371.265 20.3807 371.526 19.802C371.787 19.214 372.165 18.7613 372.66 18.444C373.155 18.1173 373.747 17.954 374.438 17.954ZM374.438 18.99C373.159 18.99 372.52 19.9327 372.52 21.818C372.52 23.694 373.155 24.632 374.424 24.632C375.693 24.632 376.328 23.6893 376.328 21.804C376.328 19.928 375.698 18.99 374.438 18.99ZM382.376 17.954C382.815 17.954 383.216 18.0193 383.58 18.15C383.944 18.2713 384.294 18.472 384.63 18.752L384.014 19.564C383.753 19.3773 383.496 19.242 383.244 19.158C383.001 19.0647 382.731 19.018 382.432 19.018C381.835 19.018 381.368 19.256 381.032 19.732C380.705 20.208 380.542 20.9127 380.542 21.846C380.542 22.7793 380.705 23.47 381.032 23.918C381.359 24.3567 381.825 24.576 382.432 24.576C382.721 24.576 382.987 24.534 383.23 24.45C383.473 24.3567 383.743 24.212 384.042 24.016L384.63 24.856C383.958 25.3973 383.207 25.668 382.376 25.668C381.377 25.668 380.589 25.332 380.01 24.66C379.441 23.988 379.156 23.0593 379.156 21.874C379.156 21.09 379.287 20.404 379.548 19.816C379.809 19.228 380.178 18.7707 380.654 18.444C381.139 18.1173 381.713 17.954 382.376 17.954Z" fill="white"/>
<rect x="300" y="70" width="114.479" height="43.9598" rx="3" fill="#676827"/>
<path d="M313.475 96.5V86.854H318.599L318.445 87.918H314.805V91.208H317.955V92.258H314.805V96.5H313.475ZM322.842 88.954C323.104 88.954 323.346 88.982 323.57 89.038L323.332 90.298C323.108 90.242 322.894 90.214 322.688 90.214C322.231 90.214 321.862 90.382 321.582 90.718C321.302 91.054 321.083 91.5767 320.924 92.286V96.5H319.636V89.122H320.742L320.868 90.62C321.064 90.0693 321.33 89.654 321.666 89.374C322.002 89.094 322.394 88.954 322.842 88.954ZM327.231 88.954C328.267 88.954 329.069 89.2993 329.639 89.99C330.217 90.6807 330.507 91.6187 330.507 92.804C330.507 93.5693 330.376 94.246 330.115 94.834C329.853 95.4127 329.475 95.8653 328.981 96.192C328.486 96.5093 327.898 96.668 327.217 96.668C326.181 96.668 325.373 96.3227 324.795 95.632C324.216 94.9413 323.927 94.0033 323.927 92.818C323.927 92.0527 324.057 91.3807 324.319 90.802C324.58 90.214 324.958 89.7613 325.453 89.444C325.947 89.1173 326.54 88.954 327.231 88.954ZM327.231 89.99C325.952 89.99 325.313 90.9327 325.313 92.818C325.313 94.694 325.947 95.632 327.217 95.632C328.486 95.632 329.121 94.6893 329.121 92.804C329.121 90.928 328.491 89.99 327.231 89.99ZM339.887 88.954C340.493 88.954 340.979 89.1593 341.343 89.57C341.707 89.9713 341.889 90.5173 341.889 91.208V96.5H340.601V91.39C340.601 90.438 340.255 89.962 339.565 89.962C339.201 89.962 338.893 90.0693 338.641 90.284C338.389 90.4893 338.118 90.816 337.829 91.264V96.5H336.541V91.39C336.541 90.438 336.195 89.962 335.505 89.962C335.131 89.962 334.819 90.0693 334.567 90.284C334.315 90.4987 334.049 90.8253 333.769 91.264V96.5H332.481V89.122H333.587L333.699 90.2C334.249 89.3693 334.959 88.954 335.827 88.954C336.284 88.954 336.671 89.0707 336.989 89.304C337.315 89.5373 337.549 89.864 337.689 90.284C337.978 89.8547 338.295 89.528 338.641 89.304C338.995 89.0707 339.411 88.954 339.887 88.954ZM351.606 96.164C351.12 96.5 350.57 96.668 349.954 96.668C349.328 96.668 348.838 96.4907 348.484 96.136C348.138 95.772 347.966 95.2493 347.966 94.568V90.116H346.678V89.122H347.966V87.456L349.254 87.302V89.122H351.004L350.864 90.116H349.254V94.512C349.254 94.8947 349.319 95.1747 349.45 95.352C349.59 95.52 349.818 95.604 350.136 95.604C350.425 95.604 350.752 95.506 351.116 95.31L351.606 96.164ZM358.153 92.594C358.153 92.8087 358.144 93.028 358.125 93.252H353.421C353.477 94.064 353.682 94.6613 354.037 95.044C354.392 95.4267 354.849 95.618 355.409 95.618C355.764 95.618 356.09 95.5667 356.389 95.464C356.688 95.3613 357 95.198 357.327 94.974L357.887 95.744C357.103 96.36 356.244 96.668 355.311 96.668C354.284 96.668 353.482 96.332 352.903 95.66C352.334 94.988 352.049 94.064 352.049 92.888C352.049 92.1227 352.17 91.446 352.413 90.858C352.665 90.2607 353.02 89.794 353.477 89.458C353.944 89.122 354.49 88.954 355.115 88.954C356.095 88.954 356.846 89.276 357.369 89.92C357.892 90.564 358.153 91.4553 358.153 92.594ZM356.879 92.216C356.879 91.488 356.734 90.9327 356.445 90.55C356.156 90.1673 355.722 89.976 355.143 89.976C354.088 89.976 353.514 90.7507 353.421 92.3H356.879V92.216ZM367.462 88.954C368.069 88.954 368.554 89.1593 368.918 89.57C369.282 89.9713 369.464 90.5173 369.464 91.208V96.5H368.176V91.39C368.176 90.438 367.831 89.962 367.14 89.962C366.776 89.962 366.468 90.0693 366.216 90.284C365.964 90.4893 365.693 90.816 365.404 91.264V96.5H364.116V91.39C364.116 90.438 363.771 89.962 363.08 89.962C362.707 89.962 362.394 90.0693 362.142 90.284C361.89 90.4987 361.624 90.8253 361.344 91.264V96.5H360.056V89.122H361.162L361.274 90.2C361.825 89.3693 362.534 88.954 363.402 88.954C363.859 88.954 364.247 89.0707 364.564 89.304C364.891 89.5373 365.124 89.864 365.264 90.284C365.553 89.8547 365.871 89.528 366.216 89.304C366.571 89.0707 366.986 88.954 367.462 88.954ZM375.294 88.954C376.237 88.954 376.927 89.29 377.366 89.962C377.805 90.634 378.024 91.5813 378.024 92.804C378.024 93.9613 377.772 94.8947 377.268 95.604C376.764 96.3133 376.05 96.668 375.126 96.668C374.305 96.668 373.661 96.388 373.194 95.828V99.328L371.906 99.482V89.122H373.012L373.11 90.116C373.381 89.7427 373.707 89.458 374.09 89.262C374.473 89.0567 374.874 88.954 375.294 88.954ZM374.818 95.618C376.031 95.618 376.638 94.68 376.638 92.804C376.638 90.9187 376.083 89.976 374.972 89.976C374.608 89.976 374.277 90.0833 373.978 90.298C373.679 90.5127 373.418 90.788 373.194 91.124V94.722C373.381 95.0113 373.614 95.2353 373.894 95.394C374.174 95.5433 374.482 95.618 374.818 95.618ZM381.534 96.668C381.058 96.668 380.68 96.528 380.4 96.248C380.13 95.9587 379.994 95.5573 379.994 95.044V86.154L381.282 86V95.016C381.282 95.2213 381.315 95.3707 381.38 95.464C381.455 95.5573 381.576 95.604 381.744 95.604C381.922 95.604 382.08 95.576 382.22 95.52L382.556 96.416C382.248 96.584 381.908 96.668 381.534 96.668ZM388.914 94.778C388.914 95.0767 388.965 95.3007 389.068 95.45C389.17 95.59 389.324 95.6973 389.53 95.772L389.236 96.668C388.853 96.6213 388.545 96.514 388.312 96.346C388.078 96.178 387.906 95.9167 387.794 95.562C387.299 96.2993 386.566 96.668 385.596 96.668C384.868 96.668 384.294 96.4627 383.874 96.052C383.454 95.6413 383.244 95.1047 383.244 94.442C383.244 93.658 383.524 93.056 384.084 92.636C384.653 92.216 385.456 92.006 386.492 92.006H387.626V91.46C387.626 90.9373 387.5 90.564 387.248 90.34C386.996 90.116 386.608 90.004 386.086 90.004C385.544 90.004 384.882 90.1347 384.098 90.396L383.776 89.458C384.69 89.122 385.54 88.954 386.324 88.954C387.192 88.954 387.84 89.1687 388.27 89.598C388.699 90.018 388.914 90.62 388.914 91.404V94.778ZM385.89 95.702C386.627 95.702 387.206 95.3193 387.626 94.554V92.86H386.66C385.297 92.86 384.616 93.364 384.616 94.372C384.616 94.8107 384.723 95.142 384.938 95.366C385.152 95.59 385.47 95.702 385.89 95.702ZM395.129 96.164C394.643 96.5 394.093 96.668 393.477 96.668C392.851 96.668 392.361 96.4907 392.007 96.136C391.661 95.772 391.489 95.2493 391.489 94.568V90.116H390.201V89.122H391.489V87.456L392.777 87.302V89.122H394.527L394.387 90.116H392.777V94.512C392.777 94.8947 392.842 95.1747 392.973 95.352C393.113 95.52 393.341 95.604 393.659 95.604C393.948 95.604 394.275 95.506 394.639 95.31L395.129 96.164ZM401.676 92.594C401.676 92.8087 401.667 93.028 401.648 93.252H396.944C397 94.064 397.206 94.6613 397.56 95.044C397.915 95.4267 398.372 95.618 398.932 95.618C399.287 95.618 399.614 95.5667 399.912 95.464C400.211 95.3613 400.524 95.198 400.85 94.974L401.41 95.744C400.626 96.36 399.768 96.668 398.834 96.668C397.808 96.668 397.005 96.332 396.426 95.66C395.857 94.988 395.572 94.064 395.572 92.888C395.572 92.1227 395.694 91.446 395.936 90.858C396.188 90.2607 396.543 89.794 397 89.458C397.467 89.122 398.013 88.954 398.638 88.954C399.618 88.954 400.37 89.276 400.892 89.92C401.415 90.564 401.676 91.4553 401.676 92.594ZM400.402 92.216C400.402 91.488 400.258 90.9327 399.968 90.55C399.679 90.1673 399.245 89.976 398.666 89.976C397.612 89.976 397.038 90.7507 396.944 92.3H400.402V92.216Z" fill="white"/>
<path d="M243.947 44.2914C243.119 44.2914 242.447 44.963 242.447 45.7914C242.447 46.6199 243.119 47.2914 243.947 47.2914V44.2914ZM301.116 22.1247C301.702 21.5389 301.702 20.5892 301.116 20.0034L291.57 10.4575C290.984 9.87168 290.035 9.87168 289.449 10.4575C288.863 11.0433 288.863 11.993 289.449 12.5788L297.934 21.0641L289.449 29.5493C288.863 30.1351 288.863 31.0849 289.449 31.6707C290.035 32.2565 290.984 32.2565 291.57 31.6707L301.116 22.1247ZM272.001 33.4278H273.501H272.001ZM272.001 33.4278H273.501H272.001ZM243.947 47.2914H259.638V44.2914H243.947V47.2914ZM284.365 22.5641H300.055V19.5641H284.365V22.5641ZM273.501 33.4278C273.501 27.4279 278.365 22.5641 284.365 22.5641V19.5641C276.708 19.5641 270.501 25.7711 270.501 33.4278H273.501ZM259.638 47.2914C267.294 47.2914 273.501 41.0844 273.501 33.4278H270.501C270.501 39.4276 265.638 44.2914 259.638 44.2914V47.2914Z" fill="#85E0A3"/>
<path d="M243.947 44.2914C243.119 44.2914 242.447 44.963 242.447 45.7914C242.447 46.6199 243.119 47.2914 243.947 47.2914V44.2914ZM297.061 93.0406C297.646 92.4548 297.646 91.505 297.061 90.9192L287.515 81.3733C286.929 80.7875 285.979 80.7875 285.393 81.3733C284.808 81.9591 284.808 82.9088 285.393 83.4946L293.879 91.9799L285.393 100.465C284.808 101.051 284.808 102.001 285.393 102.587C285.979 103.172 286.929 103.172 287.515 102.587L297.061 93.0406ZM269.974 68.8857H271.474H269.974ZM269.974 68.8857H271.474H269.974ZM243.947 47.2914H246.879V44.2914H243.947V47.2914ZM293.068 93.4799H296V90.4799H293.068V93.4799ZM268.474 68.8857C268.474 82.4687 279.485 93.4799 293.068 93.4799V90.4799C281.142 90.4799 271.474 80.8118 271.474 68.8857H268.474ZM246.879 47.2914C258.806 47.2914 268.474 56.9595 268.474 68.8857H271.474C271.474 55.3027 260.462 44.2914 246.879 44.2914V47.2914Z" fill="#85E0A3"/>
<circle cx="533.241" cy="88.8354" r="54.0339" fill="#155A32"/>
<path d="M518.38 62.4875C518.958 62.4875 519.444 62.5622 519.836 62.7115C520.237 62.8608 520.643 63.1035 521.054 63.4395L520.326 64.2935C519.738 63.8175 519.117 63.5795 518.464 63.5795C517.661 63.5795 517.012 63.8875 516.518 64.5035C516.032 65.1195 515.79 66.1088 515.79 67.4715C515.79 68.7968 516.032 69.7768 516.518 70.4115C517.003 71.0368 517.647 71.3495 518.45 71.3495C518.86 71.3495 519.22 71.2795 519.528 71.1395C519.836 70.9995 520.162 70.8035 520.508 70.5515L521.166 71.3915C520.867 71.6995 520.484 71.9562 520.018 72.1615C519.551 72.3668 519.014 72.4695 518.408 72.4695C517.624 72.4695 516.924 72.2782 516.308 71.8955C515.701 71.5035 515.225 70.9342 514.88 70.1875C514.544 69.4315 514.376 68.5262 514.376 67.4715C514.376 66.4168 514.553 65.5162 514.908 64.7695C515.262 64.0135 515.743 63.4442 516.35 63.0615C516.956 62.6788 517.633 62.4875 518.38 62.4875ZM525.617 64.7555C525.878 64.7555 526.121 64.7835 526.345 64.8395L526.107 66.0995C525.883 66.0435 525.668 66.0155 525.463 66.0155C525.005 66.0155 524.637 66.1835 524.357 66.5195C524.077 66.8555 523.857 67.3782 523.699 68.0875V72.3015H522.411V64.9235H523.517L523.643 66.4215C523.839 65.8708 524.105 65.4555 524.441 65.1755C524.777 64.8955 525.169 64.7555 525.617 64.7555ZM532.805 68.3955C532.805 68.6102 532.796 68.8295 532.777 69.0535H528.073C528.129 69.8655 528.335 70.4628 528.689 70.8455C529.044 71.2282 529.501 71.4195 530.061 71.4195C530.416 71.4195 530.743 71.3682 531.041 71.2655C531.34 71.1628 531.653 70.9995 531.979 70.7755L532.539 71.5455C531.755 72.1615 530.897 72.4695 529.963 72.4695C528.937 72.4695 528.134 72.1335 527.555 71.4615C526.986 70.7895 526.701 69.8655 526.701 68.6895C526.701 67.9242 526.823 67.2475 527.065 66.6595C527.317 66.0622 527.672 65.5955 528.129 65.2595C528.596 64.9235 529.142 64.7555 529.767 64.7555C530.747 64.7555 531.499 65.0775 532.021 65.7215C532.544 66.3655 532.805 67.2568 532.805 68.3955ZM531.531 68.0175C531.531 67.2895 531.387 66.7342 531.097 66.3515C530.808 65.9688 530.374 65.7775 529.795 65.7775C528.741 65.7775 528.167 66.5522 528.073 68.1015H531.531V68.0175ZM539.541 70.5795C539.541 70.8782 539.593 71.1022 539.695 71.2515C539.798 71.3915 539.952 71.4988 540.157 71.5735L539.863 72.4695C539.481 72.4228 539.173 72.3155 538.939 72.1475C538.706 71.9795 538.533 71.7182 538.421 71.3635C537.927 72.1008 537.194 72.4695 536.223 72.4695C535.495 72.4695 534.921 72.2642 534.501 71.8535C534.081 71.4428 533.871 70.9062 533.871 70.2435C533.871 69.4595 534.151 68.8575 534.711 68.4375C535.281 68.0175 536.083 67.8075 537.119 67.8075H538.253V67.2615C538.253 66.7388 538.127 66.3655 537.875 66.1415C537.623 65.9175 537.236 65.8055 536.713 65.8055C536.172 65.8055 535.509 65.9362 534.725 66.1975L534.403 65.2595C535.318 64.9235 536.167 64.7555 536.951 64.7555C537.819 64.7555 538.468 64.9702 538.897 65.3995C539.327 65.8195 539.541 66.4215 539.541 67.2055V70.5795ZM536.517 71.5035C537.255 71.5035 537.833 71.1208 538.253 70.3555V68.6615H537.287C535.925 68.6615 535.243 69.1655 535.243 70.1735C535.243 70.6122 535.351 70.9435 535.565 71.1675C535.78 71.3915 536.097 71.5035 536.517 71.5035ZM545.757 71.9655C545.271 72.3015 544.721 72.4695 544.105 72.4695C543.479 72.4695 542.989 72.2922 542.635 71.9375C542.289 71.5735 542.117 71.0508 542.117 70.3695V65.9175H540.829V64.9235H542.117V63.2575L543.405 63.1035V64.9235H545.155L545.015 65.9175H543.405V70.3135C543.405 70.6962 543.47 70.9762 543.601 71.1535C543.741 71.3215 543.969 71.4055 544.287 71.4055C544.576 71.4055 544.903 71.3075 545.267 71.1115L545.757 71.9655ZM552.304 68.3955C552.304 68.6102 552.295 68.8295 552.276 69.0535H547.572C547.628 69.8655 547.834 70.4628 548.188 70.8455C548.543 71.2282 549 71.4195 549.56 71.4195C549.915 71.4195 550.242 71.3682 550.54 71.2655C550.839 71.1628 551.152 70.9995 551.478 70.7755L552.038 71.5455C551.254 72.1615 550.396 72.4695 549.462 72.4695C548.436 72.4695 547.633 72.1335 547.054 71.4615C546.485 70.7895 546.2 69.8655 546.2 68.6895C546.2 67.9242 546.322 67.2475 546.564 66.6595C546.816 66.0622 547.171 65.5955 547.628 65.2595C548.095 64.9235 548.641 64.7555 549.266 64.7555C550.246 64.7555 550.998 65.0775 551.52 65.7215C552.043 66.3655 552.304 67.2568 552.304 68.3955ZM551.03 68.0175C551.03 67.2895 550.886 66.7342 550.596 66.3515C550.307 65.9688 549.873 65.7775 549.294 65.7775C548.24 65.7775 547.666 66.5522 547.572 68.1015H551.03V68.0175ZM507.571 85.7555C508.075 85.7555 508.528 85.8255 508.929 85.9655C509.33 86.1055 509.713 86.3155 510.077 86.5955L509.531 87.4075C509.195 87.1928 508.873 87.0342 508.565 86.9315C508.266 86.8288 507.949 86.7775 507.613 86.7775C507.193 86.7775 506.862 86.8662 506.619 87.0435C506.376 87.2115 506.255 87.4448 506.255 87.7435C506.255 88.0422 506.367 88.2755 506.591 88.4435C506.824 88.6115 507.24 88.7748 507.837 88.9335C508.658 89.1388 509.27 89.4188 509.671 89.7735C510.082 90.1282 510.287 90.6135 510.287 91.2295C510.287 91.9575 510.002 92.5128 509.433 92.8955C508.873 93.2782 508.187 93.4695 507.375 93.4695C506.255 93.4695 505.326 93.1475 504.589 92.5035L505.275 91.7195C505.9 92.1955 506.591 92.4335 507.347 92.4335C507.832 92.4335 508.215 92.3355 508.495 92.1395C508.784 91.9342 508.929 91.6588 508.929 91.3135C508.929 91.0615 508.878 90.8608 508.775 90.7115C508.672 90.5528 508.495 90.4175 508.243 90.3055C507.991 90.1842 507.622 90.0582 507.137 89.9275C506.353 89.7222 505.784 89.4468 505.429 89.1015C505.084 88.7562 504.911 88.3175 504.911 87.7855C504.911 87.4028 505.023 87.0575 505.247 86.7495C505.48 86.4322 505.798 86.1895 506.199 86.0215C506.61 85.8442 507.067 85.7555 507.571 85.7555ZM513.238 85.9235V93.3015H511.95V85.9235H513.238ZM512.58 82.3815C512.851 82.3815 513.07 82.4655 513.238 82.6335C513.406 82.8015 513.49 83.0115 513.49 83.2635C513.49 83.5155 513.406 83.7255 513.238 83.8935C513.07 84.0522 512.851 84.1315 512.58 84.1315C512.319 84.1315 512.104 84.0522 511.936 83.8935C511.768 83.7255 511.684 83.5155 511.684 83.2635C511.684 83.0115 511.768 82.8015 511.936 82.6335C512.104 82.4655 512.319 82.3815 512.58 82.3815ZM521.697 86.2595C521.417 86.3528 521.109 86.4135 520.773 86.4415C520.437 86.4695 520.027 86.4835 519.541 86.4835C520.409 86.8755 520.843 87.4962 520.843 88.3455C520.843 89.0828 520.591 89.6848 520.087 90.1515C519.583 90.6182 518.897 90.8515 518.029 90.8515C517.693 90.8515 517.381 90.8048 517.091 90.7115C516.979 90.7862 516.891 90.8888 516.825 91.0195C516.76 91.1408 516.727 91.2668 516.727 91.3975C516.727 91.7988 517.049 91.9995 517.693 91.9995H518.869C519.364 91.9995 519.803 92.0882 520.185 92.2655C520.568 92.4428 520.862 92.6855 521.067 92.9935C521.282 93.3015 521.389 93.6515 521.389 94.0435C521.389 94.7622 521.095 95.3128 520.507 95.6955C519.919 96.0875 519.061 96.2835 517.931 96.2835C517.138 96.2835 516.508 96.1995 516.041 96.0315C515.584 95.8728 515.257 95.6302 515.061 95.3035C514.865 94.9768 514.767 94.5568 514.767 94.0435H515.929C515.929 94.3422 515.985 94.5755 516.097 94.7435C516.209 94.9208 516.41 95.0515 516.699 95.1355C516.989 95.2288 517.399 95.2755 517.931 95.2755C518.706 95.2755 519.257 95.1775 519.583 94.9815C519.919 94.7948 520.087 94.5102 520.087 94.1275C520.087 93.7822 519.957 93.5208 519.695 93.3435C519.434 93.1662 519.07 93.0775 518.603 93.0775H517.441C516.816 93.0775 516.34 92.9468 516.013 92.6855C515.696 92.4148 515.537 92.0788 515.537 91.6775C515.537 91.4348 515.607 91.2015 515.747 90.9775C515.887 90.7535 516.088 90.5528 516.349 90.3755C515.92 90.1515 515.603 89.8762 515.397 89.5495C515.201 89.2135 515.103 88.8075 515.103 88.3315C515.103 87.8368 515.225 87.3935 515.467 87.0015C515.719 86.6095 516.06 86.3062 516.489 86.0915C516.928 85.8675 517.413 85.7555 517.945 85.7555C518.524 85.7648 519.009 85.7462 519.401 85.6995C519.793 85.6435 520.115 85.5735 520.367 85.4895C520.629 85.3962 520.946 85.2655 521.319 85.0975L521.697 86.2595ZM517.945 86.6795C517.46 86.6795 517.082 86.8335 516.811 87.1415C516.55 87.4402 516.419 87.8368 516.419 88.3315C516.419 88.8355 516.555 89.2415 516.825 89.5495C517.096 89.8482 517.479 89.9975 517.973 89.9975C518.477 89.9975 518.86 89.8528 519.121 89.5635C519.392 89.2648 519.527 88.8495 519.527 88.3175C519.527 87.2255 519 86.6795 517.945 86.6795ZM526.339 85.7555C527.011 85.7555 527.534 85.9562 527.907 86.3575C528.29 86.7588 528.481 87.3095 528.481 88.0095V93.3015H527.193V88.1915C527.193 87.6688 527.095 87.3002 526.899 87.0855C526.703 86.8708 526.414 86.7635 526.031 86.7635C525.639 86.7635 525.294 86.8755 524.995 87.0995C524.696 87.3235 524.416 87.6455 524.155 88.0655V93.3015H522.867V85.9235H523.973L524.085 87.0155C524.346 86.6235 524.668 86.3155 525.051 86.0915C525.443 85.8675 525.872 85.7555 526.339 85.7555ZM535.886 91.5795C535.886 91.8782 535.937 92.1022 536.04 92.2515C536.143 92.3915 536.297 92.4988 536.502 92.5735L536.208 93.4695C535.825 93.4228 535.517 93.3155 535.284 93.1475C535.051 92.9795 534.878 92.7182 534.766 92.3635C534.271 93.1008 533.539 93.4695 532.568 93.4695C531.84 93.4695 531.266 93.2642 530.846 92.8535C530.426 92.4428 530.216 91.9062 530.216 91.2435C530.216 90.4595 530.496 89.8575 531.056 89.4375C531.625 89.0175 532.428 88.8075 533.464 88.8075H534.598V88.2615C534.598 87.7388 534.472 87.3655 534.22 87.1415C533.968 86.9175 533.581 86.8055 533.058 86.8055C532.517 86.8055 531.854 86.9362 531.07 87.1975L530.748 86.2595C531.663 85.9235 532.512 85.7555 533.296 85.7555C534.164 85.7555 534.813 85.9702 535.242 86.3995C535.671 86.8195 535.886 87.4215 535.886 88.2055V91.5795ZM532.862 92.5035C533.599 92.5035 534.178 92.1208 534.598 91.3555V89.6615H533.632C532.269 89.6615 531.588 90.1655 531.588 91.1735C531.588 91.6122 531.695 91.9435 531.91 92.1675C532.125 92.3915 532.442 92.5035 532.862 92.5035ZM542.101 92.9655C541.616 93.3015 541.065 93.4695 540.449 93.4695C539.824 93.4695 539.334 93.2922 538.979 92.9375C538.634 92.5735 538.461 92.0508 538.461 91.3695V86.9175H537.173V85.9235H538.461V84.2575L539.749 84.1035V85.9235H541.499L541.359 86.9175H539.749V91.3135C539.749 91.6962 539.815 91.9762 539.945 92.1535C540.085 92.3215 540.314 92.4055 540.631 92.4055C540.921 92.4055 541.247 92.3075 541.611 92.1115L542.101 92.9655ZM548.77 93.3015H547.664L547.566 92.1535C547.286 92.6108 546.964 92.9468 546.6 93.1615C546.236 93.3668 545.793 93.4695 545.27 93.4695C544.626 93.4695 544.122 93.2735 543.758 92.8815C543.394 92.4895 543.212 91.9342 543.212 91.2155V85.9235H544.5V91.0755C544.5 91.5795 544.589 91.9388 544.766 92.1535C544.943 92.3588 545.233 92.4615 545.634 92.4615C546.353 92.4615 546.969 92.0368 547.482 91.1875V85.9235H548.77V93.3015ZM554.482 85.7555C554.744 85.7555 554.986 85.7835 555.21 85.8395L554.972 87.0995C554.748 87.0435 554.534 87.0155 554.328 87.0155C553.871 87.0155 553.502 87.1835 553.222 87.5195C552.942 87.8555 552.723 88.3782 552.564 89.0875V93.3015H551.276V85.9235H552.382L552.508 87.4215C552.704 86.8708 552.97 86.4555 553.306 86.1755C553.642 85.8955 554.034 85.7555 554.482 85.7555ZM561.671 89.3955C561.671 89.6102 561.662 89.8295 561.643 90.0535H556.939C556.995 90.8655 557.2 91.4628 557.555 91.8455C557.91 92.2282 558.367 92.4195 558.927 92.4195C559.282 92.4195 559.608 92.3682 559.907 92.2655C560.206 92.1628 560.518 91.9995 560.845 91.7755L561.405 92.5455C560.621 93.1615 559.762 93.4695 558.829 93.4695C557.802 93.4695 557 93.1335 556.421 92.4615C555.852 91.7895 555.567 90.8655 555.567 89.6895C555.567 88.9242 555.688 88.2475 555.931 87.6595C556.183 87.0622 556.538 86.5955 556.995 86.2595C557.462 85.9235 558.008 85.7555 558.633 85.7555C559.613 85.7555 560.364 86.0775 560.887 86.7215C561.41 87.3655 561.671 88.2568 561.671 89.3955ZM560.397 89.0175C560.397 88.2895 560.252 87.7342 559.963 87.3515C559.674 86.9688 559.24 86.7775 558.661 86.7775C557.606 86.7775 557.032 87.5522 556.939 89.1015H560.397V89.0175ZM519.653 106.756C520.493 106.756 521.16 107.096 521.655 107.778C522.15 108.45 522.397 109.392 522.397 110.606C522.397 111.371 522.28 112.048 522.047 112.636C521.814 113.214 521.478 113.667 521.039 113.994C520.6 114.311 520.087 114.47 519.499 114.47C518.724 114.47 518.071 114.143 517.539 113.49L517.413 114.302H516.279V103.956L517.567 103.802V107.848C518.099 107.12 518.794 106.756 519.653 106.756ZM519.191 113.448C519.76 113.448 520.204 113.219 520.521 112.762C520.848 112.295 521.011 111.576 521.011 110.606C521.011 109.607 520.862 108.888 520.563 108.45C520.264 108.002 519.84 107.778 519.289 107.778C518.636 107.778 518.062 108.16 517.567 108.926V112.454C517.763 112.762 518.001 113.004 518.281 113.182C518.57 113.359 518.874 113.448 519.191 113.448ZM527.209 106.756C528.245 106.756 529.048 107.101 529.617 107.792C530.196 108.482 530.485 109.42 530.485 110.606C530.485 111.371 530.355 112.048 530.093 112.636C529.832 113.214 529.454 113.667 528.959 113.994C528.465 114.311 527.877 114.47 527.195 114.47C526.159 114.47 525.352 114.124 524.773 113.434C524.195 112.743 523.905 111.805 523.905 110.62C523.905 109.854 524.036 109.182 524.297 108.604C524.559 108.016 524.937 107.563 525.431 107.246C525.926 106.919 526.519 106.756 527.209 106.756ZM527.209 107.792C525.931 107.792 525.291 108.734 525.291 110.62C525.291 112.496 525.926 113.434 527.195 113.434C528.465 113.434 529.099 112.491 529.099 110.606C529.099 108.73 528.469 107.792 527.209 107.792ZM535.164 110.354L537.726 114.302H536.172L534.366 111.18L532.532 114.302H531.076L533.652 110.41L531.37 106.924H532.882L534.422 109.626L535.976 106.924H537.432L535.164 110.354ZM544.426 110.396C544.426 110.61 544.417 110.83 544.398 111.054H539.694C539.75 111.866 539.955 112.463 540.31 112.846C540.665 113.228 541.122 113.42 541.682 113.42C542.037 113.42 542.363 113.368 542.662 113.266C542.961 113.163 543.273 113 543.6 112.776L544.16 113.546C543.376 114.162 542.517 114.47 541.584 114.47C540.557 114.47 539.755 114.134 539.176 113.462C538.607 112.79 538.322 111.866 538.322 110.69C538.322 109.924 538.443 109.248 538.686 108.66C538.938 108.062 539.293 107.596 539.75 107.26C540.217 106.924 540.763 106.756 541.388 106.756C542.368 106.756 543.119 107.078 543.642 107.722C544.165 108.366 544.426 109.257 544.426 110.396ZM543.152 110.018C543.152 109.29 543.007 108.734 542.718 108.352C542.429 107.969 541.995 107.778 541.416 107.778C540.361 107.778 539.787 108.552 539.694 110.102H543.152V110.018ZM548.331 106.756C548.835 106.756 549.288 106.826 549.689 106.966C550.09 107.106 550.473 107.316 550.837 107.596L550.291 108.408C549.955 108.193 549.633 108.034 549.325 107.932C549.026 107.829 548.709 107.778 548.373 107.778C547.953 107.778 547.622 107.866 547.379 108.044C547.136 108.212 547.015 108.445 547.015 108.744C547.015 109.042 547.127 109.276 547.351 109.444C547.584 109.612 548 109.775 548.597 109.934C549.418 110.139 550.03 110.419 550.431 110.774C550.842 111.128 551.047 111.614 551.047 112.23C551.047 112.958 550.762 113.513 550.193 113.896C549.633 114.278 548.947 114.47 548.135 114.47C547.015 114.47 546.086 114.148 545.349 113.504L546.035 112.72C546.66 113.196 547.351 113.434 548.107 113.434C548.592 113.434 548.975 113.336 549.255 113.14C549.544 112.934 549.689 112.659 549.689 112.314C549.689 112.062 549.638 111.861 549.535 111.712C549.432 111.553 549.255 111.418 549.003 111.306C548.751 111.184 548.382 111.058 547.897 110.928C547.113 110.722 546.544 110.447 546.189 110.102C545.844 109.756 545.671 109.318 545.671 108.786C545.671 108.403 545.783 108.058 546.007 107.75C546.24 107.432 546.558 107.19 546.959 107.022C547.37 106.844 547.827 106.756 548.331 106.756Z" fill="white"/>
<path d="M408.797 19.5641C407.968 19.5641 407.297 20.2356 407.297 21.0641C407.297 21.8925 407.968 22.5641 408.797 22.5641V19.5641ZM476.268 89.8961C476.854 89.3103 476.854 88.3605 476.268 87.7747L466.722 78.2288C466.136 77.643 465.187 77.643 464.601 78.2288C464.015 78.8146 464.015 79.7643 464.601 80.3501L473.086 88.8354L464.601 97.3207C464.015 97.9065 464.015 98.8562 464.601 99.442C465.187 100.028 466.136 100.028 466.722 99.442L476.268 89.8961ZM408.797 22.5641H418.002V19.5641H408.797V22.5641ZM440.502 45.0641V64.8354H443.502V45.0641H440.502ZM466.002 90.3354H475.208V87.3354H466.002V90.3354ZM440.502 64.8354C440.502 78.9187 451.919 90.3354 466.002 90.3354V87.3354C453.576 87.3354 443.502 77.2618 443.502 64.8354H440.502ZM418.002 22.5641C430.428 22.5641 440.502 32.6377 440.502 45.0641H443.502C443.502 30.9808 432.085 19.5641 418.002 19.5641V22.5641Z" fill="#85E0A3"/>
<path d="M418.479 90.4799C417.65 90.4799 416.979 91.1515 416.979 91.9799C416.979 92.8083 417.65 93.4799 418.479 93.4799V90.4799ZM476.268 89.8961C476.854 89.3103 476.854 88.3606 476.268 87.7748L466.722 78.2288C466.137 77.643 465.187 77.643 464.601 78.2288C464.015 78.8146 464.015 79.7644 464.601 80.3502L473.086 88.8354L464.601 97.3207C464.015 97.9065 464.015 98.8562 464.601 99.442C465.187 100.028 466.137 100.028 466.722 99.442L476.268 89.8961ZM446.843 90.4077H448.343H446.843ZM446.843 90.4077H448.343H446.843ZM418.479 93.4799H445.271V90.4799H418.479V93.4799ZM448.415 90.3354H475.208V87.3354H448.415V90.3354ZM448.343 90.4077C448.343 90.3678 448.376 90.3354 448.415 90.3354V87.3354C446.719 87.3354 445.343 88.7109 445.343 90.4077H448.343ZM445.271 93.4799C446.968 93.4799 448.343 92.1044 448.343 90.4077H445.343C445.343 90.4476 445.311 90.4799 445.271 90.4799V93.4799Z" fill="#85E0A3"/>
<path d="M408.797 221.047C407.968 221.047 407.297 221.718 407.297 222.547C407.297 223.375 407.968 224.047 408.797 224.047V221.047ZM476.268 89.8961C476.854 89.3103 476.854 88.3606 476.268 87.7748L466.722 78.2288C466.136 77.643 465.187 77.643 464.601 78.2288C464.015 78.8146 464.015 79.7644 464.601 80.3502L473.086 88.8354L464.601 97.3207C464.015 97.9065 464.015 98.8562 464.601 99.442C465.187 100.028 466.136 100.028 466.722 99.442L476.268 89.8961ZM408.797 224.047H418.002V221.047H408.797V224.047ZM443.502 198.547V112.835H440.502V198.547H443.502ZM466.002 90.3354H475.208V87.3354H466.002V90.3354ZM443.502 112.835C443.502 100.409 453.576 90.3354 466.002 90.3354V87.3354C451.919 87.3354 440.502 98.7522 440.502 112.835H443.502ZM418.002 224.047C432.085 224.047 443.502 212.63 443.502 198.547H440.502C440.502 210.973 430.428 221.047 418.002 221.047V224.047Z" fill="#85E0A3"/>
<path d="M408.797 311.564C407.968 311.564 407.297 312.236 407.297 313.064C407.297 313.893 407.968 314.564 408.797 314.564V311.564ZM476.268 89.8961C476.854 89.3103 476.854 88.3606 476.268 87.7748L466.722 78.2288C466.136 77.643 465.187 77.643 464.601 78.2288C464.015 78.8146 464.015 79.7644 464.601 80.3502L473.086 88.8354L464.601 97.3207C464.015 97.9065 464.015 98.8562 464.601 99.442C465.187 100.028 466.136 100.028 466.722 99.442L476.268 89.8961ZM408.797 314.564H418.002V311.564H408.797V314.564ZM443.502 289.064V112.835H440.502V289.064H443.502ZM466.002 90.3354H475.208V87.3354H466.002V90.3354ZM443.502 112.835C443.502 100.409 453.576 90.3354 466.002 90.3354V87.3354C451.919 87.3354 440.502 98.7522 440.502 112.835H443.502ZM418.002 314.564C432.085 314.564 443.502 303.147 443.502 289.064H440.502C440.502 301.49 430.428 311.564 418.002 311.564V314.564Z" fill="#85E0A3"/>
<ellipse cx="533.241" cy="252.425" rx="51.7443" ry="52.2023" fill="#155A32"/>
<path d="M510.878 249.177C511.382 249.177 511.835 249.247 512.236 249.387C512.637 249.527 513.02 249.737 513.384 250.017L512.838 250.829C512.502 250.614 512.18 250.456 511.872 250.353C511.573 250.25 511.256 250.199 510.92 250.199C510.5 250.199 510.169 250.288 509.926 250.465C509.683 250.633 509.562 250.866 509.562 251.165C509.562 251.464 509.674 251.697 509.898 251.865C510.131 252.033 510.547 252.196 511.144 252.355C511.965 252.56 512.577 252.84 512.978 253.195C513.389 253.55 513.594 254.035 513.594 254.651C513.594 255.379 513.309 255.934 512.74 256.317C512.18 256.7 511.494 256.891 510.682 256.891C509.562 256.891 508.633 256.569 507.896 255.925L508.582 255.141C509.207 255.617 509.898 255.855 510.654 255.855C511.139 255.855 511.522 255.757 511.802 255.561C512.091 255.356 512.236 255.08 512.236 254.735C512.236 254.483 512.185 254.282 512.082 254.133C511.979 253.974 511.802 253.839 511.55 253.727C511.298 253.606 510.929 253.48 510.444 253.349C509.66 253.144 509.091 252.868 508.736 252.523C508.391 252.178 508.218 251.739 508.218 251.207C508.218 250.824 508.33 250.479 508.554 250.171C508.787 249.854 509.105 249.611 509.506 249.443C509.917 249.266 510.374 249.177 510.878 249.177ZM520.829 252.817C520.829 253.032 520.82 253.251 520.801 253.475H516.097C516.153 254.287 516.358 254.884 516.713 255.267C517.068 255.65 517.525 255.841 518.085 255.841C518.44 255.841 518.766 255.79 519.065 255.687C519.364 255.584 519.676 255.421 520.003 255.197L520.563 255.967C519.779 256.583 518.92 256.891 517.987 256.891C516.96 256.891 516.158 256.555 515.579 255.883C515.01 255.211 514.725 254.287 514.725 253.111C514.725 252.346 514.846 251.669 515.089 251.081C515.341 250.484 515.696 250.017 516.153 249.681C516.62 249.345 517.166 249.177 517.791 249.177C518.771 249.177 519.522 249.499 520.045 250.143C520.568 250.787 520.829 251.678 520.829 252.817ZM519.555 252.439C519.555 251.711 519.41 251.156 519.121 250.773C518.832 250.39 518.398 250.199 517.819 250.199C516.764 250.199 516.19 250.974 516.097 252.523H519.555V252.439ZM524.202 256.891C523.726 256.891 523.348 256.751 523.068 256.471C522.797 256.182 522.662 255.78 522.662 255.267V246.377L523.95 246.223V255.239C523.95 255.444 523.983 255.594 524.048 255.687C524.123 255.78 524.244 255.827 524.412 255.827C524.589 255.827 524.748 255.799 524.888 255.743L525.224 256.639C524.916 256.807 524.575 256.891 524.202 256.891ZM529.186 247.259C528.794 247.259 528.514 247.348 528.346 247.525C528.178 247.693 528.094 247.959 528.094 248.323V249.345H529.886L529.746 250.339H528.094V256.723H526.806V250.339H525.49V249.345H526.806V248.337C526.806 247.702 527.006 247.194 527.408 246.811C527.818 246.419 528.388 246.223 529.116 246.223C529.452 246.223 529.75 246.256 530.012 246.321C530.282 246.377 530.572 246.47 530.88 246.601L530.474 247.539C530.054 247.352 529.624 247.259 529.186 247.259ZM536.768 249.177C537.272 249.177 537.725 249.247 538.126 249.387C538.527 249.527 538.91 249.737 539.274 250.017L538.728 250.829C538.392 250.614 538.07 250.456 537.762 250.353C537.463 250.25 537.146 250.199 536.81 250.199C536.39 250.199 536.059 250.288 535.816 250.465C535.573 250.633 535.452 250.866 535.452 251.165C535.452 251.464 535.564 251.697 535.788 251.865C536.021 252.033 536.437 252.196 537.034 252.355C537.855 252.56 538.467 252.84 538.868 253.195C539.279 253.55 539.484 254.035 539.484 254.651C539.484 255.379 539.199 255.934 538.63 256.317C538.07 256.7 537.384 256.891 536.572 256.891C535.452 256.891 534.523 256.569 533.786 255.925L534.472 255.141C535.097 255.617 535.788 255.855 536.544 255.855C537.029 255.855 537.412 255.757 537.692 255.561C537.981 255.356 538.126 255.08 538.126 254.735C538.126 254.483 538.075 254.282 537.972 254.133C537.869 253.974 537.692 253.839 537.44 253.727C537.188 253.606 536.819 253.48 536.334 253.349C535.55 253.144 534.981 252.868 534.626 252.523C534.281 252.178 534.108 251.739 534.108 251.207C534.108 250.824 534.22 250.479 534.444 250.171C534.677 249.854 534.995 249.611 535.396 249.443C535.807 249.266 536.264 249.177 536.768 249.177ZM542.435 249.345V256.723H541.147V249.345H542.435ZM541.777 245.803C542.048 245.803 542.267 245.887 542.435 246.055C542.603 246.223 542.687 246.433 542.687 246.685C542.687 246.937 542.603 247.147 542.435 247.315C542.267 247.474 542.048 247.553 541.777 247.553C541.516 247.553 541.301 247.474 541.133 247.315C540.965 247.147 540.881 246.937 540.881 246.685C540.881 246.433 540.965 246.223 541.133 246.055C541.301 245.887 541.516 245.803 541.777 245.803ZM550.894 249.681C550.614 249.774 550.306 249.835 549.97 249.863C549.634 249.891 549.224 249.905 548.738 249.905C549.606 250.297 550.04 250.918 550.04 251.767C550.04 252.504 549.788 253.106 549.284 253.573C548.78 254.04 548.094 254.273 547.226 254.273C546.89 254.273 546.578 254.226 546.288 254.133C546.176 254.208 546.088 254.31 546.022 254.441C545.957 254.562 545.924 254.688 545.924 254.819C545.924 255.22 546.246 255.421 546.89 255.421H548.066C548.561 255.421 549 255.51 549.382 255.687C549.765 255.864 550.059 256.107 550.264 256.415C550.479 256.723 550.586 257.073 550.586 257.465C550.586 258.184 550.292 258.734 549.704 259.117C549.116 259.509 548.258 259.705 547.128 259.705C546.335 259.705 545.705 259.621 545.238 259.453C544.781 259.294 544.454 259.052 544.258 258.725C544.062 258.398 543.964 257.978 543.964 257.465H545.126C545.126 257.764 545.182 257.997 545.294 258.165C545.406 258.342 545.607 258.473 545.896 258.557C546.186 258.65 546.596 258.697 547.128 258.697C547.903 258.697 548.454 258.599 548.78 258.403C549.116 258.216 549.284 257.932 549.284 257.549C549.284 257.204 549.154 256.942 548.892 256.765C548.631 256.588 548.267 256.499 547.8 256.499H546.638C546.013 256.499 545.537 256.368 545.21 256.107C544.893 255.836 544.734 255.5 544.734 255.099C544.734 254.856 544.804 254.623 544.944 254.399C545.084 254.175 545.285 253.974 545.546 253.797C545.117 253.573 544.8 253.298 544.594 252.971C544.398 252.635 544.3 252.229 544.3 251.753C544.3 251.258 544.422 250.815 544.664 250.423C544.916 250.031 545.257 249.728 545.686 249.513C546.125 249.289 546.61 249.177 547.142 249.177C547.721 249.186 548.206 249.168 548.598 249.121C548.99 249.065 549.312 248.995 549.564 248.911C549.826 248.818 550.143 248.687 550.516 248.519L550.894 249.681ZM547.142 250.101C546.657 250.101 546.279 250.255 546.008 250.563C545.747 250.862 545.616 251.258 545.616 251.753C545.616 252.257 545.752 252.663 546.022 252.971C546.293 253.27 546.676 253.419 547.17 253.419C547.674 253.419 548.057 253.274 548.318 252.985C548.589 252.686 548.724 252.271 548.724 251.739C548.724 250.647 548.197 250.101 547.142 250.101ZM555.536 249.177C556.208 249.177 556.731 249.378 557.104 249.779C557.487 250.18 557.678 250.731 557.678 251.431V256.723H556.39V251.613C556.39 251.09 556.292 250.722 556.096 250.507C555.9 250.292 555.611 250.185 555.228 250.185C554.836 250.185 554.491 250.297 554.192 250.521C553.893 250.745 553.613 251.067 553.352 251.487V256.723H552.064V249.345H553.17L553.282 250.437C553.543 250.045 553.865 249.737 554.248 249.513C554.64 249.289 555.069 249.177 555.536 249.177Z" fill="white"/>
<ellipse cx="677.256" cy="252.425" rx="51.7443" ry="52.6602" fill="#155A32"/>
<path d="M651.404 226.451C652.048 226.451 652.599 226.545 653.056 226.731C653.514 226.909 653.957 227.189 654.386 227.571L653.658 228.383C653.294 228.094 652.935 227.884 652.58 227.753C652.235 227.613 651.862 227.543 651.46 227.543C650.956 227.543 650.541 227.66 650.214 227.893C649.888 228.127 649.724 228.467 649.724 228.915C649.724 229.195 649.78 229.433 649.892 229.629C650.004 229.816 650.21 229.989 650.508 230.147C650.816 230.306 651.26 230.474 651.838 230.651C652.445 230.838 652.949 231.039 653.35 231.253C653.752 231.468 654.074 231.767 654.316 232.149C654.568 232.523 654.694 232.999 654.694 233.577C654.694 234.137 654.554 234.632 654.274 235.061C654.004 235.491 653.607 235.827 653.084 236.069C652.571 236.312 651.96 236.433 651.25 236.433C649.916 236.433 648.824 236.018 647.974 235.187L648.702 234.375C649.094 234.693 649.491 234.935 649.892 235.103C650.294 235.262 650.742 235.341 651.236 235.341C651.834 235.341 652.328 235.197 652.72 234.907C653.112 234.609 653.308 234.179 653.308 233.619C653.308 233.302 653.248 233.041 653.126 232.835C653.005 232.621 652.795 232.429 652.496 232.261C652.207 232.093 651.782 231.925 651.222 231.757C650.233 231.459 649.51 231.099 649.052 230.679C648.595 230.259 648.366 229.69 648.366 228.971C648.366 228.486 648.492 228.052 648.744 227.669C649.006 227.287 649.365 226.988 649.822 226.773C650.289 226.559 650.816 226.451 651.404 226.451ZM659.901 228.719C660.573 228.719 661.096 228.92 661.469 229.321C661.852 229.723 662.043 230.273 662.043 230.973V236.265H660.755V231.155C660.755 230.633 660.653 230.264 660.447 230.049C660.251 229.835 659.962 229.727 659.579 229.727C659.197 229.727 658.856 229.839 658.557 230.063C658.259 230.287 657.979 230.605 657.717 231.015V236.265H656.429V225.933L657.717 225.793V229.909C658.296 229.116 659.024 228.719 659.901 228.719ZM669.448 234.543C669.448 234.842 669.5 235.066 669.602 235.215C669.705 235.355 669.859 235.463 670.064 235.537L669.77 236.433C669.388 236.387 669.08 236.279 668.846 236.111C668.613 235.943 668.44 235.682 668.328 235.327C667.834 236.065 667.101 236.433 666.13 236.433C665.402 236.433 664.828 236.228 664.408 235.817C663.988 235.407 663.778 234.87 663.778 234.207C663.778 233.423 664.058 232.821 664.618 232.401C665.188 231.981 665.99 231.771 667.026 231.771H668.16V231.225C668.16 230.703 668.034 230.329 667.782 230.105C667.53 229.881 667.143 229.769 666.62 229.769C666.079 229.769 665.416 229.9 664.632 230.161L664.31 229.223C665.225 228.887 666.074 228.719 666.858 228.719C667.726 228.719 668.375 228.934 668.804 229.363C669.234 229.783 669.448 230.385 669.448 231.169V234.543ZM666.424 235.467C667.162 235.467 667.74 235.085 668.16 234.319V232.625H667.194C665.832 232.625 665.15 233.129 665.15 234.137C665.15 234.576 665.258 234.907 665.472 235.131C665.687 235.355 666.004 235.467 666.424 235.467ZM675.146 228.719C675.407 228.719 675.65 228.747 675.874 228.803L675.636 230.063C675.412 230.007 675.197 229.979 674.992 229.979C674.534 229.979 674.166 230.147 673.886 230.483C673.606 230.819 673.386 231.342 673.228 232.051V236.265H671.94V228.887H673.046L673.172 230.385C673.368 229.835 673.634 229.419 673.97 229.139C674.306 228.859 674.698 228.719 675.146 228.719ZM682.334 232.359C682.334 232.574 682.325 232.793 682.306 233.017H677.602C677.658 233.829 677.864 234.427 678.218 234.809C678.573 235.192 679.03 235.383 679.59 235.383C679.945 235.383 680.272 235.332 680.57 235.229C680.869 235.127 681.182 234.963 681.508 234.739L682.068 235.509C681.284 236.125 680.426 236.433 679.492 236.433C678.466 236.433 677.663 236.097 677.084 235.425C676.515 234.753 676.23 233.829 676.23 232.653C676.23 231.888 676.352 231.211 676.594 230.623C676.846 230.026 677.201 229.559 677.658 229.223C678.125 228.887 678.671 228.719 679.296 228.719C680.276 228.719 681.028 229.041 681.55 229.685C682.073 230.329 682.334 231.221 682.334 232.359ZM681.06 231.981C681.06 231.253 680.916 230.698 680.626 230.315C680.337 229.933 679.903 229.741 679.324 229.741C678.27 229.741 677.696 230.516 677.602 232.065H681.06V231.981ZM691.512 235.929C691.027 236.265 690.476 236.433 689.86 236.433C689.235 236.433 688.745 236.256 688.39 235.901C688.045 235.537 687.872 235.015 687.872 234.333V229.881H686.584V228.887H687.872V227.221L689.16 227.067V228.887H690.91L690.77 229.881H689.16V234.277C689.16 234.66 689.226 234.94 689.356 235.117C689.496 235.285 689.725 235.369 690.042 235.369C690.332 235.369 690.658 235.271 691.022 235.075L691.512 235.929ZM696.165 228.719C696.837 228.719 697.359 228.92 697.733 229.321C698.115 229.723 698.307 230.273 698.307 230.973V236.265H697.019V231.155C697.019 230.633 696.916 230.264 696.711 230.049C696.515 229.835 696.225 229.727 695.843 229.727C695.46 229.727 695.119 229.839 694.821 230.063C694.522 230.287 694.242 230.605 693.981 231.015V236.265H692.693V225.933L693.981 225.793V229.909C694.559 229.116 695.287 228.719 696.165 228.719ZM706.314 232.359C706.314 232.574 706.305 232.793 706.286 233.017H701.582C701.638 233.829 701.843 234.427 702.198 234.809C702.553 235.192 703.01 235.383 703.57 235.383C703.925 235.383 704.251 235.332 704.55 235.229C704.849 235.127 705.161 234.963 705.488 234.739L706.048 235.509C705.264 236.125 704.405 236.433 703.472 236.433C702.445 236.433 701.643 236.097 701.064 235.425C700.495 234.753 700.21 233.829 700.21 232.653C700.21 231.888 700.331 231.211 700.574 230.623C700.826 230.026 701.181 229.559 701.638 229.223C702.105 228.887 702.651 228.719 703.276 228.719C704.256 228.719 705.007 229.041 705.53 229.685C706.053 230.329 706.314 231.221 706.314 232.359ZM705.04 231.981C705.04 231.253 704.895 230.698 704.606 230.315C704.317 229.933 703.883 229.741 703.304 229.741C702.249 229.741 701.675 230.516 701.582 232.065H705.04V231.981ZM664.778 246.919V257.265H663.644L663.518 256.243C663.276 256.617 662.972 256.911 662.608 257.125C662.244 257.331 661.838 257.433 661.39 257.433C660.513 257.433 659.827 257.088 659.332 256.397C658.847 255.707 658.604 254.778 658.604 253.611C658.604 252.855 658.721 252.183 658.954 251.595C659.188 251.007 659.524 250.55 659.962 250.223C660.401 249.887 660.914 249.719 661.502 249.719C662.258 249.719 662.921 250.023 663.49 250.629V246.765L664.778 246.919ZM661.67 256.411C662.062 256.411 662.398 256.323 662.678 256.145C662.958 255.959 663.229 255.683 663.49 255.319V251.707C663.248 251.39 662.986 251.152 662.706 250.993C662.436 250.825 662.128 250.741 661.782 250.741C661.213 250.741 660.77 250.979 660.452 251.455C660.144 251.931 659.99 252.641 659.99 253.583C659.99 254.535 660.135 255.245 660.424 255.711C660.714 256.178 661.129 256.411 661.67 256.411ZM670.051 249.719C671.087 249.719 671.89 250.065 672.459 250.755C673.038 251.446 673.327 252.384 673.327 253.569C673.327 254.335 673.197 255.011 672.935 255.599C672.674 256.178 672.296 256.631 671.801 256.957C671.307 257.275 670.719 257.433 670.037 257.433C669.001 257.433 668.194 257.088 667.615 256.397C667.037 255.707 666.747 254.769 666.747 253.583C666.747 252.818 666.878 252.146 667.139 251.567C667.401 250.979 667.779 250.527 668.273 250.209C668.768 249.883 669.361 249.719 670.051 249.719ZM670.051 250.755C668.773 250.755 668.133 251.698 668.133 253.583C668.133 255.459 668.768 256.397 670.037 256.397C671.307 256.397 671.941 255.455 671.941 253.569C671.941 251.693 671.311 250.755 670.051 250.755ZM677.989 249.719C678.428 249.719 678.829 249.785 679.193 249.915C679.557 250.037 679.907 250.237 680.243 250.517L679.627 251.329C679.366 251.143 679.109 251.007 678.857 250.923C678.614 250.83 678.344 250.783 678.045 250.783C677.448 250.783 676.981 251.021 676.645 251.497C676.318 251.973 676.155 252.678 676.155 253.611C676.155 254.545 676.318 255.235 676.645 255.683C676.972 256.122 677.438 256.341 678.045 256.341C678.334 256.341 678.6 256.299 678.843 256.215C679.086 256.122 679.356 255.977 679.655 255.781L680.243 256.621C679.571 257.163 678.82 257.433 677.989 257.433C676.99 257.433 676.202 257.097 675.623 256.425C675.054 255.753 674.769 254.825 674.769 253.639C674.769 252.855 674.9 252.169 675.161 251.581C675.422 250.993 675.791 250.536 676.267 250.209C676.752 249.883 677.326 249.719 677.989 249.719ZM689.108 256.929C688.622 257.265 688.072 257.433 687.456 257.433C686.83 257.433 686.34 257.256 685.986 256.901C685.64 256.537 685.468 256.015 685.468 255.333V250.881H684.18V249.887H685.468V248.221L686.756 248.067V249.887H688.506L688.366 250.881H686.756V255.277C686.756 255.66 686.821 255.94 686.952 256.117C687.092 256.285 687.32 256.369 687.638 256.369C687.927 256.369 688.254 256.271 688.618 256.075L689.108 256.929ZM692.855 249.719C693.891 249.719 694.694 250.065 695.263 250.755C695.842 251.446 696.131 252.384 696.131 253.569C696.131 254.335 696.001 255.011 695.739 255.599C695.478 256.178 695.1 256.631 694.605 256.957C694.111 257.275 693.523 257.433 692.841 257.433C691.805 257.433 690.998 257.088 690.419 256.397C689.841 255.707 689.551 254.769 689.551 253.583C689.551 252.818 689.682 252.146 689.943 251.567C690.205 250.979 690.583 250.527 691.077 250.209C691.572 249.883 692.165 249.719 692.855 249.719ZM692.855 250.755C691.577 250.755 690.937 251.698 690.937 253.583C690.937 255.459 691.572 256.397 692.841 256.397C694.111 256.397 694.745 255.455 694.745 253.569C694.745 251.693 694.115 250.755 692.855 250.755ZM654.209 270.719C654.471 270.719 654.713 270.747 654.937 270.803L654.699 272.063C654.475 272.007 654.261 271.979 654.055 271.979C653.598 271.979 653.229 272.147 652.949 272.483C652.669 272.819 652.45 273.342 652.291 274.051V278.265H651.003V270.887H652.109L652.235 272.385C652.431 271.835 652.697 271.419 653.033 271.139C653.369 270.859 653.761 270.719 654.209 270.719ZM661.398 274.359C661.398 274.574 661.389 274.793 661.37 275.017H656.666C656.722 275.829 656.927 276.427 657.282 276.809C657.637 277.192 658.094 277.383 658.654 277.383C659.009 277.383 659.335 277.332 659.634 277.229C659.933 277.127 660.245 276.963 660.572 276.739L661.132 277.509C660.348 278.125 659.489 278.433 658.556 278.433C657.529 278.433 656.727 278.097 656.148 277.425C655.579 276.753 655.294 275.829 655.294 274.653C655.294 273.888 655.415 273.211 655.658 272.623C655.91 272.026 656.265 271.559 656.722 271.223C657.189 270.887 657.735 270.719 658.36 270.719C659.34 270.719 660.091 271.041 660.614 271.685C661.137 272.329 661.398 273.221 661.398 274.359ZM660.124 273.981C660.124 273.253 659.979 272.698 659.69 272.315C659.401 271.933 658.967 271.741 658.388 271.741C657.333 271.741 656.759 272.516 656.666 274.065H660.124V273.981ZM665.989 270.719C666.428 270.719 666.829 270.785 667.193 270.915C667.557 271.037 667.907 271.237 668.243 271.517L667.627 272.329C667.366 272.143 667.109 272.007 666.857 271.923C666.614 271.83 666.344 271.783 666.045 271.783C665.448 271.783 664.981 272.021 664.645 272.497C664.318 272.973 664.155 273.678 664.155 274.611C664.155 275.545 664.318 276.235 664.645 276.683C664.972 277.122 665.438 277.341 666.045 277.341C666.334 277.341 666.6 277.299 666.843 277.215C667.086 277.122 667.356 276.977 667.655 276.781L668.243 277.621C667.571 278.163 666.82 278.433 665.989 278.433C664.99 278.433 664.202 278.097 663.623 277.425C663.054 276.753 662.769 275.825 662.769 274.639C662.769 273.855 662.9 273.169 663.161 272.581C663.422 271.993 663.791 271.536 664.267 271.209C664.752 270.883 665.326 270.719 665.989 270.719ZM671.12 270.887V278.265H669.832V270.887H671.12ZM670.462 267.345C670.733 267.345 670.952 267.429 671.12 267.597C671.288 267.765 671.372 267.975 671.372 268.227C671.372 268.479 671.288 268.689 671.12 268.857C670.952 269.016 670.733 269.095 670.462 269.095C670.201 269.095 669.986 269.016 669.818 268.857C669.65 268.689 669.566 268.479 669.566 268.227C669.566 267.975 669.65 267.765 669.818 267.597C669.986 267.429 670.201 267.345 670.462 267.345ZM677.018 270.719C677.96 270.719 678.651 271.055 679.09 271.727C679.528 272.399 679.748 273.347 679.748 274.569C679.748 275.727 679.496 276.66 678.992 277.369C678.488 278.079 677.774 278.433 676.85 278.433C676.028 278.433 675.384 278.153 674.918 277.593V281.093L673.63 281.247V270.887H674.736L674.834 271.881C675.104 271.508 675.431 271.223 675.814 271.027C676.196 270.822 676.598 270.719 677.018 270.719ZM676.542 277.383C677.755 277.383 678.362 276.445 678.362 274.569C678.362 272.684 677.806 271.741 676.696 271.741C676.332 271.741 676 271.849 675.702 272.063C675.403 272.278 675.142 272.553 674.918 272.889V276.487C675.104 276.777 675.338 277.001 675.618 277.159C675.898 277.309 676.206 277.383 676.542 277.383ZM683.076 270.887V278.265H681.788V270.887H683.076ZM682.418 267.345C682.689 267.345 682.908 267.429 683.076 267.597C683.244 267.765 683.328 267.975 683.328 268.227C683.328 268.479 683.244 268.689 683.076 268.857C682.908 269.016 682.689 269.095 682.418 269.095C682.157 269.095 681.942 269.016 681.774 268.857C681.606 268.689 681.522 268.479 681.522 268.227C681.522 267.975 681.606 267.765 681.774 267.597C681.942 267.429 682.157 267.345 682.418 267.345ZM691.157 274.359C691.157 274.574 691.148 274.793 691.129 275.017H686.425C686.481 275.829 686.687 276.427 687.041 276.809C687.396 277.192 687.853 277.383 688.413 277.383C688.768 277.383 689.095 277.332 689.393 277.229C689.692 277.127 690.005 276.963 690.331 276.739L690.891 277.509C690.107 278.125 689.249 278.433 688.315 278.433C687.289 278.433 686.486 278.097 685.907 277.425C685.338 276.753 685.053 275.829 685.053 274.653C685.053 273.888 685.175 273.211 685.417 272.623C685.669 272.026 686.024 271.559 686.481 271.223C686.948 270.887 687.494 270.719 688.119 270.719C689.099 270.719 689.851 271.041 690.373 271.685C690.896 272.329 691.157 273.221 691.157 274.359ZM689.883 273.981C689.883 273.253 689.739 272.698 689.449 272.315C689.16 271.933 688.726 271.741 688.147 271.741C687.093 271.741 686.519 272.516 686.425 274.065H689.883V273.981ZM696.532 270.719C697.204 270.719 697.727 270.92 698.1 271.321C698.483 271.723 698.674 272.273 698.674 272.973V278.265H697.386V273.155C697.386 272.633 697.288 272.264 697.092 272.049C696.896 271.835 696.607 271.727 696.224 271.727C695.832 271.727 695.487 271.839 695.188 272.063C694.889 272.287 694.609 272.609 694.348 273.029V278.265H693.06V270.887H694.166L694.278 271.979C694.539 271.587 694.861 271.279 695.244 271.055C695.636 270.831 696.065 270.719 696.532 270.719ZM704.833 277.929C704.348 278.265 703.797 278.433 703.181 278.433C702.556 278.433 702.066 278.256 701.711 277.901C701.366 277.537 701.193 277.015 701.193 276.333V271.881H699.905V270.887H701.193V269.221L702.481 269.067V270.887H704.231L704.091 271.881H702.481V276.277C702.481 276.66 702.547 276.94 702.677 277.117C702.817 277.285 703.046 277.369 703.363 277.369C703.653 277.369 703.979 277.271 704.343 277.075L704.833 277.929Z" fill="white"/>
<path d="M588.986 250.925C588.157 250.925 587.486 251.597 587.486 252.425C587.486 253.254 588.157 253.925 588.986 253.925V250.925ZM622.572 253.486C623.158 252.9 623.158 251.951 622.572 251.365L613.026 241.819C612.44 241.233 611.49 241.233 610.905 241.819C610.319 242.405 610.319 243.354 610.905 243.94L619.39 252.425L610.905 260.911C610.319 261.496 610.319 262.446 610.905 263.032C611.49 263.618 612.44 263.618 613.026 263.032L622.572 253.486ZM588.986 253.925H621.511V250.925H588.986V253.925Z" fill="#85E0A3"/>
<path d="M534.741 146.869C534.741 146.041 534.07 145.369 533.241 145.369C532.413 145.369 531.741 146.041 531.741 146.869H534.741ZM532.181 197.284C532.767 197.87 533.716 197.87 534.302 197.284L543.848 187.738C544.434 187.152 544.434 186.202 543.848 185.616C543.262 185.031 542.313 185.031 541.727 185.616L533.241 194.102L524.756 185.616C524.17 185.031 523.221 185.031 522.635 185.616C522.049 186.202 522.049 187.152 522.635 187.738L532.181 197.284ZM531.741 146.869V196.223H534.741V146.869H531.741Z" fill="#85E0A3"/>
</svg>
