<svg width="714" height="283" viewBox="0 0 714 283" fill="none" xmlns="http://www.w3.org/2000/svg">
<rect y="106.888" width="133.819" height="56.5811" rx="6" fill="#676827"/>
<path d="M57.6273 129.574C58.206 129.574 58.6913 129.648 59.0833 129.798C59.4847 129.947 59.8907 130.19 60.3013 130.526L59.5733 131.38C58.9853 130.904 58.3647 130.666 57.7113 130.666C56.9087 130.666 56.26 130.974 55.7653 131.59C55.28 132.206 55.0373 133.195 55.0373 134.558C55.0373 135.883 55.28 136.863 55.7653 137.498C56.2507 138.123 56.8947 138.436 57.6973 138.436C58.108 138.436 58.4673 138.366 58.7753 138.226C59.0833 138.086 59.41 137.89 59.7553 137.638L60.4133 138.478C60.1147 138.786 59.732 139.042 59.2653 139.248C58.7987 139.453 58.262 139.556 57.6553 139.556C56.8713 139.556 56.1713 139.364 55.5553 138.982C54.9487 138.59 54.4727 138.02 54.1273 137.274C53.7913 136.518 53.6233 135.612 53.6233 134.558C53.6233 133.503 53.8007 132.602 54.1553 131.856C54.51 131.1 54.9907 130.53 55.5973 130.148C56.204 129.765 56.8807 129.574 57.6273 129.574ZM65.1986 131.842C65.8706 131.842 66.3933 132.042 66.7666 132.444C67.1493 132.845 67.3406 133.396 67.3406 134.096V139.388H66.0526V134.278C66.0526 133.755 65.9499 133.386 65.7446 133.172C65.5486 132.957 65.2593 132.85 64.8766 132.85C64.4939 132.85 64.1533 132.962 63.8546 133.186C63.5559 133.41 63.2759 133.727 63.0146 134.138V139.388H61.7266V129.056L63.0146 128.916V133.032C63.5933 132.238 64.3213 131.842 65.1986 131.842ZM74.7457 137.666C74.7457 137.964 74.797 138.188 74.8997 138.338C75.0024 138.478 75.1564 138.585 75.3617 138.66L75.0677 139.556C74.685 139.509 74.377 139.402 74.1437 139.234C73.9104 139.066 73.7377 138.804 73.6257 138.45C73.131 139.187 72.3984 139.556 71.4277 139.556C70.6997 139.556 70.1257 139.35 69.7057 138.94C69.2857 138.529 69.0757 137.992 69.0757 137.33C69.0757 136.546 69.3557 135.944 69.9157 135.524C70.485 135.104 71.2877 134.894 72.3237 134.894H73.4577V134.348C73.4577 133.825 73.3317 133.452 73.0797 133.228C72.8277 133.004 72.4404 132.892 71.9177 132.892C71.3764 132.892 70.7137 133.022 69.9297 133.284L69.6077 132.346C70.5224 132.01 71.3717 131.842 72.1557 131.842C73.0237 131.842 73.6724 132.056 74.1017 132.486C74.531 132.906 74.7457 133.508 74.7457 134.292V137.666ZM71.7217 138.59C72.459 138.59 73.0377 138.207 73.4577 137.442V135.748H72.4917C71.129 135.748 70.4477 136.252 70.4477 137.26C70.4477 137.698 70.555 138.03 70.7697 138.254C70.9844 138.478 71.3017 138.59 71.7217 138.59ZM80.9609 139.052C80.4756 139.388 79.9249 139.556 79.3089 139.556C78.6836 139.556 78.1936 139.378 77.8389 139.024C77.4936 138.66 77.3209 138.137 77.3209 137.456V133.004H76.0329V132.01H77.3209V130.344L78.6089 130.19V132.01H80.3589L80.2189 133.004H78.6089V137.4C78.6089 137.782 78.6743 138.062 78.8049 138.24C78.9449 138.408 79.1736 138.492 79.4909 138.492C79.7803 138.492 80.1069 138.394 80.4709 138.198L80.9609 139.052Z" fill="white"/>
<rect x="383.045" y="106.888" width="133.819" height="56.5811" rx="6" fill="#676827"/>
<path d="M414.424 139.388L413.696 136.966H410.042L409.314 139.388H407.97L411.064 129.742H412.744L415.824 139.388H414.424ZM410.364 135.888H413.374L411.876 130.848L410.364 135.888ZM422.799 129.042V139.388H421.665L421.539 138.366C421.297 138.739 420.993 139.033 420.629 139.248C420.265 139.453 419.859 139.556 419.411 139.556C418.534 139.556 417.848 139.21 417.353 138.52C416.868 137.829 416.625 136.9 416.625 135.734C416.625 134.978 416.742 134.306 416.975 133.718C417.209 133.13 417.545 132.672 417.983 132.346C418.422 132.01 418.935 131.842 419.523 131.842C420.279 131.842 420.942 132.145 421.511 132.752V128.888L422.799 129.042ZM419.691 138.534C420.083 138.534 420.419 138.445 420.699 138.268C420.979 138.081 421.25 137.806 421.511 137.442V133.83C421.269 133.512 421.007 133.274 420.727 133.116C420.457 132.948 420.149 132.864 419.803 132.864C419.234 132.864 418.791 133.102 418.473 133.578C418.165 134.054 418.011 134.763 418.011 135.706C418.011 136.658 418.156 137.367 418.445 137.834C418.735 138.3 419.15 138.534 419.691 138.534ZM431.012 129.042V139.388H429.878L429.752 138.366C429.51 138.739 429.206 139.033 428.842 139.248C428.478 139.453 428.072 139.556 427.624 139.556C426.747 139.556 426.061 139.21 425.566 138.52C425.081 137.829 424.838 136.9 424.838 135.734C424.838 134.978 424.955 134.306 425.188 133.718C425.422 133.13 425.758 132.672 426.196 132.346C426.635 132.01 427.148 131.842 427.736 131.842C428.492 131.842 429.155 132.145 429.724 132.752V128.888L431.012 129.042ZM427.904 138.534C428.296 138.534 428.632 138.445 428.912 138.268C429.192 138.081 429.463 137.806 429.724 137.442V133.83C429.482 133.512 429.22 133.274 428.94 133.116C428.67 132.948 428.362 132.864 428.016 132.864C427.447 132.864 427.004 133.102 426.686 133.578C426.378 134.054 426.224 134.763 426.224 135.706C426.224 136.658 426.369 137.367 426.658 137.834C426.948 138.3 427.363 138.534 427.904 138.534ZM436.72 131.842C436.981 131.842 437.224 131.87 437.448 131.926L437.21 133.186C436.986 133.13 436.771 133.102 436.566 133.102C436.108 133.102 435.74 133.27 435.46 133.606C435.18 133.942 434.96 134.464 434.802 135.174V139.388H433.514V132.01H434.62L434.746 133.508C434.942 132.957 435.208 132.542 435.544 132.262C435.88 131.982 436.272 131.842 436.72 131.842ZM443.908 135.482C443.908 135.696 443.899 135.916 443.88 136.14H439.176C439.232 136.952 439.437 137.549 439.792 137.932C440.147 138.314 440.604 138.506 441.164 138.506C441.519 138.506 441.845 138.454 442.144 138.352C442.443 138.249 442.755 138.086 443.082 137.862L443.642 138.632C442.858 139.248 441.999 139.556 441.066 139.556C440.039 139.556 439.237 139.22 438.658 138.548C438.089 137.876 437.804 136.952 437.804 135.776C437.804 135.01 437.925 134.334 438.168 133.746C438.42 133.148 438.775 132.682 439.232 132.346C439.699 132.01 440.245 131.842 440.87 131.842C441.85 131.842 442.601 132.164 443.124 132.808C443.647 133.452 443.908 134.343 443.908 135.482ZM442.634 135.104C442.634 134.376 442.489 133.82 442.2 133.438C441.911 133.055 441.477 132.864 440.898 132.864C439.843 132.864 439.269 133.638 439.176 135.188H442.634V135.104ZM447.813 131.842C448.317 131.842 448.77 131.912 449.171 132.052C449.572 132.192 449.955 132.402 450.319 132.682L449.773 133.494C449.437 133.279 449.115 133.12 448.807 133.018C448.508 132.915 448.191 132.864 447.855 132.864C447.435 132.864 447.104 132.952 446.861 133.13C446.618 133.298 446.497 133.531 446.497 133.83C446.497 134.128 446.609 134.362 446.833 134.53C447.066 134.698 447.482 134.861 448.079 135.02C448.9 135.225 449.512 135.505 449.913 135.86C450.324 136.214 450.529 136.7 450.529 137.316C450.529 138.044 450.244 138.599 449.675 138.982C449.115 139.364 448.429 139.556 447.617 139.556C446.497 139.556 445.568 139.234 444.831 138.59L445.517 137.806C446.142 138.282 446.833 138.52 447.589 138.52C448.074 138.52 448.457 138.422 448.737 138.226C449.026 138.02 449.171 137.745 449.171 137.4C449.171 137.148 449.12 136.947 449.017 136.798C448.914 136.639 448.737 136.504 448.485 136.392C448.233 136.27 447.864 136.144 447.379 136.014C446.595 135.808 446.026 135.533 445.671 135.188C445.326 134.842 445.153 134.404 445.153 133.872C445.153 133.489 445.265 133.144 445.489 132.836C445.722 132.518 446.04 132.276 446.441 132.108C446.852 131.93 447.309 131.842 447.813 131.842ZM454.057 131.842C454.561 131.842 455.014 131.912 455.415 132.052C455.817 132.192 456.199 132.402 456.563 132.682L456.017 133.494C455.681 133.279 455.359 133.12 455.051 133.018C454.753 132.915 454.435 132.864 454.099 132.864C453.679 132.864 453.348 132.952 453.105 133.13C452.863 133.298 452.741 133.531 452.741 133.83C452.741 134.128 452.853 134.362 453.077 134.53C453.311 134.698 453.726 134.861 454.323 135.02C455.145 135.225 455.756 135.505 456.157 135.86C456.568 136.214 456.773 136.7 456.773 137.316C456.773 138.044 456.489 138.599 455.919 138.982C455.359 139.364 454.673 139.556 453.861 139.556C452.741 139.556 451.813 139.234 451.075 138.59L451.761 137.806C452.387 138.282 453.077 138.52 453.833 138.52C454.319 138.52 454.701 138.422 454.981 138.226C455.271 138.02 455.415 137.745 455.415 137.4C455.415 137.148 455.364 136.947 455.261 136.798C455.159 136.639 454.981 136.504 454.729 136.392C454.477 136.27 454.109 136.144 453.623 136.014C452.839 135.808 452.27 135.533 451.915 135.188C451.57 134.842 451.397 134.404 451.397 133.872C451.397 133.489 451.509 133.144 451.733 132.836C451.967 132.518 452.284 132.276 452.685 132.108C453.096 131.93 453.553 131.842 454.057 131.842ZM465.362 131.842C466.202 131.842 466.869 132.182 467.364 132.864C467.858 133.536 468.106 134.478 468.106 135.692C468.106 136.457 467.989 137.134 467.756 137.722C467.522 138.3 467.186 138.753 466.748 139.08C466.309 139.397 465.796 139.556 465.208 139.556C464.433 139.556 463.78 139.229 463.248 138.576L463.122 139.388H461.988V129.042L463.276 128.888V132.934C463.808 132.206 464.503 131.842 465.362 131.842ZM464.9 138.534C465.469 138.534 465.912 138.305 466.23 137.848C466.556 137.381 466.72 136.662 466.72 135.692C466.72 134.693 466.57 133.974 466.272 133.536C465.973 133.088 465.548 132.864 464.998 132.864C464.344 132.864 463.77 133.246 463.276 134.012V137.54C463.472 137.848 463.71 138.09 463.99 138.268C464.279 138.445 464.582 138.534 464.9 138.534ZM472.918 131.842C473.954 131.842 474.757 132.187 475.326 132.878C475.905 133.568 476.194 134.506 476.194 135.692C476.194 136.457 476.064 137.134 475.802 137.722C475.541 138.3 475.163 138.753 474.668 139.08C474.174 139.397 473.586 139.556 472.904 139.556C471.868 139.556 471.061 139.21 470.482 138.52C469.904 137.829 469.614 136.891 469.614 135.706C469.614 134.94 469.745 134.268 470.006 133.69C470.268 133.102 470.646 132.649 471.14 132.332C471.635 132.005 472.228 131.842 472.918 131.842ZM472.918 132.878C471.64 132.878 471 133.82 471 135.706C471 137.582 471.635 138.52 472.904 138.52C474.174 138.52 474.808 137.577 474.808 135.692C474.808 133.816 474.178 132.878 472.918 132.878ZM480.94 131.842C481.976 131.842 482.779 132.187 483.348 132.878C483.927 133.568 484.216 134.506 484.216 135.692C484.216 136.457 484.085 137.134 483.824 137.722C483.563 138.3 483.185 138.753 482.69 139.08C482.195 139.397 481.607 139.556 480.926 139.556C479.89 139.556 479.083 139.21 478.504 138.52C477.925 137.829 477.636 136.891 477.636 135.706C477.636 134.94 477.767 134.268 478.028 133.69C478.289 133.102 478.667 132.649 479.162 132.332C479.657 132.005 480.249 131.842 480.94 131.842ZM480.94 132.878C479.661 132.878 479.022 133.82 479.022 135.706C479.022 137.582 479.657 138.52 480.926 138.52C482.195 138.52 482.83 137.577 482.83 135.692C482.83 133.816 482.2 132.878 480.94 132.878ZM487.478 128.888V139.388H486.19V129.042L487.478 128.888ZM491.72 132.01L489.004 135.272L492.028 139.388H490.488L487.562 135.356L490.278 132.01H491.72Z" fill="white"/>
<ellipse cx="264.943" cy="135.178" rx="60.1736" ry="60.6226" fill="#155A32"/>
<path d="M231.412 117.34C232.074 117.34 232.628 117.425 233.076 117.596C233.535 117.766 233.999 118.044 234.468 118.428L233.636 119.404C232.964 118.86 232.255 118.588 231.508 118.588C230.591 118.588 229.85 118.94 229.284 119.644C228.73 120.348 228.452 121.478 228.452 123.036C228.452 124.55 228.73 125.67 229.284 126.396C229.839 127.11 230.575 127.468 231.492 127.468C231.962 127.468 232.372 127.388 232.724 127.228C233.076 127.068 233.45 126.844 233.844 126.556L234.596 127.516C234.255 127.868 233.818 128.161 233.284 128.396C232.751 128.63 232.138 128.748 231.444 128.748C230.548 128.748 229.748 128.529 229.044 128.092C228.351 127.644 227.807 126.993 227.412 126.14C227.028 125.276 226.836 124.241 226.836 123.036C226.836 121.83 227.039 120.801 227.444 119.948C227.85 119.084 228.399 118.433 229.092 117.996C229.786 117.558 230.559 117.34 231.412 117.34ZM239.683 119.932C239.982 119.932 240.259 119.964 240.515 120.028L240.243 121.468C239.987 121.404 239.742 121.372 239.507 121.372C238.984 121.372 238.563 121.564 238.243 121.948C237.923 122.332 237.672 122.929 237.491 123.74V128.556H236.019V120.124H237.283L237.427 121.836C237.651 121.206 237.955 120.732 238.339 120.412C238.723 120.092 239.171 119.932 239.683 119.932ZM247.898 124.092C247.898 124.337 247.888 124.588 247.866 124.844H242.49C242.554 125.772 242.789 126.454 243.194 126.892C243.6 127.329 244.122 127.548 244.762 127.548C245.168 127.548 245.541 127.489 245.882 127.372C246.224 127.254 246.581 127.068 246.954 126.812L247.594 127.692C246.698 128.396 245.717 128.748 244.65 128.748C243.477 128.748 242.56 128.364 241.898 127.596C241.248 126.828 240.922 125.772 240.922 124.428C240.922 123.553 241.061 122.78 241.338 122.108C241.626 121.425 242.032 120.892 242.554 120.508C243.088 120.124 243.712 119.932 244.426 119.932C245.546 119.932 246.405 120.3 247.002 121.036C247.6 121.772 247.898 122.79 247.898 124.092ZM246.442 123.66C246.442 122.828 246.277 122.193 245.946 121.756C245.616 121.318 245.12 121.1 244.458 121.1C243.253 121.1 242.597 121.985 242.49 123.756H246.442V123.66ZM255.597 126.588C255.597 126.929 255.656 127.185 255.773 127.356C255.89 127.516 256.066 127.638 256.301 127.724L255.965 128.748C255.528 128.694 255.176 128.572 254.909 128.38C254.642 128.188 254.445 127.889 254.317 127.484C253.752 128.326 252.914 128.748 251.805 128.748C250.973 128.748 250.317 128.513 249.837 128.044C249.357 127.574 249.117 126.961 249.117 126.204C249.117 125.308 249.437 124.62 250.077 124.14C250.728 123.66 251.645 123.42 252.829 123.42H254.125V122.796C254.125 122.198 253.981 121.772 253.693 121.516C253.405 121.26 252.962 121.132 252.365 121.132C251.746 121.132 250.989 121.281 250.093 121.58L249.725 120.508C250.77 120.124 251.741 119.932 252.637 119.932C253.629 119.932 254.37 120.177 254.861 120.668C255.352 121.148 255.597 121.836 255.597 122.732V126.588ZM252.141 127.644C252.984 127.644 253.645 127.206 254.125 126.332V124.396H253.021C251.464 124.396 250.685 124.972 250.685 126.124C250.685 126.625 250.808 127.004 251.053 127.26C251.298 127.516 251.661 127.644 252.141 127.644ZM262.7 128.172C262.145 128.556 261.516 128.748 260.812 128.748C260.097 128.748 259.537 128.545 259.132 128.14C258.737 127.724 258.54 127.126 258.54 126.348V121.26H257.068V120.124H258.54V118.22L260.012 118.044V120.124H262.012L261.852 121.26H260.012V126.284C260.012 126.721 260.087 127.041 260.236 127.244C260.396 127.436 260.657 127.532 261.02 127.532C261.351 127.532 261.724 127.42 262.14 127.196L262.7 128.172ZM270.183 124.092C270.183 124.337 270.172 124.588 270.151 124.844H264.775C264.839 125.772 265.074 126.454 265.479 126.892C265.884 127.329 266.407 127.548 267.047 127.548C267.452 127.548 267.826 127.489 268.167 127.372C268.508 127.254 268.866 127.068 269.239 126.812L269.879 127.692C268.983 128.396 268.002 128.748 266.935 128.748C265.762 128.748 264.844 128.364 264.183 127.596C263.532 126.828 263.207 125.772 263.207 124.428C263.207 123.553 263.346 122.78 263.623 122.108C263.911 121.425 264.316 120.892 264.839 120.508C265.372 120.124 265.996 119.932 266.711 119.932C267.831 119.932 268.69 120.3 269.287 121.036C269.884 121.772 270.183 122.79 270.183 124.092ZM268.727 123.66C268.727 122.828 268.562 122.193 268.231 121.756C267.9 121.318 267.404 121.1 266.743 121.1C265.538 121.1 264.882 121.985 264.775 123.756H268.727V123.66ZM280.384 119.932C281.152 119.932 281.749 120.161 282.176 120.62C282.613 121.078 282.832 121.708 282.832 122.508V128.556H281.36V122.716C281.36 122.118 281.248 121.697 281.024 121.452C280.8 121.206 280.469 121.084 280.032 121.084C279.584 121.084 279.189 121.212 278.848 121.468C278.507 121.724 278.187 122.092 277.888 122.572V128.556H276.416V120.124H277.68L277.808 121.372C278.107 120.924 278.475 120.572 278.912 120.316C279.36 120.06 279.851 119.932 280.384 119.932ZM291.983 124.092C291.983 124.337 291.972 124.588 291.951 124.844H286.575C286.639 125.772 286.874 126.454 287.279 126.892C287.684 127.329 288.207 127.548 288.847 127.548C289.252 127.548 289.626 127.489 289.967 127.372C290.308 127.254 290.666 127.068 291.039 126.812L291.679 127.692C290.783 128.396 289.802 128.748 288.735 128.748C287.562 128.748 286.644 128.364 285.983 127.596C285.332 126.828 285.007 125.772 285.007 124.428C285.007 123.553 285.146 122.78 285.423 122.108C285.711 121.425 286.116 120.892 286.639 120.508C287.172 120.124 287.796 119.932 288.511 119.932C289.631 119.932 290.49 120.3 291.087 121.036C291.684 121.772 291.983 122.79 291.983 124.092ZM290.527 123.66C290.527 122.828 290.362 122.193 290.031 121.756C289.7 121.318 289.204 121.1 288.543 121.1C287.338 121.1 286.682 121.985 286.575 123.756H290.527V123.66ZM303.79 120.124L301.87 128.556H299.87L298.398 121.452L296.878 128.556H294.926L292.958 120.124H294.43L295.95 127.532L297.614 120.124H299.262L300.846 127.532L302.382 120.124H303.79ZM254.049 143.932C254.551 143.932 255.009 144.006 255.425 144.156C255.841 144.294 256.241 144.524 256.625 144.844L255.921 145.772C255.623 145.558 255.329 145.404 255.041 145.308C254.764 145.201 254.455 145.148 254.113 145.148C253.431 145.148 252.897 145.42 252.513 145.964C252.14 146.508 251.953 147.313 251.953 148.38C251.953 149.446 252.14 150.236 252.513 150.748C252.887 151.249 253.42 151.5 254.113 151.5C254.444 151.5 254.748 151.452 255.025 151.356C255.303 151.249 255.612 151.084 255.953 150.86L256.625 151.82C255.857 152.438 254.999 152.748 254.049 152.748C252.908 152.748 252.007 152.364 251.345 151.596C250.695 150.828 250.369 149.766 250.369 148.412C250.369 147.516 250.519 146.732 250.817 146.06C251.116 145.388 251.537 144.865 252.081 144.492C252.636 144.118 253.292 143.932 254.049 143.932ZM262.41 143.932C263.178 143.932 263.775 144.161 264.202 144.62C264.639 145.078 264.858 145.708 264.858 146.508V152.556H263.386V146.716C263.386 146.118 263.269 145.697 263.034 145.452C262.81 145.206 262.479 145.084 262.042 145.084C261.605 145.084 261.215 145.212 260.874 145.468C260.533 145.724 260.213 146.086 259.914 146.556V152.556H258.442V140.748L259.914 140.588V145.292C260.575 144.385 261.407 143.932 262.41 143.932ZM273.321 150.588C273.321 150.929 273.38 151.185 273.497 151.356C273.614 151.516 273.79 151.638 274.025 151.724L273.689 152.748C273.252 152.694 272.9 152.572 272.633 152.38C272.366 152.188 272.169 151.889 272.041 151.484C271.476 152.326 270.638 152.748 269.529 152.748C268.697 152.748 268.041 152.513 267.561 152.044C267.081 151.574 266.841 150.961 266.841 150.204C266.841 149.308 267.161 148.62 267.801 148.14C268.452 147.66 269.369 147.42 270.553 147.42H271.849V146.796C271.849 146.198 271.705 145.772 271.417 145.516C271.129 145.26 270.686 145.132 270.089 145.132C269.47 145.132 268.713 145.281 267.817 145.58L267.449 144.508C268.494 144.124 269.465 143.932 270.361 143.932C271.353 143.932 272.094 144.177 272.585 144.668C273.076 145.148 273.321 145.836 273.321 146.732V150.588ZM269.865 151.644C270.708 151.644 271.369 151.206 271.849 150.332V148.396H270.745C269.188 148.396 268.409 148.972 268.409 150.124C268.409 150.625 268.532 151.004 268.777 151.26C269.022 151.516 269.385 151.644 269.865 151.644ZM280.424 152.172C279.869 152.556 279.24 152.748 278.536 152.748C277.821 152.748 277.261 152.545 276.856 152.14C276.461 151.724 276.264 151.126 276.264 150.348V145.26H274.792V144.124H276.264V142.22L277.736 142.044V144.124H279.736L279.576 145.26H277.736V150.284C277.736 150.721 277.811 151.041 277.96 151.244C278.12 151.436 278.381 151.532 278.744 151.532C279.075 151.532 279.448 151.42 279.864 151.196L280.424 152.172Z" fill="white"/>
<ellipse cx="651.132" cy="62.4316" rx="61.9698" ry="62.4189" fill="#155A32"/>
<path d="M622.065 35.8667V45.5127H620.735V35.8667H622.065ZM628.112 37.9667C628.784 37.9667 629.307 38.1674 629.68 38.5687C630.063 38.97 630.254 39.5207 630.254 40.2207V45.5127H628.966V40.4027C628.966 39.88 628.868 39.5114 628.672 39.2967C628.476 39.082 628.187 38.9747 627.804 38.9747C627.412 38.9747 627.067 39.0867 626.768 39.3107C626.47 39.5347 626.19 39.8567 625.928 40.2767V45.5127H624.64V38.1347H625.746L625.858 39.2267C626.12 38.8347 626.442 38.5267 626.824 38.3027C627.216 38.0787 627.646 37.9667 628.112 37.9667ZM638.012 38.1347L635.506 45.5127H633.952L631.404 38.1347H632.804L634.736 44.3647L636.654 38.1347H638.012ZM640.618 38.1347V45.5127H639.33V38.1347H640.618ZM639.96 34.5927C640.231 34.5927 640.45 34.6767 640.618 34.8447C640.786 35.0127 640.87 35.2227 640.87 35.4747C640.87 35.7267 640.786 35.9367 640.618 36.1047C640.45 36.2634 640.231 36.3427 639.96 36.3427C639.699 36.3427 639.484 36.2634 639.316 36.1047C639.148 35.9367 639.064 35.7267 639.064 35.4747C639.064 35.2227 639.148 35.0127 639.316 34.8447C639.484 34.6767 639.699 34.5927 639.96 34.5927ZM646.852 45.1767C646.366 45.5127 645.816 45.6807 645.2 45.6807C644.574 45.6807 644.084 45.5034 643.73 45.1487C643.384 44.7847 643.212 44.262 643.212 43.5807V39.1287H641.924V38.1347H643.212V36.4687L644.5 36.3147V38.1347H646.25L646.11 39.1287H644.5V43.5247C644.5 43.9074 644.565 44.1874 644.696 44.3647C644.836 44.5327 645.064 44.6167 645.382 44.6167C645.671 44.6167 645.998 44.5187 646.362 44.3227L646.852 45.1767ZM653.399 41.6067C653.399 41.8214 653.39 42.0407 653.371 42.2647H648.667C648.723 43.0767 648.928 43.674 649.283 44.0567C649.638 44.4394 650.095 44.6307 650.655 44.6307C651.01 44.6307 651.336 44.5794 651.635 44.4767C651.934 44.374 652.246 44.2107 652.573 43.9867L653.133 44.7567C652.349 45.3727 651.49 45.6807 650.557 45.6807C649.53 45.6807 648.728 45.3447 648.149 44.6727C647.58 44.0007 647.295 43.0767 647.295 41.9007C647.295 41.1354 647.416 40.4587 647.659 39.8707C647.911 39.2734 648.266 38.8067 648.723 38.4707C649.19 38.1347 649.736 37.9667 650.361 37.9667C651.341 37.9667 652.092 38.2887 652.615 38.9327C653.138 39.5767 653.399 40.468 653.399 41.6067ZM652.125 41.2287C652.125 40.5007 651.98 39.9454 651.691 39.5627C651.402 39.18 650.968 38.9887 650.389 38.9887C649.334 38.9887 648.76 39.7634 648.667 41.3127H652.125V41.2287ZM662.325 37.9667C662.997 37.9667 663.52 38.1674 663.893 38.5687C664.276 38.97 664.467 39.5207 664.467 40.2207V45.5127H663.179V40.4027C663.179 39.88 663.081 39.5114 662.885 39.2967C662.689 39.082 662.4 38.9747 662.017 38.9747C661.625 38.9747 661.28 39.0867 660.981 39.3107C660.682 39.5347 660.402 39.8567 660.141 40.2767V45.5127H658.853V38.1347H659.959L660.071 39.2267C660.332 38.8347 660.654 38.5267 661.037 38.3027C661.429 38.0787 661.858 37.9667 662.325 37.9667ZM672.474 41.6067C672.474 41.8214 672.465 42.0407 672.446 42.2647H667.742C667.798 43.0767 668.004 43.674 668.358 44.0567C668.713 44.4394 669.17 44.6307 669.73 44.6307C670.085 44.6307 670.412 44.5794 670.71 44.4767C671.009 44.374 671.322 44.2107 671.648 43.9867L672.208 44.7567C671.424 45.3727 670.566 45.6807 669.632 45.6807C668.606 45.6807 667.803 45.3447 667.224 44.6727C666.655 44.0007 666.37 43.0767 666.37 41.9007C666.37 41.1354 666.492 40.4587 666.734 39.8707C666.986 39.2734 667.341 38.8067 667.798 38.4707C668.265 38.1347 668.811 37.9667 669.436 37.9667C670.416 37.9667 671.168 38.2887 671.69 38.9327C672.213 39.5767 672.474 40.468 672.474 41.6067ZM671.2 41.2287C671.2 40.5007 671.056 39.9454 670.766 39.5627C670.477 39.18 670.043 38.9887 669.464 38.9887C668.41 38.9887 667.836 39.7634 667.742 41.3127H671.2V41.2287ZM682.805 38.1347L681.125 45.5127H679.375L678.087 39.2967L676.757 45.5127H675.049L673.327 38.1347H674.615L675.945 44.6167L677.401 38.1347H678.843L680.229 44.6167L681.573 38.1347H682.805ZM618.145 66.5127H617.039L616.941 65.3647C616.661 65.822 616.339 66.158 615.975 66.3727C615.611 66.578 615.168 66.6807 614.645 66.6807C614.001 66.6807 613.497 66.4847 613.133 66.0927C612.769 65.7007 612.587 65.1454 612.587 64.4267V59.1347H613.875V64.2867C613.875 64.7907 613.964 65.15 614.141 65.3647C614.319 65.57 614.608 65.6727 615.009 65.6727C615.728 65.6727 616.344 65.248 616.857 64.3987V59.1347H618.145V66.5127ZM622.654 58.9667C623.158 58.9667 623.61 59.0367 624.012 59.1767C624.413 59.3167 624.796 59.5267 625.16 59.8067L624.614 60.6187C624.278 60.404 623.956 60.2454 623.648 60.1427C623.349 60.04 623.032 59.9887 622.696 59.9887C622.276 59.9887 621.944 60.0774 621.702 60.2547C621.459 60.4227 621.338 60.656 621.338 60.9547C621.338 61.2534 621.45 61.4867 621.674 61.6547C621.907 61.8227 622.322 61.986 622.92 62.1447C623.741 62.35 624.352 62.63 624.754 62.9847C625.164 63.3394 625.37 63.8247 625.37 64.4407C625.37 65.1687 625.085 65.724 624.516 66.1067C623.956 66.4894 623.27 66.6807 622.458 66.6807C621.338 66.6807 620.409 66.3587 619.672 65.7147L620.358 64.9307C620.983 65.4067 621.674 65.6447 622.43 65.6447C622.915 65.6447 623.298 65.5467 623.578 65.3507C623.867 65.1454 624.012 64.87 624.012 64.5247C624.012 64.2727 623.96 64.072 623.858 63.9227C623.755 63.764 623.578 63.6287 623.326 63.5167C623.074 63.3954 622.705 63.2694 622.22 63.1387C621.436 62.9334 620.866 62.658 620.512 62.3127C620.166 61.9674 619.994 61.5287 619.994 60.9967C619.994 60.614 620.106 60.2687 620.33 59.9607C620.563 59.6434 620.88 59.4007 621.282 59.2327C621.692 59.0554 622.15 58.9667 622.654 58.9667ZM632.605 62.6067C632.605 62.8214 632.596 63.0407 632.577 63.2647H627.873C627.929 64.0767 628.134 64.674 628.489 65.0567C628.844 65.4394 629.301 65.6307 629.861 65.6307C630.216 65.6307 630.542 65.5794 630.841 65.4767C631.14 65.374 631.452 65.2107 631.779 64.9867L632.339 65.7567C631.555 66.3727 630.696 66.6807 629.763 66.6807C628.736 66.6807 627.934 66.3447 627.355 65.6727C626.786 65.0007 626.501 64.0767 626.501 62.9007C626.501 62.1354 626.622 61.4587 626.865 60.8707C627.117 60.2734 627.472 59.8067 627.929 59.4707C628.396 59.1347 628.942 58.9667 629.567 58.9667C630.547 58.9667 631.298 59.2887 631.821 59.9327C632.344 60.5767 632.605 61.468 632.605 62.6067ZM631.331 62.2287C631.331 61.5007 631.186 60.9454 630.897 60.5627C630.608 60.18 630.174 59.9887 629.595 59.9887C628.54 59.9887 627.966 60.7634 627.873 62.3127H631.331V62.2287ZM637.714 58.9667C637.975 58.9667 638.218 58.9947 638.442 59.0507L638.204 60.3107C637.98 60.2547 637.765 60.2267 637.56 60.2267C637.102 60.2267 636.734 60.3947 636.454 60.7307C636.174 61.0667 635.954 61.5894 635.796 62.2987V66.5127H634.508V59.1347H635.614L635.74 60.6327C635.936 60.082 636.202 59.6667 636.538 59.3867C636.874 59.1067 637.266 58.9667 637.714 58.9667ZM647.029 66.1767C646.544 66.5127 645.993 66.6807 645.377 66.6807C644.752 66.6807 644.262 66.5034 643.907 66.1487C643.562 65.7847 643.389 65.262 643.389 64.5807V60.1287H642.101V59.1347H643.389V57.4687L644.677 57.3147V59.1347H646.427L646.287 60.1287H644.677V64.5247C644.677 64.9074 644.743 65.1874 644.873 65.3647C645.013 65.5327 645.242 65.6167 645.559 65.6167C645.849 65.6167 646.175 65.5187 646.539 65.3227L647.029 66.1767ZM651.682 58.9667C652.354 58.9667 652.877 59.1674 653.25 59.5687C653.633 59.97 653.824 60.5207 653.824 61.2207V66.5127H652.536V61.4027C652.536 60.88 652.433 60.5114 652.228 60.2967C652.032 60.082 651.743 59.9747 651.36 59.9747C650.977 59.9747 650.637 60.0867 650.338 60.3107C650.039 60.5347 649.759 60.852 649.498 61.2627V66.5127H648.21V56.1807L649.498 56.0407V60.1567C650.077 59.3634 650.805 58.9667 651.682 58.9667ZM659.465 58.9667C659.726 58.9667 659.969 58.9947 660.193 59.0507L659.955 60.3107C659.731 60.2547 659.516 60.2267 659.311 60.2267C658.854 60.2267 658.485 60.3947 658.205 60.7307C657.925 61.0667 657.706 61.5894 657.547 62.2987V66.5127H656.259V59.1347H657.365L657.491 60.6327C657.687 60.082 657.953 59.6667 658.289 59.3867C658.625 59.1067 659.017 58.9667 659.465 58.9667ZM663.854 58.9667C664.89 58.9667 665.692 59.312 666.262 60.0027C666.84 60.6934 667.13 61.6314 667.13 62.8167C667.13 63.582 666.999 64.2587 666.738 64.8467C666.476 65.4254 666.098 65.878 665.604 66.2047C665.109 66.522 664.521 66.6807 663.84 66.6807C662.804 66.6807 661.996 66.3354 661.418 65.6447C660.839 64.954 660.55 64.016 660.55 62.8307C660.55 62.0654 660.68 61.3934 660.942 60.8147C661.203 60.2267 661.581 59.774 662.076 59.4567C662.57 59.13 663.163 58.9667 663.854 58.9667ZM663.854 60.0027C662.575 60.0027 661.936 60.9454 661.936 62.8307C661.936 64.7067 662.57 65.6447 663.84 65.6447C665.109 65.6447 665.744 64.702 665.744 62.8167C665.744 60.9407 665.114 60.0027 663.854 60.0027ZM674.591 66.5127H673.485L673.387 65.3647C673.107 65.822 672.785 66.158 672.421 66.3727C672.057 66.578 671.614 66.6807 671.091 66.6807C670.447 66.6807 669.943 66.4847 669.579 66.0927C669.215 65.7007 669.033 65.1454 669.033 64.4267V59.1347H670.321V64.2867C670.321 64.7907 670.41 65.15 670.587 65.3647C670.765 65.57 671.054 65.6727 671.455 65.6727C672.174 65.6727 672.79 65.248 673.303 64.3987V59.1347H674.591V66.5127ZM683.048 59.4707C682.768 59.564 682.46 59.6247 682.124 59.6527C681.788 59.6807 681.377 59.6947 680.892 59.6947C681.76 60.0867 682.194 60.7074 682.194 61.5567C682.194 62.294 681.942 62.896 681.438 63.3627C680.934 63.8294 680.248 64.0627 679.38 64.0627C679.044 64.0627 678.731 64.016 678.442 63.9227C678.33 63.9974 678.241 64.1 678.176 64.2307C678.11 64.352 678.078 64.478 678.078 64.6087C678.078 65.01 678.4 65.2107 679.044 65.2107H680.22C680.714 65.2107 681.153 65.2994 681.536 65.4767C681.918 65.654 682.212 65.8967 682.418 66.2047C682.632 66.5127 682.74 66.8627 682.74 67.2547C682.74 67.9734 682.446 68.524 681.858 68.9067C681.27 69.2987 680.411 69.4947 679.282 69.4947C678.488 69.4947 677.858 69.4107 677.392 69.2427C676.934 69.084 676.608 68.8414 676.412 68.5147C676.216 68.188 676.118 67.768 676.118 67.2547H677.28C677.28 67.5534 677.336 67.7867 677.448 67.9547C677.56 68.132 677.76 68.2627 678.05 68.3467C678.339 68.44 678.75 68.4867 679.282 68.4867C680.056 68.4867 680.607 68.3887 680.934 68.1927C681.27 68.006 681.438 67.7214 681.438 67.3387C681.438 66.9934 681.307 66.732 681.046 66.5547C680.784 66.3774 680.42 66.2887 679.954 66.2887H678.792C678.166 66.2887 677.69 66.158 677.364 65.8967C677.046 65.626 676.888 65.29 676.888 64.8887C676.888 64.646 676.958 64.4127 677.098 64.1887C677.238 63.9647 677.438 63.764 677.7 63.5867C677.27 63.3627 676.953 63.0874 676.748 62.7607C676.552 62.4247 676.454 62.0187 676.454 61.5427C676.454 61.048 676.575 60.6047 676.818 60.2127C677.07 59.8207 677.41 59.5174 677.84 59.3027C678.278 59.0787 678.764 58.9667 679.296 58.9667C679.874 58.976 680.36 58.9574 680.752 58.9107C681.144 58.8547 681.466 58.7847 681.718 58.7007C681.979 58.6074 682.296 58.4767 682.67 58.3087L683.048 59.4707ZM679.296 59.8907C678.81 59.8907 678.432 60.0447 678.162 60.3527C677.9 60.6514 677.77 61.048 677.77 61.5427C677.77 62.0467 677.905 62.4527 678.176 62.7607C678.446 63.0594 678.829 63.2087 679.324 63.2087C679.828 63.2087 680.21 63.064 680.472 62.7747C680.742 62.476 680.878 62.0607 680.878 61.5287C680.878 60.4367 680.35 59.8907 679.296 59.8907ZM687.689 58.9667C688.361 58.9667 688.884 59.1674 689.257 59.5687C689.64 59.97 689.831 60.5207 689.831 61.2207V66.5127H688.543V61.4027C688.543 60.88 688.441 60.5114 688.235 60.2967C688.039 60.082 687.75 59.9747 687.367 59.9747C686.985 59.9747 686.644 60.0867 686.345 60.3107C686.047 60.5347 685.767 60.852 685.505 61.2627V66.5127H684.217V56.1807L685.505 56.0407V60.1567C686.084 59.3634 686.812 58.9667 687.689 58.9667ZM640.691 83.6067C640.691 83.8214 640.682 84.0407 640.663 84.2647H635.959C636.015 85.0767 636.221 85.674 636.575 86.0567C636.93 86.4394 637.387 86.6307 637.947 86.6307C638.302 86.6307 638.629 86.5794 638.927 86.4767C639.226 86.374 639.539 86.2107 639.865 85.9867L640.425 86.7567C639.641 87.3727 638.783 87.6807 637.849 87.6807C636.823 87.6807 636.02 87.3447 635.441 86.6727C634.872 86.0007 634.587 85.0767 634.587 83.9007C634.587 83.1354 634.709 82.4587 634.951 81.8707C635.203 81.2734 635.558 80.8067 636.015 80.4707C636.482 80.1347 637.028 79.9667 637.653 79.9667C638.633 79.9667 639.385 80.2887 639.907 80.9327C640.43 81.5767 640.691 82.468 640.691 83.6067ZM639.417 83.2287C639.417 82.5007 639.273 81.9454 638.983 81.5627C638.694 81.18 638.26 80.9887 637.681 80.9887C636.627 80.9887 636.053 81.7634 635.959 83.3127H639.417V83.2287ZM650 79.9667C650.607 79.9667 651.092 80.172 651.456 80.5827C651.82 80.984 652.002 81.53 652.002 82.2207V87.5127H650.714V82.4027C650.714 81.4507 650.369 80.9747 649.678 80.9747C649.314 80.9747 649.006 81.082 648.754 81.2967C648.502 81.502 648.232 81.8287 647.942 82.2767V87.5127H646.654V82.4027C646.654 81.4507 646.309 80.9747 645.618 80.9747C645.245 80.9747 644.932 81.082 644.68 81.2967C644.428 81.5114 644.162 81.838 643.882 82.2767V87.5127H642.594V80.1347H643.7L643.812 81.2127C644.363 80.382 645.072 79.9667 645.94 79.9667C646.398 79.9667 646.785 80.0834 647.102 80.3167C647.429 80.55 647.662 80.8767 647.802 81.2967C648.092 80.8674 648.409 80.5407 648.754 80.3167C649.109 80.0834 649.524 79.9667 650 79.9667ZM659.414 85.7907C659.414 86.0894 659.466 86.3134 659.568 86.4627C659.671 86.6027 659.825 86.71 660.03 86.7847L659.736 87.6807C659.354 87.634 659.046 87.5267 658.812 87.3587C658.579 87.1907 658.406 86.9294 658.294 86.5747C657.8 87.312 657.067 87.6807 656.096 87.6807C655.368 87.6807 654.794 87.4754 654.374 87.0647C653.954 86.654 653.744 86.1174 653.744 85.4547C653.744 84.6707 654.024 84.0687 654.584 83.6487C655.154 83.2287 655.956 83.0187 656.992 83.0187H658.126V82.4727C658.126 81.95 658 81.5767 657.748 81.3527C657.496 81.1287 657.109 81.0167 656.586 81.0167C656.045 81.0167 655.382 81.1474 654.598 81.4087L654.276 80.4707C655.191 80.1347 656.04 79.9667 656.824 79.9667C657.692 79.9667 658.341 80.1814 658.77 80.6107C659.2 81.0307 659.414 81.6327 659.414 82.4167V85.7907ZM656.39 86.7147C657.128 86.7147 657.706 86.332 658.126 85.5667V83.8727H657.16C655.798 83.8727 655.116 84.3767 655.116 85.3847C655.116 85.8234 655.224 86.1547 655.438 86.3787C655.653 86.6027 655.97 86.7147 656.39 86.7147ZM663.193 80.1347V87.5127H661.905V80.1347H663.193ZM662.535 76.5927C662.806 76.5927 663.025 76.6767 663.193 76.8447C663.361 77.0127 663.445 77.2227 663.445 77.4747C663.445 77.7267 663.361 77.9367 663.193 78.1047C663.025 78.2634 662.806 78.3427 662.535 78.3427C662.274 78.3427 662.059 78.2634 661.891 78.1047C661.723 77.9367 661.639 77.7267 661.639 77.4747C661.639 77.2227 661.723 77.0127 661.891 76.8447C662.059 76.6767 662.274 76.5927 662.535 76.5927ZM667.173 87.6807C666.697 87.6807 666.319 87.5407 666.039 87.2607C665.768 86.9714 665.633 86.57 665.633 86.0567V77.1667L666.921 77.0127V86.0287C666.921 86.234 666.953 86.3834 667.019 86.4767C667.093 86.57 667.215 86.6167 667.383 86.6167C667.56 86.6167 667.719 86.5887 667.859 86.5327L668.195 87.4287C667.887 87.5967 667.546 87.6807 667.173 87.6807Z" fill="white"/>
<ellipse cx="651.581" cy="220.051" rx="62.4189" ry="62.8679" fill="#155A32"/>
<path d="M621.915 214.183L621.187 211.761H617.533L616.805 214.183H615.461L618.555 204.537H620.235L623.315 214.183H621.915ZM617.855 210.683H620.865L619.367 205.643L617.855 210.683ZM630.291 203.837V214.183H629.157L629.031 213.161C628.788 213.534 628.485 213.828 628.121 214.043C627.757 214.248 627.351 214.351 626.903 214.351C626.025 214.351 625.339 214.005 624.845 213.315C624.359 212.624 624.117 211.695 624.117 210.529C624.117 209.773 624.233 209.101 624.467 208.513C624.7 207.925 625.036 207.467 625.475 207.141C625.913 206.805 626.427 206.637 627.015 206.637C627.771 206.637 628.433 206.94 629.003 207.547V203.683L630.291 203.837ZM627.183 213.329C627.575 213.329 627.911 213.24 628.191 213.063C628.471 212.876 628.741 212.601 629.003 212.237V208.625C628.76 208.307 628.499 208.069 628.219 207.911C627.948 207.743 627.64 207.659 627.295 207.659C626.725 207.659 626.282 207.897 625.965 208.373C625.657 208.849 625.503 209.558 625.503 210.501C625.503 211.453 625.647 212.162 625.937 212.629C626.226 213.095 626.641 213.329 627.183 213.329ZM638.504 203.837V214.183H637.37L637.244 213.161C637.001 213.534 636.698 213.828 636.334 214.043C635.97 214.248 635.564 214.351 635.116 214.351C634.239 214.351 633.553 214.005 633.058 213.315C632.573 212.624 632.33 211.695 632.33 210.529C632.33 209.773 632.447 209.101 632.68 208.513C632.913 207.925 633.249 207.467 633.688 207.141C634.127 206.805 634.64 206.637 635.228 206.637C635.984 206.637 636.647 206.94 637.216 207.547V203.683L638.504 203.837ZM635.396 213.329C635.788 213.329 636.124 213.24 636.404 213.063C636.684 212.876 636.955 212.601 637.216 212.237V208.625C636.973 208.307 636.712 208.069 636.432 207.911C636.161 207.743 635.853 207.659 635.508 207.659C634.939 207.659 634.495 207.897 634.178 208.373C633.87 208.849 633.716 209.558 633.716 210.501C633.716 211.453 633.861 212.162 634.15 212.629C634.439 213.095 634.855 213.329 635.396 213.329ZM650.128 210.277C650.128 210.491 650.119 210.711 650.1 210.935H645.396C645.452 211.747 645.657 212.344 646.012 212.727C646.367 213.109 646.824 213.301 647.384 213.301C647.739 213.301 648.065 213.249 648.364 213.147C648.663 213.044 648.975 212.881 649.302 212.657L649.862 213.427C649.078 214.043 648.219 214.351 647.286 214.351C646.259 214.351 645.457 214.015 644.878 213.343C644.309 212.671 644.024 211.747 644.024 210.571C644.024 209.805 644.145 209.129 644.388 208.541C644.64 207.943 644.995 207.477 645.452 207.141C645.919 206.805 646.465 206.637 647.09 206.637C648.07 206.637 648.821 206.959 649.344 207.603C649.867 208.247 650.128 209.138 650.128 210.277ZM648.854 209.899C648.854 209.171 648.709 208.615 648.42 208.233C648.131 207.85 647.697 207.659 647.118 207.659C646.063 207.659 645.489 208.433 645.396 209.983H648.854V209.899ZM654.736 210.235L657.298 214.183H655.744L653.938 211.061L652.104 214.183H650.648L653.224 210.291L650.942 206.805H652.454L653.994 209.507L655.548 206.805H657.004L654.736 210.235ZM659.837 206.805V214.183H658.549V206.805H659.837ZM659.179 203.263C659.45 203.263 659.669 203.347 659.837 203.515C660.005 203.683 660.089 203.893 660.089 204.145C660.089 204.397 660.005 204.607 659.837 204.775C659.669 204.933 659.45 205.013 659.179 205.013C658.918 205.013 658.703 204.933 658.535 204.775C658.367 204.607 658.283 204.397 658.283 204.145C658.283 203.893 658.367 203.683 658.535 203.515C658.703 203.347 658.918 203.263 659.179 203.263ZM664.348 206.637C664.852 206.637 665.305 206.707 665.706 206.847C666.107 206.987 666.49 207.197 666.854 207.477L666.308 208.289C665.972 208.074 665.65 207.915 665.342 207.813C665.043 207.71 664.726 207.659 664.39 207.659C663.97 207.659 663.639 207.747 663.396 207.925C663.153 208.093 663.032 208.326 663.032 208.625C663.032 208.923 663.144 209.157 663.368 209.325C663.601 209.493 664.017 209.656 664.614 209.815C665.435 210.02 666.047 210.3 666.448 210.655C666.859 211.009 667.064 211.495 667.064 212.111C667.064 212.839 666.779 213.394 666.21 213.777C665.65 214.159 664.964 214.351 664.152 214.351C663.032 214.351 662.103 214.029 661.366 213.385L662.052 212.601C662.677 213.077 663.368 213.315 664.124 213.315C664.609 213.315 664.992 213.217 665.272 213.021C665.561 212.815 665.706 212.54 665.706 212.195C665.706 211.943 665.655 211.742 665.552 211.593C665.449 211.434 665.272 211.299 665.02 211.187C664.768 211.065 664.399 210.939 663.914 210.809C663.13 210.603 662.561 210.328 662.206 209.983C661.861 209.637 661.688 209.199 661.688 208.667C661.688 208.284 661.8 207.939 662.024 207.631C662.257 207.313 662.575 207.071 662.976 206.903C663.387 206.725 663.844 206.637 664.348 206.637ZM672.451 213.847C671.966 214.183 671.415 214.351 670.799 214.351C670.174 214.351 669.684 214.173 669.329 213.819C668.984 213.455 668.811 212.932 668.811 212.251V207.799H667.523V206.805H668.811V205.139L670.099 204.985V206.805H671.849L671.709 207.799H670.099V212.195C670.099 212.577 670.165 212.857 670.295 213.035C670.435 213.203 670.664 213.287 670.981 213.287C671.271 213.287 671.597 213.189 671.961 212.993L672.451 213.847ZM678.999 210.277C678.999 210.491 678.989 210.711 678.971 210.935H674.267C674.323 211.747 674.528 212.344 674.883 212.727C675.237 213.109 675.695 213.301 676.255 213.301C676.609 213.301 676.936 213.249 677.235 213.147C677.533 213.044 677.846 212.881 678.173 212.657L678.733 213.427C677.949 214.043 677.09 214.351 676.157 214.351C675.13 214.351 674.327 214.015 673.749 213.343C673.179 212.671 672.895 211.747 672.895 210.571C672.895 209.805 673.016 209.129 673.259 208.541C673.511 207.943 673.865 207.477 674.323 207.141C674.789 206.805 675.335 206.637 675.961 206.637C676.941 206.637 677.692 206.959 678.215 207.603C678.737 208.247 678.999 209.138 678.999 210.277ZM677.725 209.899C677.725 209.171 677.58 208.615 677.291 208.233C677.001 207.85 676.567 207.659 675.989 207.659C674.934 207.659 674.36 208.433 674.267 209.983H677.725V209.899ZM686.614 203.837V214.183H685.48L685.354 213.161C685.111 213.534 684.808 213.828 684.444 214.043C684.08 214.248 683.674 214.351 683.226 214.351C682.348 214.351 681.662 214.005 681.168 213.315C680.682 212.624 680.44 211.695 680.44 210.529C680.44 209.773 680.556 209.101 680.79 208.513C681.023 207.925 681.359 207.467 681.798 207.141C682.236 206.805 682.75 206.637 683.338 206.637C684.094 206.637 684.756 206.94 685.326 207.547V203.683L686.614 203.837ZM683.506 213.329C683.898 213.329 684.234 213.24 684.514 213.063C684.794 212.876 685.064 212.601 685.326 212.237V208.625C685.083 208.307 684.822 208.069 684.542 207.911C684.271 207.743 683.963 207.659 683.618 207.659C683.048 207.659 682.605 207.897 682.288 208.373C681.98 208.849 681.826 209.558 681.826 210.501C681.826 211.453 681.97 212.162 682.26 212.629C682.549 213.095 682.964 213.329 683.506 213.329ZM632.504 227.637C632.943 227.637 633.344 227.702 633.708 227.833C634.072 227.954 634.422 228.155 634.758 228.435L634.142 229.247C633.881 229.06 633.624 228.925 633.372 228.841C633.13 228.747 632.859 228.701 632.56 228.701C631.963 228.701 631.496 228.939 631.16 229.415C630.834 229.891 630.67 230.595 630.67 231.529C630.67 232.462 630.834 233.153 631.16 233.601C631.487 234.039 631.954 234.259 632.56 234.259C632.85 234.259 633.116 234.217 633.358 234.133C633.601 234.039 633.872 233.895 634.17 233.699L634.758 234.539C634.086 235.08 633.335 235.351 632.504 235.351C631.506 235.351 630.717 235.015 630.138 234.343C629.569 233.671 629.284 232.742 629.284 231.557C629.284 230.773 629.415 230.087 629.676 229.499C629.938 228.911 630.306 228.453 630.782 228.127C631.268 227.8 631.842 227.637 632.504 227.637ZM638.847 227.637C639.883 227.637 640.685 227.982 641.255 228.673C641.833 229.363 642.123 230.301 642.123 231.487C642.123 232.252 641.992 232.929 641.731 233.517C641.469 234.095 641.091 234.548 640.597 234.875C640.102 235.192 639.514 235.351 638.833 235.351C637.797 235.351 636.989 235.005 636.411 234.315C635.832 233.624 635.543 232.686 635.543 231.501C635.543 230.735 635.673 230.063 635.935 229.485C636.196 228.897 636.574 228.444 637.069 228.127C637.563 227.8 638.156 227.637 638.847 227.637ZM638.847 228.673C637.568 228.673 636.929 229.615 636.929 231.501C636.929 233.377 637.563 234.315 638.833 234.315C640.102 234.315 640.737 233.372 640.737 231.487C640.737 229.611 640.107 228.673 638.847 228.673ZM647.568 227.637C648.24 227.637 648.763 227.837 649.136 228.239C649.519 228.64 649.71 229.191 649.71 229.891V235.183H648.422V230.073C648.422 229.55 648.324 229.181 648.128 228.967C647.932 228.752 647.643 228.645 647.26 228.645C646.868 228.645 646.523 228.757 646.224 228.981C645.926 229.205 645.646 229.527 645.384 229.947V235.183H644.096V227.805H645.202L645.314 228.897C645.576 228.505 645.898 228.197 646.28 227.973C646.672 227.749 647.102 227.637 647.568 227.637ZM655.869 234.847C655.384 235.183 654.833 235.351 654.217 235.351C653.592 235.351 653.102 235.173 652.747 234.819C652.402 234.455 652.229 233.932 652.229 233.251V228.799H650.941V227.805H652.229V226.139L653.517 225.985V227.805H655.267L655.127 228.799H653.517V233.195C653.517 233.577 653.583 233.857 653.713 234.035C653.853 234.203 654.082 234.287 654.399 234.287C654.689 234.287 655.015 234.189 655.379 233.993L655.869 234.847ZM661.924 233.461C661.924 233.759 661.976 233.983 662.078 234.133C662.181 234.273 662.335 234.38 662.54 234.455L662.246 235.351C661.864 235.304 661.556 235.197 661.322 235.029C661.089 234.861 660.916 234.599 660.804 234.245C660.31 234.982 659.577 235.351 658.606 235.351C657.878 235.351 657.304 235.145 656.884 234.735C656.464 234.324 656.254 233.787 656.254 233.125C656.254 232.341 656.534 231.739 657.094 231.319C657.664 230.899 658.466 230.689 659.502 230.689H660.636V230.143C660.636 229.62 660.51 229.247 660.258 229.023C660.006 228.799 659.619 228.687 659.096 228.687C658.555 228.687 657.892 228.817 657.108 229.079L656.786 228.141C657.701 227.805 658.55 227.637 659.334 227.637C660.202 227.637 660.851 227.851 661.28 228.281C661.71 228.701 661.924 229.303 661.924 230.087V233.461ZM658.9 234.385C659.638 234.385 660.216 234.002 660.636 233.237V231.543H659.67C658.308 231.543 657.626 232.047 657.626 233.055C657.626 233.493 657.734 233.825 657.948 234.049C658.163 234.273 658.48 234.385 658.9 234.385ZM667.104 227.637C667.542 227.637 667.944 227.702 668.308 227.833C668.672 227.954 669.022 228.155 669.358 228.435L668.742 229.247C668.48 229.06 668.224 228.925 667.972 228.841C667.729 228.747 667.458 228.701 667.16 228.701C666.562 228.701 666.096 228.939 665.76 229.415C665.433 229.891 665.27 230.595 665.27 231.529C665.27 232.462 665.433 233.153 665.76 233.601C666.086 234.039 666.553 234.259 667.16 234.259C667.449 234.259 667.715 234.217 667.958 234.133C668.2 234.039 668.471 233.895 668.77 233.699L669.358 234.539C668.686 235.08 667.934 235.351 667.104 235.351C666.105 235.351 665.316 235.015 664.738 234.343C664.168 233.671 663.884 232.742 663.884 231.557C663.884 230.773 664.014 230.087 664.276 229.499C664.537 228.911 664.906 228.453 665.382 228.127C665.867 227.8 666.441 227.637 667.104 227.637ZM674.671 234.847C674.186 235.183 673.635 235.351 673.019 235.351C672.394 235.351 671.904 235.173 671.549 234.819C671.204 234.455 671.031 233.932 671.031 233.251V228.799H669.743V227.805H671.031V226.139L672.319 225.985V227.805H674.069L673.929 228.799H672.319V233.195C672.319 233.577 672.384 233.857 672.515 234.035C672.655 234.203 672.884 234.287 673.201 234.287C673.49 234.287 673.817 234.189 674.181 233.993L674.671 234.847Z" fill="white"/>
<path d="M137.819 133.678C136.99 133.678 136.319 134.35 136.319 135.178C136.319 136.007 136.99 136.678 137.819 136.678V133.678ZM201.83 136.239C202.416 135.653 202.416 134.703 201.83 134.118L192.284 124.572C191.699 123.986 190.749 123.986 190.163 124.572C189.577 125.158 189.577 126.107 190.163 126.693L198.648 135.178L190.163 143.664C189.577 144.249 189.577 145.199 190.163 145.785C190.749 146.371 191.699 146.371 192.284 145.785L201.83 136.239ZM137.819 136.678H200.77V133.678H137.819V136.678Z" fill="#85E0A3"/>
<path d="M329.117 133.678C328.289 133.678 327.617 134.35 327.617 135.178C327.617 136.007 328.289 136.678 329.117 136.678V133.678ZM380.106 136.239C380.692 135.653 380.692 134.703 380.106 134.118L370.56 124.572C369.974 123.986 369.025 123.986 368.439 124.572C367.853 125.157 367.853 126.107 368.439 126.693L376.924 135.178L368.439 143.664C367.853 144.249 367.853 145.199 368.439 145.785C369.025 146.371 369.974 146.371 370.56 145.785L380.106 136.239ZM329.117 136.678H379.045V133.678H329.117V136.678Z" fill="#85E0A3"/>
<path d="M520.864 133.678C520.036 133.678 519.364 134.35 519.364 135.178C519.364 136.007 520.036 136.678 520.864 136.678V133.678ZM586.223 221.111C586.809 220.525 586.809 219.576 586.223 218.99L576.677 209.444C576.091 208.858 575.141 208.858 574.555 209.444C573.97 210.03 573.97 210.979 574.555 211.565L583.041 220.05L574.555 228.536C573.97 229.122 573.97 230.071 574.555 230.657C575.141 231.243 576.091 231.243 576.677 230.657L586.223 221.111ZM520.864 136.678H529.013V133.678H520.864V136.678ZM551.513 159.178V196.051H554.513V159.178H551.513ZM577.013 221.55H585.162V218.55H577.013V221.55ZM551.513 196.051C551.513 210.134 562.93 221.55 577.013 221.55V218.55C564.587 218.55 554.513 208.477 554.513 196.051H551.513ZM529.013 136.678C541.44 136.678 551.513 146.752 551.513 159.178H554.513C554.513 145.095 543.096 133.678 529.013 133.678V136.678Z" fill="#85E0A3"/>
<path d="M520.864 133.678C520.036 133.678 519.364 134.35 519.364 135.178C519.364 136.007 520.036 136.678 520.864 136.678V133.678ZM586.223 63.4923C586.809 62.9065 586.809 61.9568 586.223 61.371L576.677 51.825C576.091 51.2393 575.141 51.2393 574.555 51.825C573.97 52.4108 573.97 53.3606 574.555 53.9464L583.041 62.4316L574.555 70.9169C573.97 71.5027 573.97 72.4525 574.555 73.0382C575.141 73.624 576.091 73.624 576.677 73.0382L586.223 63.4923ZM520.864 136.678H529.013V133.678H520.864V136.678ZM554.513 111.178V86.4316H551.513V111.178H554.513ZM577.013 63.9316H585.162V60.9316H577.013V63.9316ZM554.513 86.4316C554.513 74.0052 564.587 63.9316 577.013 63.9316V60.9316C562.93 60.9316 551.513 72.3484 551.513 86.4316H554.513ZM529.013 136.678C543.096 136.678 554.513 125.262 554.513 111.178H551.513C551.513 123.605 541.44 133.678 529.013 133.678V136.678Z" fill="#85E0A3"/>
</svg>
