<svg width="729" height="309" viewBox="0 0 729 309" fill="none" xmlns="http://www.w3.org/2000/svg">
<path d="M93.2113 93.2293C95.1632 92.0024 97.6454 92.0024 99.5973 93.2293L190.002 147.826C193.744 150.179 193.744 155.633 190.002 157.986L99.5973 212.583C97.6454 213.81 95.1632 213.81 93.2113 212.583L2.80697 157.986C-0.935657 155.633 -0.935657 150.179 2.80697 147.826L93.2113 93.2293Z" fill="#145174"/>
<path d="M73.002 135.605V146.309H71.53V137.173L69.034 138.693L68.394 137.653L71.706 135.605H73.002ZM78.5639 137.685C79.1399 137.685 79.6572 137.765 80.1159 137.925C80.5745 138.085 81.0119 138.325 81.4279 138.645L80.8039 139.573C80.4199 139.328 80.0519 139.146 79.6999 139.029C79.3585 138.912 78.9959 138.853 78.6119 138.853C78.1319 138.853 77.7532 138.954 77.4759 139.157C77.1985 139.349 77.0599 139.616 77.0599 139.957C77.0599 140.298 77.1879 140.565 77.4439 140.757C77.7105 140.949 78.1852 141.136 78.8679 141.317C79.8065 141.552 80.5052 141.872 80.9639 142.277C81.4332 142.682 81.6679 143.237 81.6679 143.941C81.6679 144.773 81.3425 145.408 80.6919 145.845C80.0519 146.282 79.2679 146.501 78.3399 146.501C77.0599 146.501 75.9985 146.133 75.1559 145.397L75.9399 144.501C76.6545 145.045 77.4439 145.317 78.3079 145.317C78.8625 145.317 79.2999 145.205 79.6199 144.981C79.9505 144.746 80.1159 144.432 80.1159 144.037C80.1159 143.749 80.0572 143.52 79.9399 143.349C79.8225 143.168 79.6199 143.013 79.3319 142.885C79.0439 142.746 78.6225 142.602 78.0679 142.453C77.1719 142.218 76.5212 141.904 76.1159 141.509C75.7212 141.114 75.5239 140.613 75.5239 140.005C75.5239 139.568 75.6519 139.173 75.9079 138.821C76.1745 138.458 76.5372 138.181 76.9959 137.989C77.4652 137.786 77.9879 137.685 78.5639 137.685ZM88.0006 145.925C87.4459 146.309 86.8166 146.501 86.1126 146.501C85.3979 146.501 84.8379 146.298 84.4326 145.893C84.0379 145.477 83.8406 144.88 83.8406 144.101V139.013H82.3686V137.877H83.8406V135.973L85.3126 135.797V137.877H87.3126L87.1526 139.013H85.3126V144.037C85.3126 144.474 85.3873 144.794 85.5366 144.997C85.6966 145.189 85.9579 145.285 86.3206 145.285C86.6513 145.285 87.0246 145.173 87.4406 144.949L88.0006 145.925ZM98.0162 145.925C97.4616 146.309 96.8322 146.501 96.1282 146.501C95.4136 146.501 94.8536 146.298 94.4482 145.893C94.0536 145.477 93.8562 144.88 93.8562 144.101V139.013H92.3842V137.877H93.8562V135.973L95.3282 135.797V137.877H97.3282L97.1682 139.013H95.3282V144.037C95.3282 144.474 95.4029 144.794 95.5522 144.997C95.7122 145.189 95.9736 145.285 96.3362 145.285C96.6669 145.285 97.0402 145.173 97.4562 144.949L98.0162 145.925ZM101.013 137.877V146.309H99.5415V137.877H101.013ZM100.261 133.829C100.571 133.829 100.821 133.925 101.013 134.117C101.205 134.309 101.301 134.549 101.301 134.837C101.301 135.125 101.205 135.365 101.013 135.557C100.821 135.738 100.571 135.829 100.261 135.829C99.9628 135.829 99.7175 135.738 99.5255 135.557C99.3335 135.365 99.2375 135.125 99.2375 134.837C99.2375 134.549 99.3335 134.309 99.5255 134.117C99.7175 133.925 99.9628 133.829 100.261 133.829ZM112.521 137.685C113.214 137.685 113.769 137.92 114.185 138.389C114.601 138.848 114.809 139.472 114.809 140.261V146.309H113.337V140.469C113.337 139.381 112.942 138.837 112.153 138.837C111.737 138.837 111.385 138.96 111.097 139.205C110.809 139.44 110.5 139.813 110.169 140.325V146.309H108.697V140.469C108.697 139.381 108.302 138.837 107.513 138.837C107.086 138.837 106.729 138.96 106.441 139.205C106.153 139.45 105.849 139.824 105.529 140.325V146.309H104.057V137.877H105.321L105.449 139.109C106.078 138.16 106.889 137.685 107.881 137.685C108.404 137.685 108.846 137.818 109.209 138.085C109.582 138.352 109.849 138.725 110.009 139.205C110.34 138.714 110.702 138.341 111.097 138.085C111.502 137.818 111.977 137.685 112.521 137.685ZM124.144 141.845C124.144 142.09 124.133 142.341 124.112 142.597H118.736C118.8 143.525 119.035 144.208 119.44 144.645C119.845 145.082 120.368 145.301 121.008 145.301C121.413 145.301 121.787 145.242 122.128 145.125C122.469 145.008 122.827 144.821 123.2 144.565L123.84 145.445C122.944 146.149 121.963 146.501 120.896 146.501C119.723 146.501 118.805 146.117 118.144 145.349C117.493 144.581 117.168 143.525 117.168 142.181C117.168 141.306 117.307 140.533 117.584 139.861C117.872 139.178 118.277 138.645 118.8 138.261C119.333 137.877 119.957 137.685 120.672 137.685C121.792 137.685 122.651 138.053 123.248 138.789C123.845 139.525 124.144 140.544 124.144 141.845ZM122.688 141.413C122.688 140.581 122.523 139.946 122.192 139.509C121.861 139.072 121.365 138.853 120.704 138.853C119.499 138.853 118.843 139.738 118.736 141.509H122.688V141.413ZM70.5014 161.685C71.0774 161.685 71.5947 161.765 72.0534 161.925C72.512 162.085 72.9494 162.325 73.3654 162.645L72.7414 163.573C72.3574 163.328 71.9894 163.146 71.6374 163.029C71.296 162.912 70.9334 162.853 70.5494 162.853C70.0694 162.853 69.6907 162.954 69.4134 163.157C69.136 163.349 68.9974 163.616 68.9974 163.957C68.9974 164.298 69.1254 164.565 69.3814 164.757C69.648 164.949 70.1227 165.136 70.8054 165.317C71.744 165.552 72.4427 165.872 72.9014 166.277C73.3707 166.682 73.6054 167.237 73.6054 167.941C73.6054 168.773 73.28 169.408 72.6294 169.845C71.9894 170.282 71.2054 170.501 70.2774 170.501C68.9974 170.501 67.936 170.133 67.0934 169.397L67.8774 168.501C68.592 169.045 69.3814 169.317 70.2454 169.317C70.8 169.317 71.2374 169.205 71.5574 168.981C71.888 168.746 72.0534 168.432 72.0534 168.037C72.0534 167.749 71.9947 167.52 71.8774 167.349C71.76 167.168 71.5574 167.013 71.2694 166.885C70.9814 166.746 70.56 166.602 70.0054 166.453C69.1094 166.218 68.4587 165.904 68.0534 165.509C67.6587 165.114 67.4614 164.613 67.4614 164.005C67.4614 163.568 67.5894 163.173 67.8454 162.821C68.112 162.458 68.4747 162.181 68.9334 161.989C69.4027 161.786 69.9254 161.685 70.5014 161.685ZM77.1541 161.877V170.309H75.6821V161.877H77.1541ZM76.4021 157.829C76.7114 157.829 76.9621 157.925 77.1541 158.117C77.3461 158.309 77.4421 158.549 77.4421 158.837C77.4421 159.125 77.3461 159.365 77.1541 159.557C76.9621 159.738 76.7114 159.829 76.4021 159.829C76.1034 159.829 75.8581 159.738 75.6661 159.557C75.4741 159.365 75.3781 159.125 75.3781 158.837C75.3781 158.549 75.4741 158.309 75.6661 158.117C75.8581 157.925 76.1034 157.829 76.4021 157.829ZM86.9977 162.261C86.6777 162.368 86.3257 162.437 85.9417 162.469C85.5577 162.501 85.0884 162.517 84.5337 162.517C85.5257 162.965 86.0217 163.674 86.0217 164.645C86.0217 165.488 85.7337 166.176 85.1577 166.709C84.5817 167.242 83.7977 167.509 82.8057 167.509C82.4217 167.509 82.0644 167.456 81.7337 167.349C81.6057 167.434 81.5044 167.552 81.4297 167.701C81.3551 167.84 81.3177 167.984 81.3177 168.133C81.3177 168.592 81.6857 168.821 82.4217 168.821H83.7657C84.3311 168.821 84.8324 168.922 85.2697 169.125C85.7071 169.328 86.0431 169.605 86.2777 169.957C86.5231 170.309 86.6457 170.709 86.6457 171.157C86.6457 171.978 86.3097 172.608 85.6377 173.045C84.9657 173.493 83.9844 173.717 82.6937 173.717C81.7871 173.717 81.0671 173.621 80.5337 173.429C80.0111 173.248 79.6377 172.97 79.4137 172.597C79.1897 172.224 79.0777 171.744 79.0777 171.157H80.4057C80.4057 171.498 80.4697 171.765 80.5977 171.957C80.7257 172.16 80.9551 172.309 81.2857 172.405C81.6164 172.512 82.0857 172.565 82.6937 172.565C83.5791 172.565 84.2084 172.453 84.5817 172.229C84.9657 172.016 85.1577 171.69 85.1577 171.253C85.1577 170.858 85.0084 170.56 84.7097 170.357C84.4111 170.154 83.9951 170.053 83.4617 170.053H82.1337C81.4191 170.053 80.8751 169.904 80.5017 169.605C80.1391 169.296 79.9577 168.912 79.9577 168.453C79.9577 168.176 80.0377 167.909 80.1977 167.653C80.3577 167.397 80.5871 167.168 80.8857 166.965C80.3951 166.709 80.0324 166.394 79.7977 166.021C79.5737 165.637 79.4617 165.173 79.4617 164.629C79.4617 164.064 79.6004 163.557 79.8777 163.109C80.1657 162.661 80.5551 162.314 81.0457 162.069C81.5471 161.813 82.1017 161.685 82.7097 161.685C83.3711 161.696 83.9257 161.674 84.3737 161.621C84.8217 161.557 85.1897 161.477 85.4777 161.381C85.7764 161.274 86.1391 161.125 86.5657 160.933L86.9977 162.261ZM82.7097 162.741C82.1551 162.741 81.7231 162.917 81.4137 163.269C81.1151 163.61 80.9657 164.064 80.9657 164.629C80.9657 165.205 81.1204 165.669 81.4297 166.021C81.7391 166.362 82.1764 166.533 82.7417 166.533C83.3177 166.533 83.7551 166.368 84.0537 166.037C84.3631 165.696 84.5177 165.221 84.5177 164.613C84.5177 163.365 83.9151 162.741 82.7097 162.741ZM92.4782 161.685C93.2462 161.685 93.8436 161.914 94.2702 162.373C94.7076 162.832 94.9262 163.461 94.9262 164.261V170.309H93.4542V164.469C93.4542 163.872 93.3422 163.45 93.1182 163.205C92.8942 162.96 92.5636 162.837 92.1262 162.837C91.6782 162.837 91.2836 162.965 90.9422 163.221C90.6009 163.477 90.2809 163.845 89.9822 164.325V170.309H88.5102V161.877H89.7742L89.9022 163.125C90.2009 162.677 90.5689 162.325 91.0062 162.069C91.4542 161.813 91.9449 161.685 92.4782 161.685ZM108.392 170.309H107.128L107.016 168.997C106.696 169.52 106.328 169.904 105.912 170.149C105.496 170.384 104.989 170.501 104.392 170.501C103.656 170.501 103.08 170.277 102.664 169.829C102.248 169.381 102.04 168.746 102.04 167.925V161.877H103.512V167.765C103.512 168.341 103.613 168.752 103.816 168.997C104.018 169.232 104.349 169.349 104.808 169.349C105.629 169.349 106.333 168.864 106.92 167.893V161.877H108.392V170.309ZM115.304 161.685C116.381 161.685 117.171 162.069 117.672 162.837C118.173 163.605 118.424 164.688 118.424 166.085C118.424 167.408 118.136 168.474 117.56 169.285C116.984 170.096 116.168 170.501 115.112 170.501C114.173 170.501 113.437 170.181 112.904 169.541V173.541L111.432 173.717V161.877H112.696L112.808 163.013C113.117 162.586 113.491 162.261 113.928 162.037C114.365 161.802 114.824 161.685 115.304 161.685ZM114.76 169.301C116.147 169.301 116.84 168.229 116.84 166.085C116.84 163.93 116.205 162.853 114.936 162.853C114.52 162.853 114.141 162.976 113.8 163.221C113.459 163.466 113.16 163.781 112.904 164.165V168.277C113.117 168.608 113.384 168.864 113.704 169.045C114.024 169.216 114.376 169.301 114.76 169.301ZM122.579 159.093C123.219 159.093 123.769 159.21 124.227 159.445C124.697 159.669 125.049 159.973 125.283 160.357C125.518 160.741 125.635 161.152 125.635 161.589C125.635 162.005 125.561 162.362 125.411 162.661C125.273 162.949 125.102 163.184 124.899 163.365C124.697 163.546 124.425 163.76 124.083 164.005C123.635 164.314 123.299 164.602 123.075 164.869C122.851 165.125 122.739 165.472 122.739 165.909V166.629H121.283V165.829C121.283 165.37 121.358 164.981 121.507 164.661C121.667 164.341 121.854 164.085 122.067 163.893C122.281 163.701 122.563 163.482 122.915 163.237C123.321 162.97 123.619 162.73 123.811 162.517C124.003 162.304 124.099 162.026 124.099 161.685C124.099 161.248 123.955 160.912 123.667 160.677C123.379 160.432 122.985 160.309 122.483 160.309C121.63 160.309 120.889 160.693 120.259 161.461L119.251 160.677C120.147 159.621 121.257 159.093 122.579 159.093ZM122.051 168.277C122.371 168.277 122.638 168.384 122.851 168.597C123.065 168.81 123.171 169.072 123.171 169.381C123.171 169.69 123.065 169.957 122.851 170.181C122.638 170.394 122.371 170.501 122.051 170.501C121.742 170.501 121.481 170.394 121.267 170.181C121.054 169.957 120.947 169.69 120.947 169.381C120.947 169.072 121.054 168.81 121.267 168.597C121.481 168.384 121.742 168.277 122.051 168.277Z" fill="white"/>
<rect x="284.622" y="4.16797" width="89.9773" height="55.0882" rx="3" fill="#676827" stroke="#676827" stroke-width="4" stroke-linecap="round"/>
<path d="M306.947 25.952C307.683 25.952 308.312 26.0586 308.835 26.272C309.357 26.4746 309.864 26.7946 310.355 27.232L309.523 28.16C309.107 27.8293 308.696 27.5893 308.291 27.44C307.896 27.28 307.469 27.2 307.011 27.2C306.435 27.2 305.96 27.3333 305.587 27.6C305.213 27.8666 305.027 28.256 305.027 28.768C305.027 29.088 305.091 29.36 305.219 29.584C305.347 29.7973 305.581 29.9946 305.923 30.176C306.275 30.3573 306.781 30.5493 307.443 30.752C308.136 30.9653 308.712 31.1946 309.171 31.44C309.629 31.6853 309.997 32.0266 310.275 32.464C310.563 32.8906 310.707 33.4346 310.707 34.096C310.707 34.736 310.547 35.3013 310.227 35.792C309.917 36.2826 309.464 36.6666 308.867 36.944C308.28 37.2213 307.581 37.36 306.771 37.36C305.245 37.36 303.997 36.8853 303.027 35.936L303.859 35.008C304.307 35.3706 304.76 35.648 305.219 35.84C305.677 36.0213 306.189 36.112 306.755 36.112C307.437 36.112 308.003 35.9466 308.451 35.616C308.899 35.2746 309.123 34.784 309.123 34.144C309.123 33.7813 309.053 33.4826 308.915 33.248C308.776 33.0026 308.536 32.784 308.195 32.592C307.864 32.4 307.379 32.208 306.739 32.016C305.608 31.6746 304.781 31.264 304.259 30.784C303.736 30.304 303.475 29.6533 303.475 28.832C303.475 28.2773 303.619 27.7813 303.907 27.344C304.205 26.9066 304.616 26.5653 305.139 26.32C305.672 26.0746 306.275 25.952 306.947 25.952ZM314.337 28.736V37.168H312.865V28.736H314.337ZM313.585 24.688C313.895 24.688 314.145 24.784 314.337 24.976C314.529 25.168 314.625 25.408 314.625 25.696C314.625 25.984 314.529 26.224 314.337 26.416C314.145 26.5973 313.895 26.688 313.585 26.688C313.287 26.688 313.041 26.5973 312.849 26.416C312.657 26.224 312.561 25.984 312.561 25.696C312.561 25.408 312.657 25.168 312.849 24.976C313.041 24.784 313.287 24.688 313.585 24.688ZM324.181 29.12C323.861 29.2266 323.509 29.296 323.125 29.328C322.741 29.36 322.272 29.376 321.717 29.376C322.709 29.824 323.205 30.5333 323.205 31.504C323.205 32.3466 322.917 33.0346 322.341 33.568C321.765 34.1013 320.981 34.368 319.989 34.368C319.605 34.368 319.248 34.3146 318.917 34.208C318.789 34.2933 318.688 34.4106 318.613 34.56C318.538 34.6986 318.501 34.8426 318.501 34.992C318.501 35.4506 318.869 35.68 319.605 35.68H320.949C321.514 35.68 322.016 35.7813 322.453 35.984C322.89 36.1866 323.226 36.464 323.461 36.816C323.706 37.168 323.829 37.568 323.829 38.016C323.829 38.8373 323.493 39.4666 322.821 39.904C322.149 40.352 321.168 40.576 319.877 40.576C318.97 40.576 318.25 40.48 317.717 40.288C317.194 40.1066 316.821 39.8293 316.597 39.456C316.373 39.0826 316.261 38.6026 316.261 38.016H317.589C317.589 38.3573 317.653 38.624 317.781 38.816C317.909 39.0186 318.138 39.168 318.469 39.264C318.8 39.3706 319.269 39.424 319.877 39.424C320.762 39.424 321.392 39.312 321.765 39.088C322.149 38.8746 322.341 38.5493 322.341 38.112C322.341 37.7173 322.192 37.4186 321.893 37.216C321.594 37.0133 321.178 36.912 320.645 36.912H319.317C318.602 36.912 318.058 36.7626 317.685 36.464C317.322 36.1546 317.141 35.7706 317.141 35.312C317.141 35.0346 317.221 34.768 317.381 34.512C317.541 34.256 317.77 34.0266 318.069 33.824C317.578 33.568 317.216 33.2533 316.981 32.88C316.757 32.496 316.645 32.032 316.645 31.488C316.645 30.9226 316.784 30.416 317.061 29.968C317.349 29.52 317.738 29.1733 318.229 28.928C318.73 28.672 319.285 28.544 319.893 28.544C320.554 28.5546 321.109 28.5333 321.557 28.48C322.005 28.416 322.373 28.336 322.661 28.24C322.96 28.1333 323.322 27.984 323.749 27.792L324.181 29.12ZM319.893 29.6C319.338 29.6 318.906 29.776 318.597 30.128C318.298 30.4693 318.149 30.9226 318.149 31.488C318.149 32.064 318.304 32.528 318.613 32.88C318.922 33.2213 319.36 33.392 319.925 33.392C320.501 33.392 320.938 33.2266 321.237 32.896C321.546 32.5546 321.701 32.08 321.701 31.472C321.701 30.224 321.098 29.6 319.893 29.6ZM329.661 28.544C330.429 28.544 331.027 28.7733 331.453 29.232C331.891 29.6906 332.109 30.32 332.109 31.12V37.168H330.637V31.328C330.637 30.7306 330.525 30.3093 330.301 30.064C330.077 29.8186 329.747 29.696 329.309 29.696C328.861 29.696 328.467 29.824 328.125 30.08C327.784 30.336 327.464 30.704 327.165 31.184V37.168H325.693V28.736H326.957L327.085 29.984C327.384 29.536 327.752 29.184 328.189 28.928C328.637 28.672 329.128 28.544 329.661 28.544ZM345.575 37.168H344.311L344.199 35.856C343.879 36.3786 343.511 36.7626 343.095 37.008C342.679 37.2426 342.172 37.36 341.575 37.36C340.839 37.36 340.263 37.136 339.847 36.688C339.431 36.24 339.223 35.6053 339.223 34.784V28.736H340.695V34.624C340.695 35.2 340.796 35.6106 340.999 35.856C341.202 36.0906 341.532 36.208 341.991 36.208C342.812 36.208 343.516 35.7226 344.103 34.752V28.736H345.575V37.168ZM352.487 28.544C353.565 28.544 354.354 28.928 354.855 29.696C355.357 30.464 355.607 31.5466 355.607 32.944C355.607 34.2666 355.319 35.3333 354.743 36.144C354.167 36.9546 353.351 37.36 352.295 37.36C351.357 37.36 350.621 37.04 350.087 36.4V40.4L348.615 40.576V28.736H349.879L349.991 29.872C350.301 29.4453 350.674 29.12 351.111 28.896C351.549 28.6613 352.007 28.544 352.487 28.544ZM351.943 36.16C353.33 36.16 354.023 35.088 354.023 32.944C354.023 30.7893 353.389 29.712 352.119 29.712C351.703 29.712 351.325 29.8346 350.983 30.08C350.642 30.3253 350.343 30.64 350.087 31.024V35.136C350.301 35.4666 350.567 35.7226 350.887 35.904C351.207 36.0746 351.559 36.16 351.943 36.16Z" fill="white"/>
<path d="M196.809 151.406C195.98 151.406 195.309 152.078 195.309 152.906C195.309 153.734 195.98 154.406 196.809 154.406V151.406ZM238.046 112.309C238.046 111.481 237.374 110.809 236.546 110.809C235.717 110.809 235.046 111.481 235.046 112.309H238.046ZM235.046 72.309C235.046 73.1375 235.717 73.809 236.546 73.809C237.374 73.809 238.046 73.1375 238.046 72.309H235.046ZM281.683 32.7727C282.269 32.1869 282.269 31.2372 281.683 30.6514L272.137 21.1054C271.551 20.5196 270.602 20.5196 270.016 21.1054C269.43 21.6912 269.43 22.641 270.016 23.2268L278.501 31.712L270.016 40.1973C269.43 40.7831 269.43 41.7329 270.016 42.3186C270.602 42.9044 271.551 42.9044 272.137 42.3186L281.683 32.7727ZM196.809 154.406H212.546V151.406H196.809V154.406ZM238.046 128.906V112.309H235.046V128.906H238.046ZM238.046 72.309V55.712H235.046V72.309H238.046ZM260.546 33.212H280.622V30.212H260.546V33.212ZM238.046 55.712C238.046 43.2856 248.119 33.212 260.546 33.212V30.212C246.462 30.212 235.046 41.6288 235.046 55.712H238.046ZM212.546 154.406C226.629 154.406 238.046 142.989 238.046 128.906H235.046C235.046 141.332 224.972 151.406 212.546 151.406V154.406Z" fill="#85E0A3"/>
<rect width="41" height="40" transform="translate(216.045 72.3091)" fill="#85E0A3"/>
<path d="M233.242 86.2851L229.69 93.0691V97.3091H228.154V93.0851L224.602 86.2851H226.282L228.97 91.7411L231.658 86.2851H233.242ZM240.269 92.8451C240.269 93.0904 240.259 93.3411 240.237 93.5971H234.861C234.925 94.5251 235.16 95.2077 235.565 95.6451C235.971 96.0824 236.493 96.3011 237.133 96.3011C237.539 96.3011 237.912 96.2424 238.253 96.1251C238.595 96.0077 238.952 95.8211 239.325 95.5651L239.965 96.4451C239.069 97.1491 238.088 97.5011 237.021 97.5011C235.848 97.5011 234.931 97.1171 234.269 96.3491C233.619 95.5811 233.293 94.5251 233.293 93.1811C233.293 92.3064 233.432 91.5331 233.709 90.8611C233.997 90.1784 234.403 89.6451 234.925 89.2611C235.459 88.8771 236.083 88.6851 236.797 88.6851C237.917 88.6851 238.776 89.0531 239.373 89.7891C239.971 90.5251 240.269 91.5437 240.269 92.8451ZM238.813 92.4131C238.813 91.5811 238.648 90.9464 238.317 90.5091C237.987 90.0717 237.491 89.8531 236.829 89.8531C235.624 89.8531 234.968 90.7384 234.861 92.5091H238.813V92.4131ZM244.908 88.6851C245.484 88.6851 246.001 88.7651 246.46 88.9251C246.919 89.0851 247.356 89.3251 247.772 89.6451L247.148 90.5731C246.764 90.3277 246.396 90.1464 246.044 90.0291C245.703 89.9117 245.34 89.8531 244.956 89.8531C244.476 89.8531 244.097 89.9544 243.82 90.1571C243.543 90.3491 243.404 90.6157 243.404 90.9571C243.404 91.2984 243.532 91.5651 243.788 91.7571C244.055 91.9491 244.529 92.1357 245.212 92.3171C246.151 92.5517 246.849 92.8717 247.308 93.2771C247.777 93.6824 248.012 94.2371 248.012 94.9411C248.012 95.7731 247.687 96.4077 247.036 96.8451C246.396 97.2824 245.612 97.5011 244.684 97.5011C243.404 97.5011 242.343 97.1331 241.5 96.3971L242.284 95.5011C242.999 96.0451 243.788 96.3171 244.652 96.3171C245.207 96.3171 245.644 96.2051 245.964 95.9811C246.295 95.7464 246.46 95.4317 246.46 95.0371C246.46 94.7491 246.401 94.5197 246.284 94.3491C246.167 94.1677 245.964 94.0131 245.676 93.8851C245.388 93.7464 244.967 93.6024 244.412 93.4531C243.516 93.2184 242.865 92.9037 242.46 92.5091C242.065 92.1144 241.868 91.6131 241.868 91.0051C241.868 90.5677 241.996 90.1731 242.252 89.8211C242.519 89.4584 242.881 89.1811 243.34 88.9891C243.809 88.7864 244.332 88.6851 244.908 88.6851Z" fill="black" fill-opacity="0.8"/>
<rect x="596.789" y="232.784" width="132.212" height="56.9244" rx="6" fill="#676827"/>
<path d="M641.225 254.568C641.887 254.568 642.441 254.654 642.889 254.824C643.348 254.995 643.812 255.272 644.281 255.656L643.449 256.632C642.777 256.088 642.068 255.816 641.321 255.816C640.404 255.816 639.663 256.168 639.097 256.872C638.543 257.576 638.265 258.707 638.265 260.264C638.265 261.779 638.543 262.899 639.097 263.624C639.652 264.339 640.388 264.696 641.305 264.696C641.775 264.696 642.185 264.616 642.537 264.456C642.889 264.296 643.263 264.072 643.657 263.784L644.409 264.744C644.068 265.096 643.631 265.39 643.097 265.624C642.564 265.859 641.951 265.976 641.257 265.976C640.361 265.976 639.561 265.758 638.857 265.32C638.164 264.872 637.62 264.222 637.225 263.368C636.841 262.504 636.649 261.47 636.649 260.264C636.649 259.059 636.852 258.03 637.257 257.176C637.663 256.312 638.212 255.662 638.905 255.224C639.599 254.787 640.372 254.568 641.225 254.568ZM651.766 263.816C651.766 264.158 651.825 264.414 651.942 264.584C652.06 264.744 652.236 264.867 652.47 264.952L652.134 265.976C651.697 265.923 651.345 265.8 651.078 265.608C650.812 265.416 650.614 265.118 650.486 264.712C649.921 265.555 649.084 265.976 647.974 265.976C647.142 265.976 646.486 265.742 646.006 265.272C645.526 264.803 645.286 264.19 645.286 263.432C645.286 262.536 645.606 261.848 646.246 261.368C646.897 260.888 647.814 260.648 648.998 260.648H650.294V260.024C650.294 259.427 650.15 259 649.862 258.744C649.574 258.488 649.132 258.36 648.534 258.36C647.916 258.36 647.158 258.51 646.262 258.808L645.894 257.736C646.94 257.352 647.91 257.16 648.806 257.16C649.798 257.16 650.54 257.406 651.03 257.896C651.521 258.376 651.766 259.064 651.766 259.96V263.816ZM648.31 264.872C649.153 264.872 649.814 264.435 650.294 263.56V261.624H649.19C647.633 261.624 646.854 262.2 646.854 263.352C646.854 263.854 646.977 264.232 647.222 264.488C647.468 264.744 647.83 264.872 648.31 264.872ZM663.253 257.16C663.947 257.16 664.501 257.395 664.917 257.864C665.333 258.323 665.541 258.947 665.541 259.736V265.784H664.069V259.944C664.069 258.856 663.675 258.312 662.885 258.312C662.469 258.312 662.117 258.435 661.829 258.68C661.541 258.915 661.232 259.288 660.901 259.8V265.784H659.429V259.944C659.429 258.856 659.035 258.312 658.245 258.312C657.819 258.312 657.461 258.435 657.173 258.68C656.885 258.926 656.581 259.299 656.261 259.8V265.784H654.789V257.352H656.053L656.181 258.584C656.811 257.635 657.621 257.16 658.613 257.16C659.136 257.16 659.579 257.294 659.941 257.56C660.315 257.827 660.581 258.2 660.741 258.68C661.072 258.19 661.435 257.816 661.829 257.56C662.235 257.294 662.709 257.16 663.253 257.16ZM674.876 261.32C674.876 261.566 674.865 261.816 674.844 262.072H669.468C669.532 263 669.767 263.683 670.172 264.12C670.577 264.558 671.1 264.776 671.74 264.776C672.145 264.776 672.519 264.718 672.86 264.6C673.201 264.483 673.559 264.296 673.932 264.04L674.572 264.92C673.676 265.624 672.695 265.976 671.628 265.976C670.455 265.976 669.537 265.592 668.876 264.824C668.225 264.056 667.9 263 667.9 261.656C667.9 260.782 668.039 260.008 668.316 259.336C668.604 258.654 669.009 258.12 669.532 257.736C670.065 257.352 670.689 257.16 671.404 257.16C672.524 257.16 673.383 257.528 673.98 258.264C674.577 259 674.876 260.019 674.876 261.32ZM673.42 260.888C673.42 260.056 673.255 259.422 672.924 258.984C672.593 258.547 672.097 258.328 671.436 258.328C670.231 258.328 669.575 259.214 669.468 260.984H673.42V260.888ZM680.891 257.16C681.19 257.16 681.467 257.192 681.723 257.256L681.451 258.696C681.195 258.632 680.95 258.6 680.715 258.6C680.192 258.6 679.771 258.792 679.451 259.176C679.131 259.56 678.88 260.158 678.699 260.968V265.784H677.227V257.352H678.491L678.635 259.064C678.859 258.435 679.163 257.96 679.547 257.64C679.931 257.32 680.379 257.16 680.891 257.16ZM688.516 263.816C688.516 264.158 688.575 264.414 688.692 264.584C688.81 264.744 688.986 264.867 689.22 264.952L688.884 265.976C688.447 265.923 688.095 265.8 687.828 265.608C687.562 265.416 687.364 265.118 687.236 264.712C686.671 265.555 685.834 265.976 684.724 265.976C683.892 265.976 683.236 265.742 682.756 265.272C682.276 264.803 682.036 264.19 682.036 263.432C682.036 262.536 682.356 261.848 682.996 261.368C683.647 260.888 684.564 260.648 685.748 260.648H687.044V260.024C687.044 259.427 686.9 259 686.612 258.744C686.324 258.488 685.882 258.36 685.284 258.36C684.666 258.36 683.908 258.51 683.012 258.808L682.644 257.736C683.69 257.352 684.66 257.16 685.556 257.16C686.548 257.16 687.29 257.406 687.78 257.896C688.271 258.376 688.516 259.064 688.516 259.96V263.816ZM685.06 264.872C685.903 264.872 686.564 264.435 687.044 263.56V261.624H685.94C684.383 261.624 683.604 262.2 683.604 263.352C683.604 263.854 683.727 264.232 683.972 264.488C684.218 264.744 684.58 264.872 685.06 264.872Z" fill="white"/>
<rect x="419.588" y="232.784" width="114.767" height="56.9244" rx="6" fill="#676827"/>
<path d="M463.404 265.784V260.616H458.764V265.784H457.244V254.76H458.764V259.368H463.404V254.76H464.924V265.784H463.404ZM471.207 257.16C472.391 257.16 473.308 257.555 473.959 258.344C474.62 259.134 474.951 260.206 474.951 261.56C474.951 262.435 474.801 263.208 474.503 263.88C474.204 264.542 473.772 265.059 473.207 265.432C472.641 265.795 471.969 265.976 471.191 265.976C470.007 265.976 469.084 265.582 468.423 264.792C467.761 264.003 467.431 262.931 467.431 261.576C467.431 260.702 467.58 259.934 467.879 259.272C468.177 258.6 468.609 258.083 469.175 257.72C469.74 257.347 470.417 257.16 471.207 257.16ZM471.207 258.344C469.745 258.344 469.015 259.422 469.015 261.576C469.015 263.72 469.74 264.792 471.191 264.792C472.641 264.792 473.367 263.715 473.367 261.56C473.367 259.416 472.647 258.344 471.207 258.344ZM485.846 257.16C486.54 257.16 487.094 257.395 487.51 257.864C487.926 258.323 488.134 258.947 488.134 259.736V265.784H486.662V259.944C486.662 258.856 486.268 258.312 485.478 258.312C485.062 258.312 484.71 258.435 484.422 258.68C484.134 258.915 483.825 259.288 483.494 259.8V265.784H482.022V259.944C482.022 258.856 481.628 258.312 480.838 258.312C480.412 258.312 480.054 258.435 479.766 258.68C479.478 258.926 479.174 259.299 478.854 259.8V265.784H477.382V257.352H478.646L478.774 258.584C479.404 257.635 480.214 257.16 481.206 257.16C481.729 257.16 482.172 257.294 482.534 257.56C482.908 257.827 483.174 258.2 483.334 258.68C483.665 258.19 484.028 257.816 484.422 257.56C484.828 257.294 485.302 257.16 485.846 257.16ZM497.469 261.32C497.469 261.566 497.458 261.816 497.437 262.072H492.061C492.125 263 492.36 263.683 492.765 264.12C493.17 264.558 493.693 264.776 494.333 264.776C494.738 264.776 495.112 264.718 495.453 264.6C495.794 264.483 496.152 264.296 496.525 264.04L497.165 264.92C496.269 265.624 495.288 265.976 494.221 265.976C493.048 265.976 492.13 265.592 491.469 264.824C490.818 264.056 490.493 263 490.493 261.656C490.493 260.782 490.632 260.008 490.909 259.336C491.197 258.654 491.602 258.12 492.125 257.736C492.658 257.352 493.282 257.16 493.997 257.16C495.117 257.16 495.976 257.528 496.573 258.264C497.17 259 497.469 260.019 497.469 261.32ZM496.013 260.888C496.013 260.056 495.848 259.422 495.517 258.984C495.186 258.547 494.69 258.328 494.029 258.328C492.824 258.328 492.168 259.214 492.061 260.984H496.013V260.888Z" fill="white"/>
<ellipse cx="327.775" cy="261.246" rx="46.8249" ry="47.7431" fill="#155A32"/>
<path d="M310.097 256.189C310.741 256.189 311.291 256.282 311.749 256.469C312.206 256.646 312.649 256.926 313.079 257.309L312.351 258.121C311.987 257.832 311.627 257.622 311.273 257.491C310.927 257.351 310.554 257.281 310.153 257.281C309.649 257.281 309.233 257.398 308.907 257.631C308.58 257.864 308.417 258.205 308.417 258.653C308.417 258.933 308.473 259.171 308.585 259.367C308.697 259.554 308.902 259.726 309.201 259.885C309.509 260.044 309.952 260.212 310.531 260.389C311.137 260.576 311.641 260.776 312.043 260.991C312.444 261.206 312.766 261.504 313.009 261.887C313.261 262.26 313.387 262.736 313.387 263.315C313.387 263.875 313.247 264.37 312.967 264.799C312.696 265.228 312.299 265.564 311.777 265.807C311.263 266.05 310.652 266.171 309.943 266.171C308.608 266.171 307.516 265.756 306.667 264.925L307.395 264.113C307.787 264.43 308.183 264.673 308.585 264.841C308.986 265 309.434 265.079 309.929 265.079C310.526 265.079 311.021 264.934 311.413 264.645C311.805 264.346 312.001 263.917 312.001 263.357C312.001 263.04 311.94 262.778 311.819 262.573C311.697 262.358 311.487 262.167 311.189 261.999C310.899 261.831 310.475 261.663 309.915 261.495C308.925 261.196 308.202 260.837 307.745 260.417C307.287 259.997 307.059 259.428 307.059 258.709C307.059 258.224 307.185 257.79 307.437 257.407C307.698 257.024 308.057 256.726 308.515 256.511C308.981 256.296 309.509 256.189 310.097 256.189ZM316.564 258.625V266.003H315.276V258.625H316.564ZM315.906 255.083C316.176 255.083 316.396 255.167 316.564 255.335C316.732 255.503 316.816 255.713 316.816 255.965C316.816 256.217 316.732 256.427 316.564 256.595C316.396 256.754 316.176 256.833 315.906 256.833C315.644 256.833 315.43 256.754 315.262 256.595C315.094 256.427 315.01 256.217 315.01 255.965C315.01 255.713 315.094 255.503 315.262 255.335C315.43 255.167 315.644 255.083 315.906 255.083ZM325.177 258.961C324.897 259.054 324.589 259.115 324.253 259.143C323.917 259.171 323.506 259.185 323.021 259.185C323.889 259.577 324.323 260.198 324.323 261.047C324.323 261.784 324.071 262.386 323.567 262.853C323.063 263.32 322.377 263.553 321.509 263.553C321.173 263.553 320.86 263.506 320.571 263.413C320.459 263.488 320.37 263.59 320.305 263.721C320.239 263.842 320.207 263.968 320.207 264.099C320.207 264.5 320.529 264.701 321.173 264.701H322.349C322.843 264.701 323.282 264.79 323.665 264.967C324.047 265.144 324.341 265.387 324.547 265.695C324.761 266.003 324.869 266.353 324.869 266.745C324.869 267.464 324.575 268.014 323.987 268.397C323.399 268.789 322.54 268.985 321.411 268.985C320.617 268.985 319.987 268.901 319.521 268.733C319.063 268.574 318.737 268.332 318.541 268.005C318.345 267.678 318.247 267.258 318.247 266.745H319.409C319.409 267.044 319.465 267.277 319.577 267.445C319.689 267.622 319.889 267.753 320.179 267.837C320.468 267.93 320.879 267.977 321.411 267.977C322.185 267.977 322.736 267.879 323.063 267.683C323.399 267.496 323.567 267.212 323.567 266.829C323.567 266.484 323.436 266.222 323.175 266.045C322.913 265.868 322.549 265.779 322.083 265.779H320.921C320.295 265.779 319.819 265.648 319.493 265.387C319.175 265.116 319.017 264.78 319.017 264.379C319.017 264.136 319.087 263.903 319.227 263.679C319.367 263.455 319.567 263.254 319.829 263.077C319.399 262.853 319.082 262.578 318.877 262.251C318.681 261.915 318.583 261.509 318.583 261.033C318.583 260.538 318.704 260.095 318.947 259.703C319.199 259.311 319.539 259.008 319.969 258.793C320.407 258.569 320.893 258.457 321.425 258.457C322.003 258.466 322.489 258.448 322.881 258.401C323.273 258.345 323.595 258.275 323.847 258.191C324.108 258.098 324.425 257.967 324.799 257.799L325.177 258.961ZM321.425 259.381C320.939 259.381 320.561 259.535 320.291 259.843C320.029 260.142 319.899 260.538 319.899 261.033C319.899 261.537 320.034 261.943 320.305 262.251C320.575 262.55 320.958 262.699 321.453 262.699C321.957 262.699 322.339 262.554 322.601 262.265C322.871 261.966 323.007 261.551 323.007 261.019C323.007 259.927 322.479 259.381 321.425 259.381ZM329.972 258.457C330.644 258.457 331.167 258.658 331.54 259.059C331.923 259.46 332.114 260.011 332.114 260.711V266.003H330.826V260.893C330.826 260.37 330.728 260.002 330.532 259.787C330.336 259.572 330.047 259.465 329.664 259.465C329.272 259.465 328.927 259.577 328.628 259.801C328.329 260.025 328.049 260.347 327.788 260.767V266.003H326.5V258.625H327.606L327.718 259.717C327.979 259.325 328.301 259.017 328.684 258.793C329.076 258.569 329.505 258.457 329.972 258.457ZM339.696 258.625V266.003H338.408V258.625H339.696ZM339.038 255.083C339.309 255.083 339.528 255.167 339.696 255.335C339.864 255.503 339.948 255.713 339.948 255.965C339.948 256.217 339.864 256.427 339.696 256.595C339.528 256.754 339.309 256.833 339.038 256.833C338.777 256.833 338.562 256.754 338.394 256.595C338.226 256.427 338.142 256.217 338.142 255.965C338.142 255.713 338.226 255.503 338.394 255.335C338.562 255.167 338.777 255.083 339.038 255.083ZM345.832 258.457C346.504 258.457 347.026 258.658 347.4 259.059C347.782 259.46 347.974 260.011 347.974 260.711V266.003H346.686V260.893C346.686 260.37 346.588 260.002 346.392 259.787C346.196 259.572 345.906 259.465 345.524 259.465C345.132 259.465 344.786 259.577 344.488 259.801C344.189 260.025 343.909 260.347 343.648 260.767V266.003H342.36V258.625H343.466L343.578 259.717C343.839 259.325 344.161 259.017 344.544 258.793C344.936 258.569 345.365 258.457 345.832 258.457Z" fill="white"/>
<path d="M97.9043 217.503C97.9043 216.675 97.2327 216.003 96.4043 216.003C95.5759 216.003 94.9043 216.675 94.9043 217.503H97.9043ZM167.677 262.746C168.505 262.746 169.177 262.074 169.177 261.246C169.177 260.417 168.505 259.746 167.677 259.746V262.746ZM205.677 259.746C204.849 259.746 204.177 260.417 204.177 261.246C204.177 262.074 204.849 262.746 205.677 262.746V259.746ZM278.01 262.307C278.596 261.721 278.596 260.771 278.01 260.185L268.464 250.639C267.879 250.054 266.929 250.054 266.343 250.639C265.757 251.225 265.757 252.175 266.343 252.761L274.828 261.246L266.343 269.731C265.757 270.317 265.757 271.267 266.343 271.853C266.929 272.438 267.879 272.438 268.464 271.853L278.01 262.307ZM94.9043 217.503V237.246H97.9043V217.503H94.9043ZM120.404 262.746H167.677V259.746H120.404V262.746ZM205.677 262.746H276.95V259.746H205.677V262.746ZM94.9043 237.246C94.9043 251.329 106.321 262.746 120.404 262.746V259.746C107.978 259.746 97.9043 249.672 97.9043 237.246H94.9043Z" fill="#85E0A3"/>
<rect width="38" height="40" transform="translate(167.677 241.246)" fill="#85E0A3"/>
<path d="M186.551 255.61V267.246H184.937L179.022 258.712H178.914V267.246H177.159V255.61H178.784L184.704 264.155H184.812V255.61H186.551ZM192.651 267.422C191.833 267.422 191.119 267.235 190.509 266.86C189.9 266.485 189.426 265.96 189.089 265.286C188.752 264.612 188.583 263.824 188.583 262.922C188.583 262.017 188.752 261.225 189.089 260.547C189.426 259.869 189.9 259.343 190.509 258.968C191.119 258.593 191.833 258.405 192.651 258.405C193.47 258.405 194.184 258.593 194.793 258.968C195.403 259.343 195.877 259.869 196.214 260.547C196.551 261.225 196.72 262.017 196.72 262.922C196.72 263.824 196.551 264.612 196.214 265.286C195.877 265.96 195.403 266.485 194.793 266.86C194.184 267.235 193.47 267.422 192.651 267.422ZM192.657 265.996C193.187 265.996 193.627 265.856 193.975 265.576C194.324 265.295 194.581 264.922 194.748 264.456C194.918 263.99 195.004 263.477 195.004 262.916C195.004 262.36 194.918 261.848 194.748 261.382C194.581 260.913 194.324 260.536 193.975 260.252C193.627 259.968 193.187 259.826 192.657 259.826C192.123 259.826 191.68 259.968 191.328 260.252C190.979 260.536 190.72 260.913 190.549 261.382C190.382 261.848 190.299 262.36 190.299 262.916C190.299 263.477 190.382 263.99 190.549 264.456C190.72 264.922 190.979 265.295 191.328 265.576C191.68 265.856 192.123 265.996 192.657 265.996Z" fill="black" fill-opacity="0.8"/>
<path d="M378.6 259.746C377.771 259.746 377.1 260.418 377.1 261.246C377.1 262.075 377.771 262.746 378.6 262.746V259.746ZM416.649 262.307C417.235 261.721 417.235 260.772 416.649 260.186L407.103 250.64C406.517 250.054 405.567 250.054 404.982 250.64C404.396 251.226 404.396 252.175 404.982 252.761L413.467 261.246L404.982 269.732C404.396 270.317 404.396 271.267 404.982 271.853C405.567 272.439 406.517 272.439 407.103 271.853L416.649 262.307ZM378.6 262.746H415.588V259.746H378.6V262.746Z" fill="#85E0A3"/>
<path d="M538.355 259.746C537.527 259.746 536.855 260.418 536.855 261.246C536.855 262.075 537.527 262.746 538.355 262.746V259.746ZM593.849 262.307C594.435 261.721 594.435 260.772 593.849 260.186L584.303 250.64C583.718 250.054 582.768 250.054 582.182 250.64C581.596 251.226 581.596 252.175 582.182 252.761L590.667 261.246L582.182 269.732C581.596 270.317 581.596 271.267 582.182 271.853C582.768 272.439 583.718 272.439 584.303 271.853L593.849 262.307ZM538.355 262.746H592.789V259.746H538.355V262.746Z" fill="#85E0A3"/>
<ellipse cx="662.894" cy="47.7796" rx="47.7431" ry="47.284" fill="#155A32"/>
<path d="M655.582 31.8496L655.442 32.9836H652.768V41.4956H651.438V32.9836H648.694V31.8496H655.582ZM661.319 39.7736C661.319 40.0723 661.371 40.2963 661.473 40.4456C661.576 40.5856 661.73 40.6929 661.935 40.7676L661.641 41.6636C661.259 41.6169 660.951 41.5096 660.717 41.3416C660.484 41.1736 660.311 40.9123 660.199 40.5576C659.705 41.2949 658.972 41.6636 658.001 41.6636C657.273 41.6636 656.699 41.4583 656.279 41.0476C655.859 40.6369 655.649 40.1003 655.649 39.4376C655.649 38.6536 655.929 38.0516 656.489 37.6316C657.059 37.2116 657.861 37.0016 658.897 37.0016H660.031V36.4556C660.031 35.9329 659.905 35.5596 659.653 35.3356C659.401 35.1116 659.014 34.9996 658.491 34.9996C657.95 34.9996 657.287 35.1303 656.503 35.3916L656.181 34.4536C657.096 34.1176 657.945 33.9496 658.729 33.9496C659.597 33.9496 660.246 34.1643 660.675 34.5936C661.105 35.0136 661.319 35.6156 661.319 36.3996V39.7736ZM658.295 40.6976C659.033 40.6976 659.611 40.3149 660.031 39.5496V37.8556H659.065C657.703 37.8556 657.021 38.3596 657.021 39.3676C657.021 39.8063 657.129 40.1376 657.343 40.3616C657.558 40.5856 657.875 40.6976 658.295 40.6976ZM665.253 30.9956V41.4956H663.965V31.1496L665.253 30.9956ZM669.495 34.1176L666.779 37.3796L669.803 41.4956H668.263L665.337 37.4636L668.053 34.1176H669.495ZM676.578 37.5896C676.578 37.8043 676.568 38.0236 676.55 38.2476H671.846C671.902 39.0596 672.107 39.6569 672.462 40.0396C672.816 40.4223 673.274 40.6136 673.834 40.6136C674.188 40.6136 674.515 40.5623 674.814 40.4596C675.112 40.3569 675.425 40.1936 675.752 39.9696L676.312 40.7396C675.528 41.3556 674.669 41.6636 673.736 41.6636C672.709 41.6636 671.906 41.3276 671.328 40.6556C670.758 39.9836 670.474 39.0596 670.474 37.8836C670.474 37.1183 670.595 36.4416 670.838 35.8536C671.09 35.2563 671.444 34.7896 671.902 34.4536C672.368 34.1176 672.914 33.9496 673.54 33.9496C674.52 33.9496 675.271 34.2716 675.794 34.9156C676.316 35.5596 676.578 36.4509 676.578 37.5896ZM675.304 37.2116C675.304 36.4836 675.159 35.9283 674.87 35.5456C674.58 35.1629 674.146 34.9716 673.568 34.9716C672.513 34.9716 671.939 35.7463 671.846 37.2956H675.304V37.2116ZM648.752 54.9496C649.695 54.9496 650.385 55.2856 650.824 55.9576C651.263 56.6296 651.482 57.5769 651.482 58.7996C651.482 59.9569 651.23 60.8903 650.726 61.5996C650.222 62.3089 649.508 62.6636 648.584 62.6636C647.763 62.6636 647.119 62.3836 646.652 61.8236V65.3236L645.364 65.4776V55.1176H646.47L646.568 56.1116C646.839 55.7383 647.165 55.4536 647.548 55.2576C647.931 55.0523 648.332 54.9496 648.752 54.9496ZM648.276 61.6136C649.489 61.6136 650.096 60.6756 650.096 58.7996C650.096 56.9143 649.541 55.9716 648.43 55.9716C648.066 55.9716 647.735 56.0789 647.436 56.2936C647.137 56.5083 646.876 56.7836 646.652 57.1196V60.7176C646.839 61.0069 647.072 61.2309 647.352 61.3896C647.632 61.5389 647.94 61.6136 648.276 61.6136ZM657.148 54.9496C657.82 54.9496 658.343 55.1503 658.716 55.5516C659.099 55.9529 659.29 56.5036 659.29 57.2036V62.4956H658.002V57.3856C658.002 56.8629 657.9 56.4943 657.694 56.2796C657.498 56.0649 657.209 55.9576 656.826 55.9576C656.444 55.9576 656.103 56.0696 655.804 56.2936C655.506 56.5176 655.226 56.8349 654.964 57.2456V62.4956H653.676V52.1636L654.964 52.0236V56.1396C655.543 55.3463 656.271 54.9496 657.148 54.9496ZM664.652 54.9496C665.688 54.9496 666.49 55.2949 667.06 55.9856C667.638 56.6763 667.928 57.6143 667.928 58.7996C667.928 59.5649 667.797 60.2416 667.536 60.8296C667.274 61.4083 666.896 61.8609 666.402 62.1876C665.907 62.5049 665.319 62.6636 664.638 62.6636C663.602 62.6636 662.794 62.3183 662.216 61.6276C661.637 60.9369 661.348 59.9989 661.348 58.8136C661.348 58.0483 661.478 57.3763 661.74 56.7976C662.001 56.2096 662.379 55.7569 662.874 55.4396C663.368 55.1129 663.961 54.9496 664.652 54.9496ZM664.652 55.9856C663.373 55.9856 662.734 56.9283 662.734 58.8136C662.734 60.6896 663.368 61.6276 664.638 61.6276C665.907 61.6276 666.542 60.6849 666.542 58.7996C666.542 56.9236 665.912 55.9856 664.652 55.9856ZM673.779 62.1596C673.294 62.4956 672.743 62.6636 672.127 62.6636C671.502 62.6636 671.012 62.4863 670.657 62.1316C670.312 61.7676 670.139 61.2449 670.139 60.5636V56.1116H668.851V55.1176H670.139V53.4516L671.427 53.2976V55.1176H673.177L673.037 56.1116H671.427V60.5076C671.427 60.8903 671.493 61.1703 671.623 61.3476C671.763 61.5156 671.992 61.5996 672.309 61.5996C672.599 61.5996 672.925 61.5016 673.289 61.3056L673.779 62.1596ZM677.681 54.9496C678.717 54.9496 679.52 55.2949 680.089 55.9856C680.668 56.6763 680.957 57.6143 680.957 58.7996C680.957 59.5649 680.826 60.2416 680.565 60.8296C680.304 61.4083 679.926 61.8609 679.431 62.1876C678.936 62.5049 678.348 62.6636 677.667 62.6636C676.631 62.6636 675.824 62.3183 675.245 61.6276C674.666 60.9369 674.377 59.9989 674.377 58.8136C674.377 58.0483 674.508 57.3763 674.769 56.7976C675.03 56.2096 675.408 55.7569 675.903 55.4396C676.398 55.1129 676.99 54.9496 677.681 54.9496ZM677.681 55.9856C676.402 55.9856 675.763 56.9283 675.763 58.8136C675.763 60.6896 676.398 61.6276 677.667 61.6276C678.936 61.6276 679.571 60.6849 679.571 58.7996C679.571 56.9236 678.941 55.9856 677.681 55.9856Z" fill="white"/>
<path d="M661.394 228.784C661.394 229.612 662.066 230.284 662.894 230.284C663.723 230.284 664.394 229.612 664.394 228.784H661.394ZM663.955 98.0028C663.369 97.417 662.419 97.417 661.834 98.0028L652.288 107.549C651.702 108.135 651.702 109.084 652.288 109.67C652.873 110.256 653.823 110.256 654.409 109.67L662.894 101.185L671.38 109.67C671.965 110.256 672.915 110.256 673.501 109.67C674.087 109.084 674.087 108.135 673.501 107.549L663.955 98.0028ZM664.394 228.784V99.0635H661.394V228.784H664.394Z" fill="#85E0A3"/>
<path d="M611.151 49.2798C611.98 49.2798 612.651 48.6082 612.651 47.7798C612.651 46.9514 611.98 46.2798 611.151 46.2798V49.2798ZM475.911 229.845C476.497 230.431 477.447 230.431 478.032 229.845L487.578 220.299C488.164 219.713 488.164 218.764 487.578 218.178C486.992 217.592 486.043 217.592 485.457 218.178L476.972 226.663L468.486 218.178C467.901 217.592 466.951 217.592 466.365 218.178C465.779 218.764 465.779 219.713 466.365 220.299L475.911 229.845ZM611.151 46.2798H500.972V49.2798H611.151V46.2798ZM475.472 71.7798V228.784H478.472V71.7798H475.472ZM500.972 46.2798C486.888 46.2798 475.472 57.6965 475.472 71.7798H478.472C478.472 59.3534 488.545 49.2798 500.972 49.2798V46.2798Z" fill="#85E0A3"/>
</svg>
