<svg width="123" height="223" viewBox="0 0 123 223" fill="none" xmlns="http://www.w3.org/2000/svg">
<path d="M60.75 223C40.75 223 25.625 218.354 15.375 209.063C5.125 199.564 0 186.04 0 168.489V156.1H39V170.967C39 185.007 46.125 192.028 60.375 192.028C67.375 192.028 72.625 190.376 76.125 187.072C79.875 183.562 81.75 177.987 81.75 170.347C81.75 161.262 79.25 153.313 74.25 146.499C69.25 139.478 60 131.116 46.5 121.411C29.5 109.022 17.625 97.8722 10.875 87.9611C4.125 77.8435 0.749999 66.487 0.749999 53.8917C0.749999 36.7537 6 23.5389 16.5 14.2472C27 4.74907 42.25 0 62.25 0C82 0 96.875 4.74907 106.875 14.2472C117.125 23.5389 122.25 36.9602 122.25 54.5111V63.4931H83.25V52.3431C83.25 44.9097 81.5 39.5412 78 36.2375C74.5 32.7273 69.375 30.9722 62.625 30.9722C48.875 30.9722 42 37.8894 42 51.7236C42 59.5699 44.5 66.9 49.5 73.7139C54.75 80.5278 64.125 88.787 77.625 98.4917C94.875 110.881 106.75 122.134 113.25 132.251C119.75 142.369 123 154.242 123 167.869C123 185.627 117.625 199.255 106.875 208.753C96.375 218.251 81 223 60.75 223Z" fill="#004B80" fill-opacity="0.04"/>
</svg>
