<svg width="732" height="287" viewBox="0 0 732 287" fill="none" xmlns="http://www.w3.org/2000/svg">
<ellipse cx="52" cy="63" rx="52" ry="53" fill="#155A32"/>
<path d="M29.472 69.128C28.6187 69.128 27.8027 69 27.024 68.744C26.2453 68.4773 25.632 68.136 25.184 67.72L25.776 66.472C26.2027 66.8453 26.7467 67.1547 27.408 67.4C28.0693 67.6453 28.7573 67.768 29.472 67.768C30.1227 67.768 30.6507 67.6933 31.056 67.544C31.4613 67.3947 31.76 67.192 31.952 66.936C32.144 66.6693 32.24 66.3707 32.24 66.04C32.24 65.656 32.112 65.3467 31.856 65.112C31.6107 64.8773 31.2853 64.6907 30.88 64.552C30.4853 64.4027 30.048 64.2747 29.568 64.168C29.088 64.0613 28.6027 63.9387 28.112 63.8C27.632 63.6507 27.1893 63.464 26.784 63.24C26.3893 63.016 26.0693 62.7173 25.824 62.344C25.5787 61.96 25.456 61.4693 25.456 60.872C25.456 60.296 25.6053 59.768 25.904 59.288C26.2133 58.7973 26.6827 58.408 27.312 58.12C27.952 57.8213 28.7627 57.672 29.744 57.672C30.3947 57.672 31.04 57.7573 31.68 57.928C32.32 58.0987 32.8747 58.344 33.344 58.664L32.816 59.944C32.336 59.624 31.8293 59.3947 31.296 59.256C30.7627 59.1067 30.2453 59.032 29.744 59.032C29.1147 59.032 28.5973 59.112 28.192 59.272C27.7867 59.432 27.488 59.6453 27.296 59.912C27.1147 60.1787 27.024 60.4773 27.024 60.808C27.024 61.2027 27.1467 61.5173 27.392 61.752C27.648 61.9867 27.9733 62.1733 28.368 62.312C28.7733 62.4507 29.216 62.5787 29.696 62.696C30.176 62.8027 30.656 62.9253 31.136 63.064C31.6267 63.2027 32.0693 63.384 32.464 63.608C32.8693 63.832 33.1947 64.1307 33.44 64.504C33.6853 64.8773 33.808 65.3573 33.808 65.944C33.808 66.5093 33.6533 67.0373 33.344 67.528C33.0347 68.008 32.5547 68.3973 31.904 68.696C31.264 68.984 30.4533 69.128 29.472 69.128ZM35.7455 69V60.52H37.2815V69H35.7455ZM36.5135 58.888C36.2148 58.888 35.9642 58.792 35.7615 58.6C35.5695 58.408 35.4735 58.1733 35.4735 57.896C35.4735 57.608 35.5695 57.368 35.7615 57.176C35.9642 56.984 36.2148 56.888 36.5135 56.888C36.8122 56.888 37.0575 56.984 37.2495 57.176C37.4522 57.3573 37.5535 57.5867 37.5535 57.864C37.5535 58.152 37.4575 58.3973 37.2655 58.6C37.0735 58.792 36.8228 58.888 36.5135 58.888ZM43.7502 72.2C42.9716 72.2 42.2142 72.088 41.4782 71.864C40.7529 71.6507 40.1609 71.3413 39.7022 70.936L40.4382 69.752C40.8329 70.0933 41.3182 70.36 41.8942 70.552C42.4702 70.7547 43.0729 70.856 43.7022 70.856C44.7049 70.856 45.4409 70.6213 45.9102 70.152C46.3796 69.6827 46.6142 68.968 46.6142 68.008V66.216L46.7742 64.536L46.6942 62.84V60.52H48.1502V67.848C48.1502 69.3413 47.7769 70.44 47.0302 71.144C46.2836 71.848 45.1902 72.2 43.7502 72.2ZM43.5582 68.648C42.7369 68.648 42.0009 68.4773 41.3502 68.136C40.7102 67.784 40.1982 67.2987 39.8142 66.68C39.4409 66.0613 39.2542 65.3467 39.2542 64.536C39.2542 63.7147 39.4409 63 39.8142 62.392C40.1982 61.7733 40.7102 61.2933 41.3502 60.952C42.0009 60.6107 42.7369 60.44 43.5582 60.44C44.2836 60.44 44.9449 60.5893 45.5422 60.888C46.1396 61.176 46.6142 61.624 46.9662 62.232C47.3289 62.84 47.5102 63.608 47.5102 64.536C47.5102 65.4533 47.3289 66.216 46.9662 66.824C46.6142 67.432 46.1396 67.8907 45.5422 68.2C44.9449 68.4987 44.2836 68.648 43.5582 68.648ZM43.7342 67.304C44.2996 67.304 44.8009 67.1867 45.2382 66.952C45.6756 66.7173 46.0169 66.392 46.2622 65.976C46.5182 65.56 46.6462 65.08 46.6462 64.536C46.6462 63.992 46.5182 63.512 46.2622 63.096C46.0169 62.68 45.6756 62.36 45.2382 62.136C44.8009 61.9013 44.2996 61.784 43.7342 61.784C43.1689 61.784 42.6622 61.9013 42.2142 62.136C41.7769 62.36 41.4302 62.68 41.1742 63.096C40.9289 63.512 40.8062 63.992 40.8062 64.536C40.8062 65.08 40.9289 65.56 41.1742 65.976C41.4302 66.392 41.7769 66.7173 42.2142 66.952C42.6622 67.1867 43.1689 67.304 43.7342 67.304ZM55.4371 60.44C56.1305 60.44 56.7385 60.5733 57.2611 60.84C57.7945 61.1067 58.2105 61.512 58.5091 62.056C58.8078 62.6 58.9571 63.288 58.9571 64.12V69H57.4211V64.296C57.4211 63.4747 57.2185 62.856 56.8131 62.44C56.4185 62.024 55.8585 61.816 55.1331 61.816C54.5891 61.816 54.1145 61.9227 53.7091 62.136C53.3038 62.3493 52.9891 62.664 52.7651 63.08C52.5518 63.496 52.4451 64.0133 52.4451 64.632V69H50.9091V60.52H52.3811V62.808L52.1411 62.2C52.4185 61.6453 52.8451 61.2133 53.4211 60.904C53.9971 60.5947 54.6691 60.44 55.4371 60.44ZM65.7446 69V60.52H67.2806V69H65.7446ZM66.5126 58.888C66.214 58.888 65.9633 58.792 65.7606 58.6C65.5686 58.408 65.4726 58.1733 65.4726 57.896C65.4726 57.608 65.5686 57.368 65.7606 57.176C65.9633 56.984 66.214 56.888 66.5126 56.888C66.8113 56.888 67.0566 56.984 67.2486 57.176C67.4513 57.3573 67.5526 57.5867 67.5526 57.864C67.5526 58.152 67.4566 58.3973 67.2646 58.6C67.0726 58.792 66.822 58.888 66.5126 58.888ZM74.5654 60.44C75.2587 60.44 75.8667 60.5733 76.3894 60.84C76.9227 61.1067 77.3387 61.512 77.6374 62.056C77.936 62.6 78.0854 63.288 78.0854 64.12V69H76.5494V64.296C76.5494 63.4747 76.3467 62.856 75.9414 62.44C75.5467 62.024 74.9867 61.816 74.2614 61.816C73.7174 61.816 73.2427 61.9227 72.8374 62.136C72.432 62.3493 72.1174 62.664 71.8934 63.08C71.68 63.496 71.5734 64.0133 71.5734 64.632V69H70.0374V60.52H71.5094V62.808L71.2694 62.2C71.5467 61.6453 71.9734 61.2133 72.5494 60.904C73.1254 60.5947 73.7974 60.44 74.5654 60.44Z" fill="white"/>
<rect x="237" y="23" width="162" height="80" rx="6" fill="#676827"/>
<path d="M297.019 69V57.3636H298.775V62.4205H304.576V57.3636H306.337V69H304.576V63.9261H298.775V69H297.019ZM312.258 69.1761C311.44 69.1761 310.726 68.9886 310.116 68.6136C309.506 68.2386 309.032 67.714 308.695 67.0398C308.358 66.3655 308.19 65.5777 308.19 64.6761C308.19 63.7708 308.358 62.9792 308.695 62.3011C309.032 61.6231 309.506 61.0966 310.116 60.7216C310.726 60.3466 311.44 60.1591 312.258 60.1591C313.076 60.1591 313.79 60.3466 314.4 60.7216C315.01 61.0966 315.483 61.6231 315.82 62.3011C316.157 62.9792 316.326 63.7708 316.326 64.6761C316.326 65.5777 316.157 66.3655 315.82 67.0398C315.483 67.714 315.01 68.2386 314.4 68.6136C313.79 68.9886 313.076 69.1761 312.258 69.1761ZM312.263 67.75C312.794 67.75 313.233 67.6098 313.582 67.3295C313.93 67.0492 314.188 66.6761 314.354 66.2102C314.525 65.7443 314.61 65.2311 314.61 64.6705C314.61 64.1136 314.525 63.6023 314.354 63.1364C314.188 62.6667 313.93 62.2898 313.582 62.0057C313.233 61.7216 312.794 61.5795 312.263 61.5795C311.729 61.5795 311.286 61.7216 310.934 62.0057C310.585 62.2898 310.326 62.6667 310.155 63.1364C309.989 63.6023 309.905 64.1136 309.905 64.6705C309.905 65.2311 309.989 65.7443 310.155 66.2102C310.326 66.6761 310.585 67.0492 310.934 67.3295C311.286 67.6098 311.729 67.75 312.263 67.75ZM318.046 69V60.2727H319.677V61.6932H319.785C319.967 61.2121 320.264 60.8371 320.677 60.5682C321.09 60.2955 321.584 60.1591 322.16 60.1591C322.743 60.1591 323.232 60.2955 323.626 60.5682C324.024 60.8409 324.317 61.2159 324.506 61.6932H324.597C324.806 61.2273 325.137 60.8561 325.592 60.5795C326.046 60.2992 326.588 60.1591 327.217 60.1591C328.008 60.1591 328.654 60.4072 329.154 60.9034C329.658 61.3996 329.91 62.1477 329.91 63.1477V69H328.211V63.3068C328.211 62.7159 328.05 62.2879 327.728 62.0227C327.406 61.7576 327.022 61.625 326.575 61.625C326.022 61.625 325.592 61.7955 325.285 62.1364C324.978 62.4735 324.825 62.9072 324.825 63.4375V69H323.131V63.1989C323.131 62.7254 322.984 62.3447 322.688 62.0568C322.393 61.7689 322.008 61.625 321.535 61.625C321.213 61.625 320.916 61.7102 320.643 61.8807C320.374 62.0473 320.156 62.2803 319.989 62.5795C319.827 62.8788 319.745 63.2254 319.745 63.6193V69H318.046ZM335.772 69.1761C334.912 69.1761 334.172 68.9924 333.551 68.625C332.933 68.2538 332.456 67.733 332.119 67.0625C331.785 66.3883 331.619 65.5985 331.619 64.6932C331.619 63.7992 331.785 63.0114 332.119 62.3295C332.456 61.6477 332.926 61.1155 333.528 60.733C334.134 60.3504 334.842 60.1591 335.653 60.1591C336.145 60.1591 336.623 60.2405 337.085 60.4034C337.547 60.5663 337.962 60.822 338.329 61.1705C338.696 61.5189 338.986 61.9716 339.198 62.5284C339.41 63.0814 339.517 63.7538 339.517 64.5455V65.1477H332.579V63.875H337.852C337.852 63.428 337.761 63.0322 337.579 62.6875C337.397 62.339 337.142 62.0644 336.812 61.8636C336.486 61.6629 336.104 61.5625 335.664 61.5625C335.187 61.5625 334.77 61.6799 334.414 61.9148C334.062 62.1458 333.789 62.4489 333.596 62.8239C333.407 63.1951 333.312 63.5985 333.312 64.0341V65.0284C333.312 65.6117 333.414 66.108 333.619 66.517C333.827 66.9261 334.117 67.2386 334.488 67.4545C334.859 67.6667 335.293 67.7727 335.789 67.7727C336.111 67.7727 336.405 67.7273 336.67 67.6364C336.935 67.5417 337.164 67.4015 337.357 67.2159C337.551 67.0303 337.698 66.8011 337.801 66.5284L339.409 66.8182C339.28 67.2917 339.049 67.7064 338.715 68.0625C338.386 68.4148 337.971 68.6894 337.471 68.8864C336.975 69.0795 336.409 69.1761 335.772 69.1761Z" fill="white"/>
<ellipse cx="670" cy="63.5" rx="62" ry="63.5" fill="#155A32"/>
<path d="M637.324 46.096C636.694 46.096 636.102 45.9573 635.548 45.68C635.004 45.4027 634.566 45.008 634.236 44.496L634.924 43.696C635.233 44.144 635.59 44.4853 635.996 44.72C636.401 44.9547 636.849 45.072 637.34 45.072C638.726 45.072 639.42 44.2507 639.42 42.608V35.824H635.324V34.8H640.588V42.56C640.588 43.744 640.31 44.6293 639.756 45.216C639.212 45.8027 638.401 46.096 637.324 46.096ZM647.147 46.08C646.337 46.08 645.606 45.8987 644.955 45.536C644.315 45.1627 643.809 44.656 643.435 44.016C643.062 43.3653 642.875 42.624 642.875 41.792C642.875 40.9493 643.062 40.208 643.435 39.568C643.809 38.928 644.315 38.4267 644.955 38.064C645.595 37.7013 646.326 37.52 647.147 37.52C647.979 37.52 648.715 37.7013 649.355 38.064C650.006 38.4267 650.513 38.928 650.875 39.568C651.249 40.208 651.435 40.9493 651.435 41.792C651.435 42.624 651.249 43.3653 650.875 44.016C650.513 44.656 650.006 45.1627 649.355 45.536C648.705 45.8987 647.969 46.08 647.147 46.08ZM647.147 45.072C647.755 45.072 648.294 44.9387 648.763 44.672C649.233 44.3947 649.601 44.0107 649.867 43.52C650.145 43.0187 650.283 42.4427 650.283 41.792C650.283 41.1307 650.145 40.5547 649.867 40.064C649.601 39.5733 649.233 39.1947 648.763 38.928C648.294 38.6507 647.761 38.512 647.163 38.512C646.566 38.512 646.033 38.6507 645.563 38.928C645.094 39.1947 644.721 39.5733 644.443 40.064C644.166 40.5547 644.027 41.1307 644.027 41.792C644.027 42.4427 644.166 43.0187 644.443 43.52C644.721 44.0107 645.094 44.3947 645.563 44.672C646.033 44.9387 646.561 45.072 647.147 45.072ZM653.579 46V37.6H654.715V46H653.579ZM654.155 35.744C653.92 35.744 653.723 35.664 653.563 35.504C653.403 35.344 653.323 35.152 653.323 34.928C653.323 34.704 653.403 34.5173 653.563 34.368C653.723 34.208 653.92 34.128 654.155 34.128C654.389 34.128 654.587 34.2027 654.747 34.352C654.907 34.5013 654.987 34.688 654.987 34.912C654.987 35.1467 654.907 35.344 654.747 35.504C654.597 35.664 654.4 35.744 654.155 35.744ZM661.988 37.52C662.67 37.52 663.268 37.6533 663.78 37.92C664.302 38.176 664.708 38.5707 664.996 39.104C665.294 39.6373 665.444 40.3093 665.444 41.12V46H664.308V41.232C664.308 40.3467 664.084 39.68 663.636 39.232C663.198 38.7733 662.58 38.544 661.78 38.544C661.182 38.544 660.66 38.6667 660.212 38.912C659.774 39.1467 659.433 39.4933 659.188 39.952C658.953 40.4 658.836 40.944 658.836 41.584V46H657.7V37.6H658.788V39.904L658.612 39.472C658.878 38.864 659.305 38.3893 659.892 38.048C660.478 37.696 661.177 37.52 661.988 37.52ZM675.836 46.08C675.004 46.08 674.257 45.8987 673.596 45.536C672.945 45.1627 672.433 44.656 672.06 44.016C671.686 43.3653 671.5 42.624 671.5 41.792C671.5 40.9493 671.686 40.208 672.06 39.568C672.433 38.928 672.945 38.4267 673.596 38.064C674.257 37.7013 675.004 37.52 675.836 37.52C676.55 37.52 677.196 37.6587 677.772 37.936C678.348 38.2133 678.801 38.6293 679.132 39.184L678.284 39.76C677.996 39.3333 677.638 39.0187 677.212 38.816C676.785 38.6133 676.321 38.512 675.82 38.512C675.222 38.512 674.684 38.6507 674.204 38.928C673.724 39.1947 673.345 39.5733 673.068 40.064C672.79 40.5547 672.652 41.1307 672.652 41.792C672.652 42.4533 672.79 43.0293 673.068 43.52C673.345 44.0107 673.724 44.3947 674.204 44.672C674.684 44.9387 675.222 45.072 675.82 45.072C676.321 45.072 676.785 44.9707 677.212 44.768C677.638 44.5653 677.996 44.256 678.284 43.84L679.132 44.416C678.801 44.96 678.348 45.376 677.772 45.664C677.196 45.9413 676.55 46.08 675.836 46.08ZM685.35 37.52C686.033 37.52 686.63 37.6533 687.142 37.92C687.665 38.176 688.07 38.5707 688.358 39.104C688.657 39.6373 688.806 40.3093 688.806 41.12V46H687.67V41.232C687.67 40.3467 687.446 39.68 686.998 39.232C686.561 38.7733 685.942 38.544 685.142 38.544C684.545 38.544 684.022 38.6667 683.574 38.912C683.137 39.1467 682.796 39.4933 682.55 39.952C682.316 40.4 682.198 40.944 682.198 41.584V46H681.062V34.128H682.198V39.904L681.974 39.472C682.241 38.864 682.668 38.3893 683.254 38.048C683.841 37.696 684.54 37.52 685.35 37.52ZM696.963 46V44.144L696.915 43.84V40.736C696.915 40.0213 696.712 39.472 696.307 39.088C695.912 38.704 695.32 38.512 694.531 38.512C693.987 38.512 693.469 38.6027 692.979 38.784C692.488 38.9653 692.072 39.2053 691.731 39.504L691.219 38.656C691.645 38.2933 692.157 38.016 692.755 37.824C693.352 37.6213 693.981 37.52 694.643 37.52C695.731 37.52 696.568 37.792 697.155 38.336C697.752 38.8693 698.051 39.6853 698.051 40.784V46H696.963ZM694.067 46.08C693.437 46.08 692.888 45.9787 692.419 45.776C691.96 45.5627 691.608 45.2747 691.363 44.912C691.117 44.5387 690.995 44.112 690.995 43.632C690.995 43.1947 691.096 42.8 691.299 42.448C691.512 42.0853 691.853 41.7973 692.323 41.584C692.803 41.36 693.443 41.248 694.243 41.248H697.139V42.096H694.275C693.464 42.096 692.899 42.24 692.579 42.528C692.269 42.816 692.115 43.1733 692.115 43.6C692.115 44.08 692.301 44.464 692.675 44.752C693.048 45.04 693.571 45.184 694.243 45.184C694.883 45.184 695.432 45.04 695.891 44.752C696.36 44.4533 696.701 44.0267 696.915 43.472L697.171 44.256C696.957 44.8107 696.584 45.2533 696.051 45.584C695.528 45.9147 694.867 46.08 694.067 46.08ZM703.616 46.08C702.827 46.08 702.219 45.8667 701.792 45.44C701.366 45.0133 701.152 44.4107 701.152 43.632V35.744H702.288V43.568C702.288 44.0587 702.411 44.4373 702.656 44.704C702.912 44.9707 703.275 45.104 703.744 45.104C704.246 45.104 704.662 44.96 704.992 44.672L705.392 45.488C705.168 45.6907 704.896 45.84 704.576 45.936C704.267 46.032 703.947 46.08 703.616 46.08ZM699.648 38.544V37.6H704.848V38.544H699.648ZM640.364 70V61.6H641.452V63.888L641.34 63.488C641.575 62.848 641.969 62.3627 642.524 62.032C643.079 61.6907 643.767 61.52 644.588 61.52V62.624C644.545 62.624 644.503 62.624 644.46 62.624C644.417 62.6133 644.375 62.608 644.332 62.608C643.447 62.608 642.753 62.88 642.252 63.424C641.751 63.9573 641.5 64.72 641.5 65.712V70H640.364ZM649.831 70.08C649.02 70.08 648.289 69.8987 647.639 69.536C646.999 69.1627 646.492 68.656 646.119 68.016C645.745 67.3653 645.559 66.624 645.559 65.792C645.559 64.9493 645.745 64.208 646.119 63.568C646.492 62.928 646.999 62.4267 647.639 62.064C648.279 61.7013 649.009 61.52 649.831 61.52C650.663 61.52 651.399 61.7013 652.039 62.064C652.689 62.4267 653.196 62.928 653.559 63.568C653.932 64.208 654.119 64.9493 654.119 65.792C654.119 66.624 653.932 67.3653 653.559 68.016C653.196 68.656 652.689 69.1627 652.039 69.536C651.388 69.8987 650.652 70.08 649.831 70.08ZM649.831 69.072C650.439 69.072 650.977 68.9387 651.447 68.672C651.916 68.3947 652.284 68.0107 652.551 67.52C652.828 67.0187 652.967 66.4427 652.967 65.792C652.967 65.1307 652.828 64.5547 652.551 64.064C652.284 63.5733 651.916 63.1947 651.447 62.928C650.977 62.6507 650.444 62.512 649.847 62.512C649.249 62.512 648.716 62.6507 648.247 62.928C647.777 63.1947 647.404 63.5733 647.127 64.064C646.849 64.5547 646.711 65.1307 646.711 65.792C646.711 66.4427 646.849 67.0187 647.127 67.52C647.404 68.0107 647.777 68.3947 648.247 68.672C648.716 68.9387 649.244 69.072 649.831 69.072ZM659.686 70.08C658.875 70.08 658.145 69.8987 657.494 69.536C656.854 69.1627 656.347 68.656 655.974 68.016C655.601 67.3653 655.414 66.624 655.414 65.792C655.414 64.9493 655.601 64.208 655.974 63.568C656.347 62.928 656.854 62.4267 657.494 62.064C658.134 61.7013 658.865 61.52 659.686 61.52C660.518 61.52 661.254 61.7013 661.894 62.064C662.545 62.4267 663.051 62.928 663.414 63.568C663.787 64.208 663.974 64.9493 663.974 65.792C663.974 66.624 663.787 67.3653 663.414 68.016C663.051 68.656 662.545 69.1627 661.894 69.536C661.243 69.8987 660.507 70.08 659.686 70.08ZM659.686 69.072C660.294 69.072 660.833 68.9387 661.302 68.672C661.771 68.3947 662.139 68.0107 662.406 67.52C662.683 67.0187 662.822 66.4427 662.822 65.792C662.822 65.1307 662.683 64.5547 662.406 64.064C662.139 63.5733 661.771 63.1947 661.302 62.928C660.833 62.6507 660.299 62.512 659.702 62.512C659.105 62.512 658.571 62.6507 658.102 62.928C657.633 63.1947 657.259 63.5733 656.982 64.064C656.705 64.5547 656.566 65.1307 656.566 65.792C656.566 66.4427 656.705 67.0187 656.982 67.52C657.259 68.0107 657.633 68.3947 658.102 68.672C658.571 68.9387 659.099 69.072 659.686 69.072ZM676.613 61.52C677.296 61.52 677.888 61.6533 678.389 61.92C678.901 62.176 679.296 62.5707 679.573 63.104C679.861 63.6373 680.005 64.3093 680.005 65.12V70H678.869V65.232C678.869 64.3467 678.656 63.68 678.229 63.232C677.813 62.7733 677.221 62.544 676.453 62.544C675.877 62.544 675.376 62.6667 674.949 62.912C674.533 63.1467 674.208 63.4933 673.973 63.952C673.749 64.4 673.637 64.944 673.637 65.584V70H672.501V65.232C672.501 64.3467 672.288 63.68 671.861 63.232C671.435 62.7733 670.837 62.544 670.069 62.544C669.504 62.544 669.008 62.6667 668.581 62.912C668.155 63.1467 667.824 63.4933 667.589 63.952C667.365 64.4 667.253 64.944 667.253 65.584V70H666.117V61.6H667.205V63.872L667.029 63.472C667.285 62.864 667.696 62.3893 668.261 62.048C668.837 61.696 669.515 61.52 670.293 61.52C671.115 61.52 671.813 61.728 672.389 62.144C672.965 62.5493 673.339 63.1627 673.509 63.984L673.061 63.808C673.307 63.1253 673.739 62.576 674.357 62.16C674.987 61.7333 675.739 61.52 676.613 61.52ZM689.578 70.08C688.788 70.08 688.18 69.8667 687.754 69.44C687.327 69.0133 687.114 68.4107 687.114 67.632V59.744H688.25V67.568C688.25 68.0587 688.372 68.4373 688.618 68.704C688.874 68.9707 689.236 69.104 689.706 69.104C690.207 69.104 690.623 68.96 690.954 68.672L691.354 69.488C691.13 69.6907 690.858 69.84 690.538 69.936C690.228 70.032 689.908 70.08 689.578 70.08ZM685.61 62.544V61.6H690.81V62.544H685.61ZM696.373 70.08C695.562 70.08 694.831 69.8987 694.181 69.536C693.541 69.1627 693.034 68.656 692.661 68.016C692.287 67.3653 692.101 66.624 692.101 65.792C692.101 64.9493 692.287 64.208 692.661 63.568C693.034 62.928 693.541 62.4267 694.181 62.064C694.821 61.7013 695.551 61.52 696.373 61.52C697.205 61.52 697.941 61.7013 698.581 62.064C699.231 62.4267 699.738 62.928 700.101 63.568C700.474 64.208 700.661 64.9493 700.661 65.792C700.661 66.624 700.474 67.3653 700.101 68.016C699.738 68.656 699.231 69.1627 698.581 69.536C697.93 69.8987 697.194 70.08 696.373 70.08ZM696.373 69.072C696.981 69.072 697.519 68.9387 697.989 68.672C698.458 68.3947 698.826 68.0107 699.093 67.52C699.37 67.0187 699.509 66.4427 699.509 65.792C699.509 65.1307 699.37 64.5547 699.093 64.064C698.826 63.5733 698.458 63.1947 697.989 62.928C697.519 62.6507 696.986 62.512 696.389 62.512C695.791 62.512 695.258 62.6507 694.789 62.928C694.319 63.1947 693.946 63.5733 693.669 64.064C693.391 64.5547 693.253 65.1307 693.253 65.792C693.253 66.4427 693.391 67.0187 693.669 67.52C693.946 68.0107 694.319 68.3947 694.789 68.672C695.258 68.9387 695.786 69.072 696.373 69.072ZM641.393 94V85.6H642.481V87.888L642.369 87.488C642.604 86.848 642.999 86.3627 643.553 86.032C644.108 85.6907 644.796 85.52 645.617 85.52V86.624C645.575 86.624 645.532 86.624 645.489 86.624C645.447 86.6133 645.404 86.608 645.361 86.608C644.476 86.608 643.783 86.88 643.281 87.424C642.78 87.9573 642.529 88.72 642.529 89.712V94H641.393ZM651.004 94.08C650.129 94.08 649.361 93.8987 648.7 93.536C648.039 93.1627 647.521 92.656 647.148 92.016C646.775 91.3653 646.588 90.624 646.588 89.792C646.588 88.96 646.764 88.224 647.116 87.584C647.479 86.944 647.969 86.4427 648.588 86.08C649.217 85.7067 649.921 85.52 650.7 85.52C651.489 85.52 652.188 85.7013 652.796 86.064C653.415 86.416 653.9 86.9173 654.252 87.568C654.604 88.208 654.78 88.9493 654.78 89.792C654.78 89.8453 654.775 89.904 654.764 89.968C654.764 90.0213 654.764 90.08 654.764 90.144H647.452V89.296H654.156L653.708 89.632C653.708 89.024 653.575 88.4853 653.308 88.016C653.052 87.536 652.7 87.1627 652.252 86.896C651.804 86.6293 651.287 86.496 650.7 86.496C650.124 86.496 649.607 86.6293 649.148 86.896C648.689 87.1627 648.332 87.536 648.076 88.016C647.82 88.496 647.692 89.0453 647.692 89.664V89.84C647.692 90.48 647.831 91.0453 648.108 91.536C648.396 92.016 648.791 92.3947 649.292 92.672C649.804 92.9387 650.385 93.072 651.036 93.072C651.548 93.072 652.023 92.9813 652.46 92.8C652.908 92.6187 653.292 92.3413 653.612 91.968L654.252 92.704C653.879 93.152 653.409 93.4933 652.844 93.728C652.289 93.9627 651.676 94.08 651.004 94.08ZM660.26 94.08C659.46 94.08 658.74 93.8987 658.1 93.536C657.471 93.1733 656.975 92.672 656.612 92.032C656.25 91.392 656.068 90.6453 656.068 89.792C656.068 88.9493 656.25 88.208 656.612 87.568C656.975 86.9173 657.471 86.416 658.1 86.064C658.74 85.7013 659.46 85.52 660.26 85.52C661.007 85.52 661.668 85.6853 662.244 86.016C662.831 86.3467 663.295 86.832 663.636 87.472C663.978 88.1013 664.148 88.8747 664.148 89.792C664.148 90.7093 663.972 91.488 663.62 92.128C663.279 92.7573 662.815 93.2427 662.228 93.584C661.652 93.9147 660.996 94.08 660.26 94.08ZM660.34 93.072C660.938 93.072 661.471 92.9387 661.94 92.672C662.42 92.3947 662.794 92.0107 663.06 91.52C663.338 91.0187 663.476 90.4427 663.476 89.792C663.476 89.1413 663.338 88.5707 663.06 88.08C662.794 87.5893 662.42 87.2053 661.94 86.928C661.471 86.6507 660.938 86.512 660.34 86.512C659.754 86.512 659.226 86.6507 658.756 86.928C658.287 87.2053 657.914 87.5893 657.636 88.08C657.359 88.5707 657.22 89.1413 657.22 89.792C657.22 90.4427 657.359 91.0187 657.636 91.52C657.914 92.0107 658.287 92.3947 658.756 92.672C659.226 92.9387 659.754 93.072 660.34 93.072ZM663.46 97.104V91.504L663.62 89.808L663.508 88.128V85.6H664.596V97.104H663.46ZM671.056 94.08C670.341 94.08 669.717 93.9467 669.184 93.68C668.651 93.4133 668.235 93.0133 667.936 92.48C667.648 91.9467 667.504 91.28 667.504 90.48V85.6H668.64V90.352C668.64 91.248 668.859 91.9253 669.296 92.384C669.744 92.832 670.368 93.056 671.168 93.056C671.755 93.056 672.261 92.9387 672.688 92.704C673.125 92.4587 673.456 92.1067 673.68 91.648C673.915 91.1893 674.032 90.64 674.032 90V85.6H675.168V94H674.08V91.696L674.256 92.112C673.989 92.7307 673.573 93.216 673.008 93.568C672.453 93.9093 671.803 94.08 671.056 94.08ZM681.726 94.08C680.851 94.08 680.083 93.8987 679.422 93.536C678.761 93.1627 678.243 92.656 677.87 92.016C677.497 91.3653 677.31 90.624 677.31 89.792C677.31 88.96 677.486 88.224 677.838 87.584C678.201 86.944 678.691 86.4427 679.31 86.08C679.939 85.7067 680.643 85.52 681.422 85.52C682.211 85.52 682.91 85.7013 683.518 86.064C684.137 86.416 684.622 86.9173 684.974 87.568C685.326 88.208 685.502 88.9493 685.502 89.792C685.502 89.8453 685.497 89.904 685.486 89.968C685.486 90.0213 685.486 90.08 685.486 90.144H678.174V89.296H684.878L684.43 89.632C684.43 89.024 684.297 88.4853 684.03 88.016C683.774 87.536 683.422 87.1627 682.974 86.896C682.526 86.6293 682.009 86.496 681.422 86.496C680.846 86.496 680.329 86.6293 679.87 86.896C679.411 87.1627 679.054 87.536 678.798 88.016C678.542 88.496 678.414 89.0453 678.414 89.664V89.84C678.414 90.48 678.553 91.0453 678.83 91.536C679.118 92.016 679.513 92.3947 680.014 92.672C680.526 92.9387 681.107 93.072 681.758 93.072C682.27 93.072 682.745 92.9813 683.182 92.8C683.63 92.6187 684.014 92.3413 684.334 91.968L684.974 92.704C684.601 93.152 684.131 93.4933 683.566 93.728C683.011 93.9627 682.398 94.08 681.726 94.08ZM689.894 94.08C689.201 94.08 688.545 93.984 687.926 93.792C687.308 93.5893 686.822 93.3387 686.47 93.04L686.982 92.144C687.324 92.4 687.761 92.624 688.294 92.816C688.828 92.9973 689.388 93.088 689.974 93.088C690.774 93.088 691.35 92.9653 691.702 92.72C692.054 92.464 692.23 92.128 692.23 91.712C692.23 91.4027 692.129 91.1627 691.926 90.992C691.734 90.8107 691.478 90.6773 691.158 90.592C690.838 90.496 690.481 90.416 690.086 90.352C689.692 90.288 689.297 90.2133 688.902 90.128C688.518 90.0427 688.166 89.92 687.846 89.76C687.526 89.5893 687.265 89.36 687.062 89.072C686.87 88.784 686.774 88.4 686.774 87.92C686.774 87.4613 686.902 87.0507 687.158 86.688C687.414 86.3253 687.788 86.0427 688.278 85.84C688.78 85.6267 689.388 85.52 690.102 85.52C690.646 85.52 691.19 85.5947 691.734 85.744C692.278 85.8827 692.726 86.0693 693.078 86.304L692.582 87.216C692.209 86.96 691.809 86.7787 691.382 86.672C690.956 86.5547 690.529 86.496 690.102 86.496C689.345 86.496 688.785 86.6293 688.422 86.896C688.07 87.152 687.894 87.4827 687.894 87.888C687.894 88.208 687.99 88.4587 688.182 88.64C688.385 88.8213 688.646 88.9653 688.966 89.072C689.297 89.168 689.654 89.248 690.038 89.312C690.433 89.376 690.822 89.456 691.206 89.552C691.601 89.6373 691.958 89.76 692.278 89.92C692.609 90.0693 692.87 90.288 693.062 90.576C693.265 90.8533 693.366 91.2213 693.366 91.68C693.366 92.1707 693.228 92.5973 692.95 92.96C692.684 93.312 692.289 93.5893 691.766 93.792C691.254 93.984 690.63 94.08 689.894 94.08ZM697.931 94.08C697.141 94.08 696.533 93.8667 696.107 93.44C695.68 93.0133 695.467 92.4107 695.467 91.632V83.744H696.603V91.568C696.603 92.0587 696.725 92.4373 696.971 92.704C697.227 92.9707 697.589 93.104 698.059 93.104C698.56 93.104 698.976 92.96 699.307 92.672L699.707 93.488C699.483 93.6907 699.211 93.84 698.891 93.936C698.581 94.032 698.261 94.08 697.931 94.08ZM693.963 86.544V85.6H699.163V86.544H693.963Z" fill="white"/>
<path d="M403 61.5C402.172 61.5 401.5 62.1716 401.5 63C401.5 63.8284 402.172 64.5 403 64.5V61.5ZM605.061 64.0607C605.646 63.4749 605.646 62.5251 605.061 61.9393L595.515 52.3934C594.929 51.8076 593.979 51.8076 593.393 52.3934C592.808 52.9792 592.808 53.9289 593.393 54.5147L601.879 63L593.393 71.4853C592.808 72.0711 592.808 73.0208 593.393 73.6066C593.979 74.1924 594.929 74.1924 595.515 73.6066L605.061 64.0607ZM403 64.5H604V61.5H403V64.5Z" fill="#85E0A3"/>
<path d="M108 61.5C107.172 61.5 106.5 62.1716 106.5 63C106.5 63.8284 107.172 64.5 108 64.5V61.5ZM234.061 64.0607C234.646 63.4749 234.646 62.5251 234.061 61.9393L224.515 52.3934C223.929 51.8076 222.979 51.8076 222.393 52.3934C221.808 52.9792 221.808 53.9289 222.393 54.5147L230.879 63L222.393 71.4853C221.808 72.0711 221.808 73.0208 222.393 73.6066C222.979 74.1924 223.929 74.1924 224.515 73.6066L234.061 64.0607ZM108 64.5H233V61.5H108V64.5Z" fill="#85E0A3"/>
<ellipse cx="670" cy="223.5" rx="62" ry="63.5" fill="#155A32"/>
<path d="M637.015 206L642.135 194.8H643.303L648.423 206H647.175L642.471 195.488H642.951L638.247 206H637.015ZM639.031 203.008L639.383 202.048H645.895L646.247 203.008H639.031ZM654.196 206.08C653.471 206.08 652.815 205.915 652.228 205.584C651.641 205.243 651.172 204.757 650.82 204.128C650.479 203.488 650.308 202.709 650.308 201.792C650.308 200.875 650.479 200.101 650.82 199.472C651.161 198.832 651.625 198.347 652.212 198.016C652.799 197.685 653.46 197.52 654.196 197.52C654.996 197.52 655.711 197.701 656.34 198.064C656.98 198.416 657.481 198.917 657.844 199.568C658.207 200.208 658.388 200.949 658.388 201.792C658.388 202.645 658.207 203.392 657.844 204.032C657.481 204.672 656.98 205.173 656.34 205.536C655.711 205.899 654.996 206.08 654.196 206.08ZM649.86 209.104V197.6H650.948V200.128L650.836 201.808L650.996 203.504V209.104H649.86ZM654.116 205.072C654.713 205.072 655.247 204.939 655.716 204.672C656.185 204.395 656.559 204.011 656.836 203.52C657.113 203.019 657.252 202.443 657.252 201.792C657.252 201.141 657.113 200.571 656.836 200.08C656.559 199.589 656.185 199.205 655.716 198.928C655.247 198.651 654.713 198.512 654.116 198.512C653.519 198.512 652.98 198.651 652.5 198.928C652.031 199.205 651.657 199.589 651.38 200.08C651.113 200.571 650.98 201.141 650.98 201.792C650.98 202.443 651.113 203.019 651.38 203.52C651.657 204.011 652.031 204.395 652.5 204.672C652.98 204.939 653.519 205.072 654.116 205.072ZM664.864 206.08C664.138 206.08 663.482 205.915 662.896 205.584C662.309 205.243 661.84 204.757 661.488 204.128C661.146 203.488 660.976 202.709 660.976 201.792C660.976 200.875 661.146 200.101 661.488 199.472C661.829 198.832 662.293 198.347 662.88 198.016C663.466 197.685 664.128 197.52 664.864 197.52C665.664 197.52 666.378 197.701 667.008 198.064C667.648 198.416 668.149 198.917 668.512 199.568C668.874 200.208 669.056 200.949 669.056 201.792C669.056 202.645 668.874 203.392 668.512 204.032C668.149 204.672 667.648 205.173 667.008 205.536C666.378 205.899 665.664 206.08 664.864 206.08ZM660.528 209.104V197.6H661.616V200.128L661.504 201.808L661.664 203.504V209.104H660.528ZM664.784 205.072C665.381 205.072 665.914 204.939 666.384 204.672C666.853 204.395 667.226 204.011 667.504 203.52C667.781 203.019 667.92 202.443 667.92 201.792C667.92 201.141 667.781 200.571 667.504 200.08C667.226 199.589 666.853 199.205 666.384 198.928C665.914 198.651 665.381 198.512 664.784 198.512C664.186 198.512 663.648 198.651 663.168 198.928C662.698 199.205 662.325 199.589 662.048 200.08C661.781 200.571 661.648 201.141 661.648 201.792C661.648 202.443 661.781 203.019 662.048 203.52C662.325 204.011 662.698 204.395 663.168 204.672C663.648 204.939 664.186 205.072 664.784 205.072ZM671.195 206V197.6H672.283V199.888L672.171 199.488C672.406 198.848 672.801 198.363 673.355 198.032C673.91 197.691 674.598 197.52 675.419 197.52V198.624C675.377 198.624 675.334 198.624 675.291 198.624C675.249 198.613 675.206 198.608 675.163 198.608C674.278 198.608 673.585 198.88 673.083 199.424C672.582 199.957 672.331 200.72 672.331 201.712V206H671.195ZM680.662 206.08C679.852 206.08 679.121 205.899 678.47 205.536C677.83 205.163 677.324 204.656 676.95 204.016C676.577 203.365 676.39 202.624 676.39 201.792C676.39 200.949 676.577 200.208 676.95 199.568C677.324 198.928 677.83 198.427 678.47 198.064C679.11 197.701 679.841 197.52 680.662 197.52C681.494 197.52 682.23 197.701 682.87 198.064C683.521 198.427 684.028 198.928 684.39 199.568C684.764 200.208 684.95 200.949 684.95 201.792C684.95 202.624 684.764 203.365 684.39 204.016C684.028 204.656 683.521 205.163 682.87 205.536C682.22 205.899 681.484 206.08 680.662 206.08ZM680.662 205.072C681.27 205.072 681.809 204.939 682.278 204.672C682.748 204.395 683.116 204.011 683.382 203.52C683.66 203.019 683.798 202.443 683.798 201.792C683.798 201.131 683.66 200.555 683.382 200.064C683.116 199.573 682.748 199.195 682.278 198.928C681.809 198.651 681.276 198.512 680.678 198.512C680.081 198.512 679.548 198.651 679.078 198.928C678.609 199.195 678.236 199.573 677.958 200.064C677.681 200.555 677.542 201.131 677.542 201.792C677.542 202.443 677.681 203.019 677.958 203.52C678.236 204.011 678.609 204.395 679.078 204.672C679.548 204.939 680.076 205.072 680.662 205.072ZM689.019 206L685.291 197.6H686.475L689.899 205.392H689.339L692.811 197.6H693.931L690.187 206H689.019ZM698.689 206.08C697.814 206.08 697.046 205.899 696.385 205.536C695.723 205.163 695.206 204.656 694.833 204.016C694.459 203.365 694.273 202.624 694.273 201.792C694.273 200.96 694.449 200.224 694.801 199.584C695.163 198.944 695.654 198.443 696.273 198.08C696.902 197.707 697.606 197.52 698.385 197.52C699.174 197.52 699.873 197.701 700.481 198.064C701.099 198.416 701.585 198.917 701.937 199.568C702.289 200.208 702.465 200.949 702.465 201.792C702.465 201.845 702.459 201.904 702.449 201.968C702.449 202.021 702.449 202.08 702.449 202.144H695.137V201.296H701.841L701.393 201.632C701.393 201.024 701.259 200.485 700.993 200.016C700.737 199.536 700.385 199.163 699.937 198.896C699.489 198.629 698.971 198.496 698.385 198.496C697.809 198.496 697.291 198.629 696.833 198.896C696.374 199.163 696.017 199.536 695.761 200.016C695.505 200.496 695.377 201.045 695.377 201.664V201.84C695.377 202.48 695.515 203.045 695.793 203.536C696.081 204.016 696.475 204.395 696.977 204.672C697.489 204.939 698.07 205.072 698.721 205.072C699.233 205.072 699.707 204.981 700.145 204.8C700.593 204.619 700.977 204.341 701.297 203.968L701.937 204.704C701.563 205.152 701.094 205.493 700.529 205.728C699.974 205.963 699.361 206.08 698.689 206.08ZM661.02 230.08C660.23 230.08 659.622 229.867 659.196 229.44C658.769 229.013 658.556 228.411 658.556 227.632V219.744H659.692V227.568C659.692 228.059 659.814 228.437 660.06 228.704C660.316 228.971 660.678 229.104 661.148 229.104C661.649 229.104 662.065 228.96 662.396 228.672L662.796 229.488C662.572 229.691 662.3 229.84 661.98 229.936C661.67 230.032 661.35 230.08 661.02 230.08ZM657.052 222.544V221.6H662.252V222.544H657.052ZM668.976 221.52C669.658 221.52 670.256 221.653 670.768 221.92C671.29 222.176 671.696 222.571 671.984 223.104C672.282 223.637 672.432 224.309 672.432 225.12V230H671.296V225.232C671.296 224.347 671.072 223.68 670.624 223.232C670.186 222.773 669.568 222.544 668.768 222.544C668.17 222.544 667.648 222.667 667.2 222.912C666.762 223.147 666.421 223.493 666.176 223.952C665.941 224.4 665.824 224.944 665.824 225.584V230H664.688V218.128H665.824V223.904L665.6 223.472C665.866 222.864 666.293 222.389 666.88 222.048C667.466 221.696 668.165 221.52 668.976 221.52ZM678.892 230.08C678.017 230.08 677.249 229.899 676.588 229.536C675.927 229.163 675.409 228.656 675.036 228.016C674.663 227.365 674.476 226.624 674.476 225.792C674.476 224.96 674.652 224.224 675.004 223.584C675.367 222.944 675.857 222.443 676.476 222.08C677.105 221.707 677.809 221.52 678.588 221.52C679.377 221.52 680.076 221.701 680.684 222.064C681.303 222.416 681.788 222.917 682.14 223.568C682.492 224.208 682.668 224.949 682.668 225.792C682.668 225.845 682.663 225.904 682.652 225.968C682.652 226.021 682.652 226.08 682.652 226.144H675.34V225.296H682.044L681.596 225.632C681.596 225.024 681.463 224.485 681.196 224.016C680.94 223.536 680.588 223.163 680.14 222.896C679.692 222.629 679.175 222.496 678.588 222.496C678.012 222.496 677.495 222.629 677.036 222.896C676.577 223.163 676.22 223.536 675.964 224.016C675.708 224.496 675.58 225.045 675.58 225.664V225.84C675.58 226.48 675.719 227.045 675.996 227.536C676.284 228.016 676.679 228.395 677.18 228.672C677.692 228.939 678.273 229.072 678.924 229.072C679.436 229.072 679.911 228.981 680.348 228.8C680.796 228.619 681.18 228.341 681.5 227.968L682.14 228.704C681.767 229.152 681.297 229.493 680.732 229.728C680.177 229.963 679.564 230.08 678.892 230.08ZM641.393 254V245.6H642.481V247.888L642.369 247.488C642.604 246.848 642.999 246.363 643.553 246.032C644.108 245.691 644.796 245.52 645.617 245.52V246.624C645.575 246.624 645.532 246.624 645.489 246.624C645.447 246.613 645.404 246.608 645.361 246.608C644.476 246.608 643.783 246.88 643.281 247.424C642.78 247.957 642.529 248.72 642.529 249.712V254H641.393ZM651.004 254.08C650.129 254.08 649.361 253.899 648.7 253.536C648.039 253.163 647.521 252.656 647.148 252.016C646.775 251.365 646.588 250.624 646.588 249.792C646.588 248.96 646.764 248.224 647.116 247.584C647.479 246.944 647.969 246.443 648.588 246.08C649.217 245.707 649.921 245.52 650.7 245.52C651.489 245.52 652.188 245.701 652.796 246.064C653.415 246.416 653.9 246.917 654.252 247.568C654.604 248.208 654.78 248.949 654.78 249.792C654.78 249.845 654.775 249.904 654.764 249.968C654.764 250.021 654.764 250.08 654.764 250.144H647.452V249.296H654.156L653.708 249.632C653.708 249.024 653.575 248.485 653.308 248.016C653.052 247.536 652.7 247.163 652.252 246.896C651.804 246.629 651.287 246.496 650.7 246.496C650.124 246.496 649.607 246.629 649.148 246.896C648.689 247.163 648.332 247.536 648.076 248.016C647.82 248.496 647.692 249.045 647.692 249.664V249.84C647.692 250.48 647.831 251.045 648.108 251.536C648.396 252.016 648.791 252.395 649.292 252.672C649.804 252.939 650.385 253.072 651.036 253.072C651.548 253.072 652.023 252.981 652.46 252.8C652.908 252.619 653.292 252.341 653.612 251.968L654.252 252.704C653.879 253.152 653.409 253.493 652.844 253.728C652.289 253.963 651.676 254.08 651.004 254.08ZM660.26 254.08C659.46 254.08 658.74 253.899 658.1 253.536C657.471 253.173 656.975 252.672 656.612 252.032C656.25 251.392 656.068 250.645 656.068 249.792C656.068 248.949 656.25 248.208 656.612 247.568C656.975 246.917 657.471 246.416 658.1 246.064C658.74 245.701 659.46 245.52 660.26 245.52C661.007 245.52 661.668 245.685 662.244 246.016C662.831 246.347 663.295 246.832 663.636 247.472C663.978 248.101 664.148 248.875 664.148 249.792C664.148 250.709 663.972 251.488 663.62 252.128C663.279 252.757 662.815 253.243 662.228 253.584C661.652 253.915 660.996 254.08 660.26 254.08ZM660.34 253.072C660.938 253.072 661.471 252.939 661.94 252.672C662.42 252.395 662.794 252.011 663.06 251.52C663.338 251.019 663.476 250.443 663.476 249.792C663.476 249.141 663.338 248.571 663.06 248.08C662.794 247.589 662.42 247.205 661.94 246.928C661.471 246.651 660.938 246.512 660.34 246.512C659.754 246.512 659.226 246.651 658.756 246.928C658.287 247.205 657.914 247.589 657.636 248.08C657.359 248.571 657.22 249.141 657.22 249.792C657.22 250.443 657.359 251.019 657.636 251.52C657.914 252.011 658.287 252.395 658.756 252.672C659.226 252.939 659.754 253.072 660.34 253.072ZM663.46 257.104V251.504L663.62 249.808L663.508 248.128V245.6H664.596V257.104H663.46ZM671.056 254.08C670.341 254.08 669.717 253.947 669.184 253.68C668.651 253.413 668.235 253.013 667.936 252.48C667.648 251.947 667.504 251.28 667.504 250.48V245.6H668.64V250.352C668.64 251.248 668.859 251.925 669.296 252.384C669.744 252.832 670.368 253.056 671.168 253.056C671.755 253.056 672.261 252.939 672.688 252.704C673.125 252.459 673.456 252.107 673.68 251.648C673.915 251.189 674.032 250.64 674.032 250V245.6H675.168V254H674.08V251.696L674.256 252.112C673.989 252.731 673.573 253.216 673.008 253.568C672.453 253.909 671.803 254.08 671.056 254.08ZM681.726 254.08C680.851 254.08 680.083 253.899 679.422 253.536C678.761 253.163 678.243 252.656 677.87 252.016C677.497 251.365 677.31 250.624 677.31 249.792C677.31 248.96 677.486 248.224 677.838 247.584C678.201 246.944 678.691 246.443 679.31 246.08C679.939 245.707 680.643 245.52 681.422 245.52C682.211 245.52 682.91 245.701 683.518 246.064C684.137 246.416 684.622 246.917 684.974 247.568C685.326 248.208 685.502 248.949 685.502 249.792C685.502 249.845 685.497 249.904 685.486 249.968C685.486 250.021 685.486 250.08 685.486 250.144H678.174V249.296H684.878L684.43 249.632C684.43 249.024 684.297 248.485 684.03 248.016C683.774 247.536 683.422 247.163 682.974 246.896C682.526 246.629 682.009 246.496 681.422 246.496C680.846 246.496 680.329 246.629 679.87 246.896C679.411 247.163 679.054 247.536 678.798 248.016C678.542 248.496 678.414 249.045 678.414 249.664V249.84C678.414 250.48 678.553 251.045 678.83 251.536C679.118 252.016 679.513 252.395 680.014 252.672C680.526 252.939 681.107 253.072 681.758 253.072C682.27 253.072 682.745 252.981 683.182 252.8C683.63 252.619 684.014 252.341 684.334 251.968L684.974 252.704C684.601 253.152 684.131 253.493 683.566 253.728C683.011 253.963 682.398 254.08 681.726 254.08ZM689.894 254.08C689.201 254.08 688.545 253.984 687.926 253.792C687.308 253.589 686.822 253.339 686.47 253.04L686.982 252.144C687.324 252.4 687.761 252.624 688.294 252.816C688.828 252.997 689.388 253.088 689.974 253.088C690.774 253.088 691.35 252.965 691.702 252.72C692.054 252.464 692.23 252.128 692.23 251.712C692.23 251.403 692.129 251.163 691.926 250.992C691.734 250.811 691.478 250.677 691.158 250.592C690.838 250.496 690.481 250.416 690.086 250.352C689.692 250.288 689.297 250.213 688.902 250.128C688.518 250.043 688.166 249.92 687.846 249.76C687.526 249.589 687.265 249.36 687.062 249.072C686.87 248.784 686.774 248.4 686.774 247.92C686.774 247.461 686.902 247.051 687.158 246.688C687.414 246.325 687.788 246.043 688.278 245.84C688.78 245.627 689.388 245.52 690.102 245.52C690.646 245.52 691.19 245.595 691.734 245.744C692.278 245.883 692.726 246.069 693.078 246.304L692.582 247.216C692.209 246.96 691.809 246.779 691.382 246.672C690.956 246.555 690.529 246.496 690.102 246.496C689.345 246.496 688.785 246.629 688.422 246.896C688.07 247.152 687.894 247.483 687.894 247.888C687.894 248.208 687.99 248.459 688.182 248.64C688.385 248.821 688.646 248.965 688.966 249.072C689.297 249.168 689.654 249.248 690.038 249.312C690.433 249.376 690.822 249.456 691.206 249.552C691.601 249.637 691.958 249.76 692.278 249.92C692.609 250.069 692.87 250.288 693.062 250.576C693.265 250.853 693.366 251.221 693.366 251.68C693.366 252.171 693.228 252.597 692.95 252.96C692.684 253.312 692.289 253.589 691.766 253.792C691.254 253.984 690.63 254.08 689.894 254.08ZM697.931 254.08C697.141 254.08 696.533 253.867 696.107 253.44C695.68 253.013 695.467 252.411 695.467 251.632V243.744H696.603V251.568C696.603 252.059 696.725 252.437 696.971 252.704C697.227 252.971 697.589 253.104 698.059 253.104C698.56 253.104 698.976 252.96 699.307 252.672L699.707 253.488C699.483 253.691 699.211 253.84 698.891 253.936C698.581 254.032 698.261 254.08 697.931 254.08ZM693.963 246.544V245.6H699.163V246.544H693.963Z" fill="white"/>
<path d="M403 61.5C402.172 61.5 401.5 62.1716 401.5 63C401.5 63.8284 402.172 64.5 403 64.5V61.5ZM605.061 224.561C605.646 223.975 605.646 223.025 605.061 222.439L595.515 212.893C594.929 212.308 593.979 212.308 593.393 212.893C592.808 213.479 592.808 214.429 593.393 215.015L601.879 223.5L593.393 231.985C592.808 232.571 592.808 233.521 593.393 234.107C593.979 234.692 594.929 234.692 595.515 234.107L605.061 224.561ZM403 64.5H479.5V61.5H403V64.5ZM502 87V199.5H505V87H502ZM527.5 225H604V222H527.5V225ZM502 199.5C502 213.583 513.417 225 527.5 225V222C515.074 222 505 211.926 505 199.5H502ZM479.5 64.5C491.926 64.5 502 74.5736 502 87H505C505 72.9167 493.583 61.5 479.5 61.5V64.5Z" fill="#85E0A3"/>
</svg>
