<svg width="727" height="444" viewBox="0 0 727 444" fill="none" xmlns="http://www.w3.org/2000/svg">
<ellipse cx="48.012" cy="44.4956" rx="44.012" ry="44.4956" fill="#155A32"/>
<path d="M25.4842 50.128C23.7722 50.128 22.0922 49.552 21.1962 48.72L21.7882 47.472C22.6202 48.224 24.0442 48.768 25.4842 48.768C27.4202 48.768 28.2522 48.016 28.2522 47.04C28.2522 44.304 21.4682 46.032 21.4682 41.872C21.4682 40.144 22.8122 38.672 25.7562 38.672C27.0682 38.672 28.4282 39.024 29.3562 39.664L28.8282 40.944C27.8522 40.32 26.7482 40.032 25.7562 40.032C23.8522 40.032 23.0362 40.832 23.0362 41.808C23.0362 44.544 29.8202 42.832 29.8202 46.944C29.8202 48.656 28.4442 50.128 25.4842 50.128ZM32.5257 39.888C31.9337 39.888 31.4857 39.456 31.4857 38.896C31.4857 38.336 31.9337 37.888 32.5257 37.888C33.1177 37.888 33.5657 38.32 33.5657 38.864C33.5657 39.44 33.1337 39.888 32.5257 39.888ZM31.7577 50V41.52H33.2937V50H31.7577ZM42.7065 41.52H44.1625V48.848C44.1625 51.84 42.6425 53.2 39.7625 53.2C38.2105 53.2 36.6425 52.768 35.7145 51.936L36.4505 50.752C37.2345 51.424 38.4665 51.856 39.7145 51.856C41.7145 51.856 42.6265 50.928 42.6265 49.008V48.336C41.8905 49.216 40.7865 49.648 39.5705 49.648C37.1225 49.648 35.2665 47.984 35.2665 45.536C35.2665 43.088 37.1225 41.44 39.5705 41.44C40.8345 41.44 41.9865 41.904 42.7065 42.832V41.52ZM39.7465 48.304C41.4425 48.304 42.6585 47.168 42.6585 45.536C42.6585 43.888 41.4425 42.784 39.7465 42.784C38.0345 42.784 36.8185 43.888 36.8185 45.536C36.8185 47.168 38.0345 48.304 39.7465 48.304ZM51.4493 41.44C53.5133 41.44 54.9693 42.624 54.9693 45.12V50H53.4333V45.296C53.4333 43.632 52.6013 42.816 51.1453 42.816C49.5133 42.816 48.4573 43.792 48.4573 45.632V50H46.9213V41.52H48.3933V42.8C49.0173 41.936 50.1053 41.44 51.4493 41.44ZM62.5248 39.888C61.9328 39.888 61.4848 39.456 61.4848 38.896C61.4848 38.336 61.9328 37.888 62.5248 37.888C63.1168 37.888 63.5648 38.32 63.5648 38.864C63.5648 39.44 63.1328 39.888 62.5248 39.888ZM61.7568 50V41.52H63.2928V50H61.7568ZM70.5776 41.44C72.6416 41.44 74.0976 42.624 74.0976 45.12V50H72.5616V45.296C72.5616 43.632 71.7296 42.816 70.2736 42.816C68.6416 42.816 67.5856 43.792 67.5856 45.632V50H66.0496V41.52H67.5216V42.8C68.1456 41.936 69.2336 41.44 70.5776 41.44Z" fill="white"/>
<rect y="208.165" width="95.8441" height="47.5387" rx="3" fill="#676827"/>
<path d="M26.941 238.165V226.529H28.6967V231.585H34.4979V226.529H36.2592V238.165H34.4979V233.091H28.6967V238.165H26.941ZM42.1798 238.341C41.3616 238.341 40.6476 238.154 40.0378 237.779C39.4279 237.404 38.9544 236.879 38.6173 236.205C38.2802 235.53 38.1116 234.743 38.1116 233.841C38.1116 232.936 38.2802 232.144 38.6173 231.466C38.9544 230.788 39.4279 230.262 40.0378 229.887C40.6476 229.512 41.3616 229.324 42.1798 229.324C42.998 229.324 43.712 229.512 44.3219 229.887C44.9317 230.262 45.4052 230.788 45.7423 231.466C46.0794 232.144 46.248 232.936 46.248 233.841C46.248 234.743 46.0794 235.53 45.7423 236.205C45.4052 236.879 44.9317 237.404 44.3219 237.779C43.712 238.154 42.998 238.341 42.1798 238.341ZM42.1855 236.915C42.7158 236.915 43.1552 236.775 43.5037 236.494C43.8522 236.214 44.1097 235.841 44.2764 235.375C44.4469 234.909 44.5321 234.396 44.5321 233.835C44.5321 233.279 44.4469 232.767 44.2764 232.301C44.1097 231.832 43.8522 231.455 43.5037 231.171C43.1552 230.887 42.7158 230.744 42.1855 230.744C41.6514 230.744 41.2082 230.887 40.8559 231.171C40.5075 231.455 40.248 231.832 40.0775 232.301C39.9109 232.767 39.8275 233.279 39.8275 233.835C39.8275 234.396 39.9109 234.909 40.0775 235.375C40.248 235.841 40.5075 236.214 40.8559 236.494C41.2082 236.775 41.6514 236.915 42.1855 236.915ZM47.9683 238.165V229.438H49.599V230.858H49.7069C49.8887 230.377 50.1861 230.002 50.599 229.733C51.0119 229.46 51.5062 229.324 52.0819 229.324C52.6653 229.324 53.1539 229.46 53.5478 229.733C53.9456 230.006 54.2391 230.381 54.4285 230.858H54.5194C54.7278 230.392 55.0592 230.021 55.5137 229.744C55.9683 229.464 56.51 229.324 57.1387 229.324C57.9304 229.324 58.5762 229.572 59.0762 230.068C59.58 230.565 59.8319 231.313 59.8319 232.313V238.165H58.1331V232.472C58.1331 231.881 57.9721 231.453 57.6501 231.188C57.3281 230.922 56.9437 230.79 56.4967 230.79C55.9437 230.79 55.5137 230.96 55.2069 231.301C54.9001 231.638 54.7467 232.072 54.7467 232.602V238.165H53.0535V232.364C53.0535 231.89 52.9058 231.51 52.6103 231.222C52.3149 230.934 51.9304 230.79 51.4569 230.79C51.135 230.79 50.8376 230.875 50.5649 231.046C50.2959 231.212 50.0781 231.445 49.9115 231.744C49.7486 232.044 49.6672 232.39 49.6672 232.784V238.165H47.9683ZM65.6943 238.341C64.8344 238.341 64.0939 238.157 63.4727 237.79C62.8553 237.419 62.378 236.898 62.0409 236.227C61.7075 235.553 61.5409 234.763 61.5409 233.858C61.5409 232.964 61.7075 232.176 62.0409 231.494C62.378 230.813 62.8477 230.28 63.45 229.898C64.056 229.515 64.7644 229.324 65.575 229.324C66.0674 229.324 66.5447 229.405 67.0068 229.568C67.4689 229.731 67.8837 229.987 68.2511 230.335C68.6185 230.684 68.9083 231.137 69.1204 231.693C69.3325 232.246 69.4386 232.919 69.4386 233.71V234.313H62.5011V233.04H67.7738C67.7738 232.593 67.6829 232.197 67.5011 231.852C67.3193 231.504 67.0636 231.229 66.7341 231.029C66.4083 230.828 66.0257 230.727 65.5863 230.727C65.1091 230.727 64.6924 230.845 64.3363 231.08C63.9841 231.311 63.7113 231.614 63.5181 231.989C63.3288 232.36 63.2341 232.763 63.2341 233.199V234.193C63.2341 234.777 63.3363 235.273 63.5409 235.682C63.7492 236.091 64.039 236.404 64.4102 236.619C64.7814 236.832 65.2151 236.938 65.7113 236.938C66.0333 236.938 66.3269 236.892 66.592 236.801C66.8572 236.707 67.0863 236.566 67.2795 236.381C67.4727 236.195 67.6204 235.966 67.7227 235.693L69.3306 235.983C69.2019 236.457 68.9708 236.871 68.6375 237.227C68.3079 237.58 67.8931 237.854 67.3931 238.051C66.8969 238.244 66.3306 238.341 65.6943 238.341Z" fill="white"/>
<rect x="136" y="208.165" width="95.8441" height="47.5387" rx="3" fill="#676827"/>
<path d="M155.6 230.313H153.828C153.76 229.934 153.633 229.601 153.447 229.313C153.261 229.025 153.034 228.78 152.765 228.58C152.496 228.379 152.195 228.227 151.862 228.125C151.532 228.023 151.182 227.972 150.811 227.972C150.14 227.972 149.54 228.14 149.01 228.477C148.483 228.815 148.066 229.309 147.76 229.96C147.457 230.612 147.305 231.407 147.305 232.347C147.305 233.294 147.457 234.093 147.76 234.744C148.066 235.396 148.485 235.888 149.015 236.222C149.546 236.555 150.142 236.722 150.805 236.722C151.172 236.722 151.521 236.672 151.85 236.574C152.184 236.472 152.485 236.322 152.754 236.125C153.023 235.928 153.25 235.688 153.436 235.404C153.625 235.116 153.756 234.786 153.828 234.415L155.6 234.421C155.506 234.993 155.322 235.519 155.049 236C154.78 236.477 154.434 236.89 154.01 237.239C153.589 237.583 153.108 237.851 152.566 238.04C152.025 238.229 151.434 238.324 150.794 238.324C149.786 238.324 148.888 238.085 148.1 237.608C147.313 237.127 146.691 236.44 146.237 235.546C145.786 234.652 145.561 233.585 145.561 232.347C145.561 231.104 145.788 230.038 146.243 229.148C146.697 228.254 147.318 227.568 148.106 227.091C148.894 226.61 149.79 226.369 150.794 226.369C151.411 226.369 151.987 226.458 152.521 226.637C153.059 226.811 153.542 227.068 153.97 227.409C154.398 227.746 154.752 228.159 155.032 228.648C155.313 229.133 155.502 229.688 155.6 230.313ZM159.088 232.983V238.165H157.389V226.529H159.065V230.858H159.173C159.378 230.388 159.69 230.015 160.111 229.739C160.531 229.462 161.08 229.324 161.758 229.324C162.357 229.324 162.88 229.447 163.326 229.693C163.777 229.94 164.126 230.307 164.372 230.796C164.622 231.28 164.747 231.887 164.747 232.614V238.165H163.048V232.818C163.048 232.178 162.883 231.682 162.554 231.33C162.224 230.974 161.766 230.796 161.179 230.796C160.777 230.796 160.417 230.881 160.099 231.051C159.785 231.222 159.537 231.472 159.355 231.801C159.177 232.127 159.088 232.521 159.088 232.983ZM169.378 238.358C168.825 238.358 168.325 238.256 167.878 238.051C167.431 237.843 167.077 237.542 166.815 237.148C166.558 236.754 166.429 236.271 166.429 235.699C166.429 235.207 166.524 234.801 166.713 234.483C166.902 234.165 167.158 233.913 167.48 233.727C167.802 233.542 168.162 233.402 168.56 233.307C168.957 233.212 169.363 233.14 169.775 233.091C170.298 233.03 170.722 232.981 171.048 232.943C171.374 232.902 171.611 232.835 171.758 232.744C171.906 232.654 171.98 232.506 171.98 232.301V232.262C171.98 231.765 171.84 231.381 171.56 231.108C171.283 230.835 170.87 230.699 170.321 230.699C169.749 230.699 169.298 230.826 168.969 231.08C168.643 231.33 168.418 231.608 168.293 231.915L166.696 231.551C166.885 231.021 167.162 230.593 167.525 230.267C167.893 229.938 168.315 229.699 168.793 229.551C169.27 229.4 169.772 229.324 170.298 229.324C170.647 229.324 171.016 229.366 171.406 229.449C171.8 229.529 172.168 229.676 172.508 229.892C172.853 230.108 173.135 230.417 173.355 230.818C173.575 231.216 173.685 231.733 173.685 232.369V238.165H172.025V236.972H171.957C171.847 237.191 171.683 237.407 171.463 237.619C171.243 237.832 170.961 238.008 170.616 238.148C170.272 238.288 169.859 238.358 169.378 238.358ZM169.747 236.994C170.217 236.994 170.618 236.902 170.952 236.716C171.289 236.53 171.544 236.288 171.719 235.989C171.897 235.686 171.986 235.362 171.986 235.017V233.892C171.925 233.953 171.808 234.01 171.633 234.063C171.463 234.112 171.268 234.155 171.048 234.193C170.829 234.227 170.614 234.26 170.406 234.29C170.198 234.316 170.024 234.339 169.883 234.358C169.554 234.4 169.253 234.47 168.98 234.568C168.711 234.667 168.495 234.809 168.332 234.994C168.173 235.176 168.094 235.419 168.094 235.722C168.094 236.142 168.249 236.46 168.56 236.676C168.87 236.888 169.266 236.994 169.747 236.994ZM179.845 229.438V230.801H175.078V229.438H179.845ZM176.357 227.347H178.055V235.602C178.055 235.932 178.105 236.18 178.203 236.347C178.302 236.51 178.429 236.621 178.584 236.682C178.743 236.739 178.915 236.767 179.101 236.767C179.237 236.767 179.357 236.758 179.459 236.739C179.561 236.72 179.641 236.705 179.697 236.693L180.004 238.097C179.906 238.135 179.766 238.172 179.584 238.21C179.402 238.252 179.175 238.275 178.902 238.279C178.455 238.286 178.038 238.207 177.652 238.04C177.266 237.873 176.953 237.616 176.715 237.267C176.476 236.919 176.357 236.481 176.357 235.955V227.347ZM185.607 238.165V229.438H187.249V230.824H187.34C187.499 230.354 187.779 229.985 188.181 229.716C188.586 229.443 189.044 229.307 189.556 229.307C189.662 229.307 189.787 229.311 189.931 229.318C190.078 229.326 190.194 229.335 190.277 229.347V230.972C190.209 230.953 190.088 230.932 189.914 230.909C189.739 230.883 189.565 230.869 189.391 230.869C188.989 230.869 188.631 230.955 188.317 231.125C188.006 231.292 187.76 231.525 187.578 231.824C187.397 232.119 187.306 232.457 187.306 232.835V238.165H185.607ZM194.935 238.341C194.117 238.341 193.403 238.154 192.793 237.779C192.183 237.404 191.71 236.879 191.373 236.205C191.035 235.53 190.867 234.743 190.867 233.841C190.867 232.936 191.035 232.144 191.373 231.466C191.71 230.788 192.183 230.262 192.793 229.887C193.403 229.512 194.117 229.324 194.935 229.324C195.753 229.324 196.467 229.512 197.077 229.887C197.687 230.262 198.16 230.788 198.498 231.466C198.835 232.144 199.003 232.936 199.003 233.841C199.003 234.743 198.835 235.53 198.498 236.205C198.16 236.879 197.687 237.404 197.077 237.779C196.467 238.154 195.753 238.341 194.935 238.341ZM194.941 236.915C195.471 236.915 195.91 236.775 196.259 236.494C196.607 236.214 196.865 235.841 197.032 235.375C197.202 234.909 197.287 234.396 197.287 233.835C197.287 233.279 197.202 232.767 197.032 232.301C196.865 231.832 196.607 231.455 196.259 231.171C195.91 230.887 195.471 230.744 194.941 230.744C194.407 230.744 193.964 230.887 193.611 231.171C193.263 231.455 193.003 231.832 192.833 232.301C192.666 232.767 192.583 233.279 192.583 233.835C192.583 234.396 192.666 234.909 192.833 235.375C193.003 235.841 193.263 236.214 193.611 236.494C193.964 236.775 194.407 236.915 194.941 236.915ZM204.4 238.341C203.582 238.341 202.868 238.154 202.258 237.779C201.648 237.404 201.174 236.879 200.837 236.205C200.5 235.53 200.332 234.743 200.332 233.841C200.332 232.936 200.5 232.144 200.837 231.466C201.174 230.788 201.648 230.262 202.258 229.887C202.868 229.512 203.582 229.324 204.4 229.324C205.218 229.324 205.932 229.512 206.542 229.887C207.152 230.262 207.625 230.788 207.962 231.466C208.299 232.144 208.468 232.936 208.468 233.841C208.468 234.743 208.299 235.53 207.962 236.205C207.625 236.879 207.152 237.404 206.542 237.779C205.932 238.154 205.218 238.341 204.4 238.341ZM204.405 236.915C204.936 236.915 205.375 236.775 205.724 236.494C206.072 236.214 206.33 235.841 206.496 235.375C206.667 234.909 206.752 234.396 206.752 233.835C206.752 233.279 206.667 232.767 206.496 232.301C206.33 231.832 206.072 231.455 205.724 231.171C205.375 230.887 204.936 230.744 204.405 230.744C203.871 230.744 203.428 230.887 203.076 231.171C202.727 231.455 202.468 231.832 202.297 232.301C202.131 232.767 202.047 233.279 202.047 233.835C202.047 234.396 202.131 234.909 202.297 235.375C202.468 235.841 202.727 236.214 203.076 236.494C203.428 236.775 203.871 236.915 204.405 236.915ZM210.188 238.165V229.438H211.819V230.858H211.927C212.109 230.377 212.406 230.002 212.819 229.733C213.232 229.46 213.726 229.324 214.302 229.324C214.885 229.324 215.374 229.46 215.768 229.733C216.166 230.006 216.459 230.381 216.648 230.858H216.739C216.948 230.392 217.279 230.021 217.734 229.744C218.188 229.464 218.73 229.324 219.359 229.324C220.15 229.324 220.796 229.572 221.296 230.068C221.8 230.565 222.052 231.313 222.052 232.313V238.165H220.353V232.472C220.353 231.881 220.192 231.453 219.87 231.188C219.548 230.922 219.164 230.79 218.717 230.79C218.164 230.79 217.734 230.96 217.427 231.301C217.12 231.638 216.967 232.072 216.967 232.602V238.165H215.273V232.364C215.273 231.89 215.126 231.51 214.83 231.222C214.535 230.934 214.15 230.79 213.677 230.79C213.355 230.79 213.058 230.875 212.785 231.046C212.516 231.212 212.298 231.445 212.131 231.744C211.969 232.044 211.887 232.39 211.887 232.784V238.165H210.188Z" fill="white"/>
<path d="M49.4219 92.9913C49.4219 92.1628 48.7503 91.4913 47.9219 91.4913C47.0934 91.4913 46.4219 92.1628 46.4219 92.9913H49.4219ZM46.8612 205.226C47.447 205.811 48.3967 205.811 48.9825 205.226L58.5285 195.68C59.1143 195.094 59.1143 194.144 58.5285 193.558C57.9427 192.973 56.9929 192.973 56.4072 193.558L47.9219 202.044L39.4366 193.558C38.8508 192.973 37.9011 192.973 37.3153 193.558C36.7295 194.144 36.7295 195.094 37.3153 195.68L46.8612 205.226ZM46.4219 92.9913V204.165H49.4219V92.9913H46.4219Z" fill="#85E0A3"/>
<ellipse cx="321.816" cy="231.864" rx="49.8158" ry="50.7831" fill="#155A32"/>
<path d="M302.43 214.209C299.038 214.209 296.51 211.793 296.51 208.481C296.51 205.169 299.038 202.753 302.446 202.753C304.174 202.753 305.678 203.345 306.702 204.497L305.662 205.505C304.798 204.593 303.742 204.177 302.51 204.177C299.982 204.177 298.11 206.001 298.11 208.481C298.11 210.961 299.982 212.785 302.51 212.785C303.742 212.785 304.798 212.353 305.662 211.441L306.702 212.449C305.678 213.601 304.174 214.209 302.43 214.209ZM310.057 207.025C310.601 206.033 311.657 205.521 313.145 205.521V207.009C313.017 206.993 312.905 206.993 312.793 206.993C311.145 206.993 310.121 208.001 310.121 209.857V214.081H308.585V205.601H310.057V207.025ZM322.448 209.889C322.448 210.017 322.432 210.209 322.416 210.353H315.536C315.728 211.841 316.928 212.833 318.608 212.833C319.6 212.833 320.432 212.497 321.056 211.809L321.904 212.801C321.136 213.697 319.968 214.177 318.56 214.177C315.824 214.177 314 212.369 314 209.841C314 207.329 315.808 205.521 318.256 205.521C320.704 205.521 322.448 207.281 322.448 209.889ZM318.256 206.817C316.784 206.817 315.696 207.809 315.536 209.249H320.976C320.816 207.825 319.744 206.817 318.256 206.817ZM327.258 205.521C329.578 205.521 330.89 206.641 330.89 208.961V214.081H329.434V212.961C328.922 213.729 327.978 214.177 326.65 214.177C324.73 214.177 323.514 213.153 323.514 211.681C323.514 210.321 324.394 209.201 326.922 209.201H329.354V208.897C329.354 207.601 328.602 206.849 327.082 206.849C326.074 206.849 325.05 207.201 324.394 207.761L323.754 206.609C324.634 205.905 325.898 205.521 327.258 205.521ZM326.906 212.993C328.058 212.993 328.97 212.465 329.354 211.489V210.305H326.986C325.466 210.305 325.034 210.897 325.034 211.617C325.034 212.465 325.738 212.993 326.906 212.993ZM337.845 212.481L338.325 213.585C337.861 213.985 337.157 214.177 336.469 214.177C334.757 214.177 333.781 213.233 333.781 211.521V206.865H332.341V205.601H333.781V203.745H335.317V205.601H337.749V206.865H335.317V211.457C335.317 212.369 335.797 212.881 336.645 212.881C337.093 212.881 337.525 212.737 337.845 212.481ZM347.389 209.889C347.389 210.017 347.373 210.209 347.357 210.353H340.477C340.669 211.841 341.869 212.833 343.549 212.833C344.541 212.833 345.373 212.497 345.997 211.809L346.845 212.801C346.077 213.697 344.909 214.177 343.501 214.177C340.765 214.177 338.941 212.369 338.941 209.841C338.941 207.329 340.749 205.521 343.197 205.521C345.645 205.521 347.389 207.281 347.389 209.889ZM343.197 206.817C341.725 206.817 340.637 207.809 340.477 209.249H345.917C345.757 207.825 344.685 206.817 343.197 206.817ZM310.58 229.521C312.644 229.521 314.1 230.705 314.1 233.201V238.081H312.564V233.377C312.564 231.713 311.732 230.897 310.276 230.897C308.644 230.897 307.588 231.873 307.588 233.713V238.081H306.052V229.601H307.524V230.881C308.148 230.017 309.236 229.521 310.58 229.521ZM324.477 233.889C324.477 234.017 324.461 234.209 324.445 234.353H317.565C317.757 235.841 318.957 236.833 320.637 236.833C321.629 236.833 322.461 236.497 323.085 235.809L323.933 236.801C323.165 237.697 321.997 238.177 320.589 238.177C317.853 238.177 316.029 236.369 316.029 233.841C316.029 231.329 317.837 229.521 320.285 229.521C322.733 229.521 324.477 231.281 324.477 233.889ZM320.285 230.817C318.813 230.817 317.725 231.809 317.565 233.249H323.005C322.845 231.825 321.773 230.817 320.285 230.817ZM337.734 229.601H339.11L335.942 238.081H334.47L332.022 231.649L329.542 238.081H328.07L324.918 229.601H326.374L328.838 236.353L331.398 229.601H332.694L335.206 236.385L337.734 229.601ZM308.46 257.889C308.46 258.017 308.444 258.209 308.428 258.353H301.548C301.74 259.841 302.94 260.833 304.62 260.833C305.612 260.833 306.444 260.497 307.068 259.809L307.916 260.801C307.148 261.697 305.98 262.177 304.572 262.177C301.836 262.177 300.012 260.369 300.012 257.841C300.012 255.329 301.82 253.521 304.268 253.521C306.716 253.521 308.46 255.281 308.46 257.889ZM304.268 254.817C302.796 254.817 301.708 255.809 301.548 257.249H306.988C306.828 255.825 305.756 254.817 304.268 254.817ZM316.26 253.601H317.764L314.052 262.081H312.484L308.772 253.601H310.372L313.284 260.401L316.26 253.601ZM326.452 257.889C326.452 258.017 326.436 258.209 326.42 258.353H319.54C319.732 259.841 320.932 260.833 322.612 260.833C323.604 260.833 324.436 260.497 325.06 259.809L325.908 260.801C325.14 261.697 323.972 262.177 322.564 262.177C319.828 262.177 318.004 260.369 318.004 257.841C318.004 255.329 319.812 253.521 322.26 253.521C324.708 253.521 326.452 255.281 326.452 257.889ZM322.26 254.817C320.788 254.817 319.7 255.809 319.54 257.249H324.98C324.82 255.825 323.748 254.817 322.26 254.817ZM332.936 253.521C335 253.521 336.456 254.705 336.456 257.201V262.081H334.92V257.377C334.92 255.713 334.088 254.897 332.632 254.897C331 254.897 329.944 255.873 329.944 257.713V262.081H328.408V253.601H329.88V254.881C330.504 254.017 331.592 253.521 332.936 253.521ZM343.411 260.481L343.891 261.585C343.427 261.985 342.723 262.177 342.035 262.177C340.323 262.177 339.347 261.233 339.347 259.521V254.865H337.907V253.601H339.347V251.745H340.883V253.601H343.315V254.865H340.883V259.457C340.883 260.369 341.363 260.881 342.211 260.881C342.659 260.881 343.091 260.737 343.411 260.481Z" fill="white"/>
<ellipse cx="467.839" cy="71.7761" rx="57.0705" ry="58.0378" fill="#155A32"/>
<path d="M439.832 65.8663C436.44 65.8663 433.912 63.4503 433.912 60.1383C433.912 56.8263 436.44 54.4103 439.848 54.4103C441.576 54.4103 443.08 55.0023 444.104 56.1543L443.064 57.1623C442.2 56.2503 441.144 55.8343 439.912 55.8343C437.384 55.8343 435.512 57.6583 435.512 60.1383C435.512 62.6183 437.384 64.4423 439.912 64.4423C441.144 64.4423 442.2 64.0103 443.064 63.0983L444.104 64.1063C443.08 65.2583 441.576 65.8663 439.832 65.8663ZM449.259 65.8343C446.715 65.8343 444.843 64.0263 444.843 61.4983C444.843 58.9703 446.715 57.1783 449.259 57.1783C451.803 57.1783 453.659 58.9703 453.659 61.4983C453.659 64.0263 451.803 65.8343 449.259 65.8343ZM449.259 64.4903C450.891 64.4903 452.107 63.3063 452.107 61.4983C452.107 59.6903 450.891 58.5223 449.259 58.5223C447.627 58.5223 446.395 59.6903 446.395 61.4983C446.395 63.3063 447.627 64.4903 449.259 64.4903ZM460.135 57.1783C462.199 57.1783 463.655 58.3623 463.655 60.8583V65.7383H462.119V61.0343C462.119 59.3703 461.287 58.5543 459.831 58.5543C458.199 58.5543 457.143 59.5303 457.143 61.3703V65.7383H455.607V57.2583H457.079V58.5383C457.703 57.6743 458.791 57.1783 460.135 57.1783ZM470.61 64.1383L471.09 65.2423C470.626 65.6423 469.922 65.8343 469.234 65.8343C467.522 65.8343 466.546 64.8903 466.546 63.1783V58.5223H465.106V57.2583H466.546V55.4023H468.082V57.2583H470.514V58.5223H468.082V63.1143C468.082 64.0263 468.562 64.5383 469.41 64.5383C469.858 64.5383 470.29 64.3943 470.61 64.1383ZM474.243 58.6823C474.787 57.6903 475.843 57.1783 477.331 57.1783V58.6663C477.203 58.6503 477.091 58.6503 476.979 58.6503C475.331 58.6503 474.307 59.6583 474.307 61.5143V65.7383H472.771V57.2583H474.243V58.6823ZM482.12 57.1783C484.44 57.1783 485.752 58.2983 485.752 60.6183V65.7383H484.296V64.6183C483.784 65.3863 482.84 65.8343 481.512 65.8343C479.592 65.8343 478.376 64.8103 478.376 63.3383C478.376 61.9783 479.256 60.8583 481.784 60.8583H484.216V60.5543C484.216 59.2583 483.464 58.5063 481.944 58.5063C480.936 58.5063 479.912 58.8583 479.256 59.4183L478.616 58.2663C479.496 57.5623 480.76 57.1783 482.12 57.1783ZM481.768 64.6503C482.92 64.6503 483.832 64.1223 484.216 63.1463V61.9623H481.848C480.328 61.9623 479.896 62.5543 479.896 63.2743C479.896 64.1223 480.6 64.6503 481.768 64.6503ZM492.162 65.8343C489.554 65.8343 487.682 64.0263 487.682 61.4983C487.682 58.9703 489.554 57.1783 492.162 57.1783C493.682 57.1783 494.946 57.8023 495.618 58.9863L494.45 59.7383C493.906 58.9063 493.074 58.5223 492.146 58.5223C490.482 58.5223 489.234 59.6903 489.234 61.4983C489.234 63.3383 490.482 64.4903 492.146 64.4903C493.074 64.4903 493.906 64.1063 494.45 63.2743L495.618 64.0103C494.946 65.1943 493.682 65.8343 492.162 65.8343ZM501.828 64.1383L502.308 65.2423C501.844 65.6423 501.14 65.8343 500.452 65.8343C498.74 65.8343 497.764 64.8903 497.764 63.1783V58.5223H496.324V57.2583H497.764V55.4023H499.3V57.2583H501.732V58.5223H499.3V63.1143C499.3 64.0263 499.78 64.5383 500.628 64.5383C501.076 64.5383 501.508 64.3943 501.828 64.1383ZM438.841 82.6823C439.385 81.6903 440.441 81.1783 441.929 81.1783V82.6663C441.801 82.6503 441.689 82.6503 441.577 82.6503C439.929 82.6503 438.905 83.6583 438.905 85.5143V89.7383H437.369V81.2583H438.841V82.6823ZM451.232 85.5463C451.232 85.6743 451.216 85.8663 451.2 86.0103H444.32C444.512 87.4983 445.712 88.4903 447.392 88.4903C448.384 88.4903 449.216 88.1543 449.84 87.4663L450.688 88.4583C449.92 89.3543 448.752 89.8343 447.344 89.8343C444.608 89.8343 442.784 88.0263 442.784 85.4983C442.784 82.9863 444.592 81.1783 447.04 81.1783C449.488 81.1783 451.232 82.9383 451.232 85.5463ZM447.04 82.4743C445.568 82.4743 444.48 83.4663 444.32 84.9063H449.76C449.6 83.4823 448.528 82.4743 447.04 82.4743ZM457.717 81.1783C459.781 81.1783 461.237 82.3623 461.237 84.8583V89.7383H459.701V85.0343C459.701 83.3703 458.869 82.5543 457.413 82.5543C455.781 82.5543 454.725 83.5303 454.725 85.3703V89.7383H453.189V81.2583H454.661V82.5383C455.285 81.6743 456.373 81.1783 457.717 81.1783ZM471.615 85.5463C471.615 85.6743 471.599 85.8663 471.583 86.0103H464.703C464.895 87.4983 466.095 88.4903 467.775 88.4903C468.767 88.4903 469.599 88.1543 470.223 87.4663L471.071 88.4583C470.303 89.3543 469.135 89.8343 467.727 89.8343C464.991 89.8343 463.167 88.0263 463.167 85.4983C463.167 82.9863 464.975 81.1783 467.423 81.1783C469.871 81.1783 471.615 82.9383 471.615 85.5463ZM467.423 82.4743C465.951 82.4743 464.863 83.4663 464.703 84.9063H470.143C469.983 83.4823 468.911 82.4743 467.423 82.4743ZM484.871 81.2583H486.247L483.079 89.7383H481.607L479.159 83.3063L476.679 89.7383H475.207L472.055 81.2583H473.511L475.975 88.0103L478.535 81.2583H479.831L482.343 88.0423L484.871 81.2583ZM490.452 81.1783C492.772 81.1783 494.084 82.2983 494.084 84.6183V89.7383H492.628V88.6183C492.116 89.3863 491.172 89.8343 489.844 89.8343C487.924 89.8343 486.708 88.8103 486.708 87.3383C486.708 85.9783 487.588 84.8583 490.116 84.8583H492.548V84.5543C492.548 83.2583 491.796 82.5063 490.276 82.5063C489.268 82.5063 488.244 82.8583 487.588 83.4183L486.948 82.2663C487.828 81.5623 489.092 81.1783 490.452 81.1783ZM490.1 88.6503C491.252 88.6503 492.164 88.1223 492.548 87.1463V85.9623H490.18C488.66 85.9623 488.228 86.5543 488.228 87.2743C488.228 88.1223 488.932 88.6503 490.1 88.6503ZM496.751 89.7383V77.8663H498.287V89.7383H496.751Z" fill="white"/>
<ellipse cx="635.929" cy="71.7761" rx="57.0705" ry="58.0378" fill="#155A32"/>
<path d="M629.515 65.7383L628.283 62.9383H622.331L621.099 65.7383H619.451L624.523 54.5383H626.107L631.195 65.7383H629.515ZM622.891 61.6583H627.723L625.307 56.1703L622.891 61.6583ZM638.851 53.8663H640.387V65.7383H638.915V64.3943C638.227 65.3543 637.139 65.8343 635.891 65.8343C633.411 65.8343 631.603 64.0903 631.603 61.4983C631.603 58.9063 633.411 57.1783 635.891 57.1783C637.091 57.1783 638.147 57.6263 638.851 58.5383V53.8663ZM636.019 64.4903C637.635 64.4903 638.867 63.3063 638.867 61.4983C638.867 59.6903 637.635 58.5223 636.019 58.5223C634.387 58.5223 633.155 59.6903 633.155 61.4983C633.155 63.3063 634.387 64.4903 636.019 64.4903ZM649.582 53.8663H651.118V65.7383H649.646V64.3943C648.958 65.3543 647.87 65.8343 646.622 65.8343C644.142 65.8343 642.334 64.0903 642.334 61.4983C642.334 58.9063 644.142 57.1783 646.622 57.1783C647.822 57.1783 648.878 57.6263 649.582 58.5383V53.8663ZM646.75 64.4903C648.366 64.4903 649.598 63.3063 649.598 61.4983C649.598 59.6903 648.366 58.5223 646.75 58.5223C645.118 58.5223 643.886 59.6903 643.886 61.4983C643.886 63.3063 645.118 64.4903 646.75 64.4903ZM609.076 81.1783C611.14 81.1783 612.548 82.3623 612.548 84.8583V89.7383H611.012V85.0343C611.012 83.3703 610.212 82.5543 608.82 82.5543C607.284 82.5543 606.276 83.5303 606.276 85.3703V89.7383H604.74V85.0343C604.74 83.3703 603.94 82.5543 602.548 82.5543C601.012 82.5543 600.004 83.5303 600.004 85.3703V89.7383H598.468V81.2583H599.94V82.5223C600.548 81.6583 601.588 81.1783 602.868 81.1783C604.164 81.1783 605.252 81.6903 605.812 82.7463C606.452 81.7863 607.636 81.1783 609.076 81.1783ZM622.909 85.5463C622.909 85.6743 622.893 85.8663 622.877 86.0103H615.997C616.189 87.4983 617.389 88.4903 619.069 88.4903C620.061 88.4903 620.893 88.1543 621.517 87.4663L622.365 88.4583C621.597 89.3543 620.429 89.8343 619.021 89.8343C616.285 89.8343 614.461 88.0263 614.461 85.4983C614.461 82.9863 616.269 81.1783 618.717 81.1783C621.165 81.1783 622.909 82.9383 622.909 85.5463ZM618.717 82.4743C617.245 82.4743 616.157 83.4663 615.997 84.9063H621.437C621.277 83.4823 620.205 82.4743 618.717 82.4743ZM635.474 81.1783C637.538 81.1783 638.946 82.3623 638.946 84.8583V89.7383H637.41V85.0343C637.41 83.3703 636.61 82.5543 635.218 82.5543C633.682 82.5543 632.674 83.5303 632.674 85.3703V89.7383H631.138V85.0343C631.138 83.3703 630.338 82.5543 628.946 82.5543C627.41 82.5543 626.402 83.5303 626.402 85.3703V89.7383H624.866V81.2583H626.338V82.5223C626.946 81.6583 627.986 81.1783 629.266 81.1783C630.562 81.1783 631.65 81.6903 632.21 82.7463C632.85 81.7863 634.034 81.1783 635.474 81.1783ZM646.092 81.1783C648.572 81.1783 650.38 82.9063 650.38 85.4983C650.38 88.0903 648.572 89.8343 646.092 89.8343C644.844 89.8343 643.756 89.3543 643.068 88.3943V89.7383H641.596V77.8663H643.132V82.5383C643.836 81.6263 644.892 81.1783 646.092 81.1783ZM645.964 88.4903C647.596 88.4903 648.828 87.3063 648.828 85.4983C648.828 83.6903 647.596 82.5223 645.964 82.5223C644.348 82.5223 643.116 83.6903 643.116 85.4983C643.116 87.3063 644.348 88.4903 645.964 88.4903ZM659.99 85.5463C659.99 85.6743 659.974 85.8663 659.958 86.0103H653.078C653.27 87.4983 654.47 88.4903 656.15 88.4903C657.142 88.4903 657.974 88.1543 658.598 87.4663L659.446 88.4583C658.678 89.3543 657.51 89.8343 656.102 89.8343C653.366 89.8343 651.542 88.0263 651.542 85.4983C651.542 82.9863 653.35 81.1783 655.798 81.1783C658.246 81.1783 659.99 82.9383 659.99 85.5463ZM655.798 82.4743C654.326 82.4743 653.238 83.4663 653.078 84.9063H658.518C658.358 83.4823 657.286 82.4743 655.798 82.4743ZM663.419 82.6823C663.963 81.6903 665.019 81.1783 666.507 81.1783V82.6663C666.379 82.6503 666.267 82.6503 666.155 82.6503C664.507 82.6503 663.483 83.6583 663.483 85.5143V89.7383H661.947V81.2583H663.419V82.6823ZM670.719 89.8343C669.311 89.8343 667.919 89.4023 667.215 88.8423L667.855 87.6263C668.575 88.1383 669.727 88.5063 670.831 88.5063C672.255 88.5063 672.847 88.0743 672.847 87.3543C672.847 85.4503 667.487 87.0983 667.487 83.7223C667.487 82.2023 668.847 81.1783 671.023 81.1783C672.127 81.1783 673.375 81.4663 674.111 81.9463L673.455 83.1623C672.687 82.6663 671.839 82.4903 671.007 82.4903C669.663 82.4903 669.007 82.9863 669.007 83.6583C669.007 85.6583 674.383 84.0263 674.383 87.3223C674.383 88.8583 672.975 89.8343 670.719 89.8343Z" fill="white"/>
<ellipse cx="538.716" cy="385.243" rx="57.0705" ry="58.0378" fill="#155A32"/>
<path d="M507.215 367.206V356.006H511.583C512.564 356.006 513.402 356.16 514.095 356.47C514.788 356.779 515.322 357.227 515.695 357.814C516.068 358.4 516.255 359.099 516.255 359.91C516.255 360.72 516.068 361.419 515.695 362.006C515.322 362.582 514.788 363.024 514.095 363.334C513.402 363.643 512.564 363.798 511.583 363.798H508.095L508.815 363.062V367.206H507.215ZM514.703 367.206L511.855 363.142H513.567L516.447 367.206H514.703ZM508.815 363.222L508.095 362.438H511.535C512.559 362.438 513.332 362.219 513.855 361.782C514.388 361.334 514.655 360.71 514.655 359.91C514.655 359.11 514.388 358.491 513.855 358.054C513.332 357.616 512.559 357.398 511.535 357.398H508.095L508.815 356.598V363.222ZM522.216 367.302C521.309 367.302 520.509 367.115 519.816 366.742C519.133 366.368 518.6 365.856 518.216 365.206C517.843 364.555 517.656 363.808 517.656 362.966C517.656 362.123 517.837 361.376 518.2 360.726C518.573 360.075 519.08 359.568 519.72 359.206C520.371 358.832 521.101 358.646 521.912 358.646C522.733 358.646 523.459 358.827 524.088 359.19C524.717 359.552 525.208 360.064 525.56 360.726C525.923 361.376 526.104 362.139 526.104 363.014C526.104 363.078 526.099 363.152 526.088 363.238C526.088 363.323 526.083 363.403 526.072 363.478H518.856V362.374H525.272L524.648 362.758C524.659 362.214 524.547 361.728 524.312 361.302C524.077 360.875 523.752 360.544 523.336 360.31C522.931 360.064 522.456 359.942 521.912 359.942C521.379 359.942 520.904 360.064 520.488 360.31C520.072 360.544 519.747 360.88 519.512 361.318C519.277 361.744 519.16 362.235 519.16 362.79V363.046C519.16 363.611 519.288 364.118 519.544 364.566C519.811 365.003 520.179 365.344 520.648 365.59C521.117 365.835 521.656 365.958 522.264 365.958C522.765 365.958 523.219 365.872 523.624 365.702C524.04 365.531 524.403 365.275 524.712 364.934L525.56 365.926C525.176 366.374 524.696 366.715 524.12 366.95C523.555 367.184 522.92 367.302 522.216 367.302ZM531.565 367.302C530.743 367.302 530.007 367.12 529.357 366.758C528.717 366.395 528.21 365.888 527.837 365.238C527.463 364.587 527.277 363.83 527.277 362.966C527.277 362.102 527.463 361.35 527.837 360.71C528.21 360.059 528.717 359.552 529.357 359.19C530.007 358.827 530.743 358.646 531.565 358.646C532.301 358.646 532.957 358.806 533.533 359.126C534.109 359.446 534.562 359.926 534.893 360.566C535.234 361.206 535.405 362.006 535.405 362.966C535.405 363.926 535.229 364.726 534.877 365.366C534.535 366.006 534.077 366.491 533.501 366.822C532.925 367.142 532.279 367.302 531.565 367.302ZM531.693 365.958C532.226 365.958 532.706 365.835 533.133 365.59C533.57 365.344 533.911 364.998 534.157 364.55C534.413 364.091 534.541 363.563 534.541 362.966C534.541 362.358 534.413 361.835 534.157 361.398C533.911 360.95 533.57 360.603 533.133 360.358C532.706 360.112 532.226 359.99 531.693 359.99C531.149 359.99 530.663 360.112 530.237 360.358C529.81 360.603 529.469 360.95 529.213 361.398C528.957 361.835 528.829 362.358 528.829 362.966C528.829 363.563 528.957 364.091 529.213 364.55C529.469 364.998 529.81 365.344 530.237 365.59C530.663 365.835 531.149 365.958 531.693 365.958ZM534.525 370.31V364.95L534.685 362.982L534.589 361.014V358.726H536.061V370.31H534.525ZM542.359 367.302C541.634 367.302 540.994 367.168 540.439 366.902C539.895 366.635 539.468 366.23 539.159 365.686C538.86 365.131 538.711 364.438 538.711 363.606V358.726H540.247V363.43C540.247 364.262 540.444 364.886 540.839 365.302C541.244 365.718 541.81 365.926 542.535 365.926C543.068 365.926 543.532 365.819 543.927 365.606C544.322 365.382 544.626 365.062 544.839 364.646C545.052 364.219 545.159 363.707 545.159 363.11V358.726H546.695V367.206H545.239V364.918L545.479 365.526C545.202 366.091 544.786 366.528 544.231 366.838C543.676 367.147 543.052 367.302 542.359 367.302ZM553.219 367.302C552.313 367.302 551.513 367.115 550.819 366.742C550.137 366.368 549.603 365.856 549.219 365.206C548.846 364.555 548.659 363.808 548.659 362.966C548.659 362.123 548.841 361.376 549.203 360.726C549.577 360.075 550.083 359.568 550.723 359.206C551.374 358.832 552.105 358.646 552.915 358.646C553.737 358.646 554.462 358.827 555.091 359.19C555.721 359.552 556.211 360.064 556.563 360.726C556.926 361.376 557.107 362.139 557.107 363.014C557.107 363.078 557.102 363.152 557.091 363.238C557.091 363.323 557.086 363.403 557.075 363.478H549.859V362.374H556.275L555.651 362.758C555.662 362.214 555.55 361.728 555.315 361.302C555.081 360.875 554.755 360.544 554.339 360.31C553.934 360.064 553.459 359.942 552.915 359.942C552.382 359.942 551.907 360.064 551.491 360.31C551.075 360.544 550.75 360.88 550.515 361.318C550.281 361.744 550.163 362.235 550.163 362.79V363.046C550.163 363.611 550.291 364.118 550.547 364.566C550.814 365.003 551.182 365.344 551.651 365.59C552.121 365.835 552.659 365.958 553.267 365.958C553.769 365.958 554.222 365.872 554.627 365.702C555.043 365.531 555.406 365.275 555.715 364.934L556.563 365.926C556.179 366.374 555.699 366.715 555.123 366.95C554.558 367.184 553.923 367.302 553.219 367.302ZM561.496 367.302C560.792 367.302 560.12 367.206 559.48 367.014C558.851 366.822 558.355 366.587 557.992 366.31L558.632 365.094C558.995 365.339 559.443 365.547 559.976 365.718C560.509 365.888 561.053 365.974 561.608 365.974C562.323 365.974 562.835 365.872 563.144 365.67C563.464 365.467 563.624 365.184 563.624 364.822C563.624 364.555 563.528 364.347 563.336 364.198C563.144 364.048 562.888 363.936 562.568 363.862C562.259 363.787 561.912 363.723 561.528 363.67C561.144 363.606 560.76 363.531 560.376 363.446C559.992 363.35 559.64 363.222 559.32 363.062C559 362.891 558.744 362.662 558.552 362.374C558.36 362.075 558.264 361.68 558.264 361.19C558.264 360.678 558.408 360.23 558.696 359.846C558.984 359.462 559.389 359.168 559.912 358.966C560.445 358.752 561.075 358.646 561.8 358.646C562.355 358.646 562.915 358.715 563.48 358.854C564.056 358.982 564.525 359.168 564.888 359.414L564.232 360.63C563.848 360.374 563.448 360.198 563.032 360.102C562.616 360.006 562.2 359.958 561.784 359.958C561.112 359.958 560.611 360.07 560.28 360.294C559.949 360.507 559.784 360.784 559.784 361.126C559.784 361.414 559.88 361.638 560.072 361.798C560.275 361.947 560.531 362.064 560.84 362.15C561.16 362.235 561.512 362.31 561.896 362.374C562.28 362.427 562.664 362.502 563.048 362.598C563.432 362.683 563.779 362.806 564.088 362.966C564.408 363.126 564.664 363.35 564.856 363.638C565.059 363.926 565.16 364.31 565.16 364.79C565.16 365.302 565.011 365.744 564.712 366.118C564.413 366.491 563.992 366.784 563.448 366.998C562.904 367.2 562.253 367.302 561.496 367.302ZM569.816 367.302C568.962 367.302 568.301 367.072 567.832 366.614C567.362 366.155 567.128 365.499 567.128 364.646V356.87H568.664V364.582C568.664 365.04 568.776 365.392 569 365.638C569.234 365.883 569.565 366.006 569.992 366.006C570.472 366.006 570.872 365.872 571.192 365.606L571.672 366.71C571.437 366.912 571.154 367.062 570.824 367.158C570.504 367.254 570.168 367.302 569.816 367.302ZM565.688 359.99V358.726H571.096V359.99H565.688ZM512.655 391.302C511.802 391.302 511.14 391.072 510.671 390.614C510.202 390.155 509.967 389.499 509.967 388.646V380.87H511.503V388.582C511.503 389.04 511.615 389.392 511.839 389.638C512.074 389.883 512.404 390.006 512.831 390.006C513.311 390.006 513.711 389.872 514.031 389.606L514.511 390.71C514.276 390.912 513.994 391.062 513.663 391.158C513.343 391.254 513.007 391.302 512.655 391.302ZM508.527 383.99V382.726H513.935V383.99H508.527ZM519.543 391.302C518.689 391.302 517.932 391.115 517.271 390.742C516.609 390.368 516.087 389.856 515.703 389.206C515.319 388.544 515.127 387.798 515.127 386.966C515.127 386.123 515.319 385.376 515.703 384.726C516.087 384.075 516.609 383.568 517.271 383.206C517.932 382.832 518.689 382.646 519.543 382.646C520.385 382.646 521.137 382.832 521.799 383.206C522.471 383.568 522.993 384.075 523.367 384.726C523.751 385.366 523.943 386.112 523.943 386.966C523.943 387.808 523.751 388.555 523.367 389.206C522.993 389.856 522.471 390.368 521.799 390.742C521.137 391.115 520.385 391.302 519.543 391.302ZM519.543 389.958C520.087 389.958 520.572 389.835 520.999 389.59C521.436 389.344 521.777 388.998 522.023 388.55C522.268 388.091 522.391 387.563 522.391 386.966C522.391 386.358 522.268 385.835 522.023 385.398C521.777 384.95 521.436 384.603 520.999 384.358C520.572 384.112 520.087 383.99 519.543 383.99C518.999 383.99 518.513 384.112 518.087 384.358C517.66 384.603 517.319 384.95 517.063 385.398C516.807 385.835 516.679 386.358 516.679 386.966C516.679 387.563 516.807 388.091 517.063 388.55C517.319 388.998 517.66 389.344 518.087 389.59C518.513 389.835 518.999 389.958 519.543 389.958ZM533.708 391.302C532.844 391.302 532.071 391.115 531.388 390.742C530.716 390.368 530.188 389.856 529.804 389.206C529.42 388.555 529.228 387.808 529.228 386.966C529.228 386.123 529.42 385.376 529.804 384.726C530.188 384.075 530.716 383.568 531.388 383.206C532.071 382.832 532.844 382.646 533.708 382.646C534.476 382.646 535.159 382.8 535.756 383.11C536.364 383.408 536.833 383.856 537.164 384.454L535.996 385.206C535.719 384.79 535.377 384.486 534.972 384.294C534.577 384.091 534.151 383.99 533.692 383.99C533.137 383.99 532.641 384.112 532.204 384.358C531.767 384.603 531.42 384.95 531.164 385.398C530.908 385.835 530.78 386.358 530.78 386.966C530.78 387.574 530.908 388.102 531.164 388.55C531.42 388.998 531.767 389.344 532.204 389.59C532.641 389.835 533.137 389.958 533.692 389.958C534.151 389.958 534.577 389.862 534.972 389.67C535.377 389.467 535.719 389.158 535.996 388.742L537.164 389.478C536.833 390.064 536.364 390.518 535.756 390.838C535.159 391.147 534.476 391.302 533.708 391.302ZM538.867 391.206V379.334H540.403V391.206H538.867ZM546.792 391.302C545.939 391.302 545.181 391.115 544.52 390.742C543.859 390.368 543.336 389.856 542.952 389.206C542.568 388.544 542.376 387.798 542.376 386.966C542.376 386.123 542.568 385.376 542.952 384.726C543.336 384.075 543.859 383.568 544.52 383.206C545.181 382.832 545.939 382.646 546.792 382.646C547.635 382.646 548.387 382.832 549.048 383.206C549.72 383.568 550.243 384.075 550.616 384.726C551 385.366 551.192 386.112 551.192 386.966C551.192 387.808 551 388.555 550.616 389.206C550.243 389.856 549.72 390.368 549.048 390.742C548.387 391.115 547.635 391.302 546.792 391.302ZM546.792 389.958C547.336 389.958 547.821 389.835 548.248 389.59C548.685 389.344 549.027 388.998 549.272 388.55C549.517 388.091 549.64 387.563 549.64 386.966C549.64 386.358 549.517 385.835 549.272 385.398C549.027 384.95 548.685 384.603 548.248 384.358C547.821 384.112 547.336 383.99 546.792 383.99C546.248 383.99 545.763 384.112 545.336 384.358C544.909 384.603 544.568 384.95 544.312 385.398C544.056 385.835 543.928 386.358 543.928 386.966C543.928 387.563 544.056 388.091 544.312 388.55C544.568 388.998 544.909 389.344 545.336 389.59C545.763 389.835 546.248 389.958 546.792 389.958ZM555.572 391.302C554.868 391.302 554.196 391.206 553.556 391.014C552.927 390.822 552.431 390.587 552.068 390.31L552.708 389.094C553.071 389.339 553.519 389.547 554.052 389.718C554.585 389.888 555.129 389.974 555.684 389.974C556.399 389.974 556.911 389.872 557.22 389.67C557.54 389.467 557.7 389.184 557.7 388.822C557.7 388.555 557.604 388.347 557.412 388.198C557.22 388.048 556.964 387.936 556.644 387.862C556.335 387.787 555.988 387.723 555.604 387.67C555.22 387.606 554.836 387.531 554.452 387.446C554.068 387.35 553.716 387.222 553.396 387.062C553.076 386.891 552.82 386.662 552.628 386.374C552.436 386.075 552.34 385.68 552.34 385.19C552.34 384.678 552.484 384.23 552.772 383.846C553.06 383.462 553.465 383.168 553.988 382.966C554.521 382.752 555.151 382.646 555.876 382.646C556.431 382.646 556.991 382.715 557.556 382.854C558.132 382.982 558.601 383.168 558.964 383.414L558.308 384.63C557.924 384.374 557.524 384.198 557.108 384.102C556.692 384.006 556.276 383.958 555.86 383.958C555.188 383.958 554.687 384.07 554.356 384.294C554.025 384.507 553.86 384.784 553.86 385.126C553.86 385.414 553.956 385.638 554.148 385.798C554.351 385.947 554.607 386.064 554.916 386.15C555.236 386.235 555.588 386.31 555.972 386.374C556.356 386.427 556.74 386.502 557.124 386.598C557.508 386.683 557.855 386.806 558.164 386.966C558.484 387.126 558.74 387.35 558.932 387.638C559.135 387.926 559.236 388.31 559.236 388.79C559.236 389.302 559.087 389.744 558.788 390.118C558.489 390.491 558.068 390.784 557.524 390.998C556.98 391.2 556.329 391.302 555.572 391.302ZM564.756 391.302C563.849 391.302 563.049 391.115 562.356 390.742C561.673 390.368 561.14 389.856 560.756 389.206C560.382 388.555 560.196 387.808 560.196 386.966C560.196 386.123 560.377 385.376 560.74 384.726C561.113 384.075 561.62 383.568 562.26 383.206C562.91 382.832 563.641 382.646 564.452 382.646C565.273 382.646 565.998 382.827 566.628 383.19C567.257 383.552 567.748 384.064 568.1 384.726C568.462 385.376 568.644 386.139 568.644 387.014C568.644 387.078 568.638 387.152 568.628 387.238C568.628 387.323 568.622 387.403 568.612 387.478H561.396V386.374H567.812L567.188 386.758C567.198 386.214 567.086 385.728 566.852 385.302C566.617 384.875 566.292 384.544 565.876 384.31C565.47 384.064 564.996 383.942 564.452 383.942C563.918 383.942 563.444 384.064 563.028 384.31C562.612 384.544 562.286 384.88 562.052 385.318C561.817 385.744 561.7 386.235 561.7 386.79V387.046C561.7 387.611 561.828 388.118 562.084 388.566C562.35 389.003 562.718 389.344 563.188 389.59C563.657 389.835 564.196 389.958 564.804 389.958C565.305 389.958 565.758 389.872 566.164 389.702C566.58 389.531 566.942 389.275 567.252 388.934L568.1 389.926C567.716 390.374 567.236 390.715 566.66 390.95C566.094 391.184 565.46 391.302 564.756 391.302ZM521.472 415.302C520.565 415.302 519.765 415.115 519.072 414.742C518.389 414.368 517.856 413.856 517.472 413.206C517.098 412.555 516.912 411.808 516.912 410.966C516.912 410.123 517.093 409.376 517.456 408.726C517.829 408.075 518.336 407.568 518.976 407.206C519.626 406.832 520.357 406.646 521.168 406.646C521.989 406.646 522.714 406.827 523.344 407.19C523.973 407.552 524.464 408.064 524.816 408.726C525.178 409.376 525.36 410.139 525.36 411.014C525.36 411.078 525.354 411.152 525.344 411.238C525.344 411.323 525.338 411.403 525.328 411.478H518.112V410.374H524.528L523.904 410.758C523.914 410.214 523.802 409.728 523.568 409.302C523.333 408.875 523.008 408.544 522.592 408.31C522.186 408.064 521.712 407.942 521.168 407.942C520.634 407.942 520.16 408.064 519.744 408.31C519.328 408.544 519.002 408.88 518.768 409.318C518.533 409.744 518.416 410.235 518.416 410.79V411.046C518.416 411.611 518.544 412.118 518.8 412.566C519.066 413.003 519.434 413.344 519.904 413.59C520.373 413.835 520.912 413.958 521.52 413.958C522.021 413.958 522.474 413.872 522.88 413.702C523.296 413.531 523.658 413.275 523.968 412.934L524.816 413.926C524.432 414.374 523.952 414.715 523.376 414.95C522.81 415.184 522.176 415.302 521.472 415.302ZM529.384 415.206L525.672 406.726H527.272L530.568 414.406H529.8L533.16 406.726H534.664L530.952 415.206H529.384ZM539.463 415.302C538.557 415.302 537.757 415.115 537.063 414.742C536.381 414.368 535.847 413.856 535.463 413.206C535.09 412.555 534.903 411.808 534.903 410.966C534.903 410.123 535.085 409.376 535.447 408.726C535.821 408.075 536.327 407.568 536.967 407.206C537.618 406.832 538.349 406.646 539.159 406.646C539.981 406.646 540.706 406.827 541.335 407.19C541.965 407.552 542.455 408.064 542.807 408.726C543.17 409.376 543.351 410.139 543.351 411.014C543.351 411.078 543.346 411.152 543.335 411.238C543.335 411.323 543.33 411.403 543.319 411.478H536.103V410.374H542.519L541.895 410.758C541.906 410.214 541.794 409.728 541.559 409.302C541.325 408.875 540.999 408.544 540.583 408.31C540.178 408.064 539.703 407.942 539.159 407.942C538.626 407.942 538.151 408.064 537.735 408.31C537.319 408.544 536.994 408.88 536.759 409.318C536.525 409.744 536.407 410.235 536.407 410.79V411.046C536.407 411.611 536.535 412.118 536.791 412.566C537.058 413.003 537.426 413.344 537.895 413.59C538.365 413.835 538.903 413.958 539.511 413.958C540.013 413.958 540.466 413.872 540.871 413.702C541.287 413.531 541.65 413.275 541.959 412.934L542.807 413.926C542.423 414.374 541.943 414.715 541.367 414.95C540.802 415.184 540.167 415.302 539.463 415.302ZM549.836 406.646C550.53 406.646 551.138 406.779 551.66 407.046C552.194 407.312 552.61 407.718 552.908 408.262C553.207 408.806 553.356 409.494 553.356 410.326V415.206H551.82V410.502C551.82 409.68 551.618 409.062 551.212 408.646C550.818 408.23 550.258 408.022 549.532 408.022C548.988 408.022 548.514 408.128 548.108 408.342C547.703 408.555 547.388 408.87 547.164 409.286C546.951 409.702 546.844 410.219 546.844 410.838V415.206H545.308V406.726H546.78V409.014L546.54 408.406C546.818 407.851 547.244 407.419 547.82 407.11C548.396 406.8 549.068 406.646 549.836 406.646ZM558.935 415.302C558.082 415.302 557.42 415.072 556.951 414.614C556.482 414.155 556.247 413.499 556.247 412.646V404.87H557.783V412.582C557.783 413.04 557.895 413.392 558.119 413.638C558.354 413.883 558.684 414.006 559.111 414.006C559.591 414.006 559.991 413.872 560.311 413.606L560.791 414.71C560.556 414.912 560.274 415.062 559.943 415.158C559.623 415.254 559.287 415.302 558.935 415.302ZM554.807 407.99V406.726H560.215V407.99H554.807Z" fill="white"/>
<path d="M320.316 177.081C320.316 177.909 320.987 178.581 321.816 178.581C322.644 178.581 323.316 177.909 323.316 177.081H320.316ZM407.829 72.8368C408.415 72.251 408.415 71.3012 407.829 70.7155L398.283 61.1695C397.697 60.5837 396.747 60.5837 396.162 61.1695C395.576 61.7553 395.576 62.7051 396.162 63.2908L404.647 71.7761L396.162 80.2614C395.576 80.8472 395.576 81.7969 396.162 82.3827C396.747 82.9685 397.697 82.9685 398.283 82.3827L407.829 72.8368ZM323.316 177.081V95.7761H320.316V177.081H323.316ZM345.816 73.2761H406.768V70.2761H345.816V73.2761ZM323.316 95.7761C323.316 83.3497 333.39 73.2761 345.816 73.2761V70.2761C331.733 70.2761 320.316 81.6929 320.316 95.7761H323.316Z" fill="#85E0A3"/>
<path d="M528.909 70.2761C528.081 70.2761 527.409 70.9477 527.409 71.7761C527.409 72.6046 528.081 73.2761 528.909 73.2761V70.2761ZM575.92 72.8368C576.505 72.251 576.505 71.3012 575.92 70.7155L566.374 61.1695C565.788 60.5837 564.838 60.5837 564.252 61.1695C563.667 61.7553 563.667 62.7051 564.252 63.2908L572.738 71.7761L564.252 80.2614C563.667 80.8472 563.667 81.7969 564.252 82.3827C564.838 82.9685 565.788 82.9685 566.374 82.3827L575.92 72.8368ZM528.909 73.2761H574.859V70.2761H528.909V73.2761Z" fill="#85E0A3"/>
<path d="M99.8442 230.434C99.0158 230.434 98.3442 231.106 98.3442 231.934C98.3442 232.763 99.0158 233.434 99.8442 233.434V230.434ZM133.061 232.995C133.647 232.409 133.647 231.459 133.061 230.874L123.515 221.328C122.929 220.742 121.979 220.742 121.394 221.328C120.808 221.914 120.808 222.863 121.394 223.449L129.879 231.934L121.394 240.42C120.808 241.005 120.808 241.955 121.394 242.541C121.979 243.127 122.929 243.127 123.515 242.541L133.061 232.995ZM99.8442 233.434H132V230.434H99.8442V233.434Z" fill="#85E0A3"/>
<path d="M235.844 230.364C235.016 230.364 234.344 231.035 234.344 231.864C234.344 232.692 235.016 233.364 235.844 233.364V230.364ZM269.061 232.924C269.647 232.339 269.647 231.389 269.061 230.803L259.515 221.257C258.929 220.671 257.979 220.671 257.394 221.257C256.808 221.843 256.808 222.793 257.394 223.378L265.879 231.864L257.394 240.349C256.808 240.935 256.808 241.885 257.394 242.47C257.979 243.056 258.929 243.056 259.515 242.47L269.061 232.924ZM235.844 233.364H268V230.364H235.844V233.364Z" fill="#85E0A3"/>
<ellipse cx="468.929" cy="231.864" rx="57.0705" ry="57.5541" fill="#155A32"/>
<path d="M455.61 226.438C453.898 226.438 452.218 225.862 451.322 225.03L451.914 223.782C452.746 224.534 454.17 225.078 455.61 225.078C457.546 225.078 458.378 224.326 458.378 223.35C458.378 220.614 451.594 222.342 451.594 218.182C451.594 216.454 452.938 214.982 455.882 214.982C457.194 214.982 458.554 215.334 459.482 215.974L458.954 217.254C457.978 216.63 456.874 216.342 455.882 216.342C453.978 216.342 453.162 217.142 453.162 218.118C453.162 220.854 459.946 219.142 459.946 223.254C459.946 224.966 458.57 226.438 455.61 226.438ZM466.171 224.71L466.651 225.814C466.187 226.214 465.483 226.406 464.795 226.406C463.083 226.406 462.107 225.462 462.107 223.75V219.094H460.667V217.83H462.107V215.974H463.643V217.83H466.075V219.094H463.643V223.686C463.643 224.598 464.123 225.11 464.971 225.11C465.419 225.11 465.851 224.966 466.171 224.71ZM471.42 217.75C473.74 217.75 475.052 218.87 475.052 221.19V226.31H473.596V225.19C473.084 225.958 472.14 226.406 470.812 226.406C468.892 226.406 467.676 225.382 467.676 223.91C467.676 222.55 468.556 221.43 471.084 221.43H473.516V221.126C473.516 219.83 472.764 219.078 471.244 219.078C470.236 219.078 469.212 219.43 468.556 219.99L467.916 218.838C468.796 218.134 470.06 217.75 471.42 217.75ZM471.068 225.222C472.22 225.222 473.132 224.694 473.516 223.718V222.534H471.148C469.628 222.534 469.196 223.126 469.196 223.846C469.196 224.694 469.9 225.222 471.068 225.222ZM480.823 215.606C479.911 215.606 479.447 216.118 479.447 217.094V217.83H481.911V219.094H479.479V226.31H477.943V219.094H476.503V217.83H477.943V217.078C477.943 215.43 478.935 214.342 480.743 214.342C481.399 214.342 482.039 214.502 482.471 214.838L482.007 216.006C481.687 215.766 481.271 215.606 480.823 215.606ZM486.287 215.606C485.375 215.606 484.911 216.118 484.911 217.094V217.83H487.375V219.094H484.943V226.31H483.407V219.094H481.967V217.83H483.407V217.078C483.407 215.43 484.399 214.342 486.207 214.342C486.863 214.342 487.503 214.502 487.935 214.838L487.471 216.006C487.151 215.766 486.735 215.606 486.287 215.606ZM441.213 243.254C441.757 242.262 442.813 241.75 444.301 241.75V243.238C444.173 243.222 444.061 243.222 443.949 243.222C442.301 243.222 441.277 244.23 441.277 246.086V250.31H439.741V241.83H441.213V243.254ZM453.604 246.118C453.604 246.246 453.588 246.438 453.572 246.582H446.692C446.884 248.07 448.084 249.062 449.764 249.062C450.756 249.062 451.588 248.726 452.212 248.038L453.06 249.03C452.292 249.926 451.124 250.406 449.716 250.406C446.98 250.406 445.156 248.598 445.156 246.07C445.156 243.558 446.964 241.75 449.412 241.75C451.86 241.75 453.604 243.51 453.604 246.118ZM449.412 243.046C447.94 243.046 446.852 244.038 446.692 245.478H452.132C451.972 244.054 450.9 243.046 449.412 243.046ZM462.089 241.83H463.561V253.414H462.025V249.03C461.321 249.942 460.265 250.406 459.065 250.406C456.585 250.406 454.777 248.678 454.777 246.07C454.777 243.478 456.585 241.75 459.065 241.75C460.313 241.75 461.401 242.23 462.089 243.174V241.83ZM459.193 249.062C460.809 249.062 462.041 247.878 462.041 246.07C462.041 244.278 460.809 243.094 459.193 243.094C457.561 243.094 456.329 244.278 456.329 246.07C456.329 247.878 457.561 249.062 459.193 249.062ZM472.659 241.83H474.195V250.31H472.739V249.03C472.115 249.91 471.059 250.406 469.859 250.406C467.667 250.406 466.211 249.206 466.211 246.71V241.83H467.747V246.534C467.747 248.198 468.579 249.03 470.035 249.03C471.635 249.03 472.659 248.038 472.659 246.214V241.83ZM484.607 246.118C484.607 246.246 484.591 246.438 484.575 246.582H477.695C477.887 248.07 479.087 249.062 480.767 249.062C481.759 249.062 482.591 248.726 483.215 248.038L484.063 249.03C483.295 249.926 482.127 250.406 480.719 250.406C477.983 250.406 476.159 248.598 476.159 246.07C476.159 243.558 477.967 241.75 480.415 241.75C482.863 241.75 484.607 243.51 484.607 246.118ZM480.415 243.046C478.943 243.046 477.855 244.038 477.695 245.478H483.135C482.975 244.054 481.903 243.046 480.415 243.046ZM488.996 250.406C487.588 250.406 486.196 249.974 485.492 249.414L486.132 248.198C486.852 248.71 488.004 249.078 489.108 249.078C490.532 249.078 491.124 248.646 491.124 247.926C491.124 246.022 485.764 247.67 485.764 244.294C485.764 242.774 487.124 241.75 489.3 241.75C490.404 241.75 491.652 242.038 492.388 242.518L491.732 243.734C490.964 243.238 490.116 243.062 489.284 243.062C487.94 243.062 487.284 243.558 487.284 244.23C487.284 246.23 492.66 244.598 492.66 247.894C492.66 249.43 491.252 250.406 488.996 250.406ZM498.692 248.71L499.172 249.814C498.708 250.214 498.004 250.406 497.316 250.406C495.604 250.406 494.628 249.462 494.628 247.75V243.094H493.188V241.83H494.628V239.974H496.164V241.83H498.596V243.094H496.164V247.686C496.164 248.598 496.644 249.11 497.492 249.11C497.94 249.11 498.372 248.966 498.692 248.71Z" fill="white"/>
<ellipse cx="633.369" cy="232.347" rx="57.0705" ry="58.0378" fill="#155A32"/>
<path d="M625.149 216.502H618.845V220.406H624.461V221.782H618.845V226.31H617.245V215.11H625.149V216.502ZM627.613 216.198C627.021 216.198 626.573 215.766 626.573 215.206C626.573 214.646 627.021 214.198 627.613 214.198C628.205 214.198 628.653 214.63 628.653 215.174C628.653 215.75 628.221 216.198 627.613 216.198ZM626.845 226.31V217.83H628.381V226.31H626.845ZM635.666 217.75C637.73 217.75 639.186 218.934 639.186 221.43V226.31H637.65V221.606C637.65 219.942 636.818 219.126 635.362 219.126C633.73 219.126 632.674 220.102 632.674 221.942V226.31H631.138V217.83H632.61V219.11C633.234 218.246 634.322 217.75 635.666 217.75ZM648.363 214.438H649.899V226.31H648.427V224.966C647.739 225.926 646.651 226.406 645.403 226.406C642.923 226.406 641.115 224.662 641.115 222.07C641.115 219.478 642.923 217.75 645.403 217.75C646.603 217.75 647.659 218.198 648.363 219.11V214.438ZM645.531 225.062C647.147 225.062 648.379 223.878 648.379 222.07C648.379 220.262 647.147 219.094 645.531 219.094C643.899 219.094 642.667 220.262 642.667 222.07C642.667 223.878 643.899 225.062 645.531 225.062ZM598.413 250.406C595.805 250.406 593.933 248.598 593.933 246.07C593.933 243.542 595.805 241.75 598.413 241.75C599.933 241.75 601.197 242.374 601.869 243.558L600.701 244.31C600.157 243.478 599.325 243.094 598.397 243.094C596.733 243.094 595.485 244.262 595.485 246.07C595.485 247.91 596.733 249.062 598.397 249.062C599.325 249.062 600.157 248.678 600.701 247.846L601.869 248.582C601.197 249.766 599.933 250.406 598.413 250.406ZM606.769 241.75C609.089 241.75 610.401 242.87 610.401 245.19V250.31H608.945V249.19C608.433 249.958 607.489 250.406 606.161 250.406C604.241 250.406 603.025 249.382 603.025 247.91C603.025 246.55 603.905 245.43 606.433 245.43H608.865V245.126C608.865 243.83 608.113 243.078 606.593 243.078C605.585 243.078 604.561 243.43 603.905 243.99L603.265 242.838C604.145 242.134 605.409 241.75 606.769 241.75ZM606.417 249.222C607.569 249.222 608.481 248.694 608.865 247.718V246.534H606.497C604.977 246.534 604.545 247.126 604.545 247.846C604.545 248.694 605.249 249.222 606.417 249.222ZM617.596 241.75C619.66 241.75 621.116 242.934 621.116 245.43V250.31H619.58V245.606C619.58 243.942 618.748 243.126 617.292 243.126C615.66 243.126 614.604 244.102 614.604 245.942V250.31H613.068V241.83H614.54V243.11C615.164 242.246 616.252 241.75 617.596 241.75ZM630.293 238.438H631.829V250.31H630.357V248.966C629.669 249.926 628.581 250.406 627.333 250.406C624.853 250.406 623.045 248.662 623.045 246.07C623.045 243.478 624.853 241.75 627.333 241.75C628.533 241.75 629.589 242.198 630.293 243.11V238.438ZM627.461 249.062C629.077 249.062 630.309 247.878 630.309 246.07C630.309 244.262 629.077 243.094 627.461 243.094C625.829 243.094 624.597 244.262 624.597 246.07C624.597 247.878 625.829 249.062 627.461 249.062ZM635.328 240.198C634.736 240.198 634.288 239.766 634.288 239.206C634.288 238.646 634.736 238.198 635.328 238.198C635.92 238.198 636.368 238.63 636.368 239.174C636.368 239.75 635.936 240.198 635.328 240.198ZM634.56 250.31V241.83H636.096V250.31H634.56ZM645.316 238.438H646.852V250.31H645.38V248.966C644.692 249.926 643.604 250.406 642.356 250.406C639.876 250.406 638.068 248.662 638.068 246.07C638.068 243.478 639.876 241.75 642.356 241.75C643.556 241.75 644.612 242.198 645.316 243.11V238.438ZM642.484 249.062C644.1 249.062 645.332 247.878 645.332 246.07C645.332 244.262 644.1 243.094 642.484 243.094C640.852 243.094 639.62 244.262 639.62 246.07C639.62 247.878 640.852 249.062 642.484 249.062ZM652.671 241.75C654.991 241.75 656.303 242.87 656.303 245.19V250.31H654.847V249.19C654.335 249.958 653.391 250.406 652.063 250.406C650.143 250.406 648.927 249.382 648.927 247.91C648.927 246.55 649.807 245.43 652.335 245.43H654.767V245.126C654.767 243.83 654.015 243.078 652.495 243.078C651.487 243.078 650.463 243.43 649.807 243.99L649.167 242.838C650.047 242.134 651.311 241.75 652.671 241.75ZM652.319 249.222C653.471 249.222 654.383 248.694 654.767 247.718V246.534H652.399C650.879 246.534 650.447 247.126 650.447 247.846C650.447 248.694 651.151 249.222 652.319 249.222ZM663.257 248.71L663.737 249.814C663.273 250.214 662.569 250.406 661.881 250.406C660.169 250.406 659.193 249.462 659.193 247.75V243.094H657.753V241.83H659.193V239.974H660.729V241.83H663.161V243.094H660.729V247.686C660.729 248.598 661.209 249.11 662.057 249.11C662.505 249.11 662.937 248.966 663.257 248.71ZM672.801 246.118C672.801 246.246 672.785 246.438 672.769 246.582H665.889C666.081 248.07 667.281 249.062 668.961 249.062C669.953 249.062 670.785 248.726 671.409 248.038L672.257 249.03C671.489 249.926 670.321 250.406 668.913 250.406C666.177 250.406 664.353 248.598 664.353 246.07C664.353 243.558 666.161 241.75 668.609 241.75C671.057 241.75 672.801 243.51 672.801 246.118ZM668.609 243.046C667.137 243.046 666.049 244.038 665.889 245.478H671.329C671.169 244.054 670.097 243.046 668.609 243.046Z" fill="white"/>
<path d="M375.631 230.364C374.803 230.364 374.131 231.035 374.131 231.864C374.131 232.692 374.803 233.364 375.631 233.364V230.364ZM408.919 232.924C409.505 232.339 409.505 231.389 408.919 230.803L399.373 221.257C398.787 220.671 397.837 220.671 397.252 221.257C396.666 221.843 396.666 222.793 397.252 223.378L405.737 231.864L397.252 240.349C396.666 240.935 396.666 241.884 397.252 242.47C397.837 243.056 398.787 243.056 399.373 242.47L408.919 232.924ZM375.631 233.364H407.858V230.364H375.631V233.364Z" fill="#85E0A3"/>
<path d="M530 230.847C529.171 230.847 528.5 231.519 528.5 232.347C528.5 233.176 529.171 233.847 530 233.847V230.847ZM573.36 233.408C573.945 232.822 573.945 231.872 573.36 231.287L563.814 221.741C563.228 221.155 562.278 221.155 561.692 221.741C561.107 222.327 561.107 223.276 561.692 223.862L570.178 232.347L561.692 240.833C561.107 241.418 561.107 242.368 561.692 242.954C562.278 243.54 563.228 243.54 563.814 242.954L573.36 233.408ZM530 233.847H572.299V230.847H530V233.847Z" fill="#85E0A3"/>
<path d="M697 70.2761C696.172 70.2761 695.5 70.9477 695.5 71.7761C695.5 72.6046 696.172 73.2761 697 73.2761V70.2761ZM598.726 384.183C598.14 384.769 598.14 385.718 598.726 386.304L608.272 395.85C608.858 396.436 609.807 396.436 610.393 395.85C610.979 395.264 610.979 394.315 610.393 393.729L601.908 385.243L610.393 376.758C610.979 376.172 610.979 375.223 610.393 374.637C609.807 374.051 608.858 374.051 608.272 374.637L598.726 384.183ZM697 73.2761H701V70.2761H697V73.2761ZM723.5 95.7761V361.244H726.5V95.7761H723.5ZM701 383.743H599.787V386.743H701V383.743ZM723.5 361.244C723.5 373.67 713.426 383.743 701 383.743V386.743C715.083 386.743 726.5 375.327 726.5 361.244H723.5ZM701 73.2761C713.426 73.2761 723.5 83.3497 723.5 95.7761H726.5C726.5 81.6929 715.083 70.2761 701 70.2761V73.2761Z" fill="#85E0A3"/>
<path d="M694.44 230.847C693.612 230.847 692.94 231.519 692.94 232.347C692.94 233.176 693.612 233.847 694.44 233.847V230.847ZM598.726 384.183C598.14 384.769 598.14 385.718 598.726 386.304L608.272 395.85C608.858 396.436 609.807 396.436 610.393 395.85C610.979 395.264 610.979 394.315 610.393 393.729L601.908 385.243L610.393 376.758C610.979 376.172 610.979 375.223 610.393 374.637C609.807 374.051 608.858 374.051 608.272 374.637L598.726 384.183ZM694.44 233.847H698.44V230.847H694.44V233.847ZM720.94 256.347V361.243H723.94V256.347H720.94ZM698.44 383.743H599.787V386.743H698.44V383.743ZM720.94 361.243C720.94 373.67 710.866 383.743 698.44 383.743V386.743C712.523 386.743 723.94 375.327 723.94 361.243H720.94ZM698.44 233.847C710.866 233.847 720.94 243.921 720.94 256.347H723.94C723.94 242.264 712.523 230.847 698.44 230.847V233.847Z" fill="#85E0A3"/>
</svg>
