<svg width="735" height="537" viewBox="0 0 735 537" fill="none" xmlns="http://www.w3.org/2000/svg">
<ellipse cx="39.45" cy="97.7441" rx="39.45" ry="39.9035" fill="#155A32"/>
<path d="M16.9222 103.969C15.2102 103.969 13.5302 103.393 12.6342 102.561L13.2262 101.313C14.0582 102.065 15.4822 102.609 16.9222 102.609C18.8582 102.609 19.6902 101.857 19.6902 100.881C19.6902 98.1447 12.9062 99.8727 12.9062 95.7127C12.9062 93.9847 14.2502 92.5127 17.1942 92.5127C18.5062 92.5127 19.8662 92.8647 20.7942 93.5047L20.2662 94.7847C19.2902 94.1607 18.1862 93.8727 17.1942 93.8727C15.2902 93.8727 14.4742 94.6727 14.4742 95.6487C14.4742 98.3847 21.2582 96.6727 21.2582 100.785C21.2582 102.497 19.8822 103.969 16.9222 103.969ZM23.9637 93.7287C23.3717 93.7287 22.9237 93.2967 22.9237 92.7367C22.9237 92.1767 23.3717 91.7287 23.9637 91.7287C24.5557 91.7287 25.0037 92.1607 25.0037 92.7047C25.0037 93.2807 24.5717 93.7287 23.9637 93.7287ZM23.1957 103.841V95.3607H24.7317V103.841H23.1957ZM34.1444 95.3607H35.6004V102.689C35.6004 105.681 34.0804 107.041 31.2004 107.041C29.6484 107.041 28.0804 106.609 27.1524 105.777L27.8884 104.593C28.6724 105.265 29.9044 105.697 31.1524 105.697C33.1524 105.697 34.0644 104.769 34.0644 102.849V102.177C33.3284 103.057 32.2244 103.489 31.0084 103.489C28.5604 103.489 26.7044 101.825 26.7044 99.3767C26.7044 96.9287 28.5604 95.2807 31.0084 95.2807C32.2724 95.2807 33.4244 95.7447 34.1444 96.6727V95.3607ZM31.1844 102.145C32.8804 102.145 34.0964 101.009 34.0964 99.3767C34.0964 97.7287 32.8804 96.6247 31.1844 96.6247C29.4724 96.6247 28.2564 97.7287 28.2564 99.3767C28.2564 101.009 29.4724 102.145 31.1844 102.145ZM42.8873 95.2807C44.9513 95.2807 46.4073 96.4647 46.4073 98.9607V103.841H44.8713V99.1367C44.8713 97.4727 44.0393 96.6567 42.5833 96.6567C40.9513 96.6567 39.8953 97.6327 39.8953 99.4727V103.841H38.3593V95.3607H39.8313V96.6407C40.4553 95.7767 41.5433 95.2807 42.8873 95.2807ZM53.9628 93.7287C53.3708 93.7287 52.9228 93.2967 52.9228 92.7367C52.9228 92.1767 53.3708 91.7287 53.9628 91.7287C54.5548 91.7287 55.0028 92.1607 55.0028 92.7047C55.0028 93.2807 54.5708 93.7287 53.9628 93.7287ZM53.1948 103.841V95.3607H54.7308V103.841H53.1948ZM62.0156 95.2807C64.0796 95.2807 65.5356 96.4647 65.5356 98.9607V103.841H63.9996V99.1367C63.9996 97.4727 63.1676 96.6567 61.7116 96.6567C60.0796 96.6567 59.0236 97.6327 59.0236 99.4727V103.841H57.4876V95.3607H58.9596V96.6407C59.5836 95.7767 60.6716 95.2807 62.0156 95.2807Z" fill="white"/>
<rect x="5.26514" y="235.563" width="68.37" height="34.185" rx="3" fill="#676827"/>
<path d="M18.4691 258.563V246.927H20.2248V251.984H26.0259V246.927H27.7873V258.563H26.0259V253.489H20.2248V258.563H18.4691ZM33.7079 258.739C32.8897 258.739 32.1757 258.552 31.5658 258.177C30.956 257.802 30.4825 257.277 30.1454 256.603C29.8082 255.929 29.6397 255.141 29.6397 254.239C29.6397 253.334 29.8082 252.542 30.1454 251.864C30.4825 251.186 30.956 250.66 31.5658 250.285C32.1757 249.91 32.8897 249.722 33.7079 249.722C34.526 249.722 35.2401 249.91 35.8499 250.285C36.4598 250.66 36.9332 251.186 37.2704 251.864C37.6075 252.542 37.776 253.334 37.776 254.239C37.776 255.141 37.6075 255.929 37.2704 256.603C36.9332 257.277 36.4598 257.802 35.8499 258.177C35.2401 258.552 34.526 258.739 33.7079 258.739ZM33.7135 257.313C34.2439 257.313 34.6832 257.173 35.0317 256.893C35.3802 256.612 35.6378 256.239 35.8045 255.773C35.9749 255.307 36.0601 254.794 36.0601 254.234C36.0601 253.677 35.9749 253.165 35.8045 252.699C35.6378 252.23 35.3802 251.853 35.0317 251.569C34.6832 251.285 34.2439 251.143 33.7135 251.143C33.1795 251.143 32.7363 251.285 32.384 251.569C32.0355 251.853 31.776 252.23 31.6056 252.699C31.4389 253.165 31.3556 253.677 31.3556 254.234C31.3556 254.794 31.4389 255.307 31.6056 255.773C31.776 256.239 32.0355 256.612 32.384 256.893C32.7363 257.173 33.1795 257.313 33.7135 257.313ZM39.4964 258.563V249.836H41.127V251.256H41.235C41.4168 250.775 41.7142 250.4 42.127 250.131C42.5399 249.859 43.0342 249.722 43.61 249.722C44.1933 249.722 44.682 249.859 45.0759 250.131C45.4736 250.404 45.7672 250.779 45.9566 251.256H46.0475C46.2558 250.79 46.5873 250.419 47.0418 250.143C47.4964 249.862 48.038 249.722 48.6668 249.722C49.4585 249.722 50.1043 249.97 50.6043 250.467C51.1081 250.963 51.36 251.711 51.36 252.711V258.563H49.6611V252.87C49.6611 252.279 49.5001 251.851 49.1782 251.586C48.8562 251.321 48.4717 251.188 48.0248 251.188C47.4717 251.188 47.0418 251.359 46.735 251.699C46.4282 252.037 46.2748 252.47 46.2748 253.001V258.563H44.5816V252.762C44.5816 252.288 44.4339 251.908 44.1384 251.62C43.8429 251.332 43.4585 251.188 42.985 251.188C42.663 251.188 42.3657 251.273 42.0929 251.444C41.824 251.61 41.6062 251.843 41.4395 252.143C41.2767 252.442 41.1952 252.788 41.1952 253.182V258.563H39.4964ZM57.2223 258.739C56.3625 258.739 55.622 258.556 55.0008 258.188C54.3833 257.817 53.9061 257.296 53.5689 256.626C53.2356 255.951 53.0689 255.162 53.0689 254.256C53.0689 253.362 53.2356 252.574 53.5689 251.893C53.9061 251.211 54.3758 250.679 54.978 250.296C55.5841 249.913 56.2924 249.722 57.103 249.722C57.5955 249.722 58.0727 249.804 58.5348 249.967C58.997 250.129 59.4117 250.385 59.7792 250.734C60.1466 251.082 60.4364 251.535 60.6485 252.092C60.8606 252.645 60.9667 253.317 60.9667 254.109V254.711H54.0292V253.438H59.3019C59.3019 252.991 59.211 252.595 59.0292 252.251C58.8473 251.902 58.5917 251.628 58.2621 251.427C57.9364 251.226 57.5538 251.126 57.1144 251.126C56.6371 251.126 56.2205 251.243 55.8644 251.478C55.5121 251.709 55.2394 252.012 55.0462 252.387C54.8568 252.758 54.7621 253.162 54.7621 253.597V254.592C54.7621 255.175 54.8644 255.671 55.0689 256.08C55.2773 256.489 55.567 256.802 55.9383 257.018C56.3095 257.23 56.7432 257.336 57.2394 257.336C57.5614 257.336 57.8549 257.29 58.1201 257.199C58.3852 257.105 58.6144 256.965 58.8076 256.779C59.0008 256.593 59.1485 256.364 59.2508 256.092L60.8587 256.381C60.7299 256.855 60.4989 257.27 60.1655 257.626C59.836 257.978 59.4212 258.253 58.9212 258.449C58.425 258.643 57.8587 258.739 57.2223 258.739Z" fill="white"/>
<ellipse cx="152.5" cy="252" rx="43.5" ry="44" fill="#155A32"/>
<path d="M133.026 258.128C132.173 258.128 131.384 257.989 130.658 257.712C129.944 257.424 129.32 257.024 128.786 256.512C128.264 255.989 127.853 255.381 127.554 254.688C127.256 253.995 127.106 253.232 127.106 252.4C127.106 251.568 127.256 250.805 127.554 250.112C127.853 249.419 128.269 248.816 128.802 248.304C129.336 247.781 129.96 247.381 130.674 247.104C131.4 246.816 132.189 246.672 133.042 246.672C133.906 246.672 134.701 246.821 135.426 247.12C136.162 247.408 136.786 247.84 137.298 248.416L136.258 249.424C135.832 248.976 135.352 248.645 134.818 248.432C134.285 248.208 133.714 248.096 133.106 248.096C132.477 248.096 131.89 248.203 131.346 248.416C130.813 248.629 130.349 248.928 129.954 249.312C129.56 249.696 129.25 250.155 129.026 250.688C128.813 251.211 128.706 251.781 128.706 252.4C128.706 253.019 128.813 253.595 129.026 254.128C129.25 254.651 129.56 255.104 129.954 255.488C130.349 255.872 130.813 256.171 131.346 256.384C131.89 256.597 132.477 256.704 133.106 256.704C133.714 256.704 134.285 256.597 134.818 256.384C135.352 256.16 135.832 255.819 136.258 255.36L137.298 256.368C136.786 256.944 136.162 257.381 135.426 257.68C134.701 257.979 133.901 258.128 133.026 258.128ZM139.181 258V249.52H140.653V251.824L140.509 251.248C140.744 250.661 141.138 250.213 141.693 249.904C142.248 249.595 142.93 249.44 143.741 249.44V250.928C143.677 250.917 143.613 250.912 143.549 250.912C143.496 250.912 143.442 250.912 143.389 250.912C142.568 250.912 141.917 251.157 141.437 251.648C140.957 252.139 140.717 252.848 140.717 253.776V258H139.181ZM149.156 258.096C148.249 258.096 147.449 257.909 146.756 257.536C146.073 257.163 145.54 256.651 145.156 256C144.783 255.349 144.596 254.603 144.596 253.76C144.596 252.917 144.777 252.171 145.14 251.52C145.513 250.869 146.02 250.363 146.66 250C147.311 249.627 148.041 249.44 148.852 249.44C149.673 249.44 150.399 249.621 151.028 249.984C151.657 250.347 152.148 250.859 152.5 251.52C152.863 252.171 153.044 252.933 153.044 253.808C153.044 253.872 153.039 253.947 153.028 254.032C153.028 254.117 153.023 254.197 153.012 254.272H145.796V253.168H152.212L151.588 253.552C151.599 253.008 151.487 252.523 151.252 252.096C151.017 251.669 150.692 251.339 150.276 251.104C149.871 250.859 149.396 250.736 148.852 250.736C148.319 250.736 147.844 250.859 147.428 251.104C147.012 251.339 146.687 251.675 146.452 252.112C146.217 252.539 146.1 253.029 146.1 253.584V253.84C146.1 254.405 146.228 254.912 146.484 255.36C146.751 255.797 147.119 256.139 147.588 256.384C148.057 256.629 148.596 256.752 149.204 256.752C149.705 256.752 150.159 256.667 150.564 256.496C150.98 256.325 151.343 256.069 151.652 255.728L152.5 256.72C152.116 257.168 151.636 257.509 151.06 257.744C150.495 257.979 149.86 258.096 149.156 258.096ZM160.03 258V256.208L159.95 255.872V252.816C159.95 252.165 159.758 251.664 159.374 251.312C159.001 250.949 158.436 250.768 157.678 250.768C157.177 250.768 156.686 250.853 156.206 251.024C155.726 251.184 155.321 251.403 154.99 251.68L154.35 250.528C154.788 250.176 155.31 249.909 155.918 249.728C156.537 249.536 157.182 249.44 157.854 249.44C159.017 249.44 159.913 249.723 160.542 250.288C161.172 250.853 161.486 251.717 161.486 252.88V258H160.03ZM157.246 258.096C156.617 258.096 156.062 257.989 155.582 257.776C155.113 257.563 154.75 257.269 154.494 256.896C154.238 256.512 154.11 256.08 154.11 255.6C154.11 255.141 154.217 254.725 154.43 254.352C154.654 253.979 155.012 253.68 155.502 253.456C156.004 253.232 156.676 253.12 157.518 253.12H160.206V254.224H157.582C156.814 254.224 156.297 254.352 156.03 254.608C155.764 254.864 155.63 255.173 155.63 255.536C155.63 255.952 155.796 256.288 156.126 256.544C156.457 256.789 156.916 256.912 157.502 256.912C158.078 256.912 158.58 256.784 159.006 256.528C159.444 256.272 159.758 255.899 159.95 255.408L160.254 256.464C160.052 256.965 159.694 257.365 159.182 257.664C158.67 257.952 158.025 258.096 157.246 258.096ZM167.065 258.096C166.212 258.096 165.55 257.867 165.081 257.408C164.612 256.949 164.377 256.293 164.377 255.44V247.664H165.913V255.376C165.913 255.835 166.025 256.187 166.249 256.432C166.484 256.677 166.814 256.8 167.241 256.8C167.721 256.8 168.121 256.667 168.441 256.4L168.921 257.504C168.686 257.707 168.404 257.856 168.073 257.952C167.753 258.048 167.417 258.096 167.065 258.096ZM162.937 250.784V249.52H168.345V250.784H162.937ZM174.097 258.096C173.19 258.096 172.39 257.909 171.697 257.536C171.014 257.163 170.481 256.651 170.097 256C169.723 255.349 169.537 254.603 169.537 253.76C169.537 252.917 169.718 252.171 170.081 251.52C170.454 250.869 170.961 250.363 171.601 250C172.251 249.627 172.982 249.44 173.793 249.44C174.614 249.44 175.339 249.621 175.969 249.984C176.598 250.347 177.089 250.859 177.441 251.52C177.803 252.171 177.985 252.933 177.985 253.808C177.985 253.872 177.979 253.947 177.969 254.032C177.969 254.117 177.963 254.197 177.953 254.272H170.737V253.168H177.153L176.529 253.552C176.539 253.008 176.427 252.523 176.193 252.096C175.958 251.669 175.633 251.339 175.217 251.104C174.811 250.859 174.337 250.736 173.793 250.736C173.259 250.736 172.785 250.859 172.369 251.104C171.953 251.339 171.627 251.675 171.393 252.112C171.158 252.539 171.041 253.029 171.041 253.584V253.84C171.041 254.405 171.169 254.912 171.425 255.36C171.691 255.797 172.059 256.139 172.529 256.384C172.998 256.629 173.537 256.752 174.145 256.752C174.646 256.752 175.099 256.667 175.505 256.496C175.921 256.325 176.283 256.069 176.593 255.728L177.441 256.72C177.057 257.168 176.577 257.509 176.001 257.744C175.435 257.979 174.801 258.096 174.097 258.096Z" fill="white"/>
<path d="M77.6353 250.5C76.8068 250.5 76.1353 251.172 76.1353 252C76.1353 252.828 76.8068 253.5 77.6353 253.5V250.5ZM106.061 253.061C106.647 252.475 106.647 251.525 106.061 250.939L96.5149 241.393C95.9291 240.808 94.9793 240.808 94.3935 241.393C93.8078 241.979 93.8078 242.929 94.3935 243.515L102.879 252L94.3935 260.485C93.8078 261.071 93.8078 262.021 94.3935 262.607C94.9793 263.192 95.9291 263.192 96.5149 262.607L106.061 253.061ZM77.6353 253.5H105V250.5H77.6353V253.5Z" fill="#85E0A3"/>
<path d="M472.97 296.947C475.093 295.372 477.997 295.372 480.12 296.947L544.405 343.094C547.638 345.492 547.638 350.332 544.405 352.731L480.12 398.877C477.997 400.453 475.093 400.453 472.97 398.877L408.686 352.731C405.452 350.332 405.452 345.492 408.686 343.094L472.97 296.947Z" fill="#145174"/>
<path d="M454.111 342.766V332.584H460.256V333.678H455.344V337.118H459.938V338.212H455.344V341.672H460.335V342.766H454.111ZM463.04 335.129L464.87 338.251L466.699 335.129H468.051L465.586 338.947L468.051 342.766H466.699L464.87 339.803L463.04 342.766H461.688L464.114 338.947L461.688 335.129H463.04ZM469.572 342.766V335.129H470.745V342.766H469.572ZM470.168 333.857C469.94 333.857 469.742 333.779 469.577 333.623C469.414 333.467 469.333 333.28 469.333 333.061C469.333 332.842 469.414 332.655 469.577 332.499C469.742 332.344 469.94 332.266 470.168 332.266C470.397 332.266 470.592 332.344 470.755 332.499C470.921 332.655 471.003 332.842 471.003 333.061C471.003 333.28 470.921 333.467 470.755 333.623C470.592 333.779 470.397 333.857 470.168 333.857ZM478.149 336.839L477.095 337.138C477.029 336.962 476.931 336.791 476.802 336.626C476.676 336.457 476.503 336.317 476.285 336.208C476.066 336.099 475.786 336.044 475.444 336.044C474.977 336.044 474.588 336.152 474.276 336.367C473.968 336.579 473.814 336.849 473.814 337.178C473.814 337.469 473.92 337.7 474.132 337.869C474.344 338.038 474.675 338.179 475.126 338.291L476.26 338.57C476.943 338.735 477.451 338.989 477.786 339.33C478.121 339.668 478.288 340.104 478.288 340.638C478.288 341.075 478.162 341.466 477.91 341.811C477.662 342.156 477.314 342.428 476.866 342.626C476.419 342.825 475.899 342.925 475.305 342.925C474.526 342.925 473.882 342.756 473.371 342.418C472.861 342.08 472.538 341.586 472.402 340.936L473.515 340.658C473.622 341.069 473.822 341.377 474.117 341.582C474.415 341.788 474.805 341.891 475.285 341.891C475.832 341.891 476.266 341.775 476.588 341.543C476.913 341.307 477.075 341.026 477.075 340.697C477.075 340.432 476.982 340.21 476.797 340.031C476.611 339.849 476.326 339.713 475.942 339.624L474.669 339.325C473.97 339.16 473.456 338.903 473.128 338.555C472.803 338.203 472.64 337.764 472.64 337.237C472.64 336.806 472.761 336.425 473.003 336.094C473.249 335.762 473.582 335.502 474.003 335.313C474.427 335.124 474.907 335.03 475.444 335.03C476.2 335.03 476.793 335.196 477.224 335.527C477.658 335.858 477.967 336.296 478.149 336.839ZM483.221 335.129V336.124H479.264V335.129H483.221ZM480.417 333.3H481.591V340.578C481.591 340.91 481.639 341.158 481.735 341.324C481.834 341.486 481.96 341.596 482.113 341.652C482.268 341.705 482.433 341.732 482.605 341.732C482.734 341.732 482.84 341.725 482.923 341.712C483.006 341.695 483.072 341.682 483.122 341.672L483.361 342.726C483.281 342.756 483.17 342.786 483.027 342.815C482.885 342.848 482.704 342.865 482.486 342.865C482.154 342.865 481.829 342.794 481.511 342.651C481.196 342.509 480.934 342.292 480.726 342C480.52 341.708 480.417 341.34 480.417 340.896V333.3ZM487.952 342.925C487.216 342.925 486.581 342.762 486.048 342.438C485.518 342.109 485.108 341.652 484.82 341.065C484.535 340.475 484.392 339.789 484.392 339.007C484.392 338.225 484.535 337.536 484.82 336.939C485.108 336.339 485.509 335.872 486.023 335.537C486.54 335.199 487.143 335.03 487.833 335.03C488.23 335.03 488.623 335.096 489.011 335.229C489.399 335.361 489.752 335.577 490.07 335.875C490.388 336.17 490.642 336.561 490.83 337.048C491.019 337.536 491.114 338.135 491.114 338.848V339.345H485.228V338.331H489.921C489.921 337.9 489.835 337.516 489.662 337.178C489.493 336.839 489.251 336.573 488.936 336.377C488.625 336.182 488.257 336.084 487.833 336.084C487.365 336.084 486.961 336.2 486.62 336.432C486.281 336.661 486.021 336.959 485.839 337.327C485.657 337.695 485.566 338.089 485.566 338.51V339.186C485.566 339.763 485.665 340.252 485.864 340.653C486.066 341.05 486.346 341.354 486.704 341.562C487.062 341.768 487.478 341.871 487.952 341.871C488.26 341.871 488.539 341.828 488.787 341.741C489.039 341.652 489.256 341.519 489.438 341.344C489.621 341.165 489.762 340.943 489.861 340.678L490.995 340.996C490.875 341.38 490.675 341.718 490.393 342.01C490.111 342.298 489.763 342.524 489.349 342.686C488.935 342.845 488.469 342.925 487.952 342.925ZM495.628 342.925C494.992 342.925 494.43 342.764 493.943 342.442C493.456 342.118 493.074 341.66 492.799 341.07C492.524 340.477 492.387 339.776 492.387 338.967C492.387 338.165 492.524 337.469 492.799 336.879C493.074 336.289 493.457 335.834 493.948 335.512C494.438 335.191 495.005 335.03 495.648 335.03C496.145 335.03 496.538 335.113 496.826 335.278C497.118 335.441 497.34 335.626 497.493 335.835C497.648 336.041 497.769 336.21 497.855 336.342H497.955V332.584H499.128V342.766H497.995V341.592H497.855C497.769 341.732 497.647 341.907 497.488 342.119C497.328 342.328 497.101 342.515 496.806 342.681C496.511 342.844 496.119 342.925 495.628 342.925ZM495.787 341.871C496.258 341.871 496.656 341.748 496.98 341.503C497.305 341.254 497.552 340.911 497.721 340.474C497.89 340.033 497.975 339.524 497.975 338.947C497.975 338.377 497.892 337.879 497.726 337.451C497.56 337.02 497.315 336.685 496.99 336.447C496.666 336.205 496.265 336.084 495.787 336.084C495.29 336.084 494.876 336.211 494.544 336.467C494.216 336.719 493.969 337.062 493.804 337.496C493.641 337.927 493.56 338.411 493.56 338.947C493.56 339.491 493.643 339.985 493.809 340.429C493.978 340.87 494.226 341.221 494.554 341.483C494.886 341.741 495.297 341.871 495.787 341.871ZM452.59 363.925C451.874 363.925 451.258 363.756 450.741 363.418C450.224 363.08 449.826 362.614 449.548 362.021C449.269 361.427 449.13 360.75 449.13 359.987C449.13 359.212 449.273 358.527 449.558 357.934C449.846 357.337 450.247 356.872 450.761 356.537C451.278 356.199 451.881 356.03 452.57 356.03C453.107 356.03 453.591 356.129 454.022 356.328C454.453 356.527 454.806 356.805 455.081 357.163C455.356 357.521 455.527 357.939 455.593 358.416H454.42C454.33 358.068 454.131 357.76 453.823 357.491C453.518 357.22 453.107 357.084 452.59 357.084C452.133 357.084 451.732 357.203 451.387 357.442C451.046 357.677 450.779 358.01 450.587 358.441C450.398 358.869 450.303 359.371 450.303 359.947C450.303 360.537 450.396 361.051 450.582 361.489C450.771 361.926 451.036 362.266 451.377 362.508C451.722 362.75 452.126 362.871 452.59 362.871C452.895 362.871 453.172 362.818 453.421 362.712C453.669 362.606 453.88 362.453 454.052 362.254C454.224 362.055 454.347 361.817 454.42 361.538H455.593C455.527 361.989 455.363 362.395 455.101 362.756C454.842 363.114 454.499 363.399 454.072 363.612C453.648 363.82 453.154 363.925 452.59 363.925ZM460.257 363.925C459.567 363.925 458.962 363.761 458.442 363.433C457.925 363.104 457.521 362.645 457.229 362.055C456.941 361.465 456.796 360.776 456.796 359.987C456.796 359.192 456.941 358.497 457.229 357.904C457.521 357.311 457.925 356.85 458.442 356.522C458.962 356.194 459.567 356.03 460.257 356.03C460.946 356.03 461.549 356.194 462.066 356.522C462.587 356.85 462.991 357.311 463.279 357.904C463.571 358.497 463.717 359.192 463.717 359.987C463.717 360.776 463.571 361.465 463.279 362.055C462.991 362.645 462.587 363.104 462.066 363.433C461.549 363.761 460.946 363.925 460.257 363.925ZM460.257 362.871C460.78 362.871 461.211 362.737 461.549 362.468C461.887 362.2 462.138 361.847 462.3 361.409C462.462 360.972 462.544 360.498 462.544 359.987C462.544 359.477 462.462 359.001 462.3 358.56C462.138 358.12 461.887 357.763 461.549 357.491C461.211 357.22 460.78 357.084 460.257 357.084C459.733 357.084 459.302 357.22 458.964 357.491C458.626 357.763 458.376 358.12 458.213 358.56C458.051 359.001 457.97 359.477 457.97 359.987C457.97 360.498 458.051 360.972 458.213 361.409C458.376 361.847 458.626 362.2 458.964 362.468C459.302 362.737 459.733 362.871 460.257 362.871ZM466.527 359.172V363.766H465.354V356.129H466.487V357.322H466.587C466.766 356.935 467.038 356.623 467.402 356.388C467.767 356.149 468.237 356.03 468.814 356.03C469.331 356.03 469.784 356.136 470.171 356.348C470.559 356.557 470.861 356.875 471.076 357.303C471.292 357.727 471.399 358.264 471.399 358.913V363.766H470.226V358.993C470.226 358.393 470.07 357.926 469.759 357.591C469.447 357.253 469.02 357.084 468.476 357.084C468.101 357.084 467.767 357.165 467.472 357.327C467.18 357.49 466.95 357.727 466.781 358.038C466.612 358.35 466.527 358.728 466.527 359.172ZM476.71 356.129V357.124H472.753V356.129H476.71ZM473.906 354.3H475.08V361.578C475.08 361.91 475.128 362.158 475.224 362.324C475.323 362.486 475.449 362.596 475.602 362.652C475.757 362.705 475.921 362.732 476.094 362.732C476.223 362.732 476.329 362.725 476.412 362.712C476.495 362.695 476.561 362.682 476.611 362.672L476.85 363.726C476.77 363.756 476.659 363.786 476.516 363.815C476.374 363.848 476.193 363.865 475.975 363.865C475.643 363.865 475.318 363.794 475 363.651C474.685 363.509 474.423 363.292 474.215 363C474.009 362.708 473.906 362.34 473.906 361.896V354.3ZM480.568 363.945C480.084 363.945 479.645 363.853 479.251 363.671C478.857 363.486 478.543 363.219 478.311 362.871C478.079 362.519 477.963 362.095 477.963 361.598C477.963 361.161 478.049 360.806 478.222 360.534C478.394 360.259 478.625 360.044 478.913 359.888C479.201 359.732 479.519 359.616 479.867 359.54C480.219 359.46 480.572 359.397 480.926 359.351C481.39 359.291 481.767 359.246 482.055 359.217C482.347 359.183 482.559 359.129 482.691 359.053C482.827 358.976 482.895 358.844 482.895 358.655V358.615C482.895 358.125 482.761 357.743 482.492 357.472C482.227 357.2 481.825 357.064 481.284 357.064C480.724 357.064 480.285 357.187 479.967 357.432C479.649 357.677 479.425 357.939 479.296 358.217L478.182 357.82C478.381 357.356 478.646 356.994 478.977 356.736C479.312 356.474 479.677 356.292 480.071 356.189C480.469 356.083 480.86 356.03 481.245 356.03C481.49 356.03 481.772 356.06 482.09 356.119C482.411 356.176 482.721 356.293 483.019 356.472C483.321 356.651 483.571 356.921 483.77 357.283C483.969 357.644 484.068 358.128 484.068 358.734V363.766H482.895V362.732H482.835C482.756 362.897 482.623 363.075 482.438 363.263C482.252 363.452 482.005 363.613 481.697 363.746C481.389 363.878 481.013 363.945 480.568 363.945ZM480.747 362.891C481.211 362.891 481.602 362.799 481.921 362.617C482.242 362.435 482.484 362.2 482.647 361.911C482.812 361.623 482.895 361.32 482.895 361.001V359.928C482.845 359.987 482.736 360.042 482.567 360.092C482.401 360.138 482.209 360.179 481.99 360.216C481.775 360.249 481.564 360.279 481.359 360.305C481.157 360.329 480.993 360.348 480.867 360.365C480.562 360.405 480.277 360.469 480.012 360.559C479.75 360.645 479.538 360.776 479.375 360.952C479.216 361.124 479.137 361.359 479.137 361.658C479.137 362.065 479.287 362.374 479.589 362.582C479.894 362.788 480.28 362.891 480.747 362.891ZM489.158 363.925C488.442 363.925 487.826 363.756 487.309 363.418C486.792 363.08 486.394 362.614 486.116 362.021C485.837 361.427 485.698 360.75 485.698 359.987C485.698 359.212 485.84 358.527 486.126 357.934C486.414 357.337 486.815 356.872 487.329 356.537C487.846 356.199 488.449 356.03 489.138 356.03C489.675 356.03 490.159 356.129 490.59 356.328C491.021 356.527 491.374 356.805 491.649 357.163C491.924 357.521 492.095 357.939 492.161 358.416H490.988C490.898 358.068 490.699 357.76 490.391 357.491C490.086 357.22 489.675 357.084 489.158 357.084C488.701 357.084 488.3 357.203 487.955 357.442C487.614 357.677 487.347 358.01 487.155 358.441C486.966 358.869 486.871 359.371 486.871 359.947C486.871 360.537 486.964 361.051 487.15 361.489C487.339 361.926 487.604 362.266 487.945 362.508C488.29 362.75 488.694 362.871 489.158 362.871C489.463 362.871 489.74 362.818 489.988 362.712C490.237 362.606 490.447 362.453 490.62 362.254C490.792 362.055 490.915 361.817 490.988 361.538H492.161C492.095 361.989 491.931 362.395 491.669 362.756C491.41 363.114 491.067 363.399 490.64 363.612C490.215 363.82 489.722 363.925 489.158 363.925ZM497.043 356.129V357.124H493.086V356.129H497.043ZM494.239 354.3H495.413V361.578C495.413 361.91 495.461 362.158 495.557 362.324C495.656 362.486 495.782 362.596 495.935 362.652C496.09 362.705 496.254 362.732 496.427 362.732C496.556 362.732 496.662 362.725 496.745 362.712C496.828 362.695 496.894 362.682 496.944 362.672L497.182 363.726C497.103 363.756 496.992 363.786 496.849 363.815C496.707 363.848 496.526 363.865 496.307 363.865C495.976 363.865 495.651 363.794 495.333 363.651C495.018 363.509 494.756 363.292 494.548 363C494.342 362.708 494.239 362.34 494.239 361.896V354.3ZM500.185 360.902V360.842C500.192 360.209 500.258 359.705 500.384 359.331C500.51 358.956 500.689 358.653 500.921 358.421C501.153 358.189 501.432 357.975 501.756 357.78C501.952 357.661 502.128 357.52 502.283 357.357C502.439 357.192 502.562 357.001 502.651 356.786C502.744 356.57 502.791 356.331 502.791 356.07C502.791 355.745 502.714 355.463 502.562 355.224C502.409 354.986 502.206 354.802 501.95 354.673C501.695 354.543 501.412 354.479 501.1 354.479C500.828 354.479 500.567 354.535 500.315 354.648C500.063 354.76 499.852 354.938 499.683 355.18C499.514 355.422 499.416 355.738 499.39 356.129H498.137C498.164 355.566 498.309 355.084 498.575 354.683C498.843 354.281 499.196 353.975 499.634 353.763C500.074 353.551 500.563 353.445 501.1 353.445C501.684 353.445 502.191 353.561 502.621 353.793C503.056 354.025 503.39 354.343 503.626 354.747C503.864 355.152 503.984 355.612 503.984 356.129C503.984 356.494 503.927 356.824 503.815 357.119C503.705 357.414 503.546 357.677 503.337 357.909C503.132 358.141 502.883 358.347 502.592 358.526C502.3 358.708 502.066 358.9 501.891 359.102C501.715 359.301 501.587 359.538 501.508 359.813C501.428 360.088 501.385 360.431 501.379 360.842V360.902H500.185ZM500.822 363.845C500.577 363.845 500.366 363.757 500.19 363.582C500.015 363.406 499.927 363.196 499.927 362.95C499.927 362.705 500.015 362.495 500.19 362.319C500.366 362.143 500.577 362.055 500.822 362.055C501.067 362.055 501.277 362.143 501.453 362.319C501.629 362.495 501.717 362.705 501.717 362.95C501.717 363.113 501.675 363.262 501.592 363.398C501.513 363.534 501.405 363.643 501.269 363.726C501.137 363.805 500.987 363.845 500.822 363.845Z" fill="white"/>
<ellipse cx="678.824" cy="347.912" rx="54.4138" ry="55.3207" fill="#155A32"/>
<path d="M662.346 341.591L667.418 330.391H669.002L674.09 341.591H672.41L667.882 331.287H668.522L663.994 341.591H662.346ZM664.506 338.791L664.938 337.511H671.242L671.706 338.791H664.506ZM678.786 341.687C677.965 341.687 677.229 341.506 676.578 341.143C675.938 340.781 675.432 340.274 675.058 339.623C674.685 338.973 674.498 338.215 674.498 337.351C674.498 336.487 674.685 335.735 675.058 335.095C675.432 334.445 675.938 333.938 676.578 333.575C677.229 333.213 677.965 333.031 678.786 333.031C679.501 333.031 680.146 333.191 680.722 333.511C681.298 333.831 681.757 334.311 682.098 334.951C682.45 335.591 682.626 336.391 682.626 337.351C682.626 338.311 682.456 339.111 682.114 339.751C681.784 340.391 681.33 340.877 680.754 341.207C680.178 341.527 679.522 341.687 678.786 341.687ZM678.914 340.343C679.448 340.343 679.928 340.221 680.354 339.975C680.792 339.73 681.133 339.383 681.378 338.935C681.634 338.477 681.762 337.949 681.762 337.351C681.762 336.743 681.634 336.221 681.378 335.783C681.133 335.335 680.792 334.989 680.354 334.743C679.928 334.498 679.448 334.375 678.914 334.375C678.37 334.375 677.885 334.498 677.458 334.743C677.032 334.989 676.69 335.335 676.434 335.783C676.178 336.221 676.05 336.743 676.05 337.351C676.05 337.949 676.178 338.477 676.434 338.935C676.69 339.383 677.032 339.73 677.458 339.975C677.885 340.221 678.37 340.343 678.914 340.343ZM681.81 341.591V339.303L681.906 337.335L681.746 335.367V329.719H683.282V341.591H681.81ZM689.517 341.687C688.695 341.687 687.959 341.506 687.309 341.143C686.669 340.781 686.162 340.274 685.789 339.623C685.415 338.973 685.229 338.215 685.229 337.351C685.229 336.487 685.415 335.735 685.789 335.095C686.162 334.445 686.669 333.938 687.309 333.575C687.959 333.213 688.695 333.031 689.517 333.031C690.231 333.031 690.877 333.191 691.453 333.511C692.029 333.831 692.487 334.311 692.829 334.951C693.181 335.591 693.357 336.391 693.357 337.351C693.357 338.311 693.186 339.111 692.845 339.751C692.514 340.391 692.061 340.877 691.485 341.207C690.909 341.527 690.253 341.687 689.517 341.687ZM689.645 340.343C690.178 340.343 690.658 340.221 691.085 339.975C691.522 339.73 691.863 339.383 692.109 338.935C692.365 338.477 692.493 337.949 692.493 337.351C692.493 336.743 692.365 336.221 692.109 335.783C691.863 335.335 691.522 334.989 691.085 334.743C690.658 334.498 690.178 334.375 689.645 334.375C689.101 334.375 688.615 334.498 688.189 334.743C687.762 334.989 687.421 335.335 687.165 335.783C686.909 336.221 686.781 336.743 686.781 337.351C686.781 337.949 686.909 338.477 687.165 338.935C687.421 339.383 687.762 339.73 688.189 339.975C688.615 340.221 689.101 340.343 689.645 340.343ZM692.541 341.591V339.303L692.637 337.335L692.477 335.367V329.719H694.013V341.591H692.541ZM655.891 357.031C656.573 357.031 657.176 357.165 657.699 357.431C658.221 357.698 658.627 358.103 658.915 358.647C659.213 359.191 659.363 359.879 659.363 360.711V365.591H657.827V360.887C657.827 360.066 657.635 359.447 657.251 359.031C656.867 358.615 656.328 358.407 655.635 358.407C655.123 358.407 654.675 358.514 654.291 358.727C653.907 358.941 653.608 359.255 653.395 359.671C653.192 360.087 653.091 360.605 653.091 361.223V365.591H651.555V360.887C651.555 360.066 651.363 359.447 650.979 359.031C650.605 358.615 650.067 358.407 649.363 358.407C648.861 358.407 648.419 358.514 648.035 358.727C647.651 358.941 647.352 359.255 647.139 359.671C646.925 360.087 646.819 360.605 646.819 361.223V365.591H645.283V357.111H646.755V359.367L646.515 358.791C646.781 358.237 647.192 357.805 647.747 357.495C648.301 357.186 648.947 357.031 649.683 357.031C650.493 357.031 651.192 357.234 651.779 357.639C652.365 358.034 652.749 358.637 652.931 359.447L652.307 359.191C652.563 358.541 653.011 358.018 653.651 357.623C654.291 357.229 655.037 357.031 655.891 357.031ZM665.789 365.687C664.882 365.687 664.082 365.501 663.389 365.127C662.706 364.754 662.173 364.242 661.789 363.591C661.416 362.941 661.229 362.194 661.229 361.351C661.229 360.509 661.41 359.762 661.773 359.111C662.146 358.461 662.653 357.954 663.293 357.591C663.944 357.218 664.674 357.031 665.485 357.031C666.306 357.031 667.032 357.213 667.661 357.575C668.29 357.938 668.781 358.45 669.133 359.111C669.496 359.762 669.677 360.525 669.677 361.399C669.677 361.463 669.672 361.538 669.661 361.623C669.661 361.709 669.656 361.789 669.645 361.863H662.429V360.759H668.845L668.221 361.143C668.232 360.599 668.12 360.114 667.885 359.687C667.65 359.261 667.325 358.93 666.909 358.695C666.504 358.45 666.029 358.327 665.485 358.327C664.952 358.327 664.477 358.45 664.061 358.695C663.645 358.93 663.32 359.266 663.085 359.703C662.85 360.13 662.733 360.621 662.733 361.175V361.431C662.733 361.997 662.861 362.503 663.117 362.951C663.384 363.389 663.752 363.73 664.221 363.975C664.69 364.221 665.229 364.343 665.837 364.343C666.338 364.343 666.792 364.258 667.197 364.087C667.613 363.917 667.976 363.661 668.285 363.319L669.133 364.311C668.749 364.759 668.269 365.101 667.693 365.335C667.128 365.57 666.493 365.687 665.789 365.687ZM682.242 357.031C682.925 357.031 683.527 357.165 684.05 357.431C684.573 357.698 684.978 358.103 685.266 358.647C685.565 359.191 685.714 359.879 685.714 360.711V365.591H684.178V360.887C684.178 360.066 683.986 359.447 683.602 359.031C683.218 358.615 682.679 358.407 681.986 358.407C681.474 358.407 681.026 358.514 680.642 358.727C680.258 358.941 679.959 359.255 679.746 359.671C679.543 360.087 679.442 360.605 679.442 361.223V365.591H677.906V360.887C677.906 360.066 677.714 359.447 677.33 359.031C676.957 358.615 676.418 358.407 675.714 358.407C675.213 358.407 674.77 358.514 674.386 358.727C674.002 358.941 673.703 359.255 673.49 359.671C673.277 360.087 673.17 360.605 673.17 361.223V365.591H671.634V357.111H673.106V359.367L672.866 358.791C673.133 358.237 673.543 357.805 674.098 357.495C674.653 357.186 675.298 357.031 676.034 357.031C676.845 357.031 677.543 357.234 678.13 357.639C678.717 358.034 679.101 358.637 679.282 359.447L678.658 359.191C678.914 358.541 679.362 358.018 680.002 357.623C680.642 357.229 681.389 357.031 682.242 357.031ZM692.86 365.687C692.135 365.687 691.479 365.527 690.892 365.207C690.316 364.877 689.857 364.391 689.516 363.751C689.185 363.111 689.02 362.311 689.02 361.351C689.02 360.391 689.191 359.591 689.532 358.951C689.884 358.311 690.348 357.831 690.924 357.511C691.511 357.191 692.156 357.031 692.86 357.031C693.692 357.031 694.428 357.213 695.068 357.575C695.708 357.938 696.215 358.445 696.588 359.095C696.961 359.735 697.148 360.487 697.148 361.351C697.148 362.215 696.961 362.973 696.588 363.623C696.215 364.274 695.708 364.781 695.068 365.143C694.428 365.506 693.692 365.687 692.86 365.687ZM688.364 365.591V353.719H689.9V359.367L689.74 361.335L689.836 363.303V365.591H688.364ZM692.732 364.343C693.276 364.343 693.761 364.221 694.188 363.975C694.625 363.73 694.967 363.383 695.212 362.935C695.468 362.477 695.596 361.949 695.596 361.351C695.596 360.743 695.468 360.221 695.212 359.783C694.967 359.335 694.625 358.989 694.188 358.743C693.761 358.498 693.276 358.375 692.732 358.375C692.199 358.375 691.713 358.498 691.276 358.743C690.849 358.989 690.508 359.335 690.252 359.783C690.007 360.221 689.884 360.743 689.884 361.351C689.884 361.949 690.007 362.477 690.252 362.935C690.508 363.383 690.849 363.73 691.276 363.975C691.713 364.221 692.199 364.343 692.732 364.343ZM702.87 365.687C701.964 365.687 701.164 365.501 700.47 365.127C699.788 364.754 699.254 364.242 698.87 363.591C698.497 362.941 698.31 362.194 698.31 361.351C698.31 360.509 698.492 359.762 698.854 359.111C699.228 358.461 699.734 357.954 700.374 357.591C701.025 357.218 701.756 357.031 702.566 357.031C703.388 357.031 704.113 357.213 704.742 357.575C705.372 357.938 705.862 358.45 706.214 359.111C706.577 359.762 706.758 360.525 706.758 361.399C706.758 361.463 706.753 361.538 706.742 361.623C706.742 361.709 706.737 361.789 706.726 361.863H699.51V360.759H705.926L705.302 361.143C705.313 360.599 705.201 360.114 704.966 359.687C704.732 359.261 704.406 358.93 703.99 358.695C703.585 358.45 703.11 358.327 702.566 358.327C702.033 358.327 701.558 358.45 701.142 358.695C700.726 358.93 700.401 359.266 700.166 359.703C699.932 360.13 699.814 360.621 699.814 361.175V361.431C699.814 361.997 699.942 362.503 700.198 362.951C700.465 363.389 700.833 363.73 701.302 363.975C701.772 364.221 702.31 364.343 702.918 364.343C703.42 364.343 703.873 364.258 704.278 364.087C704.694 363.917 705.057 363.661 705.366 363.319L706.214 364.311C705.83 364.759 705.35 365.101 704.774 365.335C704.209 365.57 703.574 365.687 702.87 365.687ZM708.715 365.591V357.111H710.187V359.415L710.043 358.839C710.278 358.253 710.673 357.805 711.227 357.495C711.782 357.186 712.465 357.031 713.275 357.031V358.519C713.211 358.509 713.147 358.503 713.083 358.503C713.03 358.503 712.977 358.503 712.923 358.503C712.102 358.503 711.451 358.749 710.971 359.239C710.491 359.73 710.251 360.439 710.251 361.367V365.591H708.715Z" fill="white"/>
<rect x="432" y="32" width="135" height="55" rx="3" fill="#676827"/>
<path d="M449.776 66H447.913L452.1 54.3636H454.129L458.316 66H456.452L453.163 56.4773H453.072L449.776 66ZM450.089 61.4432H456.134V62.9205H450.089V61.4432ZM462.81 66.1705C462.106 66.1705 461.477 65.9905 460.924 65.6307C460.375 65.267 459.943 64.75 459.629 64.0795C459.318 63.4053 459.163 62.5966 459.163 61.6534C459.163 60.7102 459.32 59.9034 459.634 59.233C459.953 58.5625 460.388 58.0492 460.941 57.6932C461.494 57.3371 462.121 57.1591 462.822 57.1591C463.363 57.1591 463.799 57.25 464.129 57.4318C464.462 57.6098 464.72 57.8182 464.901 58.0568C465.087 58.2955 465.231 58.5057 465.333 58.6875H465.435V54.3636H467.134V66H465.475V64.642H465.333C465.231 64.8277 465.083 65.0398 464.89 65.2784C464.701 65.517 464.439 65.7254 464.106 65.9034C463.773 66.0814 463.341 66.1705 462.81 66.1705ZM463.185 64.7216C463.674 64.7216 464.087 64.5928 464.424 64.3352C464.765 64.0739 465.023 63.7121 465.197 63.25C465.375 62.7879 465.464 62.25 465.464 61.6364C465.464 61.0303 465.377 60.5 465.203 60.0455C465.028 59.5909 464.773 59.2367 464.435 58.983C464.098 58.7292 463.682 58.6023 463.185 58.6023C462.674 58.6023 462.248 58.7348 461.907 59C461.566 59.2652 461.309 59.6269 461.134 60.0852C460.964 60.5436 460.879 61.0606 460.879 61.6364C460.879 62.2197 460.966 62.7443 461.14 63.2102C461.314 63.6761 461.572 64.0455 461.913 64.3182C462.257 64.5871 462.682 64.7216 463.185 64.7216ZM472.65 66.1705C471.946 66.1705 471.317 65.9905 470.764 65.6307C470.214 65.267 469.783 64.75 469.468 64.0795C469.158 63.4053 469.002 62.5966 469.002 61.6534C469.002 60.7102 469.16 59.9034 469.474 59.233C469.792 58.5625 470.228 58.0492 470.781 57.6932C471.334 57.3371 471.961 57.1591 472.661 57.1591C473.203 57.1591 473.639 57.25 473.968 57.4318C474.302 57.6098 474.559 57.8182 474.741 58.0568C474.927 58.2955 475.071 58.5057 475.173 58.6875H475.275V54.3636H476.974V66H475.315V64.642H475.173C475.071 64.8277 474.923 65.0398 474.73 65.2784C474.54 65.517 474.279 65.7254 473.946 65.9034C473.612 66.0814 473.18 66.1705 472.65 66.1705ZM473.025 64.7216C473.514 64.7216 473.927 64.5928 474.264 64.3352C474.605 64.0739 474.862 63.7121 475.036 63.25C475.214 62.7879 475.303 62.25 475.303 61.6364C475.303 61.0303 475.216 60.5 475.042 60.0455C474.868 59.5909 474.612 59.2367 474.275 58.983C473.938 58.7292 473.521 58.6023 473.025 58.6023C472.514 58.6023 472.088 58.7348 471.747 59C471.406 59.2652 471.148 59.6269 470.974 60.0852C470.803 60.5436 470.718 61.0606 470.718 61.6364C470.718 62.2197 470.805 62.7443 470.98 63.2102C471.154 63.6761 471.411 64.0455 471.752 64.3182C472.097 64.5871 472.521 64.7216 473.025 64.7216ZM479.223 66V57.2727H480.865V58.6591H480.956C481.115 58.1894 481.395 57.8201 481.797 57.5511C482.202 57.2784 482.66 57.142 483.172 57.142C483.278 57.142 483.403 57.1458 483.547 57.1534C483.694 57.161 483.81 57.1705 483.893 57.1818V58.8068C483.825 58.7879 483.704 58.767 483.529 58.7443C483.355 58.7178 483.181 58.7045 483.007 58.7045C482.605 58.7045 482.247 58.7898 481.933 58.9602C481.622 59.1269 481.376 59.3598 481.194 59.6591C481.012 59.9545 480.922 60.2917 480.922 60.6705V66H479.223ZM488.636 66.1761C487.776 66.1761 487.036 65.9924 486.415 65.625C485.797 65.2538 485.32 64.733 484.983 64.0625C484.649 63.3883 484.483 62.5985 484.483 61.6932C484.483 60.7992 484.649 60.0114 484.983 59.3295C485.32 58.6477 485.79 58.1155 486.392 57.733C486.998 57.3504 487.706 57.1591 488.517 57.1591C489.009 57.1591 489.487 57.2405 489.949 57.4034C490.411 57.5663 490.826 57.822 491.193 58.1705C491.56 58.5189 491.85 58.9716 492.062 59.5284C492.274 60.0814 492.38 60.7538 492.38 61.5455V62.1477H485.443V60.875H490.716C490.716 60.428 490.625 60.0322 490.443 59.6875C490.261 59.339 490.005 59.0644 489.676 58.8636C489.35 58.6629 488.968 58.5625 488.528 58.5625C488.051 58.5625 487.634 58.6799 487.278 58.9148C486.926 59.1458 486.653 59.4489 486.46 59.8239C486.271 60.1951 486.176 60.5985 486.176 61.0341V62.0284C486.176 62.6117 486.278 63.108 486.483 63.517C486.691 63.9261 486.981 64.2386 487.352 64.4545C487.723 64.6667 488.157 64.7727 488.653 64.7727C488.975 64.7727 489.269 64.7273 489.534 64.6364C489.799 64.5417 490.028 64.4015 490.221 64.2159C490.415 64.0303 490.562 63.8011 490.665 63.5284L492.273 63.8182C492.144 64.2917 491.913 64.7064 491.579 65.0625C491.25 65.4148 490.835 65.6894 490.335 65.8864C489.839 66.0795 489.273 66.1761 488.636 66.1761ZM500.629 59.4034L499.089 59.6761C499.025 59.4792 498.923 59.2917 498.783 59.1136C498.646 58.9356 498.461 58.7898 498.226 58.6761C497.991 58.5625 497.697 58.5057 497.345 58.5057C496.864 58.5057 496.463 58.6136 496.141 58.8295C495.819 59.0417 495.658 59.3163 495.658 59.6534C495.658 59.9451 495.766 60.1799 495.981 60.358C496.197 60.536 496.546 60.6818 497.027 60.7955L498.413 61.1136C499.216 61.2992 499.815 61.5852 500.209 61.9716C500.603 62.358 500.8 62.8598 500.8 63.4773C500.8 64 500.648 64.4659 500.345 64.875C500.046 65.2803 499.627 65.5985 499.089 65.8295C498.555 66.0606 497.936 66.1761 497.231 66.1761C496.254 66.1761 495.457 65.9678 494.839 65.5511C494.222 65.1307 493.843 64.5341 493.703 63.7614L495.345 63.5114C495.447 63.9394 495.658 64.2633 495.976 64.483C496.294 64.6989 496.709 64.8068 497.22 64.8068C497.777 64.8068 498.222 64.6913 498.555 64.4602C498.889 64.2254 499.055 63.9394 499.055 63.6023C499.055 63.3295 498.953 63.1004 498.749 62.9148C498.548 62.7292 498.239 62.589 497.822 62.4943L496.345 62.1705C495.531 61.9848 494.928 61.6894 494.538 61.2841C494.152 60.8788 493.959 60.3655 493.959 59.7443C493.959 59.2292 494.103 58.7784 494.391 58.392C494.678 58.0057 495.076 57.7045 495.584 57.4886C496.091 57.2689 496.673 57.1591 497.328 57.1591C498.271 57.1591 499.014 57.3636 499.555 57.7727C500.097 58.178 500.455 58.7216 500.629 59.4034ZM509.031 59.4034L507.492 59.6761C507.427 59.4792 507.325 59.2917 507.185 59.1136C507.048 58.9356 506.863 58.7898 506.628 58.6761C506.393 58.5625 506.099 58.5057 505.747 58.5057C505.266 58.5057 504.865 58.6136 504.543 58.8295C504.221 59.0417 504.06 59.3163 504.06 59.6534C504.06 59.9451 504.168 60.1799 504.384 60.358C504.599 60.536 504.948 60.6818 505.429 60.7955L506.815 61.1136C507.618 61.2992 508.217 61.5852 508.611 61.9716C509.005 62.358 509.202 62.8598 509.202 63.4773C509.202 64 509.05 64.4659 508.747 64.875C508.448 65.2803 508.029 65.5985 507.492 65.8295C506.957 66.0606 506.338 66.1761 505.634 66.1761C504.656 66.1761 503.859 65.9678 503.242 65.5511C502.624 65.1307 502.245 64.5341 502.105 63.7614L503.747 63.5114C503.849 63.9394 504.06 64.2633 504.378 64.483C504.696 64.6989 505.111 64.8068 505.622 64.8068C506.179 64.8068 506.624 64.6913 506.957 64.4602C507.291 64.2254 507.457 63.9394 507.457 63.6023C507.457 63.3295 507.355 63.1004 507.151 62.9148C506.95 62.7292 506.641 62.589 506.224 62.4943L504.747 62.1705C503.933 61.9848 503.331 61.6894 502.94 61.2841C502.554 60.8788 502.361 60.3655 502.361 59.7443C502.361 59.2292 502.505 58.7784 502.793 58.392C503.081 58.0057 503.478 57.7045 503.986 57.4886C504.493 57.2689 505.075 57.1591 505.73 57.1591C506.673 57.1591 507.416 57.3636 507.957 57.7727C508.499 58.178 508.857 58.7216 509.031 59.4034ZM515.088 66V54.3636H516.787V58.6875H516.89C516.988 58.5057 517.13 58.2955 517.316 58.0568C517.501 57.8182 517.759 57.6098 518.088 57.4318C518.418 57.25 518.854 57.1591 519.395 57.1591C520.1 57.1591 520.729 57.3371 521.282 57.6932C521.835 58.0492 522.268 58.5625 522.583 59.233C522.901 59.9034 523.06 60.7102 523.06 61.6534C523.06 62.5966 522.903 63.4053 522.588 64.0795C522.274 64.75 521.842 65.267 521.293 65.6307C520.744 65.9905 520.117 66.1705 519.412 66.1705C518.882 66.1705 518.448 66.0814 518.111 65.9034C517.778 65.7254 517.516 65.517 517.327 65.2784C517.138 65.0398 516.992 64.8277 516.89 64.642H516.747V66H515.088ZM516.753 61.6364C516.753 62.25 516.842 62.7879 517.02 63.25C517.198 63.7121 517.456 64.0739 517.793 64.3352C518.13 64.5928 518.543 64.7216 519.032 64.7216C519.539 64.7216 519.963 64.5871 520.304 64.3182C520.645 64.0455 520.903 63.6761 521.077 63.2102C521.255 62.7443 521.344 62.2197 521.344 61.6364C521.344 61.0606 521.257 60.5436 521.083 60.0852C520.912 59.6269 520.655 59.2652 520.31 59C519.969 58.7348 519.543 58.6023 519.032 58.6023C518.539 58.6023 518.122 58.7292 517.782 58.983C517.444 59.2367 517.189 59.5909 517.015 60.0455C516.84 60.5 516.753 61.0303 516.753 61.6364ZM528.468 66.1761C527.65 66.1761 526.936 65.9886 526.326 65.6136C525.716 65.2386 525.242 64.714 524.905 64.0398C524.568 63.3655 524.4 62.5777 524.4 61.6761C524.4 60.7708 524.568 59.9792 524.905 59.3011C525.242 58.6231 525.716 58.0966 526.326 57.7216C526.936 57.3466 527.65 57.1591 528.468 57.1591C529.286 57.1591 530 57.3466 530.61 57.7216C531.22 58.0966 531.693 58.6231 532.03 59.3011C532.367 59.9792 532.536 60.7708 532.536 61.6761C532.536 62.5777 532.367 63.3655 532.03 64.0398C531.693 64.714 531.22 65.2386 530.61 65.6136C530 65.9886 529.286 66.1761 528.468 66.1761ZM528.473 64.75C529.004 64.75 529.443 64.6098 529.792 64.3295C530.14 64.0492 530.398 63.6761 530.564 63.2102C530.735 62.7443 530.82 62.2311 530.82 61.6705C530.82 61.1136 530.735 60.6023 530.564 60.1364C530.398 59.6667 530.14 59.2898 529.792 59.0057C529.443 58.7216 529.004 58.5795 528.473 58.5795C527.939 58.5795 527.496 58.7216 527.144 59.0057C526.795 59.2898 526.536 59.6667 526.366 60.1364C526.199 60.6023 526.116 61.1136 526.116 61.6705C526.116 62.2311 526.199 62.7443 526.366 63.2102C526.536 63.6761 526.795 64.0492 527.144 64.3295C527.496 64.6098 527.939 64.75 528.473 64.75ZM537.932 66.1761C537.114 66.1761 536.4 65.9886 535.79 65.6136C535.181 65.2386 534.707 64.714 534.37 64.0398C534.033 63.3655 533.864 62.5777 533.864 61.6761C533.864 60.7708 534.033 59.9792 534.37 59.3011C534.707 58.6231 535.181 58.0966 535.79 57.7216C536.4 57.3466 537.114 57.1591 537.932 57.1591C538.751 57.1591 539.465 57.3466 540.074 57.7216C540.684 58.0966 541.158 58.6231 541.495 59.3011C541.832 59.9792 542.001 60.7708 542.001 61.6761C542.001 62.5777 541.832 63.3655 541.495 64.0398C541.158 64.714 540.684 65.2386 540.074 65.6136C539.465 65.9886 538.751 66.1761 537.932 66.1761ZM537.938 64.75C538.468 64.75 538.908 64.6098 539.256 64.3295C539.605 64.0492 539.862 63.6761 540.029 63.2102C540.199 62.7443 540.285 62.2311 540.285 61.6705C540.285 61.1136 540.199 60.6023 540.029 60.1364C539.862 59.6667 539.605 59.2898 539.256 59.0057C538.908 58.7216 538.468 58.5795 537.938 58.5795C537.404 58.5795 536.961 58.7216 536.609 59.0057C536.26 59.2898 536.001 59.6667 535.83 60.1364C535.663 60.6023 535.58 61.1136 535.58 61.6705C535.58 62.2311 535.663 62.7443 535.83 63.2102C536.001 63.6761 536.26 64.0492 536.609 64.3295C536.961 64.6098 537.404 64.75 537.938 64.75ZM545.283 63.0398L545.272 60.9659H545.568L549.045 57.2727H551.079L547.113 61.4773H546.846L545.283 63.0398ZM543.721 66V54.3636H545.42V66H543.721ZM549.232 66L546.107 61.8523L547.278 60.6648L551.318 66H549.232Z" fill="white"/>
<path d="M550.83 346.412C550.001 346.412 549.33 347.084 549.33 347.912C549.33 348.74 550.001 349.412 550.83 349.412V346.412ZM564.111 349.412C564.94 349.412 565.611 348.74 565.611 347.912C565.611 347.084 564.94 346.412 564.111 346.412V349.412ZM608.111 346.412C607.283 346.412 606.611 347.084 606.611 347.912C606.611 348.74 607.283 349.412 608.111 349.412V346.412ZM621.471 348.973C622.057 348.387 622.057 347.437 621.471 346.851L611.925 337.305C611.339 336.72 610.39 336.72 609.804 337.305C609.218 337.891 609.218 338.841 609.804 339.427L618.289 347.912L609.804 356.397C609.218 356.983 609.218 357.933 609.804 358.519C610.39 359.104 611.339 359.104 611.925 358.519L621.471 348.973ZM550.83 349.412H564.111V346.412H550.83V349.412ZM608.111 349.412H620.411V346.412H608.111V349.412Z" fill="#85E0A3"/>
<rect width="44" height="40" transform="translate(564.111 327.912)" fill="#85E0A3"/>
<path d="M572.925 342.276H574.92L577.959 347.565H578.084L581.124 342.276H583.119L578.897 349.344V353.912H577.147V349.344L572.925 342.276ZM586.788 354.088C585.928 354.088 585.187 353.904 584.566 353.537C583.949 353.166 583.471 352.645 583.134 351.974C582.801 351.3 582.634 350.51 582.634 349.605C582.634 348.711 582.801 347.923 583.134 347.242C583.471 346.56 583.941 346.028 584.543 345.645C585.149 345.262 585.858 345.071 586.668 345.071C587.161 345.071 587.638 345.153 588.1 345.315C588.562 345.478 588.977 345.734 589.345 346.082C589.712 346.431 590.002 346.884 590.214 347.44C590.426 347.993 590.532 348.666 590.532 349.457V350.06H583.595V348.787H588.867C588.867 348.34 588.776 347.944 588.595 347.599C588.413 347.251 588.157 346.976 587.827 346.776C587.502 346.575 587.119 346.474 586.68 346.474C586.202 346.474 585.786 346.592 585.43 346.827C585.077 347.058 584.805 347.361 584.612 347.736C584.422 348.107 584.327 348.51 584.327 348.946V349.94C584.327 350.524 584.43 351.02 584.634 351.429C584.843 351.838 585.132 352.151 585.504 352.367C585.875 352.579 586.309 352.685 586.805 352.685C587.127 352.685 587.42 352.639 587.685 352.548C587.951 352.454 588.18 352.314 588.373 352.128C588.566 351.942 588.714 351.713 588.816 351.44L590.424 351.73C590.295 352.204 590.064 352.618 589.731 352.974C589.401 353.327 588.987 353.601 588.487 353.798C587.99 353.992 587.424 354.088 586.788 354.088ZM598.781 347.315L597.241 347.588C597.177 347.391 597.074 347.204 596.934 347.026C596.798 346.848 596.612 346.702 596.377 346.588C596.142 346.474 595.849 346.418 595.497 346.418C595.016 346.418 594.614 346.526 594.292 346.742C593.97 346.954 593.809 347.228 593.809 347.565C593.809 347.857 593.917 348.092 594.133 348.27C594.349 348.448 594.697 348.594 595.178 348.707L596.565 349.026C597.368 349.211 597.966 349.497 598.36 349.884C598.754 350.27 598.951 350.772 598.951 351.389C598.951 351.912 598.8 352.378 598.497 352.787C598.197 353.192 597.779 353.51 597.241 353.742C596.707 353.973 596.088 354.088 595.383 354.088C594.406 354.088 593.608 353.88 592.991 353.463C592.374 353.043 591.995 352.446 591.855 351.673L593.497 351.423C593.599 351.851 593.809 352.175 594.127 352.395C594.445 352.611 594.86 352.719 595.372 352.719C595.928 352.719 596.374 352.603 596.707 352.372C597.04 352.137 597.207 351.851 597.207 351.514C597.207 351.242 597.105 351.012 596.9 350.827C596.699 350.641 596.391 350.501 595.974 350.406L594.497 350.082C593.682 349.897 593.08 349.601 592.69 349.196C592.303 348.791 592.11 348.278 592.11 347.656C592.11 347.141 592.254 346.69 592.542 346.304C592.83 345.918 593.228 345.617 593.735 345.401C594.243 345.181 594.824 345.071 595.48 345.071C596.423 345.071 597.165 345.276 597.707 345.685C598.249 346.09 598.606 346.634 598.781 347.315Z" fill="black"/>
<path d="M475.045 291.766C475.045 292.594 475.717 293.266 476.545 293.266C477.374 293.266 478.045 292.594 478.045 291.766H475.045ZM457.272 189.883C456.444 189.883 455.772 190.554 455.772 191.383C455.772 192.211 456.444 192.883 457.272 192.883V189.883ZM419.272 192.883C420.101 192.883 420.772 192.211 420.772 191.383C420.772 190.554 420.101 189.883 419.272 189.883V192.883ZM429.061 60.5607C429.646 59.9749 429.646 59.0251 429.061 58.4393L419.515 48.8934C418.929 48.3076 417.979 48.3076 417.393 48.8934C416.808 49.4792 416.808 50.4289 417.393 51.0147L425.879 59.5L417.393 67.9853C416.808 68.5711 416.808 69.5208 417.393 70.1066C417.979 70.6924 418.929 70.6924 419.515 70.1066L429.061 60.5607ZM478.045 291.766V210.656H475.045V291.766H478.045ZM401.5 172.11V83.5H398.5V172.11H401.5ZM424 61H428V58H424V61ZM401.5 83.5C401.5 71.0736 411.574 61 424 61V58C409.917 58 398.5 69.4167 398.5 83.5H401.5ZM419.272 189.883C409.457 189.883 401.5 181.926 401.5 172.11H398.5C398.5 183.583 407.8 192.883 419.272 192.883V189.883ZM478.045 210.656C478.045 199.183 468.745 189.883 457.272 189.883V192.883C467.088 192.883 475.045 200.84 475.045 210.656H478.045Z" fill="#85E0A3"/>
<rect width="38" height="40" transform="translate(419.272 171.383)" fill="#85E0A3"/>
<path d="M438.234 185.746V197.383H436.62L430.706 188.849H430.598V197.383H428.842V185.746H430.467L436.387 194.292H436.495V185.746H438.234ZM444.159 197.559C443.341 197.559 442.627 197.371 442.017 196.996C441.407 196.621 440.934 196.097 440.596 195.423C440.259 194.748 440.091 193.96 440.091 193.059C440.091 192.154 440.259 191.362 440.596 190.684C440.934 190.006 441.407 189.479 442.017 189.104C442.627 188.729 443.341 188.542 444.159 188.542C444.977 188.542 445.691 188.729 446.301 189.104C446.911 189.479 447.384 190.006 447.721 190.684C448.059 191.362 448.227 192.154 448.227 193.059C448.227 193.96 448.059 194.748 447.721 195.423C447.384 196.097 446.911 196.621 446.301 196.996C445.691 197.371 444.977 197.559 444.159 197.559ZM444.165 196.133C444.695 196.133 445.134 195.993 445.483 195.712C445.831 195.432 446.089 195.059 446.255 194.593C446.426 194.127 446.511 193.614 446.511 193.053C446.511 192.496 446.426 191.985 446.255 191.519C446.089 191.049 445.831 190.673 445.483 190.388C445.134 190.104 444.695 189.962 444.165 189.962C443.63 189.962 443.187 190.104 442.835 190.388C442.487 190.673 442.227 191.049 442.057 191.519C441.89 191.985 441.807 192.496 441.807 193.053C441.807 193.614 441.89 194.127 442.057 194.593C442.227 195.059 442.487 195.432 442.835 195.712C443.187 195.993 443.63 196.133 444.165 196.133Z" fill="black"/>
<ellipse cx="304.351" cy="70.8552" rx="52.6" ry="53.5069" fill="#155A32"/>
<path d="M292.071 65.4763C288.679 65.4763 286.151 63.0603 286.151 59.7483C286.151 56.4363 288.679 54.0203 292.087 54.0203C293.815 54.0203 295.319 54.6123 296.343 55.7643L295.303 56.7723C294.439 55.8603 293.383 55.4443 292.151 55.4443C289.623 55.4443 287.751 57.2683 287.751 59.7483C287.751 62.2283 289.623 64.0523 292.151 64.0523C293.383 64.0523 294.439 63.6203 295.303 62.7083L296.343 63.7163C295.319 64.8683 293.815 65.4763 292.071 65.4763ZM302.754 56.7883C304.818 56.7883 306.274 57.9723 306.274 60.4683V65.3483H304.738V60.6443C304.738 58.9803 303.906 58.1643 302.45 58.1643C300.818 58.1643 299.762 59.1403 299.762 60.9803V65.3483H298.226V53.4763H299.762V58.0683C300.402 57.2523 301.458 56.7883 302.754 56.7883ZM312.028 56.7883C314.348 56.7883 315.66 57.9083 315.66 60.2283V65.3483H314.204V64.2283C313.692 64.9963 312.748 65.4443 311.42 65.4443C309.5 65.4443 308.284 64.4203 308.284 62.9483C308.284 61.5883 309.164 60.4683 311.692 60.4683H314.124V60.1643C314.124 58.8683 313.372 58.1163 311.852 58.1163C310.844 58.1163 309.82 58.4683 309.164 59.0283L308.524 57.8763C309.404 57.1723 310.668 56.7883 312.028 56.7883ZM311.676 64.2603C312.828 64.2603 313.74 63.7323 314.124 62.7563V61.5723H311.756C310.236 61.5723 309.804 62.1643 309.804 62.8843C309.804 63.7323 310.508 64.2603 311.676 64.2603ZM322.615 63.7483L323.095 64.8523C322.631 65.2523 321.927 65.4443 321.239 65.4443C319.527 65.4443 318.551 64.5003 318.551 62.7883V58.1323H317.111V56.8683H318.551V55.0123H320.087V56.8683H322.519V58.1323H320.087V62.7243C320.087 63.6363 320.567 64.1483 321.415 64.1483C321.863 64.1483 322.295 64.0043 322.615 63.7483ZM285.747 82.2923C286.291 81.3003 287.347 80.7883 288.835 80.7883V82.2763C288.707 82.2603 288.595 82.2603 288.483 82.2603C286.835 82.2603 285.811 83.2683 285.811 85.1243V89.3483H284.275V80.8683H285.747V82.2923ZM294.106 89.4443C291.562 89.4443 289.69 87.6363 289.69 85.1083C289.69 82.5803 291.562 80.7883 294.106 80.7883C296.65 80.7883 298.506 82.5803 298.506 85.1083C298.506 87.6363 296.65 89.4443 294.106 89.4443ZM294.106 88.1003C295.738 88.1003 296.954 86.9163 296.954 85.1083C296.954 83.3003 295.738 82.1323 294.106 82.1323C292.474 82.1323 291.242 83.3003 291.242 85.1083C291.242 86.9163 292.474 88.1003 294.106 88.1003ZM304.086 89.4443C301.542 89.4443 299.67 87.6363 299.67 85.1083C299.67 82.5803 301.542 80.7883 304.086 80.7883C306.63 80.7883 308.486 82.5803 308.486 85.1083C308.486 87.6363 306.63 89.4443 304.086 89.4443ZM304.086 88.1003C305.718 88.1003 306.934 86.9163 306.934 85.1083C306.934 83.3003 305.718 82.1323 304.086 82.1323C302.454 82.1323 301.222 83.3003 301.222 85.1083C301.222 86.9163 302.454 88.1003 304.086 88.1003ZM321.042 80.7883C323.106 80.7883 324.514 81.9723 324.514 84.4683V89.3483H322.978V84.6443C322.978 82.9803 322.178 82.1643 320.786 82.1643C319.25 82.1643 318.242 83.1403 318.242 84.9803V89.3483H316.706V84.6443C316.706 82.9803 315.906 82.1643 314.514 82.1643C312.978 82.1643 311.97 83.1403 311.97 84.9803V89.3483H310.434V80.8683H311.906V82.1323C312.514 81.2683 313.554 80.7883 314.834 80.7883C316.13 80.7883 317.218 81.3003 317.778 82.3563C318.418 81.3963 319.602 80.7883 321.042 80.7883Z" fill="white"/>
<ellipse cx="304.351" cy="199.181" rx="52.6" ry="53.0534" fill="#155A32"/>
<path d="M278.216 181.256C277.363 181.256 276.547 181.128 275.768 180.872C274.99 180.605 274.376 180.264 273.928 179.848L274.52 178.6C274.947 178.973 275.491 179.282 276.152 179.528C276.814 179.773 277.502 179.896 278.216 179.896C278.867 179.896 279.395 179.821 279.8 179.672C280.206 179.522 280.504 179.32 280.696 179.064C280.888 178.797 280.984 178.498 280.984 178.168C280.984 177.784 280.856 177.474 280.6 177.24C280.355 177.005 280.03 176.818 279.624 176.68C279.23 176.53 278.792 176.402 278.312 176.296C277.832 176.189 277.347 176.066 276.856 175.928C276.376 175.778 275.934 175.592 275.528 175.368C275.134 175.144 274.814 174.845 274.568 174.472C274.323 174.088 274.2 173.597 274.2 173C274.2 172.424 274.35 171.896 274.648 171.416C274.958 170.925 275.427 170.536 276.056 170.248C276.696 169.949 277.507 169.8 278.488 169.8C279.139 169.8 279.784 169.885 280.424 170.056C281.064 170.226 281.619 170.472 282.088 170.792L281.56 172.072C281.08 171.752 280.574 171.522 280.04 171.384C279.507 171.234 278.99 171.16 278.488 171.16C277.859 171.16 277.342 171.24 276.936 171.4C276.531 171.56 276.232 171.773 276.04 172.04C275.859 172.306 275.768 172.605 275.768 172.936C275.768 173.33 275.891 173.645 276.136 173.88C276.392 174.114 276.718 174.301 277.112 174.44C277.518 174.578 277.96 174.706 278.44 174.824C278.92 174.93 279.4 175.053 279.88 175.192C280.371 175.33 280.814 175.512 281.208 175.736C281.614 175.96 281.939 176.258 282.184 176.632C282.43 177.005 282.552 177.485 282.552 178.072C282.552 178.637 282.398 179.165 282.088 179.656C281.779 180.136 281.299 180.525 280.648 180.824C280.008 181.112 279.198 181.256 278.216 181.256ZM288.986 181.224C288.282 181.224 287.636 181.064 287.05 180.744C286.474 180.413 286.01 179.928 285.658 179.288C285.316 178.648 285.146 177.848 285.146 176.888C285.146 175.928 285.311 175.128 285.642 174.488C285.983 173.848 286.442 173.368 287.018 173.048C287.604 172.728 288.26 172.568 288.986 172.568C289.818 172.568 290.554 172.749 291.194 173.112C291.834 173.474 292.34 173.981 292.714 174.632C293.087 175.272 293.274 176.024 293.274 176.888C293.274 177.752 293.087 178.509 292.714 179.16C292.34 179.81 291.834 180.317 291.194 180.68C290.554 181.042 289.818 181.224 288.986 181.224ZM284.49 184.232V172.648H285.962V174.936L285.866 176.904L286.026 178.872V184.232H284.49ZM288.858 179.88C289.402 179.88 289.887 179.757 290.314 179.512C290.751 179.266 291.092 178.92 291.338 178.472C291.594 178.013 291.722 177.485 291.722 176.888C291.722 176.28 291.594 175.757 291.338 175.32C291.092 174.872 290.751 174.525 290.314 174.28C289.887 174.034 289.402 173.912 288.858 173.912C288.324 173.912 287.839 174.034 287.402 174.28C286.975 174.525 286.634 174.872 286.378 175.32C286.132 175.757 286.01 176.28 286.01 176.888C286.01 177.485 286.132 178.013 286.378 178.472C286.634 178.92 286.975 179.266 287.402 179.512C287.839 179.757 288.324 179.88 288.858 179.88ZM298.996 181.224C298.089 181.224 297.289 181.037 296.596 180.664C295.913 180.29 295.38 179.778 294.996 179.128C294.623 178.477 294.436 177.73 294.436 176.888C294.436 176.045 294.617 175.298 294.98 174.648C295.353 173.997 295.86 173.49 296.5 173.128C297.151 172.754 297.881 172.568 298.692 172.568C299.513 172.568 300.239 172.749 300.868 173.112C301.497 173.474 301.988 173.986 302.34 174.648C302.703 175.298 302.884 176.061 302.884 176.936C302.884 177 302.879 177.074 302.868 177.16C302.868 177.245 302.863 177.325 302.852 177.4H295.636V176.296H302.052L301.428 176.68C301.439 176.136 301.327 175.65 301.092 175.224C300.857 174.797 300.532 174.466 300.116 174.232C299.711 173.986 299.236 173.864 298.692 173.864C298.159 173.864 297.684 173.986 297.268 174.232C296.852 174.466 296.527 174.802 296.292 175.24C296.057 175.666 295.94 176.157 295.94 176.712V176.968C295.94 177.533 296.068 178.04 296.324 178.488C296.591 178.925 296.959 179.266 297.428 179.512C297.897 179.757 298.436 179.88 299.044 179.88C299.545 179.88 299.999 179.794 300.404 179.624C300.82 179.453 301.183 179.197 301.492 178.856L302.34 179.848C301.956 180.296 301.476 180.637 300.9 180.872C300.335 181.106 299.7 181.224 298.996 181.224ZM308.537 181.224C307.673 181.224 306.9 181.037 306.217 180.664C305.545 180.29 305.017 179.778 304.633 179.128C304.249 178.477 304.057 177.73 304.057 176.888C304.057 176.045 304.249 175.298 304.633 174.648C305.017 173.997 305.545 173.49 306.217 173.128C306.9 172.754 307.673 172.568 308.537 172.568C309.305 172.568 309.988 172.722 310.585 173.032C311.193 173.33 311.662 173.778 311.993 174.376L310.825 175.128C310.548 174.712 310.206 174.408 309.801 174.216C309.406 174.013 308.98 173.912 308.521 173.912C307.966 173.912 307.47 174.034 307.033 174.28C306.596 174.525 306.249 174.872 305.993 175.32C305.737 175.757 305.609 176.28 305.609 176.888C305.609 177.496 305.737 178.024 305.993 178.472C306.249 178.92 306.596 179.266 307.033 179.512C307.47 179.757 307.966 179.88 308.521 179.88C308.98 179.88 309.406 179.784 309.801 179.592C310.206 179.389 310.548 179.08 310.825 178.664L311.993 179.4C311.662 179.986 311.193 180.44 310.585 180.76C309.988 181.069 309.305 181.224 308.537 181.224ZM313.696 181.128V172.648H315.232V181.128H313.696ZM314.464 171.016C314.165 171.016 313.915 170.92 313.712 170.728C313.52 170.536 313.424 170.301 313.424 170.024C313.424 169.736 313.52 169.496 313.712 169.304C313.915 169.112 314.165 169.016 314.464 169.016C314.763 169.016 315.008 169.112 315.2 169.304C315.403 169.485 315.504 169.714 315.504 169.992C315.504 170.28 315.408 170.525 315.216 170.728C315.024 170.92 314.773 171.016 314.464 171.016ZM318.213 181.128V171.896C318.213 171.064 318.453 170.402 318.933 169.912C319.424 169.41 320.117 169.16 321.013 169.16C321.344 169.16 321.658 169.202 321.957 169.288C322.266 169.362 322.528 169.485 322.741 169.656L322.277 170.824C322.117 170.696 321.936 170.6 321.733 170.536C321.53 170.461 321.317 170.424 321.093 170.424C320.645 170.424 320.304 170.552 320.069 170.808C319.834 171.053 319.717 171.421 319.717 171.912V173.048L319.749 173.752V181.128H318.213ZM316.773 173.912V172.648H322.181V173.912H316.773ZM323.637 181.128V172.648H325.173V181.128H323.637ZM324.405 171.016C324.106 171.016 323.856 170.92 323.653 170.728C323.461 170.536 323.365 170.301 323.365 170.024C323.365 169.736 323.461 169.496 323.653 169.304C323.856 169.112 324.106 169.016 324.405 169.016C324.704 169.016 324.949 169.112 325.141 169.304C325.344 169.485 325.445 169.714 325.445 169.992C325.445 170.28 325.349 170.525 325.157 170.728C324.965 170.92 324.714 171.016 324.405 171.016ZM331.618 181.224C330.754 181.224 329.981 181.037 329.298 180.664C328.626 180.29 328.098 179.778 327.714 179.128C327.33 178.477 327.138 177.73 327.138 176.888C327.138 176.045 327.33 175.298 327.714 174.648C328.098 173.997 328.626 173.49 329.298 173.128C329.981 172.754 330.754 172.568 331.618 172.568C332.386 172.568 333.069 172.722 333.666 173.032C334.274 173.33 334.744 173.778 335.074 174.376L333.906 175.128C333.629 174.712 333.288 174.408 332.882 174.216C332.488 174.013 332.061 173.912 331.602 173.912C331.048 173.912 330.552 174.034 330.114 174.28C329.677 174.525 329.33 174.872 329.074 175.32C328.818 175.757 328.69 176.28 328.69 176.888C328.69 177.496 328.818 178.024 329.074 178.472C329.33 178.92 329.677 179.266 330.114 179.512C330.552 179.757 331.048 179.88 331.602 179.88C332.061 179.88 332.488 179.784 332.882 179.592C333.288 179.389 333.629 179.08 333.906 178.664L335.074 179.4C334.744 179.986 334.274 180.44 333.666 180.76C333.069 181.069 332.386 181.224 331.618 181.224ZM290.93 205.224C290.226 205.224 289.554 205.128 288.914 204.936C288.284 204.744 287.788 204.509 287.426 204.232L288.066 203.016C288.428 203.261 288.876 203.469 289.41 203.64C289.943 203.81 290.487 203.896 291.042 203.896C291.756 203.896 292.268 203.794 292.578 203.592C292.898 203.389 293.058 203.106 293.058 202.744C293.058 202.477 292.962 202.269 292.77 202.12C292.578 201.97 292.322 201.858 292.002 201.784C291.692 201.709 291.346 201.645 290.962 201.592C290.578 201.528 290.194 201.453 289.81 201.368C289.426 201.272 289.074 201.144 288.754 200.984C288.434 200.813 288.178 200.584 287.986 200.296C287.794 199.997 287.698 199.602 287.698 199.112C287.698 198.6 287.842 198.152 288.13 197.768C288.418 197.384 288.823 197.09 289.346 196.888C289.879 196.674 290.508 196.568 291.234 196.568C291.788 196.568 292.348 196.637 292.914 196.776C293.49 196.904 293.959 197.09 294.322 197.336L293.666 198.552C293.282 198.296 292.882 198.12 292.466 198.024C292.05 197.928 291.634 197.88 291.218 197.88C290.546 197.88 290.044 197.992 289.714 198.216C289.383 198.429 289.218 198.706 289.218 199.048C289.218 199.336 289.314 199.56 289.506 199.72C289.708 199.869 289.964 199.986 290.274 200.072C290.594 200.157 290.946 200.232 291.33 200.296C291.714 200.349 292.098 200.424 292.482 200.52C292.866 200.605 293.212 200.728 293.522 200.888C293.842 201.048 294.098 201.272 294.29 201.56C294.492 201.848 294.594 202.232 294.594 202.712C294.594 203.224 294.444 203.666 294.146 204.04C293.847 204.413 293.426 204.706 292.882 204.92C292.338 205.122 291.687 205.224 290.93 205.224ZM299.249 205.224C298.396 205.224 297.735 204.994 297.265 204.536C296.796 204.077 296.561 203.421 296.561 202.568V194.792H298.097V202.504C298.097 202.962 298.209 203.314 298.433 203.56C298.668 203.805 298.999 203.928 299.425 203.928C299.905 203.928 300.305 203.794 300.625 203.528L301.105 204.632C300.871 204.834 300.588 204.984 300.257 205.08C299.937 205.176 299.601 205.224 299.249 205.224ZM295.121 197.912V196.648H300.529V197.912H295.121ZM308.05 205.128V203.336L307.97 203V199.944C307.97 199.293 307.778 198.792 307.394 198.44C307.021 198.077 306.456 197.896 305.698 197.896C305.197 197.896 304.706 197.981 304.226 198.152C303.746 198.312 303.341 198.53 303.01 198.808L302.37 197.656C302.808 197.304 303.33 197.037 303.938 196.856C304.557 196.664 305.202 196.568 305.874 196.568C307.037 196.568 307.933 196.85 308.562 197.416C309.192 197.981 309.506 198.845 309.506 200.008V205.128H308.05ZM305.266 205.224C304.637 205.224 304.082 205.117 303.602 204.904C303.133 204.69 302.77 204.397 302.514 204.024C302.258 203.64 302.13 203.208 302.13 202.728C302.13 202.269 302.237 201.853 302.45 201.48C302.674 201.106 303.032 200.808 303.522 200.584C304.024 200.36 304.696 200.248 305.538 200.248H308.226V201.352H305.602C304.834 201.352 304.317 201.48 304.05 201.736C303.784 201.992 303.65 202.301 303.65 202.664C303.65 203.08 303.816 203.416 304.146 203.672C304.477 203.917 304.936 204.04 305.522 204.04C306.098 204.04 306.6 203.912 307.026 203.656C307.464 203.4 307.778 203.026 307.97 202.536L308.274 203.592C308.072 204.093 307.714 204.493 307.202 204.792C306.69 205.08 306.045 205.224 305.266 205.224ZM312.397 205.128V195.896C312.397 195.064 312.637 194.402 313.117 193.912C313.607 193.41 314.301 193.16 315.197 193.16C315.527 193.16 315.842 193.202 316.141 193.288C316.45 193.362 316.711 193.485 316.925 193.656L316.461 194.824C316.301 194.696 316.119 194.6 315.917 194.536C315.714 194.461 315.501 194.424 315.277 194.424C314.829 194.424 314.487 194.552 314.253 194.808C314.018 195.053 313.901 195.421 313.901 195.912V197.048L313.933 197.752V205.128H312.397ZM310.957 197.912V196.648H316.365V197.912H310.957ZM317.877 205.128V195.896C317.877 195.064 318.117 194.402 318.597 193.912C319.088 193.41 319.781 193.16 320.677 193.16C321.008 193.16 321.322 193.202 321.621 193.288C321.93 193.362 322.192 193.485 322.405 193.656L321.941 194.824C321.781 194.696 321.6 194.6 321.397 194.536C321.194 194.461 320.981 194.424 320.757 194.424C320.309 194.424 319.968 194.552 319.733 194.808C319.498 195.053 319.381 195.421 319.381 195.912V197.048L319.413 197.752V205.128H317.877ZM316.437 197.912V196.648H321.845V197.912H316.437ZM275.164 229.128V220.648H276.636V222.952L276.492 222.376C276.726 221.789 277.121 221.341 277.676 221.032C278.23 220.722 278.913 220.568 279.724 220.568V222.056C279.66 222.045 279.596 222.04 279.532 222.04C279.478 222.04 279.425 222.04 279.372 222.04C278.55 222.04 277.9 222.285 277.42 222.776C276.94 223.266 276.7 223.976 276.7 224.904V229.128H275.164ZM285.139 229.224C284.232 229.224 283.432 229.037 282.739 228.664C282.056 228.29 281.523 227.778 281.139 227.128C280.765 226.477 280.579 225.73 280.579 224.888C280.579 224.045 280.76 223.298 281.123 222.648C281.496 221.997 282.003 221.49 282.643 221.128C283.293 220.754 284.024 220.568 284.835 220.568C285.656 220.568 286.381 220.749 287.011 221.112C287.64 221.474 288.131 221.986 288.483 222.648C288.845 223.298 289.027 224.061 289.027 224.936C289.027 225 289.021 225.074 289.011 225.16C289.011 225.245 289.005 225.325 288.995 225.4H281.779V224.296H288.195L287.571 224.68C287.581 224.136 287.469 223.65 287.235 223.224C287 222.797 286.675 222.466 286.259 222.232C285.853 221.986 285.379 221.864 284.835 221.864C284.301 221.864 283.827 221.986 283.411 222.232C282.995 222.466 282.669 222.802 282.435 223.24C282.2 223.666 282.083 224.157 282.083 224.712V224.968C282.083 225.533 282.211 226.04 282.467 226.488C282.733 226.925 283.101 227.266 283.571 227.512C284.04 227.757 284.579 227.88 285.187 227.88C285.688 227.88 286.141 227.794 286.547 227.624C286.963 227.453 287.325 227.197 287.635 226.856L288.483 227.848C288.099 228.296 287.619 228.637 287.043 228.872C286.477 229.106 285.843 229.224 285.139 229.224ZM294.488 229.224C293.666 229.224 292.93 229.042 292.28 228.68C291.64 228.317 291.133 227.81 290.76 227.16C290.386 226.509 290.2 225.752 290.2 224.888C290.2 224.024 290.386 223.272 290.76 222.632C291.133 221.981 291.64 221.474 292.28 221.112C292.93 220.749 293.666 220.568 294.488 220.568C295.224 220.568 295.88 220.728 296.456 221.048C297.032 221.368 297.485 221.848 297.816 222.488C298.157 223.128 298.328 223.928 298.328 224.888C298.328 225.848 298.152 226.648 297.8 227.288C297.458 227.928 297 228.413 296.424 228.744C295.848 229.064 295.202 229.224 294.488 229.224ZM294.616 227.88C295.149 227.88 295.629 227.757 296.056 227.512C296.493 227.266 296.834 226.92 297.08 226.472C297.336 226.013 297.464 225.485 297.464 224.888C297.464 224.28 297.336 223.757 297.08 223.32C296.834 222.872 296.493 222.525 296.056 222.28C295.629 222.034 295.149 221.912 294.616 221.912C294.072 221.912 293.586 222.034 293.16 222.28C292.733 222.525 292.392 222.872 292.136 223.32C291.88 223.757 291.752 224.28 291.752 224.888C291.752 225.485 291.88 226.013 292.136 226.472C292.392 226.92 292.733 227.266 293.16 227.512C293.586 227.757 294.072 227.88 294.616 227.88ZM297.448 232.232V226.872L297.608 224.904L297.512 222.936V220.648H298.984V232.232H297.448ZM305.282 229.224C304.556 229.224 303.916 229.09 303.362 228.824C302.818 228.557 302.391 228.152 302.082 227.608C301.783 227.053 301.634 226.36 301.634 225.528V220.648H303.17V225.352C303.17 226.184 303.367 226.808 303.762 227.224C304.167 227.64 304.732 227.848 305.458 227.848C305.991 227.848 306.455 227.741 306.85 227.528C307.244 227.304 307.548 226.984 307.762 226.568C307.975 226.141 308.082 225.629 308.082 225.032V220.648H309.618V229.128H308.162V226.84L308.402 227.448C308.124 228.013 307.708 228.45 307.154 228.76C306.599 229.069 305.975 229.224 305.282 229.224ZM316.142 229.224C315.235 229.224 314.435 229.037 313.742 228.664C313.059 228.29 312.526 227.778 312.142 227.128C311.769 226.477 311.582 225.73 311.582 224.888C311.582 224.045 311.763 223.298 312.126 222.648C312.499 221.997 313.006 221.49 313.646 221.128C314.297 220.754 315.027 220.568 315.838 220.568C316.659 220.568 317.385 220.749 318.014 221.112C318.643 221.474 319.134 221.986 319.486 222.648C319.849 223.298 320.03 224.061 320.03 224.936C320.03 225 320.025 225.074 320.014 225.16C320.014 225.245 320.009 225.325 319.998 225.4H312.782V224.296H319.198L318.574 224.68C318.585 224.136 318.473 223.65 318.238 223.224C318.003 222.797 317.678 222.466 317.262 222.232C316.857 221.986 316.382 221.864 315.838 221.864C315.305 221.864 314.83 221.986 314.414 222.232C313.998 222.466 313.673 222.802 313.438 223.24C313.203 223.666 313.086 224.157 313.086 224.712V224.968C313.086 225.533 313.214 226.04 313.47 226.488C313.737 226.925 314.105 227.266 314.574 227.512C315.043 227.757 315.582 227.88 316.19 227.88C316.691 227.88 317.145 227.794 317.55 227.624C317.966 227.453 318.329 227.197 318.638 226.856L319.486 227.848C319.102 228.296 318.622 228.637 318.046 228.872C317.481 229.106 316.846 229.224 316.142 229.224ZM324.419 229.224C323.715 229.224 323.043 229.128 322.403 228.936C321.773 228.744 321.277 228.509 320.915 228.232L321.555 227.016C321.917 227.261 322.365 227.469 322.899 227.64C323.432 227.81 323.976 227.896 324.531 227.896C325.245 227.896 325.757 227.794 326.067 227.592C326.387 227.389 326.547 227.106 326.547 226.744C326.547 226.477 326.451 226.269 326.259 226.12C326.067 225.97 325.811 225.858 325.491 225.784C325.181 225.709 324.835 225.645 324.451 225.592C324.067 225.528 323.683 225.453 323.299 225.368C322.915 225.272 322.563 225.144 322.243 224.984C321.923 224.813 321.667 224.584 321.475 224.296C321.283 223.997 321.187 223.602 321.187 223.112C321.187 222.6 321.331 222.152 321.619 221.768C321.907 221.384 322.312 221.09 322.835 220.888C323.368 220.674 323.997 220.568 324.723 220.568C325.277 220.568 325.837 220.637 326.403 220.776C326.979 220.904 327.448 221.09 327.811 221.336L327.155 222.552C326.771 222.296 326.371 222.12 325.955 222.024C325.539 221.928 325.123 221.88 324.707 221.88C324.035 221.88 323.533 221.992 323.203 222.216C322.872 222.429 322.707 222.706 322.707 223.048C322.707 223.336 322.803 223.56 322.995 223.72C323.197 223.869 323.453 223.986 323.763 224.072C324.083 224.157 324.435 224.232 324.819 224.296C325.203 224.349 325.587 224.424 325.971 224.52C326.355 224.605 326.701 224.728 327.011 224.888C327.331 225.048 327.587 225.272 327.779 225.56C327.981 225.848 328.083 226.232 328.083 226.712C328.083 227.224 327.933 227.666 327.635 228.04C327.336 228.413 326.915 228.706 326.371 228.92C325.827 229.122 325.176 229.224 324.419 229.224ZM332.738 229.224C331.885 229.224 331.224 228.994 330.754 228.536C330.285 228.077 330.05 227.421 330.05 226.568V218.792H331.586V226.504C331.586 226.962 331.698 227.314 331.922 227.56C332.157 227.805 332.488 227.928 332.914 227.928C333.394 227.928 333.794 227.794 334.114 227.528L334.594 228.632C334.36 228.834 334.077 228.984 333.746 229.08C333.426 229.176 333.09 229.224 332.738 229.224ZM328.61 221.912V220.648H334.018V221.912H328.61Z" fill="white"/>
<ellipse cx="304.351" cy="347.912" rx="52.6" ry="53.5069" fill="#155A32"/>
<path d="M279.874 342.501C276.514 342.501 274.018 340.085 274.018 336.805C274.018 333.525 276.514 331.109 279.89 331.109C281.522 331.109 282.994 331.653 283.986 332.741L283.234 333.493C282.322 332.565 281.202 332.165 279.922 332.165C277.218 332.165 275.186 334.149 275.186 336.805C275.186 339.461 277.218 341.445 279.922 341.445C281.202 341.445 282.322 341.045 283.234 340.101L283.986 340.853C282.994 341.941 281.522 342.501 279.874 342.501ZM289.159 342.485C286.695 342.485 284.871 340.693 284.871 338.197C284.871 335.701 286.695 333.925 289.159 333.925C291.623 333.925 293.431 335.701 293.431 338.197C293.431 340.693 291.623 342.485 289.159 342.485ZM289.159 341.477C290.951 341.477 292.279 340.165 292.279 338.197C292.279 336.229 290.951 334.917 289.159 334.917C287.367 334.917 286.023 336.229 286.023 338.197C286.023 340.165 287.367 341.477 289.159 341.477ZM299.863 333.925C301.911 333.925 303.319 335.109 303.319 337.525V342.405H302.183V337.637C302.183 335.861 301.255 334.949 299.655 334.949C297.847 334.949 296.711 336.069 296.711 337.989V342.405H295.575V333.989H296.663V335.541C297.271 334.517 298.407 333.925 299.863 333.925ZM310.259 341.077L310.659 341.893C310.211 342.293 309.539 342.485 308.883 342.485C307.299 342.485 306.419 341.589 306.419 340.037V334.949H304.915V333.989H306.419V332.149H307.555V333.989H310.115V334.949H307.555V339.973C307.555 340.965 308.067 341.509 309.011 341.509C309.475 341.509 309.939 341.365 310.259 341.077ZM315.495 333.925C317.671 333.925 318.903 335.013 318.903 337.189V342.405H317.815V341.093C317.303 341.957 316.311 342.485 314.919 342.485C313.015 342.485 311.847 341.493 311.847 340.037C311.847 338.741 312.679 337.653 315.095 337.653H317.767V337.141C317.767 335.701 316.951 334.917 315.383 334.917C314.295 334.917 313.271 335.301 312.583 335.909L312.071 335.061C312.919 334.341 314.167 333.925 315.495 333.925ZM315.095 341.589C316.375 341.589 317.319 340.981 317.767 339.877V338.501H315.127C313.495 338.501 312.967 339.141 312.967 340.005C312.967 340.981 313.751 341.589 315.095 341.589ZM325.331 342.485C322.819 342.485 320.995 340.709 320.995 338.197C320.995 335.685 322.819 333.925 325.331 333.925C326.755 333.925 327.955 334.485 328.627 335.589L327.779 336.165C327.203 335.317 326.307 334.917 325.331 334.917C323.491 334.917 322.147 336.229 322.147 338.197C322.147 340.181 323.491 341.477 325.331 341.477C326.307 341.477 327.203 341.093 327.779 340.245L328.627 340.821C327.955 341.909 326.755 342.485 325.331 342.485ZM334.809 341.077L335.209 341.893C334.761 342.293 334.089 342.485 333.433 342.485C331.849 342.485 330.969 341.589 330.969 340.037V334.949H329.465V333.989H330.969V332.149H332.105V333.989H334.665V334.949H332.105V339.973C332.105 340.965 332.617 341.509 333.561 341.509C334.025 341.509 334.489 341.365 334.809 341.077ZM275.661 359.637C276.189 358.517 277.261 357.925 278.813 357.925V359.029C278.717 359.029 278.621 359.013 278.541 359.013C276.781 359.013 275.709 360.133 275.709 362.117V366.405H274.573V357.989H275.661V359.637ZM287.96 362.197C287.96 362.293 287.944 362.421 287.944 362.549H280.904C281.032 364.309 282.376 365.477 284.216 365.477C285.24 365.477 286.152 365.109 286.792 364.373L287.432 365.109C286.68 366.005 285.512 366.485 284.184 366.485C281.56 366.485 279.768 364.693 279.768 362.197C279.768 359.701 281.512 357.925 283.88 357.925C286.248 357.925 287.96 359.669 287.96 362.197ZM283.88 358.901C282.248 358.901 281.048 360.053 280.904 361.701H286.872C286.728 360.053 285.528 358.901 283.88 358.901ZM294.384 357.925C296.432 357.925 297.84 359.109 297.84 361.525V366.405H296.704V361.637C296.704 359.861 295.776 358.949 294.176 358.949C292.368 358.949 291.232 360.069 291.232 361.989V366.405H290.096V357.989H291.184V359.541C291.792 358.517 292.928 357.925 294.384 357.925ZM308.123 362.197C308.123 362.293 308.107 362.421 308.107 362.549H301.067C301.195 364.309 302.539 365.477 304.379 365.477C305.403 365.477 306.315 365.109 306.955 364.373L307.595 365.109C306.843 366.005 305.675 366.485 304.347 366.485C301.723 366.485 299.931 364.693 299.931 362.197C299.931 359.701 301.675 357.925 304.043 357.925C306.411 357.925 308.123 359.669 308.123 362.197ZM304.043 358.901C302.411 358.901 301.211 360.053 301.067 361.701H307.035C306.891 360.053 305.691 358.901 304.043 358.901ZM321.415 357.989H322.455L319.271 366.405H318.199L315.543 359.509L312.887 366.405H311.815L308.647 357.989H309.735L312.375 365.141L315.079 357.989H316.055L318.743 365.141L321.415 357.989ZM326.684 357.925C328.86 357.925 330.092 359.013 330.092 361.189V366.405H329.004V365.093C328.492 365.957 327.5 366.485 326.108 366.485C324.204 366.485 323.036 365.493 323.036 364.037C323.036 362.741 323.868 361.653 326.284 361.653H328.956V361.141C328.956 359.701 328.14 358.917 326.572 358.917C325.484 358.917 324.46 359.301 323.772 359.909L323.26 359.061C324.108 358.341 325.356 357.925 326.684 357.925ZM326.284 365.589C327.564 365.589 328.508 364.981 328.956 363.877V362.501H326.316C324.684 362.501 324.156 363.141 324.156 364.005C324.156 364.981 324.94 365.589 326.284 365.589ZM333.001 366.405V354.533H334.137V366.405H333.001Z" fill="white"/>
<ellipse cx="304.351" cy="483.493" rx="52.6" ry="53.5069" fill="#155A32"/>
<path d="M284.875 472.21C286.315 472.53 287.179 473.474 287.179 474.994C287.179 476.898 285.771 477.986 282.971 477.986H277.819V466.786H282.651C285.147 466.786 286.587 467.842 286.587 469.666C286.587 470.946 285.899 471.794 284.875 472.21ZM282.571 467.762H279.003V471.826H282.571C284.363 471.826 285.403 471.138 285.403 469.794C285.403 468.45 284.363 467.762 282.571 467.762ZM282.955 477.01C284.923 477.01 285.995 476.37 285.995 474.898C285.995 473.442 284.923 472.802 282.955 472.802H279.003V477.01H282.955ZM290.553 471.218C291.081 470.098 292.153 469.506 293.705 469.506V470.61C293.609 470.61 293.513 470.594 293.433 470.594C291.673 470.594 290.601 471.714 290.601 473.698V477.986H289.465V469.57H290.553V471.218ZM298.948 478.066C296.484 478.066 294.66 476.274 294.66 473.778C294.66 471.282 296.484 469.506 298.948 469.506C301.412 469.506 303.22 471.282 303.22 473.778C303.22 476.274 301.412 478.066 298.948 478.066ZM298.948 477.058C300.74 477.058 302.068 475.746 302.068 473.778C302.068 471.81 300.74 470.498 298.948 470.498C297.156 470.498 295.812 471.81 295.812 473.778C295.812 475.746 297.156 477.058 298.948 477.058ZM308.26 469.506C310.436 469.506 311.668 470.594 311.668 472.77V477.986H310.58V476.674C310.068 477.538 309.076 478.066 307.684 478.066C305.78 478.066 304.612 477.074 304.612 475.618C304.612 474.322 305.444 473.234 307.86 473.234H310.532V472.722C310.532 471.282 309.716 470.498 308.148 470.498C307.06 470.498 306.036 470.882 305.348 471.49L304.836 470.642C305.684 469.922 306.932 469.506 308.26 469.506ZM307.86 477.17C309.14 477.17 310.084 476.562 310.532 475.458V474.082H307.892C306.26 474.082 305.732 474.722 305.732 475.586C305.732 476.562 306.516 477.17 307.86 477.17ZM321.153 466.114H322.289V477.986H321.201V476.322C320.513 477.458 319.345 478.066 317.953 478.066C315.553 478.066 313.761 476.322 313.761 473.778C313.761 471.234 315.553 469.506 317.953 469.506C319.297 469.506 320.449 470.082 321.153 471.17V466.114ZM318.049 477.058C319.825 477.058 321.169 475.746 321.169 473.778C321.169 471.81 319.825 470.498 318.049 470.498C316.257 470.498 314.913 471.81 314.913 473.778C314.913 475.746 316.257 477.058 318.049 477.058ZM328.765 478.066C326.253 478.066 324.429 476.29 324.429 473.778C324.429 471.266 326.253 469.506 328.765 469.506C330.189 469.506 331.389 470.066 332.061 471.17L331.213 471.746C330.637 470.898 329.741 470.498 328.765 470.498C326.925 470.498 325.581 471.81 325.581 473.778C325.581 475.762 326.925 477.058 328.765 477.058C329.741 477.058 330.637 476.674 331.213 475.826L332.061 476.402C331.389 477.49 330.189 478.066 328.765 478.066ZM297.173 493.506C299.349 493.506 300.581 494.594 300.581 496.77V501.986H299.493V500.674C298.981 501.538 297.989 502.066 296.597 502.066C294.693 502.066 293.525 501.074 293.525 499.618C293.525 498.322 294.357 497.234 296.773 497.234H299.445V496.722C299.445 495.282 298.629 494.498 297.061 494.498C295.973 494.498 294.949 494.882 294.261 495.49L293.749 494.642C294.597 493.922 295.845 493.506 297.173 493.506ZM296.773 501.17C298.053 501.17 298.997 500.562 299.445 499.458V498.082H296.805C295.173 498.082 294.645 498.722 294.645 499.586C294.645 500.562 295.429 501.17 296.773 501.17ZM305.746 502.066C304.354 502.066 303.01 501.618 302.322 501.026L302.834 500.13C303.506 500.658 304.642 501.074 305.826 501.074C307.426 501.074 308.082 500.53 308.082 499.698C308.082 497.506 302.626 499.234 302.626 495.906C302.626 494.53 303.81 493.506 305.954 493.506C307.042 493.506 308.226 493.81 308.93 494.29L308.434 495.202C307.698 494.69 306.818 494.482 305.954 494.482C304.434 494.482 303.762 495.074 303.762 495.874C303.762 498.146 309.218 496.434 309.218 499.666C309.218 501.122 307.938 502.066 305.746 502.066ZM315.174 500.658L315.574 501.474C315.126 501.874 314.454 502.066 313.798 502.066C312.214 502.066 311.334 501.17 311.334 499.618V494.53H309.83V493.57H311.334V491.73H312.47V493.57H315.03V494.53H312.47V499.554C312.47 500.546 312.982 501.09 313.926 501.09C314.39 501.09 314.854 500.946 315.174 500.658Z" fill="white"/>
<path d="M200 250.5C199.172 250.5 198.5 251.172 198.5 252C198.5 252.828 199.172 253.5 200 253.5V250.5ZM248.812 71.9159C249.398 71.3301 249.398 70.3804 248.812 69.7946L239.266 60.2486C238.68 59.6628 237.731 59.6628 237.145 60.2486C236.559 60.8344 236.559 61.7842 237.145 62.3699L245.63 70.8552L237.145 79.3405C236.559 79.9263 236.559 80.876 237.145 81.4618C237.731 82.0476 238.68 82.0476 239.266 81.4618L248.812 71.9159ZM225.376 228.124V94.7309H222.376V228.124H225.376ZM225.376 94.7309C225.376 82.3732 235.394 72.3552 247.751 72.3552V69.3552C233.737 69.3552 222.376 80.7163 222.376 94.7309H225.376ZM200 253.5C214.015 253.5 225.376 242.139 225.376 228.124H222.376C222.376 240.482 212.358 250.5 200 250.5V253.5Z" fill="#85E0A3"/>
<path d="M200 250.5C199.172 250.5 198.5 251.172 198.5 252C198.5 252.828 199.172 253.5 200 253.5V250.5ZM248.812 200.242C249.398 199.656 249.398 198.706 248.812 198.12L239.266 188.574C238.68 187.989 237.731 187.989 237.145 188.574C236.559 189.16 236.559 190.11 237.145 190.696L245.63 199.181L237.145 207.666C236.559 208.252 236.559 209.202 237.145 209.788C237.731 210.373 238.68 210.373 239.266 209.788L248.812 200.242ZM225.376 228.124V223.057H222.376V228.124H225.376ZM225.376 223.057C225.376 210.699 235.394 200.681 247.751 200.681V197.681C233.737 197.681 222.376 209.042 222.376 223.057H225.376ZM200 253.5C214.015 253.5 225.376 242.139 225.376 228.124H222.376C222.376 240.482 212.358 250.5 200 250.5V253.5Z" fill="#85E0A3"/>
<path d="M200 250.5C199.172 250.5 198.5 251.172 198.5 252C198.5 252.828 199.172 253.5 200 253.5V250.5ZM248.812 348.973C249.398 348.387 249.398 347.437 248.812 346.851L239.266 337.305C238.68 336.72 237.731 336.72 237.145 337.305C236.559 337.891 236.559 338.841 237.145 339.427L245.63 347.912L237.145 356.397C236.559 356.983 236.559 357.933 237.145 358.519C237.731 359.104 238.68 359.104 239.266 358.519L248.812 348.973ZM222.376 275.876V324.036H225.376V275.876H222.376ZM222.376 324.036C222.376 338.051 233.737 349.412 247.751 349.412V346.412C235.394 346.412 225.376 336.394 225.376 324.036H222.376ZM200 253.5C212.358 253.5 222.376 263.518 222.376 275.876H225.376C225.376 261.861 214.015 250.5 200 250.5V253.5Z" fill="#85E0A3"/>
<path d="M200 250.5C199.172 250.5 198.5 251.172 198.5 252C198.5 252.828 199.172 253.5 200 253.5V250.5ZM248.812 484.554C249.398 483.968 249.398 483.018 248.812 482.432L239.266 472.887C238.68 472.301 237.731 472.301 237.145 472.887C236.559 473.472 236.559 474.422 237.145 475.008L245.63 483.493L237.145 491.978C236.559 492.564 236.559 493.514 237.145 494.1C237.731 494.685 238.68 494.685 239.266 494.1L248.812 484.554ZM222.376 275.876V459.617H225.376V275.876H222.376ZM222.376 459.617C222.376 473.632 233.737 484.993 247.751 484.993V481.993C235.394 481.993 225.376 471.975 225.376 459.617H222.376ZM200 253.5C212.358 253.5 222.376 263.518 222.376 275.876H225.376C225.376 261.861 214.015 250.5 200 250.5V253.5Z" fill="#85E0A3"/>
<ellipse cx="678" cy="59" rx="57" ry="59" fill="#155A32"/>
<path d="M659.731 47.03H665.131V48.305H659.731V47.03ZM659.866 51.695H665.986V53H658.366V42.5H665.776V43.805H659.866V51.695ZM677.985 44.975C678.625 44.975 679.19 45.1 679.68 45.35C680.17 45.6 680.55 45.98 680.82 46.49C681.1 47 681.24 47.645 681.24 48.425V53H679.8V48.59C679.8 47.82 679.62 47.24 679.26 46.85C678.9 46.46 678.395 46.265 677.745 46.265C677.265 46.265 676.845 46.365 676.485 46.565C676.125 46.765 675.845 47.06 675.645 47.45C675.455 47.84 675.36 48.325 675.36 48.905V53H673.92V48.59C673.92 47.82 673.74 47.24 673.38 46.85C673.03 46.46 672.525 46.265 671.865 46.265C671.395 46.265 670.98 46.365 670.62 46.565C670.26 46.765 669.98 47.06 669.78 47.45C669.58 47.84 669.48 48.325 669.48 48.905V53H668.04V45.05H669.42V47.165L669.195 46.625C669.445 46.105 669.83 45.7 670.35 45.41C670.87 45.12 671.475 44.975 672.165 44.975C672.925 44.975 673.58 45.165 674.13 45.545C674.68 45.915 675.04 46.48 675.21 47.24L674.625 47C674.865 46.39 675.285 45.9 675.885 45.53C676.485 45.16 677.185 44.975 677.985 44.975ZM688.66 53V51.32L688.585 51.005V48.14C688.585 47.53 688.405 47.06 688.045 46.73C687.695 46.39 687.165 46.22 686.455 46.22C685.985 46.22 685.525 46.3 685.075 46.46C684.625 46.61 684.245 46.815 683.935 47.075L683.335 45.995C683.745 45.665 684.235 45.415 684.805 45.245C685.385 45.065 685.99 44.975 686.62 44.975C687.71 44.975 688.55 45.24 689.14 45.77C689.73 46.3 690.025 47.11 690.025 48.2V53H688.66ZM686.05 53.09C685.46 53.09 684.94 52.99 684.49 52.79C684.05 52.59 683.71 52.315 683.47 51.965C683.23 51.605 683.11 51.2 683.11 50.75C683.11 50.32 683.21 49.93 683.41 49.58C683.62 49.23 683.955 48.95 684.415 48.74C684.885 48.53 685.515 48.425 686.305 48.425H688.825V49.46H686.365C685.645 49.46 685.16 49.58 684.91 49.82C684.66 50.06 684.535 50.35 684.535 50.69C684.535 51.08 684.69 51.395 685 51.635C685.31 51.865 685.74 51.98 686.29 51.98C686.83 51.98 687.3 51.86 687.7 51.62C688.11 51.38 688.405 51.03 688.585 50.57L688.87 51.56C688.68 52.03 688.345 52.405 687.865 52.685C687.385 52.955 686.78 53.09 686.05 53.09ZM692.525 53V45.05H693.965V53H692.525ZM693.245 43.52C692.965 43.52 692.73 43.43 692.54 43.25C692.36 43.07 692.27 42.85 692.27 42.59C692.27 42.32 692.36 42.095 692.54 41.915C692.73 41.735 692.965 41.645 693.245 41.645C693.525 41.645 693.755 41.735 693.935 41.915C694.125 42.085 694.22 42.3 694.22 42.56C694.22 42.83 694.13 43.06 693.95 43.25C693.77 43.43 693.535 43.52 693.245 43.52ZM696.549 53V41.87H697.989V53H696.549ZM644.043 76V68.05H645.483V76H644.043ZM644.763 66.52C644.483 66.52 644.248 66.43 644.058 66.25C643.878 66.07 643.788 65.85 643.788 65.59C643.788 65.32 643.878 65.095 644.058 64.915C644.248 64.735 644.483 64.645 644.763 64.645C645.043 64.645 645.273 64.735 645.453 64.915C645.643 65.085 645.738 65.3 645.738 65.56C645.738 65.83 645.648 66.06 645.468 66.25C645.288 66.43 645.053 66.52 644.763 66.52ZM652.313 67.975C652.963 67.975 653.533 68.1 654.023 68.35C654.523 68.6 654.913 68.98 655.193 69.49C655.473 70 655.613 70.645 655.613 71.425V76H654.173V71.59C654.173 70.82 653.983 70.24 653.603 69.85C653.233 69.46 652.708 69.265 652.028 69.265C651.518 69.265 651.073 69.365 650.693 69.565C650.313 69.765 650.018 70.06 649.808 70.45C649.608 70.84 649.508 71.325 649.508 71.905V76H648.068V68.05H649.448V70.195L649.223 69.625C649.483 69.105 649.883 68.7 650.423 68.41C650.963 68.12 651.593 67.975 652.313 67.975ZM660.051 76L656.571 68.05H658.071L661.161 75.25H660.441L663.591 68.05H665.001L661.521 76H660.051ZM666.18 76V68.05H667.62V76H666.18ZM666.9 66.52C666.62 66.52 666.385 66.43 666.195 66.25C666.015 66.07 665.925 65.85 665.925 65.59C665.925 65.32 666.015 65.095 666.195 64.915C666.385 64.735 666.62 64.645 666.9 64.645C667.18 64.645 667.41 64.735 667.59 64.915C667.78 65.085 667.875 65.3 667.875 65.56C667.875 65.83 667.785 66.06 667.605 66.25C667.425 66.43 667.19 66.52 666.9 66.52ZM672.934 76.09C672.134 76.09 671.514 75.875 671.074 75.445C670.634 75.015 670.414 74.4 670.414 73.6V66.31H671.854V73.54C671.854 73.97 671.959 74.3 672.169 74.53C672.389 74.76 672.699 74.875 673.099 74.875C673.549 74.875 673.924 74.75 674.224 74.5L674.674 75.535C674.454 75.725 674.189 75.865 673.879 75.955C673.579 76.045 673.264 76.09 672.934 76.09ZM669.064 69.235V68.05H674.134V69.235H669.064ZM681.185 76V74.32L681.11 74.005V71.14C681.11 70.53 680.93 70.06 680.57 69.73C680.22 69.39 679.69 69.22 678.98 69.22C678.51 69.22 678.05 69.3 677.6 69.46C677.15 69.61 676.77 69.815 676.46 70.075L675.86 68.995C676.27 68.665 676.76 68.415 677.33 68.245C677.91 68.065 678.515 67.975 679.145 67.975C680.235 67.975 681.075 68.24 681.665 68.77C682.255 69.3 682.55 70.11 682.55 71.2V76H681.185ZM678.575 76.09C677.985 76.09 677.465 75.99 677.015 75.79C676.575 75.59 676.235 75.315 675.995 74.965C675.755 74.605 675.635 74.2 675.635 73.75C675.635 73.32 675.735 72.93 675.935 72.58C676.145 72.23 676.48 71.95 676.94 71.74C677.41 71.53 678.04 71.425 678.83 71.425H681.35V72.46H678.89C678.17 72.46 677.685 72.58 677.435 72.82C677.185 73.06 677.06 73.35 677.06 73.69C677.06 74.08 677.215 74.395 677.525 74.635C677.835 74.865 678.265 74.98 678.815 74.98C679.355 74.98 679.825 74.86 680.225 74.62C680.635 74.38 680.93 74.03 681.11 73.57L681.395 74.56C681.205 75.03 680.87 75.405 680.39 75.685C679.91 75.955 679.305 76.09 678.575 76.09ZM687.78 76.09C686.98 76.09 686.36 75.875 685.92 75.445C685.48 75.015 685.26 74.4 685.26 73.6V66.31H686.7V73.54C686.7 73.97 686.805 74.3 687.015 74.53C687.235 74.76 687.545 74.875 687.945 74.875C688.395 74.875 688.77 74.75 689.07 74.5L689.52 75.535C689.3 75.725 689.035 75.865 688.725 75.955C688.425 76.045 688.11 76.09 687.78 76.09ZM683.91 69.235V68.05H688.98V69.235H683.91ZM691.096 76V68.05H692.536V76H691.096ZM691.816 66.52C691.536 66.52 691.301 66.43 691.111 66.25C690.931 66.07 690.841 65.85 690.841 65.59C690.841 65.32 690.931 65.095 691.111 64.915C691.301 64.735 691.536 64.645 691.816 64.645C692.096 64.645 692.326 64.735 692.506 64.915C692.696 65.085 692.791 65.3 692.791 65.56C692.791 65.83 692.701 66.06 692.521 66.25C692.341 66.43 692.106 66.52 691.816 66.52ZM698.526 76.09C697.726 76.09 697.016 75.915 696.396 75.565C695.776 75.215 695.286 74.735 694.926 74.125C694.566 73.505 694.386 72.805 694.386 72.025C694.386 71.235 694.566 70.535 694.926 69.925C695.286 69.315 695.776 68.84 696.396 68.5C697.016 68.15 697.726 67.975 698.526 67.975C699.316 67.975 700.021 68.15 700.641 68.5C701.271 68.84 701.761 69.315 702.111 69.925C702.471 70.525 702.651 71.225 702.651 72.025C702.651 72.815 702.471 73.515 702.111 74.125C701.761 74.735 701.271 75.215 700.641 75.565C700.021 75.915 699.316 76.09 698.526 76.09ZM698.526 74.83C699.036 74.83 699.491 74.715 699.891 74.485C700.301 74.255 700.621 73.93 700.851 73.51C701.081 73.08 701.196 72.585 701.196 72.025C701.196 71.455 701.081 70.965 700.851 70.555C700.621 70.135 700.301 69.81 699.891 69.58C699.491 69.35 699.036 69.235 698.526 69.235C698.016 69.235 697.561 69.35 697.161 69.58C696.761 69.81 696.441 70.135 696.201 70.555C695.961 70.965 695.841 71.455 695.841 72.025C695.841 72.585 695.961 73.08 696.201 73.51C696.441 73.93 696.761 74.255 697.161 74.485C697.561 74.715 698.016 74.83 698.526 74.83ZM708.722 67.975C709.372 67.975 709.942 68.1 710.432 68.35C710.932 68.6 711.322 68.98 711.602 69.49C711.882 70 712.022 70.645 712.022 71.425V76H710.582V71.59C710.582 70.82 710.392 70.24 710.012 69.85C709.642 69.46 709.117 69.265 708.437 69.265C707.927 69.265 707.482 69.365 707.102 69.565C706.722 69.765 706.427 70.06 706.217 70.45C706.017 70.84 705.917 71.325 705.917 71.905V76H704.477V68.05H705.857V70.195L705.632 69.625C705.892 69.105 706.292 68.7 706.832 68.41C707.372 68.12 708.002 67.975 708.722 67.975Z" fill="white"/>
<path d="M571 57.5C570.172 57.5 569.5 58.1716 569.5 59C569.5 59.8284 570.172 60.5 571 60.5V57.5ZM618.061 60.0607C618.646 59.4749 618.646 58.5251 618.061 57.9393L608.515 48.3934C607.929 47.8076 606.979 47.8076 606.393 48.3934C605.808 48.9792 605.808 49.9289 606.393 50.5147L614.879 59L606.393 67.4853C605.808 68.0711 605.808 69.0208 606.393 69.6066C606.979 70.1924 607.929 70.1924 608.515 69.6066L618.061 60.0607ZM571 60.5H617V57.5H571V60.5Z" fill="#85E0A3"/>
<path d="M680.324 122C680.324 121.172 679.653 120.5 678.824 120.5C677.996 120.5 677.324 121.172 677.324 122H680.324ZM677.764 289.652C678.349 290.238 679.299 290.238 679.885 289.652L689.431 280.106C690.017 279.52 690.017 278.57 689.431 277.985C688.845 277.399 687.895 277.399 687.31 277.985L678.824 286.47L670.339 277.985C669.753 277.399 668.803 277.399 668.218 277.985C667.632 278.57 667.632 279.52 668.218 280.106L677.764 289.652ZM677.324 122V288.591H680.324V122H677.324Z" fill="#85E0A3"/>
<path d="M360.952 69.3552C360.123 69.3552 359.452 70.0268 359.452 70.8552C359.452 71.6837 360.123 72.3552 360.952 72.3552V69.3552ZM403.322 348.973C403.907 348.387 403.907 347.437 403.322 346.852L393.776 337.306C393.19 336.72 392.24 336.72 391.654 337.306C391.069 337.891 391.069 338.841 391.654 339.427L400.14 347.912L391.654 356.398C391.069 356.983 391.069 357.933 391.654 358.519C392.24 359.105 393.19 359.105 393.776 358.519L403.322 348.973ZM380.106 91.5099V327.258H383.106V91.5099H380.106ZM380.106 327.258C380.106 339.493 390.025 349.412 402.261 349.412V346.412C391.682 346.412 383.106 337.836 383.106 327.258H380.106ZM360.952 72.3552C371.53 72.3552 380.106 80.931 380.106 91.5099H383.106C383.106 79.2742 373.187 69.3552 360.952 69.3552V72.3552Z" fill="#85E0A3"/>
<path d="M360.952 197.681C360.123 197.681 359.452 198.352 359.452 199.181C359.452 200.009 360.123 200.681 360.952 200.681V197.681ZM403.322 348.973C403.907 348.387 403.907 347.437 403.322 346.851L393.776 337.305C393.19 336.72 392.24 336.72 391.654 337.305C391.069 337.891 391.069 338.841 391.654 339.427L400.14 347.912L391.654 356.397C391.069 356.983 391.069 357.933 391.654 358.519C392.24 359.104 393.19 359.104 393.776 358.519L403.322 348.973ZM380.106 219.836V327.257H383.106V219.836H380.106ZM380.106 327.257C380.106 339.493 390.025 349.412 402.261 349.412V346.412C391.682 346.412 383.106 337.836 383.106 327.257H380.106ZM360.952 200.681C371.53 200.681 380.106 209.257 380.106 219.836H383.106C383.106 207.6 373.187 197.681 360.952 197.681V200.681Z" fill="#85E0A3"/>
<path d="M360.952 346.412C360.123 346.412 359.452 347.084 359.452 347.912C359.452 348.741 360.123 349.412 360.952 349.412V346.412ZM403.322 348.973C403.907 348.387 403.907 347.437 403.322 346.852L393.776 337.306C393.19 336.72 392.24 336.72 391.654 337.306C391.069 337.891 391.069 338.841 391.654 339.427L400.14 347.912L391.654 356.398C391.069 356.983 391.069 357.933 391.654 358.519C392.24 359.105 393.19 359.105 393.776 358.519L403.322 348.973ZM360.952 349.412H402.261V346.412H360.952V349.412Z" fill="#85E0A3"/>
<path d="M360.952 481.993C360.123 481.993 359.452 482.665 359.452 483.493C359.452 484.322 360.123 484.993 360.952 484.993V481.993ZM403.322 348.973C403.907 348.387 403.907 347.437 403.322 346.852L393.776 337.306C393.19 336.72 392.24 336.72 391.654 337.306C391.069 337.891 391.069 338.841 391.654 339.427L400.14 347.912L391.654 356.398C391.069 356.983 391.069 357.933 391.654 358.519C392.24 359.105 393.19 359.105 393.776 358.519L403.322 348.973ZM383.106 462.839V368.567H380.106V462.839H383.106ZM383.106 368.567C383.106 357.988 391.682 349.412 402.261 349.412V346.412C390.025 346.412 380.106 356.331 380.106 368.567H383.106ZM360.952 484.993C373.187 484.993 383.106 475.074 383.106 462.839H380.106C380.106 473.417 371.53 481.993 360.952 481.993V484.993Z" fill="#85E0A3"/>
<path d="M40.9502 141.648C40.9502 140.819 40.2786 140.148 39.4502 140.148C38.6218 140.148 37.9502 140.819 37.9502 141.648H40.9502ZM38.3895 232.624C38.9753 233.21 39.9251 233.21 40.5109 232.624L50.0568 223.078C50.6426 222.492 50.6426 221.542 50.0568 220.956C49.471 220.371 48.5213 220.371 47.9355 220.956L39.4502 229.442L30.9649 220.956C30.3791 220.371 29.4294 220.371 28.8436 220.956C28.2578 221.542 28.2578 222.492 28.8436 223.078L38.3895 232.624ZM37.9502 141.648V231.563H40.9502V141.648H37.9502Z" fill="#85E0A3"/>
</svg>
