<svg width="723" height="389" viewBox="0 0 723 389" fill="none" xmlns="http://www.w3.org/2000/svg">
<rect y="158.891" width="133.747" height="68.4782" rx="6" fill="#676827"/>
<path d="M24.3016 198.891H22.438L26.6255 187.255H28.6539L32.8414 198.891H30.9778L27.688 189.368H27.5971L24.3016 198.891ZM24.6141 194.334H30.6596V195.811H24.6141V194.334ZM37.3359 199.061C36.6313 199.061 36.0025 198.881 35.4495 198.522C34.9002 198.158 34.4684 197.641 34.154 196.97C33.8434 196.296 33.6881 195.487 33.6881 194.544C33.6881 193.601 33.8453 192.794 34.1597 192.124C34.4779 191.453 34.9135 190.94 35.4665 190.584C36.0196 190.228 36.6465 190.05 37.3472 190.05C37.8889 190.05 38.3245 190.141 38.654 190.323C38.9874 190.501 39.2449 190.709 39.4268 190.948C39.6124 191.186 39.7563 191.397 39.8586 191.578H39.9609V187.255H41.6597V198.891H40.0006V197.533H39.8586C39.7563 197.719 39.6086 197.931 39.4154 198.169C39.226 198.408 38.9646 198.616 38.6313 198.794C38.298 198.972 37.8662 199.061 37.3359 199.061ZM37.7109 197.612C38.1995 197.612 38.6124 197.484 38.9495 197.226C39.2904 196.965 39.548 196.603 39.7222 196.141C39.9002 195.679 39.9893 195.141 39.9893 194.527C39.9893 193.921 39.9021 193.391 39.7279 192.936C39.5537 192.482 39.298 192.128 38.9609 191.874C38.6237 191.62 38.2071 191.493 37.7109 191.493C37.1995 191.493 36.7734 191.626 36.4324 191.891C36.0915 192.156 35.834 192.518 35.6597 192.976C35.4893 193.434 35.404 193.951 35.404 194.527C35.404 195.111 35.4912 195.635 35.6654 196.101C35.8396 196.567 36.0972 196.936 36.4381 197.209C36.7828 197.478 37.2071 197.612 37.7109 197.612ZM43.9084 198.891V190.164H45.5391V191.584H45.6471C45.8289 191.103 46.1262 190.728 46.5391 190.459C46.952 190.186 47.4463 190.05 48.0221 190.05C48.6054 190.05 49.094 190.186 49.488 190.459C49.8857 190.732 50.1793 191.107 50.3687 191.584H50.4596C50.6679 191.118 50.9993 190.747 51.4539 190.47C51.9084 190.19 52.4501 190.05 53.0789 190.05C53.8706 190.05 54.5164 190.298 55.0164 190.794C55.5202 191.29 55.7721 192.039 55.7721 193.039V198.891H54.0732V193.198C54.0732 192.607 53.9122 192.179 53.5903 191.914C53.2683 191.648 52.8838 191.516 52.4368 191.516C51.8838 191.516 51.4539 191.686 51.1471 192.027C50.8403 192.364 50.6868 192.798 50.6868 193.328V198.891H48.9937V193.09C48.9937 192.616 48.8459 192.236 48.5505 191.948C48.255 191.66 47.8706 191.516 47.3971 191.516C47.0751 191.516 46.7778 191.601 46.505 191.772C46.2361 191.938 46.0183 192.171 45.8516 192.47C45.6887 192.77 45.6073 193.116 45.6073 193.51V198.891H43.9084ZM57.8731 198.891V190.164H59.5719V198.891H57.8731ZM58.731 188.817C58.4356 188.817 58.1818 188.719 57.9696 188.522C57.7613 188.321 57.6571 188.082 57.6571 187.806C57.6571 187.525 57.7613 187.287 57.9696 187.09C58.1818 186.889 58.4356 186.789 58.731 186.789C59.0265 186.789 59.2784 186.889 59.4867 187.09C59.6988 187.287 59.8049 187.525 59.8049 187.806C59.8049 188.082 59.6988 188.321 59.4867 188.522C59.2784 188.719 59.0265 188.817 58.731 188.817ZM63.3803 193.709V198.891H61.6814V190.164H63.3121V191.584H63.4201C63.6208 191.122 63.9352 190.751 64.3633 190.47C64.7951 190.19 65.3386 190.05 65.9939 190.05C66.5886 190.05 67.1095 190.175 67.5564 190.425C68.0034 190.671 68.35 191.039 68.5962 191.527C68.8424 192.016 68.9655 192.62 68.9655 193.34V198.891H67.2667V193.544C67.2667 192.912 67.1019 192.417 66.7723 192.061C66.4428 191.701 65.9901 191.522 65.4144 191.522C65.0204 191.522 64.6701 191.607 64.3633 191.777C64.0602 191.948 63.8197 192.198 63.6417 192.527C63.4674 192.853 63.3803 193.247 63.3803 193.709ZM75.1263 202.164V190.164H76.7854V191.578H76.9274C77.0259 191.397 77.168 191.186 77.3536 190.948C77.5392 190.709 77.7968 190.501 78.1263 190.323C78.4559 190.141 78.8915 190.05 79.4331 190.05C80.1377 190.05 80.7665 190.228 81.3195 190.584C81.8725 190.94 82.3062 191.453 82.6206 192.124C82.9388 192.794 83.0979 193.601 83.0979 194.544C83.0979 195.487 82.9407 196.296 82.6263 196.97C82.3119 197.641 81.8801 198.158 81.3309 198.522C80.7816 198.881 80.1547 199.061 79.4502 199.061C78.9199 199.061 78.4862 198.972 78.149 198.794C77.8157 198.616 77.5543 198.408 77.3649 198.169C77.1755 197.931 77.0297 197.719 76.9274 197.533H76.8252V202.164H75.1263ZM76.7911 194.527C76.7911 195.141 76.8801 195.679 77.0581 196.141C77.2362 196.603 77.4937 196.965 77.8309 197.226C78.168 197.484 78.5809 197.612 79.0695 197.612C79.5771 197.612 80.0013 197.478 80.3422 197.209C80.6831 196.936 80.9407 196.567 81.1149 196.101C81.293 195.635 81.382 195.111 81.382 194.527C81.382 193.951 81.2949 193.434 81.1206 192.976C80.9502 192.518 80.6926 192.156 80.3479 191.891C80.007 191.626 79.5809 191.493 79.0695 191.493C78.5771 191.493 78.1604 191.62 77.8195 191.874C77.4824 192.128 77.2267 192.482 77.0524 192.936C76.8782 193.391 76.7911 193.921 76.7911 194.527ZM87.3651 199.084C86.812 199.084 86.312 198.982 85.8651 198.777C85.4181 198.569 85.0639 198.268 84.8026 197.874C84.545 197.48 84.4162 196.997 84.4162 196.425C84.4162 195.933 84.5109 195.527 84.7003 195.209C84.8897 194.891 85.1454 194.639 85.4673 194.453C85.7893 194.268 86.1492 194.128 86.5469 194.033C86.9446 193.938 87.3499 193.866 87.7628 193.817C88.2855 193.756 88.7098 193.707 89.0355 193.669C89.3613 193.628 89.598 193.561 89.7458 193.47C89.8935 193.38 89.9673 193.232 89.9673 193.027V192.987C89.9673 192.491 89.8272 192.107 89.5469 191.834C89.2704 191.561 88.8575 191.425 88.3083 191.425C87.7363 191.425 87.2855 191.552 86.956 191.806C86.6302 192.056 86.4048 192.334 86.2798 192.641L84.6833 192.277C84.8727 191.747 85.1492 191.319 85.5128 190.993C85.8802 190.664 86.3026 190.425 86.7798 190.277C87.2571 190.126 87.759 190.05 88.2855 190.05C88.634 190.05 89.0033 190.092 89.3935 190.175C89.7874 190.255 90.1548 190.402 90.4958 190.618C90.8405 190.834 91.1227 191.143 91.3423 191.544C91.562 191.942 91.6719 192.459 91.6719 193.095V198.891H90.0128V197.698H89.9446C89.8348 197.917 89.67 198.133 89.4503 198.345C89.2306 198.558 88.9484 198.734 88.6037 198.874C88.259 199.014 87.8461 199.084 87.3651 199.084ZM87.7344 197.72C88.2041 197.72 88.6056 197.628 88.9389 197.442C89.2761 197.256 89.5317 197.014 89.706 196.715C89.884 196.412 89.973 196.088 89.973 195.743V194.618C89.9124 194.679 89.795 194.736 89.6208 194.789C89.4503 194.838 89.2552 194.881 89.0355 194.919C88.8158 194.953 88.6018 194.986 88.3935 195.016C88.1852 195.042 88.0109 195.065 87.8708 195.084C87.5412 195.126 87.2401 195.196 86.9673 195.294C86.6984 195.393 86.4825 195.535 86.3196 195.72C86.1605 195.902 86.081 196.145 86.081 196.448C86.081 196.868 86.2363 197.186 86.5469 197.402C86.8575 197.614 87.2533 197.72 87.7344 197.72ZM97.4178 202.345C96.7246 202.345 96.128 202.255 95.628 202.073C95.1318 201.891 94.7265 201.65 94.4121 201.351C94.0977 201.052 93.8629 200.724 93.7075 200.368L95.1678 199.766C95.27 199.933 95.4064 200.109 95.5769 200.294C95.7511 200.484 95.986 200.645 96.2814 200.777C96.5807 200.91 96.9651 200.976 97.4348 200.976C98.0788 200.976 98.611 200.819 99.0314 200.505C99.4519 200.194 99.6621 199.698 99.6621 199.016V197.3H99.5541C99.4519 197.486 99.3041 197.692 99.111 197.919C98.9216 198.147 98.6602 198.344 98.3269 198.51C97.9935 198.677 97.5598 198.76 97.0257 198.76C96.3363 198.76 95.7151 198.599 95.1621 198.277C94.6129 197.951 94.1772 197.472 93.8553 196.84C93.5371 196.203 93.378 195.421 93.378 194.493C93.378 193.565 93.5352 192.77 93.8496 192.107C94.1678 191.444 94.6034 190.936 95.1564 190.584C95.7094 190.228 96.3363 190.05 97.0371 190.05C97.5788 190.05 98.0163 190.141 98.3496 190.323C98.6829 190.501 98.9424 190.709 99.128 190.948C99.3174 191.186 99.4632 191.397 99.5655 191.578H99.6905V190.164H101.355V199.084C101.355 199.834 101.181 200.45 100.833 200.931C100.484 201.412 100.012 201.768 99.4178 201.999C98.8269 202.23 98.1602 202.345 97.4178 202.345ZM97.4007 197.351C97.8894 197.351 98.3022 197.237 98.6394 197.01C98.9803 196.779 99.2379 196.45 99.4121 196.022C99.5901 195.59 99.6791 195.073 99.6791 194.47C99.6791 193.883 99.592 193.366 99.4178 192.919C99.2435 192.472 98.9879 192.124 98.6507 191.874C98.3136 191.62 97.8969 191.493 97.4007 191.493C96.8894 191.493 96.4632 191.626 96.1223 191.891C95.7814 192.152 95.5238 192.508 95.3496 192.959C95.1791 193.41 95.0939 193.914 95.0939 194.47C95.0939 195.042 95.181 195.544 95.3553 195.976C95.5295 196.408 95.7871 196.745 96.128 196.987C96.4727 197.23 96.8969 197.351 97.4007 197.351ZM107.219 199.067C106.359 199.067 105.619 198.883 104.997 198.516C104.38 198.145 103.903 197.624 103.566 196.953C103.232 196.279 103.066 195.489 103.066 194.584C103.066 193.69 103.232 192.902 103.566 192.22C103.903 191.539 104.372 191.006 104.975 190.624C105.581 190.241 106.289 190.05 107.1 190.05C107.592 190.05 108.069 190.131 108.532 190.294C108.994 190.457 109.408 190.713 109.776 191.061C110.143 191.41 110.433 191.862 110.645 192.419C110.857 192.972 110.963 193.645 110.963 194.436V195.039H104.026V193.766H109.299C109.299 193.319 109.208 192.923 109.026 192.578C108.844 192.23 108.588 191.955 108.259 191.755C107.933 191.554 107.55 191.453 107.111 191.453C106.634 191.453 106.217 191.571 105.861 191.806C105.509 192.037 105.236 192.34 105.043 192.715C104.854 193.086 104.759 193.489 104.759 193.925V194.919C104.759 195.503 104.861 195.999 105.066 196.408C105.274 196.817 105.564 197.13 105.935 197.345C106.306 197.558 106.74 197.664 107.236 197.664C107.558 197.664 107.852 197.618 108.117 197.527C108.382 197.433 108.611 197.292 108.804 197.107C108.997 196.921 109.145 196.692 109.247 196.419L110.855 196.709C110.727 197.183 110.496 197.597 110.162 197.953C109.833 198.306 109.418 198.58 108.918 198.777C108.422 198.97 107.855 199.067 107.219 199.067Z" fill="white"/>
<ellipse cx="319.427" cy="193.13" rx="54.5686" ry="55.6386" fill="#155A32"/>
<path d="M300.042 187.619C299.188 187.619 298.399 187.481 297.674 187.203C296.959 186.915 296.335 186.515 295.802 186.003C295.279 185.481 294.868 184.873 294.57 184.179C294.271 183.486 294.122 182.723 294.122 181.891C294.122 181.059 294.271 180.297 294.57 179.603C294.868 178.91 295.284 178.307 295.818 177.795C296.351 177.273 296.975 176.873 297.69 176.595C298.415 176.307 299.204 176.163 300.058 176.163C300.922 176.163 301.716 176.313 302.442 176.611C303.178 176.899 303.802 177.331 304.314 177.907L303.274 178.915C302.847 178.467 302.367 178.137 301.834 177.923C301.3 177.699 300.73 177.587 300.122 177.587C299.492 177.587 298.906 177.694 298.362 177.907C297.828 178.121 297.364 178.419 296.97 178.803C296.575 179.187 296.266 179.646 296.042 180.179C295.828 180.702 295.722 181.273 295.722 181.891C295.722 182.51 295.828 183.086 296.042 183.619C296.266 184.142 296.575 184.595 296.97 184.979C297.364 185.363 297.828 185.662 298.362 185.875C298.906 186.089 299.492 186.195 300.122 186.195C300.73 186.195 301.3 186.089 301.834 185.875C302.367 185.651 302.847 185.31 303.274 184.851L304.314 185.859C303.802 186.435 303.178 186.873 302.442 187.171C301.716 187.47 300.916 187.619 300.042 187.619ZM306.196 187.491V179.011H307.668V181.315L307.524 180.739C307.759 180.153 308.154 179.705 308.708 179.395C309.263 179.086 309.946 178.931 310.756 178.931V180.419C310.692 180.409 310.628 180.403 310.564 180.403C310.511 180.403 310.458 180.403 310.404 180.403C309.583 180.403 308.932 180.649 308.452 181.139C307.972 181.63 307.732 182.339 307.732 183.267V187.491H306.196ZM316.171 187.587C315.265 187.587 314.465 187.401 313.771 187.027C313.089 186.654 312.555 186.142 312.171 185.491C311.798 184.841 311.611 184.094 311.611 183.251C311.611 182.409 311.793 181.662 312.155 181.011C312.529 180.361 313.035 179.854 313.675 179.491C314.326 179.118 315.057 178.931 315.867 178.931C316.689 178.931 317.414 179.113 318.043 179.475C318.673 179.838 319.163 180.35 319.515 181.011C319.878 181.662 320.059 182.425 320.059 183.299C320.059 183.363 320.054 183.438 320.043 183.523C320.043 183.609 320.038 183.689 320.027 183.763H312.811V182.659H319.227L318.603 183.043C318.614 182.499 318.502 182.014 318.267 181.587C318.033 181.161 317.707 180.83 317.291 180.595C316.886 180.35 316.411 180.227 315.867 180.227C315.334 180.227 314.859 180.35 314.443 180.595C314.027 180.83 313.702 181.166 313.467 181.603C313.233 182.03 313.115 182.521 313.115 183.075V183.331C313.115 183.897 313.243 184.403 313.499 184.851C313.766 185.289 314.134 185.63 314.603 185.875C315.073 186.121 315.611 186.243 316.219 186.243C316.721 186.243 317.174 186.158 317.579 185.987C317.995 185.817 318.358 185.561 318.667 185.219L319.515 186.211C319.131 186.659 318.651 187.001 318.075 187.235C317.51 187.47 316.875 187.587 316.171 187.587ZM327.046 187.491V185.699L326.966 185.363V182.307C326.966 181.657 326.774 181.155 326.39 180.803C326.016 180.441 325.451 180.259 324.694 180.259C324.192 180.259 323.702 180.345 323.222 180.515C322.742 180.675 322.336 180.894 322.006 181.171L321.366 180.019C321.803 179.667 322.326 179.401 322.934 179.219C323.552 179.027 324.198 178.931 324.87 178.931C326.032 178.931 326.928 179.214 327.558 179.779C328.187 180.345 328.502 181.209 328.502 182.371V187.491H327.046ZM324.262 187.587C323.632 187.587 323.078 187.481 322.598 187.267C322.128 187.054 321.766 186.761 321.51 186.387C321.254 186.003 321.126 185.571 321.126 185.091C321.126 184.633 321.232 184.217 321.446 183.843C321.67 183.47 322.027 183.171 322.518 182.947C323.019 182.723 323.691 182.611 324.534 182.611H327.222V183.715H324.598C323.83 183.715 323.312 183.843 323.046 184.099C322.779 184.355 322.646 184.665 322.646 185.027C322.646 185.443 322.811 185.779 323.142 186.035C323.472 186.281 323.931 186.403 324.518 186.403C325.094 186.403 325.595 186.275 326.022 186.019C326.459 185.763 326.774 185.39 326.966 184.899L327.27 185.955C327.067 186.457 326.71 186.857 326.198 187.155C325.686 187.443 325.04 187.587 324.262 187.587ZM334.08 187.587C333.227 187.587 332.566 187.358 332.096 186.899C331.627 186.441 331.392 185.785 331.392 184.931V177.155H332.928V184.867C332.928 185.326 333.04 185.678 333.264 185.923C333.499 186.169 333.83 186.291 334.256 186.291C334.736 186.291 335.136 186.158 335.456 185.891L335.936 186.995C335.702 187.198 335.419 187.347 335.088 187.443C334.768 187.539 334.432 187.587 334.08 187.587ZM329.952 180.275V179.011H335.36V180.275H329.952ZM341.112 187.587C340.205 187.587 339.405 187.401 338.712 187.027C338.029 186.654 337.496 186.142 337.112 185.491C336.739 184.841 336.552 184.094 336.552 183.251C336.552 182.409 336.733 181.662 337.096 181.011C337.469 180.361 337.976 179.854 338.616 179.491C339.267 179.118 339.997 178.931 340.808 178.931C341.629 178.931 342.355 179.113 342.984 179.475C343.613 179.838 344.104 180.35 344.456 181.011C344.819 181.662 345 182.425 345 183.299C345 183.363 344.995 183.438 344.984 183.523C344.984 183.609 344.979 183.689 344.968 183.763H337.752V182.659H344.168L343.544 183.043C343.555 182.499 343.443 182.014 343.208 181.587C342.973 181.161 342.648 180.83 342.232 180.595C341.827 180.35 341.352 180.227 340.808 180.227C340.275 180.227 339.8 180.35 339.384 180.595C338.968 180.83 338.643 181.166 338.408 181.603C338.173 182.03 338.056 182.521 338.056 183.075V183.331C338.056 183.897 338.184 184.403 338.44 184.851C338.707 185.289 339.075 185.63 339.544 185.875C340.013 186.121 340.552 186.243 341.16 186.243C341.661 186.243 342.115 186.158 342.52 185.987C342.936 185.817 343.299 185.561 343.608 185.219L344.456 186.211C344.072 186.659 343.592 187.001 343.016 187.235C342.451 187.47 341.816 187.587 341.112 187.587ZM293.628 211.491V209.699L293.548 209.363V206.307C293.548 205.657 293.356 205.155 292.972 204.803C292.599 204.441 292.034 204.259 291.276 204.259C290.775 204.259 290.284 204.345 289.804 204.515C289.324 204.675 288.919 204.894 288.588 205.171L287.948 204.019C288.386 203.667 288.908 203.401 289.516 203.219C290.135 203.027 290.78 202.931 291.452 202.931C292.615 202.931 293.511 203.214 294.14 203.779C294.77 204.345 295.084 205.209 295.084 206.371V211.491H293.628ZM290.844 211.587C290.215 211.587 289.66 211.481 289.18 211.267C288.711 211.054 288.348 210.761 288.092 210.387C287.836 210.003 287.708 209.571 287.708 209.091C287.708 208.633 287.815 208.217 288.028 207.843C288.252 207.47 288.61 207.171 289.1 206.947C289.602 206.723 290.274 206.611 291.116 206.611H293.804V207.715H291.18C290.412 207.715 289.895 207.843 289.628 208.099C289.362 208.355 289.228 208.665 289.228 209.027C289.228 209.443 289.394 209.779 289.724 210.035C290.055 210.281 290.514 210.403 291.1 210.403C291.676 210.403 292.178 210.275 292.604 210.019C293.042 209.763 293.356 209.39 293.548 208.899L293.852 209.955C293.65 210.457 293.292 210.857 292.78 211.155C292.268 211.443 291.623 211.587 290.844 211.587ZM301.447 211.587C300.583 211.587 299.81 211.401 299.127 211.027C298.455 210.654 297.927 210.142 297.543 209.491C297.159 208.841 296.967 208.094 296.967 207.251C296.967 206.409 297.159 205.662 297.543 205.011C297.927 204.361 298.455 203.854 299.127 203.491C299.81 203.118 300.583 202.931 301.447 202.931C302.215 202.931 302.898 203.086 303.495 203.395C304.103 203.694 304.572 204.142 304.903 204.739L303.735 205.491C303.458 205.075 303.116 204.771 302.711 204.579C302.316 204.377 301.89 204.275 301.431 204.275C300.876 204.275 300.38 204.398 299.943 204.643C299.506 204.889 299.159 205.235 298.903 205.683C298.647 206.121 298.519 206.643 298.519 207.251C298.519 207.859 298.647 208.387 298.903 208.835C299.159 209.283 299.506 209.63 299.943 209.875C300.38 210.121 300.876 210.243 301.431 210.243C301.89 210.243 302.316 210.147 302.711 209.955C303.116 209.753 303.458 209.443 303.735 209.027L304.903 209.763C304.572 210.35 304.103 210.803 303.495 211.123C302.898 211.433 302.215 211.587 301.447 211.587ZM310.286 211.587C309.422 211.587 308.649 211.401 307.966 211.027C307.294 210.654 306.766 210.142 306.382 209.491C305.998 208.841 305.806 208.094 305.806 207.251C305.806 206.409 305.998 205.662 306.382 205.011C306.766 204.361 307.294 203.854 307.966 203.491C308.649 203.118 309.422 202.931 310.286 202.931C311.054 202.931 311.737 203.086 312.334 203.395C312.942 203.694 313.412 204.142 313.742 204.739L312.574 205.491C312.297 205.075 311.956 204.771 311.55 204.579C311.156 204.377 310.729 204.275 310.27 204.275C309.716 204.275 309.22 204.398 308.782 204.643C308.345 204.889 307.998 205.235 307.742 205.683C307.486 206.121 307.358 206.643 307.358 207.251C307.358 207.859 307.486 208.387 307.742 208.835C307.998 209.283 308.345 209.63 308.782 209.875C309.22 210.121 309.716 210.243 310.27 210.243C310.729 210.243 311.156 210.147 311.55 209.955C311.956 209.753 312.297 209.443 312.574 209.027L313.742 209.763C313.412 210.35 312.942 210.803 312.334 211.123C311.737 211.433 311.054 211.587 310.286 211.587ZM319.062 211.587C318.209 211.587 317.451 211.401 316.79 211.027C316.129 210.654 315.606 210.142 315.222 209.491C314.838 208.83 314.646 208.083 314.646 207.251C314.646 206.409 314.838 205.662 315.222 205.011C315.606 204.361 316.129 203.854 316.79 203.491C317.451 203.118 318.209 202.931 319.062 202.931C319.905 202.931 320.657 203.118 321.318 203.491C321.99 203.854 322.513 204.361 322.886 205.011C323.27 205.651 323.462 206.398 323.462 207.251C323.462 208.094 323.27 208.841 322.886 209.491C322.513 210.142 321.99 210.654 321.318 211.027C320.657 211.401 319.905 211.587 319.062 211.587ZM319.062 210.243C319.606 210.243 320.091 210.121 320.518 209.875C320.955 209.63 321.297 209.283 321.542 208.835C321.787 208.377 321.91 207.849 321.91 207.251C321.91 206.643 321.787 206.121 321.542 205.683C321.297 205.235 320.955 204.889 320.518 204.643C320.091 204.398 319.606 204.275 319.062 204.275C318.518 204.275 318.033 204.398 317.606 204.643C317.179 204.889 316.838 205.235 316.582 205.683C316.326 206.121 316.198 206.643 316.198 207.251C316.198 207.849 316.326 208.377 316.582 208.835C316.838 209.283 317.179 209.63 317.606 209.875C318.033 210.121 318.518 210.243 319.062 210.243ZM328.978 211.587C328.253 211.587 327.613 211.454 327.058 211.187C326.514 210.921 326.088 210.515 325.778 209.971C325.48 209.417 325.33 208.723 325.33 207.891V203.011H326.866V207.715C326.866 208.547 327.064 209.171 327.458 209.587C327.864 210.003 328.429 210.211 329.154 210.211C329.688 210.211 330.152 210.105 330.546 209.891C330.941 209.667 331.245 209.347 331.458 208.931C331.672 208.505 331.778 207.993 331.778 207.395V203.011H333.314V211.491H331.858V209.203L332.098 209.811C331.821 210.377 331.405 210.814 330.85 211.123C330.296 211.433 329.672 211.587 328.978 211.587ZM340.59 202.931C341.284 202.931 341.892 203.065 342.414 203.331C342.948 203.598 343.364 204.003 343.662 204.547C343.961 205.091 344.11 205.779 344.11 206.611V211.491H342.574V206.787C342.574 205.966 342.372 205.347 341.966 204.931C341.572 204.515 341.012 204.307 340.286 204.307C339.742 204.307 339.268 204.414 338.862 204.627C338.457 204.841 338.142 205.155 337.918 205.571C337.705 205.987 337.598 206.505 337.598 207.123V211.491H336.062V203.011H337.534V205.299L337.294 204.691C337.572 204.137 337.998 203.705 338.574 203.395C339.15 203.086 339.822 202.931 340.59 202.931ZM349.689 211.587C348.836 211.587 348.174 211.358 347.705 210.899C347.236 210.441 347.001 209.785 347.001 208.931V201.155H348.537V208.867C348.537 209.326 348.649 209.678 348.873 209.923C349.108 210.169 349.438 210.291 349.865 210.291C350.345 210.291 350.745 210.158 351.065 209.891L351.545 210.995C351.31 211.198 351.028 211.347 350.697 211.443C350.377 211.539 350.041 211.587 349.689 211.587ZM345.561 204.275V203.011H350.969V204.275H345.561Z" fill="white"/>
<ellipse cx="668.431" cy="55.6386" rx="54.5686" ry="55.6386" fill="#155A32"/>
<path d="M646.184 62H644.648L644.632 53.84L640.584 60.64H639.848L635.8 53.888V62H634.264V50.8H635.576L640.248 58.672L644.856 50.8H646.168L646.184 62ZM652.233 53.44C654.553 53.44 655.865 54.56 655.865 56.88V62H654.409V60.88C653.897 61.648 652.953 62.096 651.625 62.096C649.705 62.096 648.489 61.072 648.489 59.6C648.489 58.24 649.369 57.12 651.897 57.12H654.329V56.816C654.329 55.52 653.577 54.768 652.057 54.768C651.049 54.768 650.025 55.12 649.369 55.68L648.729 54.528C649.609 53.824 650.873 53.44 652.233 53.44ZM651.881 60.912C653.033 60.912 653.945 60.384 654.329 59.408V58.224H651.961C650.441 58.224 650.009 58.816 650.009 59.536C650.009 60.384 650.713 60.912 651.881 60.912ZM663.06 53.44C665.124 53.44 666.58 54.624 666.58 57.12V62H665.044V57.296C665.044 55.632 664.212 54.816 662.756 54.816C661.124 54.816 660.068 55.792 660.068 57.632V62H658.532V53.52H660.004V54.8C660.628 53.936 661.716 53.44 663.06 53.44ZM672.335 53.44C674.655 53.44 675.967 54.56 675.967 56.88V62H674.511V60.88C673.999 61.648 673.055 62.096 671.727 62.096C669.807 62.096 668.591 61.072 668.591 59.6C668.591 58.24 669.471 57.12 671.999 57.12H674.431V56.816C674.431 55.52 673.679 54.768 672.159 54.768C671.151 54.768 670.127 55.12 669.471 55.68L668.831 54.528C669.711 53.824 670.975 53.44 672.335 53.44ZM671.983 60.912C673.135 60.912 674.047 60.384 674.431 59.408V58.224H672.063C670.543 58.224 670.111 58.816 670.111 59.536C670.111 60.384 670.815 60.912 671.983 60.912ZM685.336 53.52H686.792V60.848C686.792 63.84 685.272 65.2 682.392 65.2C680.84 65.2 679.272 64.768 678.344 63.936L679.08 62.752C679.864 63.424 681.096 63.856 682.344 63.856C684.344 63.856 685.256 62.928 685.256 61.008V60.336C684.52 61.216 683.416 61.648 682.2 61.648C679.752 61.648 677.896 59.984 677.896 57.536C677.896 55.088 679.752 53.44 682.2 53.44C683.464 53.44 684.616 53.904 685.336 54.832V53.52ZM682.376 60.304C684.072 60.304 685.288 59.168 685.288 57.536C685.288 55.888 684.072 54.784 682.376 54.784C680.664 54.784 679.448 55.888 679.448 57.536C679.448 59.168 680.664 60.304 682.376 60.304ZM697.215 57.808C697.215 57.936 697.199 58.128 697.183 58.272H690.303C690.495 59.76 691.695 60.752 693.375 60.752C694.367 60.752 695.199 60.416 695.823 59.728L696.671 60.72C695.903 61.616 694.735 62.096 693.327 62.096C690.591 62.096 688.767 60.288 688.767 57.76C688.767 55.248 690.575 53.44 693.023 53.44C695.471 53.44 697.215 55.2 697.215 57.808ZM693.023 54.736C691.551 54.736 690.463 55.728 690.303 57.168H695.743C695.583 55.744 694.511 54.736 693.023 54.736ZM700.644 54.944C701.188 53.952 702.244 53.44 703.732 53.44V54.928C703.604 54.912 703.492 54.912 703.38 54.912C701.732 54.912 700.708 55.92 700.708 57.776V62H699.172V53.52H700.644V54.944Z" fill="white"/>
<ellipse cx="668.431" cy="193.13" rx="54.5686" ry="55.6386" fill="#155A32"/>
<path d="M665.926 188.291H667.526V199.491H665.926V194.499H659.494V199.491H657.894V188.291H659.494V193.107H665.926V188.291ZM679.935 199.491H678.191L675.775 196.051C675.551 196.067 675.311 196.083 675.071 196.083H672.303V199.491H670.703V188.291H675.071C677.983 188.291 679.743 189.763 679.743 192.195C679.743 193.923 678.847 195.171 677.279 195.731L679.935 199.491ZM675.023 194.723C677.071 194.723 678.143 193.795 678.143 192.195C678.143 190.595 677.071 189.683 675.023 189.683H672.303V194.723H675.023Z" fill="white"/>
<ellipse cx="668.431" cy="332.761" rx="54.5686" ry="55.6386" fill="#155A32"/>
<path d="M655.112 327.251C653.4 327.251 651.72 326.675 650.824 325.843L651.416 324.595C652.248 325.347 653.672 325.891 655.112 325.891C657.048 325.891 657.88 325.139 657.88 324.163C657.88 321.427 651.096 323.155 651.096 318.995C651.096 317.267 652.44 315.795 655.384 315.795C656.696 315.795 658.056 316.147 658.984 316.787L658.456 318.067C657.48 317.443 656.376 317.155 655.384 317.155C653.48 317.155 652.664 317.955 652.664 318.931C652.664 321.667 659.448 319.955 659.448 324.067C659.448 325.779 658.072 327.251 655.112 327.251ZM665.674 325.523L666.154 326.627C665.69 327.027 664.986 327.219 664.298 327.219C662.586 327.219 661.61 326.275 661.61 324.563V319.907H660.17V318.643H661.61V316.787H663.146V318.643H665.578V319.907H663.146V324.499C663.146 325.411 663.626 325.923 664.474 325.923C664.922 325.923 665.354 325.779 665.674 325.523ZM670.923 318.563C673.243 318.563 674.555 319.683 674.555 322.003V327.123H673.099V326.003C672.587 326.771 671.643 327.219 670.315 327.219C668.395 327.219 667.179 326.195 667.179 324.723C667.179 323.363 668.059 322.243 670.587 322.243H673.019V321.939C673.019 320.643 672.267 319.891 670.747 319.891C669.739 319.891 668.715 320.243 668.059 320.803L667.419 319.651C668.299 318.947 669.563 318.563 670.923 318.563ZM670.571 326.035C671.723 326.035 672.635 325.507 673.019 324.531V323.347H670.651C669.131 323.347 668.699 323.939 668.699 324.659C668.699 325.507 669.403 326.035 670.571 326.035ZM680.325 316.419C679.413 316.419 678.949 316.931 678.949 317.907V318.643H681.413V319.907H678.981V327.123H677.445V319.907H676.005V318.643H677.445V317.891C677.445 316.243 678.437 315.155 680.245 315.155C680.901 315.155 681.541 315.315 681.973 315.651L681.509 316.819C681.189 316.579 680.773 316.419 680.325 316.419ZM685.79 316.419C684.878 316.419 684.414 316.931 684.414 317.907V318.643H686.878V319.907H684.446V327.123H682.91V319.907H681.47V318.643H682.91V317.891C682.91 316.243 683.902 315.155 685.71 315.155C686.366 315.155 687.006 315.315 687.438 315.651L686.974 316.819C686.654 316.579 686.238 316.419 685.79 316.419ZM643.735 342.563C646.055 342.563 647.367 343.683 647.367 346.003V351.123H645.911V350.003C645.399 350.771 644.455 351.219 643.127 351.219C641.207 351.219 639.991 350.195 639.991 348.723C639.991 347.363 640.871 346.243 643.399 346.243H645.831V345.939C645.831 344.643 645.079 343.891 643.559 343.891C642.551 343.891 641.527 344.243 640.871 344.803L640.231 343.651C641.111 342.947 642.375 342.563 643.735 342.563ZM643.383 350.035C644.535 350.035 645.447 349.507 645.831 348.531V347.347H643.463C641.943 347.347 641.511 347.939 641.511 348.659C641.511 349.507 642.215 350.035 643.383 350.035ZM656.737 342.643H658.193V349.971C658.193 352.963 656.673 354.323 653.793 354.323C652.241 354.323 650.673 353.891 649.745 353.059L650.481 351.875C651.265 352.547 652.497 352.979 653.745 352.979C655.745 352.979 656.657 352.051 656.657 350.131V349.459C655.921 350.339 654.817 350.771 653.601 350.771C651.153 350.771 649.297 349.107 649.297 346.659C649.297 344.211 651.153 342.563 653.601 342.563C654.865 342.563 656.017 343.027 656.737 343.955V342.643ZM653.777 349.427C655.473 349.427 656.689 348.291 656.689 346.659C656.689 345.011 655.473 343.907 653.777 343.907C652.065 343.907 650.849 345.011 650.849 346.659C650.849 348.291 652.065 349.427 653.777 349.427ZM668.616 346.931C668.616 347.059 668.6 347.251 668.584 347.395H661.704C661.896 348.883 663.096 349.875 664.776 349.875C665.768 349.875 666.6 349.539 667.224 348.851L668.072 349.843C667.304 350.739 666.136 351.219 664.728 351.219C661.992 351.219 660.168 349.411 660.168 346.883C660.168 344.371 661.976 342.563 664.424 342.563C666.872 342.563 668.616 344.323 668.616 346.931ZM664.424 343.859C662.952 343.859 661.864 344.851 661.704 346.291H667.144C666.984 344.867 665.912 343.859 664.424 343.859ZM675.101 342.563C677.165 342.563 678.621 343.747 678.621 346.243V351.123H677.085V346.419C677.085 344.755 676.253 343.939 674.797 343.939C673.165 343.939 672.109 344.915 672.109 346.755V351.123H670.573V342.643H672.045V343.923C672.669 343.059 673.757 342.563 675.101 342.563ZM685.03 351.219C682.422 351.219 680.55 349.411 680.55 346.883C680.55 344.355 682.422 342.563 685.03 342.563C686.55 342.563 687.814 343.187 688.486 344.371L687.318 345.123C686.774 344.291 685.942 343.907 685.014 343.907C683.35 343.907 682.102 345.075 682.102 346.883C682.102 348.723 683.35 349.875 685.014 349.875C685.942 349.875 686.774 349.491 687.318 348.659L688.486 349.395C687.814 350.579 686.55 351.219 685.03 351.219ZM696.189 342.643H697.693L693.581 351.971C692.829 353.763 691.853 354.323 690.557 354.323C689.741 354.323 688.909 354.051 688.381 353.539L689.037 352.387C689.453 352.787 689.981 353.011 690.557 353.011C691.293 353.011 691.757 352.675 692.173 351.699L692.445 351.107L688.701 342.643H690.301L693.261 349.427L696.189 342.643Z" fill="white"/>
<path d="M377.996 191.63C377.168 191.63 376.496 192.302 376.496 193.13C376.496 193.959 377.168 194.63 377.996 194.63V191.63ZM610.923 56.6993C611.509 56.1135 611.509 55.1638 610.923 54.578L601.378 45.0321C600.792 44.4463 599.842 44.4463 599.256 45.0321C598.67 45.6179 598.67 46.5676 599.256 47.1534L607.742 55.6387L599.256 64.124C598.67 64.7097 598.67 65.6595 599.256 66.2453C599.842 66.8311 600.792 66.8311 601.378 66.2453L610.923 56.6993ZM377.996 194.63H469.929V191.63H377.996V194.63ZM495.429 169.13V79.6387H492.429V169.13H495.429ZM517.929 57.1387H609.863V54.1387H517.929V57.1387ZM495.429 79.6387C495.429 67.2123 505.503 57.1387 517.929 57.1387V54.1387C503.846 54.1387 492.429 65.5554 492.429 79.6387H495.429ZM469.929 194.63C484.013 194.63 495.429 183.213 495.429 169.13H492.429C492.429 181.557 482.356 191.63 469.929 191.63V194.63Z" fill="#85E0A3"/>
<path d="M377.996 191.63C377.168 191.63 376.496 192.301 376.496 193.13C376.496 193.958 377.168 194.63 377.996 194.63V191.63ZM610.923 194.191C611.509 193.605 611.509 192.655 610.923 192.069L601.378 182.523C600.792 181.937 599.842 181.937 599.256 182.523C598.67 183.109 598.67 184.059 599.256 184.645L607.742 193.13L599.256 201.615C598.67 202.201 598.67 203.151 599.256 203.736C599.842 204.322 600.792 204.322 601.378 203.736L610.923 194.191ZM377.996 194.63H609.863V191.63H377.996V194.63Z" fill="#85E0A3"/>
<path d="M377.996 191.63C377.168 191.63 376.496 192.301 376.496 193.13C376.496 193.958 377.168 194.63 377.996 194.63V191.63ZM610.923 333.822C611.509 333.236 611.509 332.286 610.923 331.701L601.378 322.155C600.792 321.569 599.842 321.569 599.256 322.155C598.67 322.74 598.67 323.69 599.256 324.276L607.742 332.761L599.256 341.247C598.67 341.832 598.67 342.782 599.256 343.368C599.842 343.954 600.792 343.954 601.378 343.368L610.923 333.822ZM377.996 194.63H469.929V191.63H377.996V194.63ZM492.429 217.13V308.761H495.429V217.13H492.429ZM517.929 334.261H609.863V331.261H517.929V334.261ZM492.429 308.761C492.429 322.844 503.846 334.261 517.929 334.261V331.261C505.503 331.261 495.429 321.188 495.429 308.761H492.429ZM469.929 194.63C482.356 194.63 492.429 204.703 492.429 217.13H495.429C495.429 203.047 484.013 191.63 469.929 191.63V194.63Z" fill="#85E0A3"/>
<path d="M137.747 191.63C136.918 191.63 136.247 192.301 136.247 193.13C136.247 193.958 136.918 194.63 137.747 194.63V191.63ZM261.92 194.191C262.505 193.605 262.505 192.655 261.92 192.069L252.374 182.523C251.788 181.937 250.838 181.937 250.252 182.523C249.667 183.109 249.667 184.059 250.252 184.645L258.738 193.13L250.252 201.615C249.667 202.201 249.667 203.151 250.252 203.736C250.838 204.322 251.788 204.322 252.374 203.736L261.92 194.191ZM137.747 194.63H260.859V191.63H137.747V194.63Z" fill="#85E0A3"/>
</svg>
