<svg width="310" height="698" viewBox="0 0 310 698" fill="none" xmlns="http://www.w3.org/2000/svg">
<path d="M18.2517 15.6338H12.0608V33.3589H7.15649V15.6338H0.99585V11.6528H18.2517V15.6338ZM35.5833 33.3589H30.8152V24.5493C30.8152 22.2788 29.9877 21.1436 28.3328 21.1436C27.4851 21.1436 26.7989 21.4614 26.2742 22.0972C25.7494 22.7329 25.4871 23.5402 25.4871 24.519V33.3589H20.7039V10.4116H25.4871V20.1597H25.5476C26.7182 18.3735 28.3075 17.4805 30.3157 17.4805C33.8274 17.4805 35.5833 19.5996 35.5833 23.8379V33.3589ZM53.3083 26.9712H43.197C43.3585 29.2215 44.7763 30.3467 47.4504 30.3467C49.1558 30.3467 50.6544 29.943 51.946 29.1357V32.5869C50.5131 33.3538 48.6513 33.7373 46.3606 33.7373C43.858 33.7373 41.9154 33.0461 40.533 31.6636C39.1505 30.271 38.4592 28.3335 38.4592 25.8511C38.4592 23.2778 39.206 21.2394 40.6995 19.7358C42.193 18.2323 44.0295 17.4805 46.2092 17.4805C48.4696 17.4805 50.2154 18.1515 51.4465 19.4937C52.6877 20.8358 53.3083 22.6572 53.3083 24.958V26.9712ZM48.8733 24.0347C48.8733 21.8146 47.9752 20.7046 46.179 20.7046C45.412 20.7046 44.746 21.0225 44.1809 21.6582C43.6259 22.2939 43.2878 23.0861 43.1667 24.0347H48.8733ZM80.7664 33.3589H75.9983V24.519C75.9983 22.2687 75.1708 21.1436 73.5159 21.1436C72.7288 21.1436 72.088 21.4816 71.5935 22.1577C71.099 22.8338 70.8518 23.6764 70.8518 24.6855V33.3589H66.0686V24.4282C66.0686 22.2384 65.2563 21.1436 63.6316 21.1436C62.8142 21.1436 62.1583 21.4665 61.6638 22.1123C61.1794 22.7581 60.9373 23.6361 60.9373 24.7461V33.3589H56.1541V17.8589H60.9373V20.2808H60.9978C61.4923 19.4533 62.1835 18.7822 63.0715 18.2676C63.9696 17.7428 64.9485 17.4805 66.0081 17.4805C68.1978 17.4805 69.6964 18.4442 70.5037 20.3716C71.6843 18.4442 73.42 17.4805 75.7107 17.4805C79.0811 17.4805 80.7664 19.5592 80.7664 23.7168V33.3589ZM98.4763 26.9712H88.365C88.5264 29.2215 89.9443 30.3467 92.6184 30.3467C94.3238 30.3467 95.8223 29.943 97.114 29.1357V32.5869C95.6811 33.3538 93.8193 33.7373 91.5286 33.7373C89.026 33.7373 87.0834 33.0461 85.7009 31.6636C84.3184 30.271 83.6272 28.3335 83.6272 25.8511C83.6272 23.2778 84.3739 21.2394 85.8674 19.7358C87.3609 18.2323 89.1975 17.4805 91.3772 17.4805C93.6376 17.4805 95.3834 18.1515 96.6145 19.4937C97.8557 20.8358 98.4763 22.6572 98.4763 24.958V26.9712ZM94.0413 24.0347C94.0413 21.8146 93.1431 20.7046 91.3469 20.7046C90.58 20.7046 89.914 21.0225 89.3489 21.6582C88.7939 22.2939 88.4558 23.0861 88.3347 24.0347H94.0413Z" fill="#001826" fill-opacity="0.9"/>
<path d="M19.4984 77.5349C20.2558 77.6629 20.8691 77.9296 21.3384 78.3349C21.8078 78.7402 22.0424 79.3696 22.0424 80.2229C22.0424 82.3136 20.5864 83.3589 17.6744 83.3589H14.6344V72.3349H17.2424C18.6398 72.3349 19.7064 72.5642 20.4424 73.0229C21.1891 73.4816 21.5624 74.1802 21.5624 75.1189C21.5624 75.7589 21.3598 76.2922 20.9544 76.7189C20.5598 77.1456 20.0744 77.4176 19.4984 77.5349ZM16.1544 73.5349V77.0069H17.8184C18.4584 77.0069 18.9811 76.8522 19.3864 76.5429C19.8024 76.2336 20.0104 75.7962 20.0104 75.2309C20.0104 74.5909 19.7918 74.1482 19.3544 73.9029C18.9278 73.6576 18.2771 73.5349 17.4024 73.5349H16.1544ZM17.6744 82.1429C18.5704 82.1429 19.2531 82.0096 19.7224 81.7429C20.2024 81.4762 20.4424 80.9696 20.4424 80.2229C20.4424 79.4976 20.2131 78.9749 19.7544 78.6549C19.2958 78.3349 18.6984 78.1749 17.9624 78.1749H16.1544V82.1429H17.6744ZM27.9528 74.7349C28.2515 74.7349 28.5288 74.7669 28.7848 74.8309L28.5128 76.2709C28.2568 76.2069 28.0115 76.1749 27.7768 76.1749C27.2541 76.1749 26.8328 76.3669 26.5128 76.7509C26.1928 77.1349 25.9421 77.7322 25.7608 78.5429V83.3589H24.2888V74.9269H25.5528L25.6968 76.6389C25.9208 76.0096 26.2248 75.5349 26.6088 75.2149C26.9928 74.8949 27.4408 74.7349 27.9528 74.7349ZM35.5782 81.3909C35.5782 81.7322 35.6368 81.9882 35.7542 82.1589C35.8715 82.3189 36.0475 82.4416 36.2822 82.5269L35.9462 83.5509C35.5088 83.4976 35.1568 83.3749 34.8902 83.1829C34.6235 82.9909 34.4262 82.6922 34.2982 82.2869C33.7328 83.1296 32.8955 83.5509 31.7862 83.5509C30.9542 83.5509 30.2982 83.3162 29.8182 82.8469C29.3382 82.3776 29.0982 81.7642 29.0982 81.0069C29.0982 80.1109 29.4182 79.4229 30.0582 78.9429C30.7088 78.4629 31.6262 78.2229 32.8102 78.2229H34.1062V77.5989C34.1062 77.0016 33.9622 76.5749 33.6742 76.3189C33.3862 76.0629 32.9435 75.9349 32.3462 75.9349C31.7275 75.9349 30.9702 76.0842 30.0742 76.3829L29.7062 75.3109C30.7515 74.9269 31.7222 74.7349 32.6182 74.7349C33.6102 74.7349 34.3515 74.9802 34.8422 75.4709C35.3328 75.9509 35.5782 76.6389 35.5782 77.5349V81.3909ZM32.1222 82.4469C32.9648 82.4469 33.6262 82.0096 34.1062 81.1349V79.1989H33.0022C31.4448 79.1989 30.6662 79.7749 30.6662 80.9269C30.6662 81.4282 30.7888 81.8069 31.0342 82.0629C31.2795 82.3189 31.6422 82.4469 32.1222 82.4469ZM42.5693 74.7349C43.3373 74.7349 43.9346 74.9642 44.3613 75.4229C44.7986 75.8816 45.0173 76.5109 45.0173 77.3109V83.3589H43.5453V77.5189C43.5453 76.9216 43.4333 76.5002 43.2093 76.2549C42.9853 76.0096 42.6546 75.8869 42.2173 75.8869C41.7693 75.8869 41.3746 76.0149 41.0333 76.2709C40.692 76.5269 40.372 76.8949 40.0733 77.3749V83.3589H38.6013V74.9269H39.8653L39.9933 76.1749C40.292 75.7269 40.66 75.3749 41.0973 75.1189C41.5453 74.8629 42.036 74.7349 42.5693 74.7349ZM54.5043 71.5349V83.3589H53.2083L53.0643 82.1909C52.787 82.6176 52.4403 82.9536 52.0243 83.1989C51.6083 83.4336 51.1443 83.5509 50.6323 83.5509C49.6296 83.5509 48.8456 83.1562 48.2803 82.3669C47.7256 81.5776 47.4483 80.5162 47.4483 79.1829C47.4483 78.3189 47.5816 77.5509 47.8483 76.8789C48.115 76.2069 48.499 75.6842 49.0003 75.3109C49.5016 74.9269 50.0883 74.7349 50.7603 74.7349C51.6243 74.7349 52.3816 75.0816 53.0323 75.7749V71.3589L54.5043 71.5349ZM50.9523 82.3829C51.4003 82.3829 51.7843 82.2816 52.1043 82.0789C52.4243 81.8656 52.7336 81.5509 53.0323 81.1349V77.0069C52.755 76.6442 52.4563 76.3722 52.1363 76.1909C51.827 75.9989 51.475 75.9029 51.0803 75.9029C50.4296 75.9029 49.923 76.1749 49.5603 76.7189C49.2083 77.2629 49.0323 78.0736 49.0323 79.1509C49.0323 80.2389 49.1976 81.0496 49.5283 81.5829C49.859 82.1162 50.3336 82.3829 50.9523 82.3829Z" fill="#001826" fill-opacity="0.9"/>
<path d="M14.5266 119.359C14.5266 117.15 16.3175 115.359 18.5266 115.359H50.5266C52.7357 115.359 54.5266 117.15 54.5266 119.359V151.359C54.5266 153.568 52.7358 155.359 50.5266 155.359H18.5266C16.3175 155.359 14.5266 153.568 14.5266 151.359V119.359Z" fill="#145174"/>
<path d="M12.2643 165.713L12.1243 166.847H9.45026V175.359H8.12026V166.847H5.37626V165.713H12.2643ZM18.5351 171.453C18.5351 171.668 18.5257 171.887 18.5071 172.111H13.8031C13.8591 172.923 14.0644 173.52 14.4191 173.903C14.7737 174.286 15.2311 174.477 15.7911 174.477C16.1457 174.477 16.4724 174.426 16.7711 174.323C17.0697 174.22 17.3824 174.057 17.7091 173.833L18.2691 174.603C17.4851 175.219 16.6264 175.527 15.6931 175.527C14.6664 175.527 13.8637 175.191 13.2851 174.519C12.7157 173.847 12.4311 172.923 12.4311 171.747C12.4311 170.982 12.5524 170.305 12.7951 169.717C13.0471 169.12 13.4017 168.653 13.8591 168.317C14.3257 167.981 14.8717 167.813 15.4971 167.813C16.4771 167.813 17.2284 168.135 17.7511 168.779C18.2737 169.423 18.5351 170.314 18.5351 171.453ZM17.2611 171.075C17.2611 170.347 17.1164 169.792 16.8271 169.409C16.5377 169.026 16.1037 168.835 15.5251 168.835C14.4704 168.835 13.8964 169.61 13.8031 171.159H17.2611V171.075ZM25.4252 173.637C25.4252 173.936 25.4766 174.16 25.5792 174.309C25.6819 174.449 25.8359 174.556 26.0412 174.631L25.7472 175.527C25.3646 175.48 25.0566 175.373 24.8232 175.205C24.5899 175.037 24.4172 174.776 24.3052 174.421C23.8106 175.158 23.0779 175.527 22.1072 175.527C21.3792 175.527 20.8052 175.322 20.3852 174.911C19.9652 174.5 19.7552 173.964 19.7552 173.301C19.7552 172.517 20.0352 171.915 20.5952 171.495C21.1646 171.075 21.9672 170.865 23.0032 170.865H24.1372V170.319C24.1372 169.796 24.0112 169.423 23.7592 169.199C23.5072 168.975 23.1199 168.863 22.5972 168.863C22.0559 168.863 21.3932 168.994 20.6092 169.255L20.2872 168.317C21.2019 167.981 22.0512 167.813 22.8352 167.813C23.7032 167.813 24.3519 168.028 24.7812 168.457C25.2106 168.877 25.4252 169.479 25.4252 170.263V173.637ZM22.4012 174.561C23.1386 174.561 23.7172 174.178 24.1372 173.413V171.719H23.1712C21.8086 171.719 21.1272 172.223 21.1272 173.231C21.1272 173.67 21.2346 174.001 21.4492 174.225C21.6639 174.449 21.9812 174.561 22.4012 174.561ZM29.4038 175.527C28.9278 175.527 28.5498 175.387 28.2698 175.107C27.9991 174.818 27.8638 174.416 27.8638 173.903V165.013L29.1518 164.859V173.875C29.1518 174.08 29.1844 174.23 29.2498 174.323C29.3244 174.416 29.4458 174.463 29.6138 174.463C29.7911 174.463 29.9498 174.435 30.0898 174.379L30.4258 175.275C30.1178 175.443 29.7771 175.527 29.4038 175.527ZM38.9324 165.993V175.359H37.6444V167.365L35.4604 168.695L34.9004 167.785L37.7984 165.993H38.9324ZM44.373 165.853C45.409 165.853 46.1884 166.268 46.711 167.099C47.243 167.92 47.509 169.115 47.509 170.683C47.509 172.251 47.243 173.45 46.711 174.281C46.1884 175.112 45.409 175.527 44.373 175.527C43.337 175.527 42.553 175.112 42.021 174.281C41.4984 173.45 41.237 172.251 41.237 170.683C41.237 169.115 41.4984 167.92 42.021 167.099C42.553 166.268 43.337 165.853 44.373 165.853ZM44.373 166.875C43.7664 166.875 43.3137 167.174 43.015 167.771C42.7257 168.368 42.581 169.339 42.581 170.683C42.581 172.027 42.7257 173.002 43.015 173.609C43.3137 174.206 43.7664 174.505 44.373 174.505C44.9704 174.505 45.4184 174.206 45.717 173.609C46.0157 173.002 46.165 172.027 46.165 170.683C46.165 169.348 46.0157 168.382 45.717 167.785C45.4184 167.178 44.9704 166.875 44.373 166.875ZM52.1797 165.853C53.2157 165.853 53.995 166.268 54.5177 167.099C55.0497 167.92 55.3157 169.115 55.3157 170.683C55.3157 172.251 55.0497 173.45 54.5177 174.281C53.995 175.112 53.2157 175.527 52.1797 175.527C51.1437 175.527 50.3597 175.112 49.8277 174.281C49.305 173.45 49.0437 172.251 49.0437 170.683C49.0437 169.115 49.305 167.92 49.8277 167.099C50.3597 166.268 51.1437 165.853 52.1797 165.853ZM52.1797 166.875C51.573 166.875 51.1203 167.174 50.8217 167.771C50.5323 168.368 50.3877 169.339 50.3877 170.683C50.3877 172.027 50.5323 173.002 50.8217 173.609C51.1203 174.206 51.573 174.505 52.1797 174.505C52.777 174.505 53.225 174.206 53.5237 173.609C53.8223 173.002 53.9717 172.027 53.9717 170.683C53.9717 169.348 53.8223 168.382 53.5237 167.785C53.225 167.178 52.777 166.875 52.1797 166.875ZM59.9863 165.853C61.0223 165.853 61.8017 166.268 62.3243 167.099C62.8563 167.92 63.1223 169.115 63.1223 170.683C63.1223 172.251 62.8563 173.45 62.3243 174.281C61.8017 175.112 61.0223 175.527 59.9863 175.527C58.9503 175.527 58.1663 175.112 57.6343 174.281C57.1117 173.45 56.8503 172.251 56.8503 170.683C56.8503 169.115 57.1117 167.92 57.6343 167.099C58.1663 166.268 58.9503 165.853 59.9863 165.853ZM59.9863 166.875C59.3797 166.875 58.927 167.174 58.6283 167.771C58.339 168.368 58.1943 169.339 58.1943 170.683C58.1943 172.027 58.339 173.002 58.6283 173.609C58.927 174.206 59.3797 174.505 59.9863 174.505C60.5837 174.505 61.0317 174.206 61.3303 173.609C61.629 173.002 61.7783 172.027 61.7783 170.683C61.7783 169.348 61.629 168.382 61.3303 167.785C61.0317 167.178 60.5837 166.875 59.9863 166.875Z" fill="#002033" fill-opacity="0.65"/>
<path d="M14.5266 219.359C14.5266 217.15 16.3175 215.359 18.5266 215.359H50.5266C52.7357 215.359 54.5266 217.15 54.5266 219.359V251.359C54.5266 253.568 52.7358 255.359 50.5266 255.359H18.5266C16.3175 255.359 14.5266 253.568 14.5266 251.359V219.359Z" fill="#145174" fill-opacity="0.8"/>
<path d="M27.9745 266.333C29.2905 266.865 29.9485 267.705 29.9485 268.853C29.9485 269.366 29.8085 269.828 29.5285 270.239C29.2578 270.64 28.8752 270.958 28.3805 271.191C27.8858 271.415 27.3258 271.527 26.7005 271.527C26.0658 271.527 25.5058 271.415 25.0205 271.191C24.5352 270.967 24.1572 270.654 23.8865 270.253C23.6252 269.852 23.4945 269.394 23.4945 268.881C23.4945 268.302 23.6485 267.817 23.9565 267.425C24.2738 267.033 24.7358 266.706 25.3425 266.445C24.8478 266.193 24.4792 265.89 24.2365 265.535C24.0032 265.171 23.8865 264.746 23.8865 264.261C23.8865 263.757 24.0172 263.323 24.2785 262.959C24.5492 262.595 24.8992 262.32 25.3285 262.133C25.7672 261.946 26.2338 261.853 26.7285 261.853C27.2138 261.853 27.6712 261.942 28.1005 262.119C28.5392 262.296 28.8938 262.567 29.1645 262.931C29.4352 263.286 29.5705 263.715 29.5705 264.219C29.5705 264.686 29.4398 265.087 29.1785 265.423C28.9172 265.759 28.5158 266.062 27.9745 266.333ZM26.7285 262.819C26.2432 262.819 25.8558 262.945 25.5665 263.197C25.2865 263.449 25.1465 263.808 25.1465 264.275C25.1465 264.723 25.2818 265.064 25.5525 265.297C25.8325 265.53 26.2758 265.745 26.8825 265.941L27.1205 266.025C27.5405 265.782 27.8438 265.526 28.0305 265.255C28.2172 264.984 28.3105 264.653 28.3105 264.261C28.3105 263.822 28.1705 263.472 27.8905 263.211C27.6198 262.95 27.2325 262.819 26.7285 262.819ZM26.7145 270.505C27.2932 270.505 27.7505 270.356 28.0865 270.057C28.4318 269.758 28.6045 269.362 28.6045 268.867C28.6045 268.531 28.5392 268.251 28.4085 268.027C28.2778 267.794 28.0678 267.593 27.7785 267.425C27.4892 267.248 27.0832 267.07 26.5605 266.893L26.2105 266.767C25.7438 266.991 25.3985 267.276 25.1745 267.621C24.9505 267.957 24.8385 268.377 24.8385 268.881C24.8385 269.394 25.0065 269.796 25.3425 270.085C25.6785 270.365 26.1358 270.505 26.7145 270.505ZM34.4814 261.853C35.5174 261.853 36.2968 262.268 36.8194 263.099C37.3514 263.92 37.6174 265.115 37.6174 266.683C37.6174 268.251 37.3514 269.45 36.8194 270.281C36.2968 271.112 35.5174 271.527 34.4814 271.527C33.4454 271.527 32.6614 271.112 32.1294 270.281C31.6068 269.45 31.3454 268.251 31.3454 266.683C31.3454 265.115 31.6068 263.92 32.1294 263.099C32.6614 262.268 33.4454 261.853 34.4814 261.853ZM34.4814 262.875C33.8748 262.875 33.4221 263.174 33.1234 263.771C32.8341 264.368 32.6894 265.339 32.6894 266.683C32.6894 268.027 32.8341 269.002 33.1234 269.609C33.4221 270.206 33.8748 270.505 34.4814 270.505C35.0788 270.505 35.5268 270.206 35.8254 269.609C36.1241 269.002 36.2734 268.027 36.2734 266.683C36.2734 265.348 36.1241 264.382 35.8254 263.785C35.5268 263.178 35.0788 262.875 34.4814 262.875ZM42.2881 261.853C43.3241 261.853 44.1034 262.268 44.6261 263.099C45.1581 263.92 45.4241 265.115 45.4241 266.683C45.4241 268.251 45.1581 269.45 44.6261 270.281C44.1034 271.112 43.3241 271.527 42.2881 271.527C41.2521 271.527 40.4681 271.112 39.9361 270.281C39.4134 269.45 39.1521 268.251 39.1521 266.683C39.1521 265.115 39.4134 263.92 39.9361 263.099C40.4681 262.268 41.2521 261.853 42.2881 261.853ZM42.2881 262.875C41.6814 262.875 41.2287 263.174 40.9301 263.771C40.6407 264.368 40.4961 265.339 40.4961 266.683C40.4961 268.027 40.6407 269.002 40.9301 269.609C41.2287 270.206 41.6814 270.505 42.2881 270.505C42.8854 270.505 43.3334 270.206 43.6321 269.609C43.9307 269.002 44.0801 268.027 44.0801 266.683C44.0801 265.348 43.9307 264.382 43.6321 263.785C43.3334 263.178 42.8854 262.875 42.2881 262.875Z" fill="#002033" fill-opacity="0.65"/>
<path d="M14.5266 305.359C14.5266 303.15 16.3175 301.359 18.5266 301.359H50.5266C52.7357 301.359 54.5266 303.15 54.5266 305.359V337.359C54.5266 339.568 52.7358 341.359 50.5266 341.359H18.5266C16.3175 341.359 14.5266 339.568 14.5266 337.359V305.359Z" fill="#145174" fill-opacity="0.5"/>
<path d="M29.0931 349.001H25.4391V351.759C25.9151 351.516 26.4145 351.395 26.9371 351.395C27.7398 351.395 28.3838 351.661 28.8691 352.193C29.3545 352.716 29.5971 353.439 29.5971 354.363C29.5971 354.979 29.4618 355.53 29.1911 356.015C28.9205 356.491 28.5378 356.864 28.0431 357.135C27.5578 357.396 26.9931 357.527 26.3491 357.527C25.7798 357.527 25.2711 357.429 24.8231 357.233C24.3751 357.028 23.9598 356.729 23.5771 356.337L24.3331 355.595C24.6318 355.894 24.9398 356.118 25.2571 356.267C25.5745 356.407 25.9338 356.477 26.3351 356.477C26.9325 356.477 27.3991 356.29 27.7351 355.917C28.0805 355.544 28.2531 355.016 28.2531 354.335C28.2531 353.654 28.0991 353.159 27.7911 352.851C27.4831 352.543 27.0678 352.389 26.5451 352.389C26.3025 352.389 26.0785 352.417 25.8731 352.473C25.6678 352.52 25.4485 352.599 25.2151 352.711H24.2071V347.993H29.2751L29.0931 349.001ZM34.1328 347.853C35.1688 347.853 35.9481 348.268 36.4708 349.099C37.0028 349.92 37.2688 351.115 37.2688 352.683C37.2688 354.251 37.0028 355.45 36.4708 356.281C35.9481 357.112 35.1688 357.527 34.1328 357.527C33.0968 357.527 32.3128 357.112 31.7808 356.281C31.2581 355.45 30.9968 354.251 30.9968 352.683C30.9968 351.115 31.2581 349.92 31.7808 349.099C32.3128 348.268 33.0968 347.853 34.1328 347.853ZM34.1328 348.875C33.5261 348.875 33.0735 349.174 32.7748 349.771C32.4855 350.368 32.3408 351.339 32.3408 352.683C32.3408 354.027 32.4855 355.002 32.7748 355.609C33.0735 356.206 33.5261 356.505 34.1328 356.505C34.7301 356.505 35.1781 356.206 35.4768 355.609C35.7755 355.002 35.9248 354.027 35.9248 352.683C35.9248 351.348 35.7755 350.382 35.4768 349.785C35.1781 349.178 34.7301 348.875 34.1328 348.875ZM41.9394 347.853C42.9754 347.853 43.7548 348.268 44.2774 349.099C44.8094 349.92 45.0754 351.115 45.0754 352.683C45.0754 354.251 44.8094 355.45 44.2774 356.281C43.7548 357.112 42.9754 357.527 41.9394 357.527C40.9034 357.527 40.1194 357.112 39.5874 356.281C39.0648 355.45 38.8034 354.251 38.8034 352.683C38.8034 351.115 39.0648 349.92 39.5874 349.099C40.1194 348.268 40.9034 347.853 41.9394 347.853ZM41.9394 348.875C41.3328 348.875 40.8801 349.174 40.5814 349.771C40.2921 350.368 40.1474 351.339 40.1474 352.683C40.1474 354.027 40.2921 355.002 40.5814 355.609C40.8801 356.206 41.3328 356.505 41.9394 356.505C42.5368 356.505 42.9848 356.206 43.2834 355.609C43.5821 355.002 43.7314 354.027 43.7314 352.683C43.7314 351.348 43.5821 350.382 43.2834 349.785C42.9848 349.178 42.5368 348.875 41.9394 348.875Z" fill="#002033" fill-opacity="0.65"/>
<path d="M14.5266 391.359C14.5266 389.15 16.3175 387.359 18.5266 387.359H50.5266C52.7357 387.359 54.5266 389.15 54.5266 391.359V423.359C54.5266 425.568 52.7358 427.359 50.5266 427.359H18.5266C16.3175 427.359 14.5266 425.568 14.5266 423.359V391.359Z" fill="#145174" fill-opacity="0.2"/>
<path d="M26.4462 433.853C27.0062 433.853 27.4962 433.965 27.9162 434.189C28.3455 434.413 28.6768 434.721 28.9102 435.113C29.1435 435.496 29.2602 435.93 29.2602 436.415C29.2602 436.984 29.1295 437.53 28.8682 438.053C28.6162 438.576 28.2242 439.14 27.6922 439.747C27.1602 440.354 26.3528 441.198 25.2702 442.281H29.4842L29.3302 443.359H23.8002V442.337C25.0508 441.04 25.9375 440.092 26.4602 439.495C26.9828 438.888 27.3562 438.361 27.5802 437.913C27.8042 437.465 27.9162 436.984 27.9162 436.471C27.9162 435.986 27.7762 435.608 27.4962 435.337C27.2162 435.057 26.8428 434.917 26.3762 434.917C25.9935 434.917 25.6575 434.996 25.3682 435.155C25.0788 435.314 24.7708 435.575 24.4442 435.939L23.6042 435.267C23.9868 434.791 24.4115 434.436 24.8782 434.203C25.3448 433.97 25.8675 433.853 26.4462 433.853ZM34.0918 433.853C35.1278 433.853 35.9071 434.268 36.4298 435.099C36.9618 435.92 37.2278 437.115 37.2278 438.683C37.2278 440.251 36.9618 441.45 36.4298 442.281C35.9071 443.112 35.1278 443.527 34.0918 443.527C33.0558 443.527 32.2718 443.112 31.7398 442.281C31.2171 441.45 30.9558 440.251 30.9558 438.683C30.9558 437.115 31.2171 435.92 31.7398 435.099C32.2718 434.268 33.0558 433.853 34.0918 433.853ZM34.0918 434.875C33.4851 434.875 33.0325 435.174 32.7338 435.771C32.4445 436.368 32.2998 437.339 32.2998 438.683C32.2998 440.027 32.4445 441.002 32.7338 441.609C33.0325 442.206 33.4851 442.505 34.0918 442.505C34.6891 442.505 35.1371 442.206 35.4358 441.609C35.7345 441.002 35.8838 440.027 35.8838 438.683C35.8838 437.348 35.7345 436.382 35.4358 435.785C35.1371 435.178 34.6891 434.875 34.0918 434.875ZM41.8984 433.853C42.9344 433.853 43.7138 434.268 44.2364 435.099C44.7684 435.92 45.0344 437.115 45.0344 438.683C45.0344 440.251 44.7684 441.45 44.2364 442.281C43.7138 443.112 42.9344 443.527 41.8984 443.527C40.8624 443.527 40.0784 443.112 39.5464 442.281C39.0238 441.45 38.7624 440.251 38.7624 438.683C38.7624 437.115 39.0238 435.92 39.5464 435.099C40.0784 434.268 40.8624 433.853 41.8984 433.853ZM41.8984 434.875C41.2918 434.875 40.8391 435.174 40.5404 435.771C40.2511 436.368 40.1064 437.339 40.1064 438.683C40.1064 440.027 40.2511 441.002 40.5404 441.609C40.8391 442.206 41.2918 442.505 41.8984 442.505C42.4958 442.505 42.9438 442.206 43.2424 441.609C43.5411 441.002 43.6904 440.027 43.6904 438.683C43.6904 437.348 43.5411 436.382 43.2424 435.785C42.9438 435.178 42.4958 434.875 41.8984 434.875Z" fill="#002033" fill-opacity="0.65"/>
<path d="M14.5266 477.359C14.5266 475.15 16.3175 473.359 18.5266 473.359H50.5266C52.7357 473.359 54.5266 475.15 54.5266 477.359V509.359C54.5266 511.568 52.7358 513.359 50.5266 513.359H18.5266C16.3175 513.359 14.5266 511.568 14.5266 509.359V477.359Z" fill="#145174" fill-opacity="0.05"/>
<path d="M15.0266 477.359C15.0266 475.426 16.5936 473.859 18.5266 473.859H50.5266C52.4596 473.859 54.0266 475.426 54.0266 477.359V509.359C54.0266 511.292 52.4596 512.859 50.5266 512.859H18.5266C16.5936 512.859 15.0266 511.292 15.0266 509.359V477.359Z" stroke="#004166" stroke-opacity="0.1"/>
<path d="M32.9965 521.001H29.3425V523.759C29.8185 523.516 30.3178 523.395 30.8405 523.395C31.6431 523.395 32.2871 523.661 32.7725 524.193C33.2578 524.716 33.5005 525.439 33.5005 526.363C33.5005 526.979 33.3651 527.53 33.0945 528.015C32.8238 528.491 32.4411 528.864 31.9465 529.135C31.4611 529.396 30.8965 529.527 30.2525 529.527C29.6831 529.527 29.1745 529.429 28.7265 529.233C28.2785 529.028 27.8631 528.729 27.4805 528.337L28.2365 527.595C28.5351 527.894 28.8431 528.118 29.1605 528.267C29.4778 528.407 29.8371 528.477 30.2385 528.477C30.8358 528.477 31.3025 528.29 31.6385 527.917C31.9838 527.544 32.1565 527.016 32.1565 526.335C32.1565 525.654 32.0025 525.159 31.6945 524.851C31.3865 524.543 30.9711 524.389 30.4485 524.389C30.2058 524.389 29.9818 524.417 29.7765 524.473C29.5711 524.52 29.3518 524.599 29.1185 524.711H28.1105V519.993H33.1785L32.9965 521.001ZM38.0361 519.853C39.0721 519.853 39.8515 520.268 40.3741 521.099C40.9061 521.92 41.1721 523.115 41.1721 524.683C41.1721 526.251 40.9061 527.45 40.3741 528.281C39.8515 529.112 39.0721 529.527 38.0361 529.527C37.0001 529.527 36.2161 529.112 35.6841 528.281C35.1615 527.45 34.9001 526.251 34.9001 524.683C34.9001 523.115 35.1615 521.92 35.6841 521.099C36.2161 520.268 37.0001 519.853 38.0361 519.853ZM38.0361 520.875C37.4295 520.875 36.9768 521.174 36.6781 521.771C36.3888 522.368 36.2441 523.339 36.2441 524.683C36.2441 526.027 36.3888 527.002 36.6781 527.609C36.9768 528.206 37.4295 528.505 38.0361 528.505C38.6335 528.505 39.0815 528.206 39.3801 527.609C39.6788 527.002 39.8281 526.027 39.8281 524.683C39.8281 523.348 39.6788 522.382 39.3801 521.785C39.0815 521.178 38.6335 520.875 38.0361 520.875Z" fill="#002033" fill-opacity="0.65"/>
<path d="M95.6466 72.3349V82.0309H100.175L99.9986 83.3589H94.1266V72.3349H95.6466ZM103.487 74.9269V83.3589H102.015V74.9269H103.487ZM102.735 70.8789C103.045 70.8789 103.295 70.9749 103.487 71.1669C103.679 71.3589 103.775 71.5989 103.775 71.8869C103.775 72.1749 103.679 72.4149 103.487 72.6069C103.295 72.7882 103.045 72.8789 102.735 72.8789C102.437 72.8789 102.191 72.7882 101.999 72.6069C101.807 72.4149 101.711 72.1749 101.711 71.8869C101.711 71.5989 101.807 71.3589 101.999 71.1669C102.191 70.9749 102.437 70.8789 102.735 70.8789ZM113.331 75.3109C113.011 75.4176 112.659 75.4869 112.275 75.5189C111.891 75.5509 111.422 75.5669 110.867 75.5669C111.859 76.0149 112.355 76.7242 112.355 77.6949C112.355 78.5376 112.067 79.2256 111.491 79.7589C110.915 80.2922 110.131 80.5589 109.139 80.5589C108.755 80.5589 108.398 80.5056 108.067 80.3989C107.939 80.4842 107.838 80.6016 107.763 80.7509C107.688 80.8896 107.651 81.0336 107.651 81.1829C107.651 81.6416 108.019 81.8709 108.755 81.8709H110.099C110.664 81.8709 111.166 81.9722 111.603 82.1749C112.04 82.3776 112.376 82.6549 112.611 83.0069C112.856 83.3589 112.979 83.7589 112.979 84.2069C112.979 85.0282 112.643 85.6576 111.971 86.0949C111.299 86.5429 110.318 86.7669 109.027 86.7669C108.12 86.7669 107.4 86.6709 106.867 86.4789C106.344 86.2976 105.971 86.0202 105.747 85.6469C105.523 85.2736 105.411 84.7936 105.411 84.2069H106.739C106.739 84.5482 106.803 84.8149 106.931 85.0069C107.059 85.2096 107.288 85.3589 107.619 85.4549C107.95 85.5616 108.419 85.6149 109.027 85.6149C109.912 85.6149 110.542 85.5029 110.915 85.2789C111.299 85.0656 111.491 84.7402 111.491 84.3029C111.491 83.9082 111.342 83.6096 111.043 83.4069C110.744 83.2042 110.328 83.1029 109.795 83.1029H108.467C107.752 83.1029 107.208 82.9536 106.835 82.6549C106.472 82.3456 106.291 81.9616 106.291 81.5029C106.291 81.2256 106.371 80.9589 106.531 80.7029C106.691 80.4469 106.92 80.2176 107.219 80.0149C106.728 79.7589 106.366 79.4442 106.131 79.0709C105.907 78.6869 105.795 78.2229 105.795 77.6789C105.795 77.1136 105.934 76.6069 106.211 76.1589C106.499 75.7109 106.888 75.3642 107.379 75.1189C107.88 74.8629 108.435 74.7349 109.043 74.7349C109.704 74.7456 110.259 74.7242 110.707 74.6709C111.155 74.6069 111.523 74.5269 111.811 74.4309C112.11 74.3242 112.472 74.1749 112.899 73.9829L113.331 75.3109ZM109.043 75.7909C108.488 75.7909 108.056 75.9669 107.747 76.3189C107.448 76.6602 107.299 77.1136 107.299 77.6789C107.299 78.2549 107.454 78.7189 107.763 79.0709C108.072 79.4122 108.51 79.5829 109.075 79.5829C109.651 79.5829 110.088 79.4176 110.387 79.0869C110.696 78.7456 110.851 78.2709 110.851 77.6629C110.851 76.4149 110.248 75.7909 109.043 75.7909ZM118.811 74.7349C119.579 74.7349 120.177 74.9642 120.603 75.4229C121.041 75.8816 121.259 76.5109 121.259 77.3109V83.3589H119.787V77.5189C119.787 76.9216 119.67 76.5002 119.435 76.2549C119.211 76.0096 118.881 75.8869 118.443 75.8869C118.006 75.8869 117.617 76.0149 117.275 76.2709C116.934 76.5269 116.614 76.8896 116.315 77.3589V83.3589H114.843V71.5509L116.315 71.3909V76.0949C116.977 75.1882 117.809 74.7349 118.811 74.7349ZM128.474 82.9749C127.92 83.3589 127.29 83.5509 126.586 83.5509C125.872 83.5509 125.312 83.3482 124.906 82.9429C124.512 82.5269 124.314 81.9296 124.314 81.1509V76.0629H122.842V74.9269H124.314V73.0229L125.786 72.8469V74.9269H127.786L127.626 76.0629H125.786V81.0869C125.786 81.5242 125.861 81.8442 126.01 82.0469C126.17 82.2389 126.432 82.3349 126.794 82.3349C127.125 82.3349 127.498 82.2229 127.914 81.9989L128.474 82.9749ZM138.49 82.9749C137.935 83.3589 137.306 83.5509 136.602 83.5509C135.887 83.5509 135.327 83.3482 134.922 82.9429C134.527 82.5269 134.33 81.9296 134.33 81.1509V76.0629H132.858V74.9269H134.33V73.0229L135.802 72.8469V74.9269H137.802L137.642 76.0629H135.802V81.0869C135.802 81.5242 135.877 81.8442 136.026 82.0469C136.186 82.2389 136.447 82.3349 136.81 82.3349C137.141 82.3349 137.514 82.2229 137.93 81.9989L138.49 82.9749ZM143.983 74.7349C144.751 74.7349 145.349 74.9642 145.775 75.4229C146.213 75.8816 146.431 76.5109 146.431 77.3109V83.3589H144.959V77.5189C144.959 76.9216 144.842 76.5002 144.607 76.2549C144.383 76.0096 144.053 75.8869 143.615 75.8869C143.178 75.8869 142.789 76.0149 142.447 76.2709C142.106 76.5269 141.786 76.8896 141.487 77.3589V83.3589H140.015V71.5509L141.487 71.3909V76.0949C142.149 75.1882 142.981 74.7349 143.983 74.7349ZM155.758 78.8949C155.758 79.1402 155.748 79.3909 155.726 79.6469H150.35C150.414 80.5749 150.649 81.2576 151.054 81.6949C151.46 82.1322 151.982 82.3509 152.622 82.3509C153.028 82.3509 153.401 82.2922 153.742 82.1749C154.084 82.0576 154.441 81.8709 154.814 81.6149L155.454 82.4949C154.558 83.1989 153.577 83.5509 152.51 83.5509C151.337 83.5509 150.42 83.1669 149.758 82.3989C149.108 81.6309 148.782 80.5749 148.782 79.2309C148.782 78.3562 148.921 77.5829 149.198 76.9109C149.486 76.2282 149.892 75.6949 150.414 75.3109C150.948 74.9269 151.572 74.7349 152.286 74.7349C153.406 74.7349 154.265 75.1029 154.862 75.8389C155.46 76.5749 155.758 77.5936 155.758 78.8949ZM154.302 78.4629C154.302 77.6309 154.137 76.9962 153.806 76.5589C153.476 76.1216 152.98 75.9029 152.318 75.9029C151.113 75.9029 150.457 76.7882 150.35 78.5589H154.302V78.4629ZM166.573 74.7349C167.266 74.7349 167.821 74.9696 168.237 75.4389C168.653 75.8976 168.861 76.5216 168.861 77.3109V83.3589H167.389V77.5189C167.389 76.4309 166.994 75.8869 166.205 75.8869C165.789 75.8869 165.437 76.0096 165.149 76.2549C164.861 76.4896 164.552 76.8629 164.221 77.3749V83.3589H162.749V77.5189C162.749 76.4309 162.354 75.8869 161.565 75.8869C161.138 75.8869 160.781 76.0096 160.493 76.2549C160.205 76.5002 159.901 76.8736 159.581 77.3749V83.3589H158.109V74.9269H159.373L159.501 76.1589C160.13 75.2096 160.941 74.7349 161.933 74.7349C162.456 74.7349 162.898 74.8682 163.261 75.1349C163.634 75.4016 163.901 75.7749 164.061 76.2549C164.392 75.7642 164.754 75.3909 165.149 75.1349C165.554 74.8682 166.029 74.7349 166.573 74.7349ZM178.196 78.8949C178.196 79.1402 178.185 79.3909 178.164 79.6469H172.788C172.852 80.5749 173.087 81.2576 173.492 81.6949C173.897 82.1322 174.42 82.3509 175.06 82.3509C175.465 82.3509 175.839 82.2922 176.18 82.1749C176.521 82.0576 176.879 81.8709 177.252 81.6149L177.892 82.4949C176.996 83.1989 176.015 83.5509 174.948 83.5509C173.775 83.5509 172.857 83.1669 172.196 82.3989C171.545 81.6309 171.22 80.5749 171.22 79.2309C171.22 78.3562 171.359 77.5829 171.636 76.9109C171.924 76.2282 172.329 75.6949 172.852 75.3109C173.385 74.9269 174.009 74.7349 174.724 74.7349C175.844 74.7349 176.703 75.1029 177.3 75.8389C177.897 76.5749 178.196 77.5936 178.196 78.8949ZM176.74 78.4629C176.74 77.6309 176.575 76.9962 176.244 76.5589C175.913 76.1216 175.417 75.9029 174.756 75.9029C173.551 75.9029 172.895 76.7882 172.788 78.5589H176.74V78.4629Z" fill="#001826" fill-opacity="0.9"/>
<path d="M121.527 119.359C121.527 117.15 123.317 115.359 125.527 115.359H157.527C159.736 115.359 161.527 117.15 161.527 119.359V151.359C161.527 153.568 159.736 155.359 157.527 155.359H125.527C123.317 155.359 121.527 153.568 121.527 151.359V119.359Z" fill="#001826" fill-opacity="0.9"/>
<path d="M97.8772 165.713C99.3332 165.713 100.5 166.054 101.377 166.735C102.264 167.407 102.707 168.658 102.707 170.487C102.707 172.27 102.264 173.53 101.377 174.267C100.5 174.995 99.4312 175.359 98.1712 175.359H95.8612V165.713H97.8772ZM97.1912 166.777V174.309H98.2692C99.1652 174.309 99.8932 174.034 100.453 173.483C101.013 172.932 101.293 171.934 101.293 170.487C101.293 169.47 101.149 168.69 100.859 168.149C100.57 167.598 100.201 167.234 99.7532 167.057C99.3052 166.87 98.7778 166.777 98.1712 166.777H97.1912ZM109.634 173.637C109.634 173.936 109.686 174.16 109.788 174.309C109.891 174.449 110.045 174.556 110.25 174.631L109.956 175.527C109.574 175.48 109.266 175.373 109.032 175.205C108.799 175.037 108.626 174.776 108.514 174.421C108.02 175.158 107.287 175.527 106.316 175.527C105.588 175.527 105.014 175.322 104.594 174.911C104.174 174.5 103.964 173.964 103.964 173.301C103.964 172.517 104.244 171.915 104.804 171.495C105.374 171.075 106.176 170.865 107.212 170.865H108.346V170.319C108.346 169.796 108.22 169.423 107.968 169.199C107.716 168.975 107.329 168.863 106.806 168.863C106.265 168.863 105.602 168.994 104.818 169.255L104.496 168.317C105.411 167.981 106.26 167.813 107.044 167.813C107.912 167.813 108.561 168.028 108.99 168.457C109.42 168.877 109.634 169.479 109.634 170.263V173.637ZM106.61 174.561C107.348 174.561 107.926 174.178 108.346 173.413V171.719H107.38C106.018 171.719 105.336 172.223 105.336 173.231C105.336 173.67 105.444 174.001 105.658 174.225C105.873 174.449 106.19 174.561 106.61 174.561ZM115.485 167.813C115.747 167.813 115.989 167.841 116.213 167.897L115.975 169.157C115.751 169.101 115.537 169.073 115.331 169.073C114.874 169.073 114.505 169.241 114.225 169.577C113.945 169.913 113.726 170.436 113.567 171.145V175.359H112.279V167.981H113.385L113.511 169.479C113.707 168.928 113.973 168.513 114.309 168.233C114.645 167.953 115.037 167.813 115.485 167.813ZM118.968 164.859V175.359H117.68V165.013L118.968 164.859ZM123.21 167.981L120.494 171.243L123.518 175.359H121.978L119.052 171.327L121.768 167.981H123.21ZM131.923 167.813C132.763 167.813 133.43 168.154 133.925 168.835C134.42 169.507 134.667 170.45 134.667 171.663C134.667 172.428 134.55 173.105 134.317 173.693C134.084 174.272 133.748 174.724 133.309 175.051C132.87 175.368 132.357 175.527 131.769 175.527C130.994 175.527 130.341 175.2 129.809 174.547L129.683 175.359H128.549V165.013L129.837 164.859V168.905C130.369 168.177 131.064 167.813 131.923 167.813ZM131.461 174.505C132.03 174.505 132.474 174.276 132.791 173.819C133.118 173.352 133.281 172.634 133.281 171.663C133.281 170.664 133.132 169.946 132.833 169.507C132.534 169.059 132.11 168.835 131.559 168.835C130.906 168.835 130.332 169.218 129.837 169.983V173.511C130.033 173.819 130.271 174.062 130.551 174.239C130.84 174.416 131.144 174.505 131.461 174.505ZM138.331 175.527C137.855 175.527 137.477 175.387 137.197 175.107C136.927 174.818 136.791 174.416 136.791 173.903V165.013L138.079 164.859V173.875C138.079 174.08 138.112 174.23 138.177 174.323C138.252 174.416 138.373 174.463 138.541 174.463C138.719 174.463 138.877 174.435 139.017 174.379L139.353 175.275C139.045 175.443 138.705 175.527 138.331 175.527ZM146.451 175.359H145.345L145.247 174.211C144.967 174.668 144.645 175.004 144.281 175.219C143.917 175.424 143.474 175.527 142.951 175.527C142.307 175.527 141.803 175.331 141.439 174.939C141.075 174.547 140.893 173.992 140.893 173.273V167.981H142.181V173.133C142.181 173.637 142.27 173.996 142.447 174.211C142.624 174.416 142.914 174.519 143.315 174.519C144.034 174.519 144.65 174.094 145.163 173.245V167.981H146.451V175.359ZM154.683 171.453C154.683 171.668 154.674 171.887 154.655 172.111H149.951C150.007 172.923 150.213 173.52 150.567 173.903C150.922 174.286 151.379 174.477 151.939 174.477C152.294 174.477 152.621 174.426 152.919 174.323C153.218 174.22 153.531 174.057 153.857 173.833L154.417 174.603C153.633 175.219 152.775 175.527 151.841 175.527C150.815 175.527 150.012 175.191 149.433 174.519C148.864 173.847 148.579 172.923 148.579 171.747C148.579 170.982 148.701 170.305 148.943 169.717C149.195 169.12 149.55 168.653 150.007 168.317C150.474 167.981 151.02 167.813 151.645 167.813C152.625 167.813 153.377 168.135 153.899 168.779C154.422 169.423 154.683 170.314 154.683 171.453ZM153.409 171.075C153.409 170.347 153.265 169.792 152.975 169.409C152.686 169.026 152.252 168.835 151.673 168.835C150.619 168.835 150.045 169.61 149.951 171.159H153.409V171.075ZM163.637 165.993V175.359H162.349V167.365L160.165 168.695L159.605 167.785L162.503 165.993H163.637ZM169.078 165.853C170.114 165.853 170.893 166.268 171.416 167.099C171.948 167.92 172.214 169.115 172.214 170.683C172.214 172.251 171.948 173.45 171.416 174.281C170.893 175.112 170.114 175.527 169.078 175.527C168.042 175.527 167.258 175.112 166.726 174.281C166.203 173.45 165.942 172.251 165.942 170.683C165.942 169.115 166.203 167.92 166.726 167.099C167.258 166.268 168.042 165.853 169.078 165.853ZM169.078 166.875C168.471 166.875 168.019 167.174 167.72 167.771C167.431 168.368 167.286 169.339 167.286 170.683C167.286 172.027 167.431 173.002 167.72 173.609C168.019 174.206 168.471 174.505 169.078 174.505C169.675 174.505 170.123 174.206 170.422 173.609C170.721 173.002 170.87 172.027 170.87 170.683C170.87 169.348 170.721 168.382 170.422 167.785C170.123 167.178 169.675 166.875 169.078 166.875ZM176.885 165.853C177.921 165.853 178.7 166.268 179.223 167.099C179.755 167.92 180.021 169.115 180.021 170.683C180.021 172.251 179.755 173.45 179.223 174.281C178.7 175.112 177.921 175.527 176.885 175.527C175.849 175.527 175.065 175.112 174.533 174.281C174.01 173.45 173.749 172.251 173.749 170.683C173.749 169.115 174.01 167.92 174.533 167.099C175.065 166.268 175.849 165.853 176.885 165.853ZM176.885 166.875C176.278 166.875 175.825 167.174 175.527 167.771C175.237 168.368 175.093 169.339 175.093 170.683C175.093 172.027 175.237 173.002 175.527 173.609C175.825 174.206 176.278 174.505 176.885 174.505C177.482 174.505 177.93 174.206 178.229 173.609C178.527 173.002 178.677 172.027 178.677 170.683C178.677 169.348 178.527 168.382 178.229 167.785C177.93 167.178 177.482 166.875 176.885 166.875ZM184.691 165.853C185.727 165.853 186.507 166.268 187.029 167.099C187.561 167.92 187.827 169.115 187.827 170.683C187.827 172.251 187.561 173.45 187.029 174.281C186.507 175.112 185.727 175.527 184.691 175.527C183.655 175.527 182.871 175.112 182.339 174.281C181.817 173.45 181.555 172.251 181.555 170.683C181.555 169.115 181.817 167.92 182.339 167.099C182.871 166.268 183.655 165.853 184.691 165.853ZM184.691 166.875C184.085 166.875 183.632 167.174 183.333 167.771C183.044 168.368 182.899 169.339 182.899 170.683C182.899 172.027 183.044 173.002 183.333 173.609C183.632 174.206 184.085 174.505 184.691 174.505C185.289 174.505 185.737 174.206 186.035 173.609C186.334 173.002 186.483 172.027 186.483 170.683C186.483 169.348 186.334 168.382 186.035 167.785C185.737 167.178 185.289 166.875 184.691 166.875Z" fill="#002033" fill-opacity="0.65"/>
<path d="M121.527 209.359C121.527 207.15 123.317 205.359 125.527 205.359H157.527C159.736 205.359 161.527 207.15 161.527 209.359V241.359C161.527 243.568 159.736 245.359 157.527 245.359H125.527C123.317 245.359 121.527 243.568 121.527 241.359V209.359Z" fill="#002033" fill-opacity="0.65"/>
<path d="M136.905 251.993V252.959L133.405 261.499L132.229 261.107L135.603 253.043H131.459V251.993H136.905ZM143.004 253.001H139.35V255.759C139.826 255.516 140.326 255.395 140.848 255.395C141.651 255.395 142.295 255.661 142.78 256.193C143.266 256.716 143.508 257.439 143.508 258.363C143.508 258.979 143.373 259.53 143.102 260.015C142.832 260.491 142.449 260.864 141.954 261.135C141.469 261.396 140.904 261.527 140.26 261.527C139.691 261.527 139.182 261.429 138.734 261.233C138.286 261.028 137.871 260.729 137.488 260.337L138.244 259.595C138.543 259.894 138.851 260.118 139.168 260.267C139.486 260.407 139.845 260.477 140.246 260.477C140.844 260.477 141.31 260.29 141.646 259.917C141.992 259.544 142.164 259.016 142.164 258.335C142.164 257.654 142.01 257.159 141.702 256.851C141.394 256.543 140.979 256.389 140.456 256.389C140.214 256.389 139.99 256.417 139.784 256.473C139.579 256.52 139.36 256.599 139.126 256.711H138.118V251.993H143.186L143.004 253.001ZM148.044 251.853C149.08 251.853 149.859 252.268 150.382 253.099C150.914 253.92 151.18 255.115 151.18 256.683C151.18 258.251 150.914 259.45 150.382 260.281C149.859 261.112 149.08 261.527 148.044 261.527C147.008 261.527 146.224 261.112 145.692 260.281C145.169 259.45 144.908 258.251 144.908 256.683C144.908 255.115 145.169 253.92 145.692 253.099C146.224 252.268 147.008 251.853 148.044 251.853ZM148.044 252.875C147.437 252.875 146.985 253.174 146.686 253.771C146.397 254.368 146.252 255.339 146.252 256.683C146.252 258.027 146.397 259.002 146.686 259.609C146.985 260.206 147.437 260.505 148.044 260.505C148.641 260.505 149.089 260.206 149.388 259.609C149.687 259.002 149.836 258.027 149.836 256.683C149.836 255.348 149.687 254.382 149.388 253.785C149.089 253.178 148.641 252.875 148.044 252.875Z" fill="#002033" fill-opacity="0.65"/>
<path d="M121.527 295.359C121.527 293.15 123.317 291.359 125.527 291.359H157.527C159.736 291.359 161.527 293.15 161.527 295.359V327.359C161.527 329.568 159.736 331.359 157.527 331.359H125.527C123.317 331.359 121.527 329.568 121.527 327.359V295.359Z" fill="#001724" fill-opacity="0.55"/>
<path d="M136.093 339.001H132.439V341.759C132.915 341.516 133.414 341.395 133.937 341.395C134.74 341.395 135.384 341.661 135.869 342.193C136.354 342.716 136.597 343.439 136.597 344.363C136.597 344.979 136.462 345.53 136.191 346.015C135.92 346.491 135.538 346.864 135.043 347.135C134.558 347.396 133.993 347.527 133.349 347.527C132.78 347.527 132.271 347.429 131.823 347.233C131.375 347.028 130.96 346.729 130.577 346.337L131.333 345.595C131.632 345.894 131.94 346.118 132.257 346.267C132.574 346.407 132.934 346.477 133.335 346.477C133.932 346.477 134.399 346.29 134.735 345.917C135.08 345.544 135.253 345.016 135.253 344.335C135.253 343.654 135.099 343.159 134.791 342.851C134.483 342.543 134.068 342.389 133.545 342.389C133.302 342.389 133.078 342.417 132.873 342.473C132.668 342.52 132.448 342.599 132.215 342.711H131.207V337.993H136.275L136.093 339.001ZM141.133 337.853C142.169 337.853 142.948 338.268 143.471 339.099C144.003 339.92 144.269 341.115 144.269 342.683C144.269 344.251 144.003 345.45 143.471 346.281C142.948 347.112 142.169 347.527 141.133 347.527C140.097 347.527 139.313 347.112 138.781 346.281C138.258 345.45 137.997 344.251 137.997 342.683C137.997 341.115 138.258 339.92 138.781 339.099C139.313 338.268 140.097 337.853 141.133 337.853ZM141.133 338.875C140.526 338.875 140.073 339.174 139.775 339.771C139.485 340.368 139.341 341.339 139.341 342.683C139.341 344.027 139.485 345.002 139.775 345.609C140.073 346.206 140.526 346.505 141.133 346.505C141.73 346.505 142.178 346.206 142.477 345.609C142.775 345.002 142.925 344.027 142.925 342.683C142.925 341.348 142.775 340.382 142.477 339.785C142.178 339.178 141.73 338.875 141.133 338.875ZM148.939 337.853C149.975 337.853 150.755 338.268 151.277 339.099C151.809 339.92 152.075 341.115 152.075 342.683C152.075 344.251 151.809 345.45 151.277 346.281C150.755 347.112 149.975 347.527 148.939 347.527C147.903 347.527 147.119 347.112 146.587 346.281C146.065 345.45 145.803 344.251 145.803 342.683C145.803 341.115 146.065 339.92 146.587 339.099C147.119 338.268 147.903 337.853 148.939 337.853ZM148.939 338.875C148.333 338.875 147.88 339.174 147.581 339.771C147.292 340.368 147.147 341.339 147.147 342.683C147.147 344.027 147.292 345.002 147.581 345.609C147.88 346.206 148.333 346.505 148.939 346.505C149.537 346.505 149.985 346.206 150.283 345.609C150.582 345.002 150.731 344.027 150.731 342.683C150.731 341.348 150.582 340.382 150.283 339.785C149.985 339.178 149.537 338.875 148.939 338.875Z" fill="#002033" fill-opacity="0.65"/>
<path d="M121.527 381.359C121.527 379.15 123.317 377.359 125.527 377.359H157.527C159.736 377.359 161.527 379.15 161.527 381.359V413.359C161.527 415.568 159.736 417.359 157.527 417.359H125.527C123.317 417.359 121.527 415.568 121.527 413.359V381.359Z" fill="#004166" fill-opacity="0.1"/>
<path d="M135.214 423.993V433.359H133.926V425.365L131.742 426.695L131.182 425.785L134.08 423.993H135.214ZM140.654 423.853C141.69 423.853 142.47 424.268 142.992 425.099C143.524 425.92 143.79 427.115 143.79 428.683C143.79 430.251 143.524 431.45 142.992 432.281C142.47 433.112 141.69 433.527 140.654 433.527C139.618 433.527 138.834 433.112 138.302 432.281C137.78 431.45 137.518 430.251 137.518 428.683C137.518 427.115 137.78 425.92 138.302 425.099C138.834 424.268 139.618 423.853 140.654 423.853ZM140.654 424.875C140.048 424.875 139.595 425.174 139.296 425.771C139.007 426.368 138.862 427.339 138.862 428.683C138.862 430.027 139.007 431.002 139.296 431.609C139.595 432.206 140.048 432.505 140.654 432.505C141.252 432.505 141.7 432.206 141.998 431.609C142.297 431.002 142.446 430.027 142.446 428.683C142.446 427.348 142.297 426.382 141.998 425.785C141.7 425.178 141.252 424.875 140.654 424.875ZM148.461 423.853C149.497 423.853 150.276 424.268 150.799 425.099C151.331 425.92 151.597 427.115 151.597 428.683C151.597 430.251 151.331 431.45 150.799 432.281C150.276 433.112 149.497 433.527 148.461 433.527C147.425 433.527 146.641 433.112 146.109 432.281C145.586 431.45 145.325 430.251 145.325 428.683C145.325 427.115 145.586 425.92 146.109 425.099C146.641 424.268 147.425 423.853 148.461 423.853ZM148.461 424.875C147.854 424.875 147.402 425.174 147.103 425.771C146.814 426.368 146.669 427.339 146.669 428.683C146.669 430.027 146.814 431.002 147.103 431.609C147.402 432.206 147.854 432.505 148.461 432.505C149.058 432.505 149.506 432.206 149.805 431.609C150.104 431.002 150.253 430.027 150.253 428.683C150.253 427.348 150.104 426.382 149.805 425.785C149.506 425.178 149.058 424.875 148.461 424.875Z" fill="#002033" fill-opacity="0.65"/>
<path d="M121.527 467.359C121.527 465.15 123.317 463.359 125.527 463.359H157.527C159.736 463.359 161.527 465.15 161.527 467.359V499.359C161.527 501.568 159.736 503.359 157.527 503.359H125.527C123.317 503.359 121.527 501.568 121.527 499.359V467.359Z" fill="#005180" fill-opacity="0.04"/>
<path d="M122.027 467.359C122.027 465.426 123.594 463.859 125.527 463.859H157.527C159.46 463.859 161.027 465.426 161.027 467.359V499.359C161.027 501.292 159.46 502.859 157.527 502.859H125.527C123.594 502.859 122.027 501.292 122.027 499.359V467.359Z" stroke="#004166" stroke-opacity="0.1"/>
<path d="M139.996 511.001H136.342V513.759C136.818 513.516 137.318 513.395 137.84 513.395C138.643 513.395 139.287 513.661 139.772 514.193C140.258 514.716 140.5 515.439 140.5 516.363C140.5 516.979 140.365 517.53 140.094 518.015C139.824 518.491 139.441 518.864 138.946 519.135C138.461 519.396 137.896 519.527 137.252 519.527C136.683 519.527 136.174 519.429 135.726 519.233C135.278 519.028 134.863 518.729 134.48 518.337L135.236 517.595C135.535 517.894 135.843 518.118 136.16 518.267C136.478 518.407 136.837 518.477 137.238 518.477C137.836 518.477 138.302 518.29 138.638 517.917C138.984 517.544 139.156 517.016 139.156 516.335C139.156 515.654 139.002 515.159 138.694 514.851C138.386 514.543 137.971 514.389 137.448 514.389C137.206 514.389 136.982 514.417 136.776 514.473C136.571 514.52 136.352 514.599 136.118 514.711H135.11V509.993H140.178L139.996 511.001ZM145.036 509.853C146.072 509.853 146.851 510.268 147.374 511.099C147.906 511.92 148.172 513.115 148.172 514.683C148.172 516.251 147.906 517.45 147.374 518.281C146.851 519.112 146.072 519.527 145.036 519.527C144 519.527 143.216 519.112 142.684 518.281C142.161 517.45 141.9 516.251 141.9 514.683C141.9 513.115 142.161 511.92 142.684 511.099C143.216 510.268 144 509.853 145.036 509.853ZM145.036 510.875C144.429 510.875 143.977 511.174 143.678 511.771C143.389 512.368 143.244 513.339 143.244 514.683C143.244 516.027 143.389 517.002 143.678 517.609C143.977 518.206 144.429 518.505 145.036 518.505C145.633 518.505 146.081 518.206 146.38 517.609C146.679 517.002 146.828 516.027 146.828 514.683C146.828 513.348 146.679 512.382 146.38 511.785C146.081 511.178 145.633 510.875 145.036 510.875Z" fill="#002033" fill-opacity="0.65"/>
<path d="M121.527 553.359C121.527 551.15 123.317 549.359 125.527 549.359H157.527C159.736 549.359 161.527 551.15 161.527 553.359V585.359C161.527 587.568 159.736 589.359 157.527 589.359H125.527C123.317 589.359 121.527 587.568 121.527 585.359V553.359Z" fill="#005180" fill-opacity="0.02"/>
<path d="M122.027 553.359C122.027 551.426 123.594 549.859 125.527 549.859H157.527C159.46 549.859 161.027 551.426 161.027 553.359V585.359C161.027 587.292 159.46 588.859 157.527 588.859H125.527C123.594 588.859 122.027 587.292 122.027 585.359V553.359Z" stroke="#004166" stroke-opacity="0.1"/>
<path d="M137.349 595.853C137.909 595.853 138.399 595.965 138.819 596.189C139.249 596.413 139.58 596.721 139.813 597.113C140.047 597.496 140.163 597.93 140.163 598.415C140.163 598.984 140.033 599.53 139.771 600.053C139.519 600.576 139.127 601.14 138.595 601.747C138.063 602.354 137.256 603.198 136.173 604.281H140.387L140.233 605.359H134.703V604.337C135.954 603.04 136.841 602.092 137.363 601.495C137.886 600.888 138.259 600.361 138.483 599.913C138.707 599.465 138.819 598.984 138.819 598.471C138.819 597.986 138.679 597.608 138.399 597.337C138.119 597.057 137.746 596.917 137.279 596.917C136.897 596.917 136.561 596.996 136.271 597.155C135.982 597.314 135.674 597.575 135.347 597.939L134.507 597.267C134.89 596.791 135.315 596.436 135.781 596.203C136.248 595.97 136.771 595.853 137.349 595.853ZM144.995 595.853C146.031 595.853 146.81 596.268 147.333 597.099C147.865 597.92 148.131 599.115 148.131 600.683C148.131 602.251 147.865 603.45 147.333 604.281C146.81 605.112 146.031 605.527 144.995 605.527C143.959 605.527 143.175 605.112 142.643 604.281C142.12 603.45 141.859 602.251 141.859 600.683C141.859 599.115 142.12 597.92 142.643 597.099C143.175 596.268 143.959 595.853 144.995 595.853ZM144.995 596.875C144.388 596.875 143.936 597.174 143.637 597.771C143.348 598.368 143.203 599.339 143.203 600.683C143.203 602.027 143.348 603.002 143.637 603.609C143.936 604.206 144.388 604.505 144.995 604.505C145.592 604.505 146.04 604.206 146.339 603.609C146.638 603.002 146.787 602.027 146.787 600.683C146.787 599.348 146.638 598.382 146.339 597.785C146.04 597.178 145.592 596.875 144.995 596.875Z" fill="#002033" fill-opacity="0.65"/>
<path d="M218.431 72.3349C220.095 72.3349 221.428 72.7242 222.431 73.5029C223.444 74.2709 223.951 75.7002 223.951 77.7909C223.951 79.8282 223.444 81.2682 222.431 82.1109C221.428 82.9429 220.207 83.3589 218.767 83.3589H216.127V72.3349H218.431ZM217.647 73.5509V82.1589H218.879C219.903 82.1589 220.735 81.8442 221.375 81.2149C222.015 80.5856 222.335 79.4442 222.335 77.7909C222.335 76.6282 222.169 75.7376 221.839 75.1189C221.508 74.4896 221.087 74.0736 220.575 73.8709C220.063 73.6576 219.46 73.5509 218.767 73.5509H217.647ZM231.867 81.3909C231.867 81.7322 231.926 81.9882 232.043 82.1589C232.161 82.3189 232.337 82.4416 232.571 82.5269L232.235 83.5509C231.798 83.4976 231.446 83.3749 231.179 83.1829C230.913 82.9909 230.715 82.6922 230.587 82.2869C230.022 83.1296 229.185 83.5509 228.075 83.5509C227.243 83.5509 226.587 83.3162 226.107 82.8469C225.627 82.3776 225.387 81.7642 225.387 81.0069C225.387 80.1109 225.707 79.4229 226.347 78.9429C226.998 78.4629 227.915 78.2229 229.099 78.2229H230.395V77.5989C230.395 77.0016 230.251 76.5749 229.963 76.3189C229.675 76.0629 229.233 75.9349 228.635 75.9349C228.017 75.9349 227.259 76.0842 226.363 76.3829L225.995 75.3109C227.041 74.9269 228.011 74.7349 228.907 74.7349C229.899 74.7349 230.641 74.9802 231.131 75.4709C231.622 75.9509 231.867 76.6389 231.867 77.5349V81.3909ZM228.411 82.4469C229.254 82.4469 229.915 82.0096 230.395 81.1349V79.1989H229.291C227.734 79.1989 226.955 79.7749 226.955 80.9269C226.955 81.4282 227.078 81.8069 227.323 82.0629C227.569 82.3189 227.931 82.4469 228.411 82.4469ZM238.554 74.7349C238.853 74.7349 239.13 74.7669 239.386 74.8309L239.114 76.2709C238.858 76.2069 238.613 76.1749 238.378 76.1749C237.856 76.1749 237.434 76.3669 237.114 76.7509C236.794 77.1349 236.544 77.7322 236.362 78.5429V83.3589H234.89V74.9269H236.154L236.298 76.6389C236.522 76.0096 236.826 75.5349 237.21 75.2149C237.594 74.8949 238.042 74.7349 238.554 74.7349ZM242.534 71.3589V83.3589H241.062V71.5349L242.534 71.3589ZM247.382 74.9269L244.278 78.6549L247.734 83.3589H245.974L242.63 78.7509L245.734 74.9269H247.382ZM257.74 82.9749C257.185 83.3589 256.556 83.5509 255.852 83.5509C255.137 83.5509 254.577 83.3482 254.172 82.9429C253.777 82.5269 253.58 81.9296 253.58 81.1509V76.0629H252.108V74.9269H253.58V73.0229L255.052 72.8469V74.9269H257.052L256.892 76.0629H255.052V81.0869C255.052 81.5242 255.127 81.8442 255.276 82.0469C255.436 82.2389 255.697 82.3349 256.06 82.3349C256.391 82.3349 256.764 82.2229 257.18 81.9989L257.74 82.9749ZM263.233 74.7349C264.001 74.7349 264.599 74.9642 265.025 75.4229C265.463 75.8816 265.681 76.5109 265.681 77.3109V83.3589H264.209V77.5189C264.209 76.9216 264.092 76.5002 263.857 76.2549C263.633 76.0096 263.303 75.8869 262.865 75.8869C262.428 75.8869 262.039 76.0149 261.697 76.2709C261.356 76.5269 261.036 76.8896 260.737 77.3589V83.3589H259.265V71.5509L260.737 71.3909V76.0949C261.399 75.1882 262.231 74.7349 263.233 74.7349ZM275.008 78.8949C275.008 79.1402 274.998 79.3909 274.976 79.6469H269.6C269.664 80.5749 269.899 81.2576 270.304 81.6949C270.71 82.1322 271.232 82.3509 271.872 82.3509C272.278 82.3509 272.651 82.2922 272.992 82.1749C273.334 82.0576 273.691 81.8709 274.064 81.6149L274.704 82.4949C273.808 83.1989 272.827 83.5509 271.76 83.5509C270.587 83.5509 269.67 83.1669 269.008 82.3989C268.358 81.6309 268.032 80.5749 268.032 79.2309C268.032 78.3562 268.171 77.5829 268.448 76.9109C268.736 76.2282 269.142 75.6949 269.664 75.3109C270.198 74.9269 270.822 74.7349 271.536 74.7349C272.656 74.7349 273.515 75.1029 274.112 75.8389C274.71 76.5749 275.008 77.5936 275.008 78.8949ZM273.552 78.4629C273.552 77.6309 273.387 76.9962 273.056 76.5589C272.726 76.1216 272.23 75.9029 271.568 75.9029C270.363 75.9029 269.707 76.7882 269.6 78.5589H273.552V78.4629ZM285.823 74.7349C286.516 74.7349 287.071 74.9696 287.487 75.4389C287.903 75.8976 288.111 76.5216 288.111 77.3109V83.3589H286.639V77.5189C286.639 76.4309 286.244 75.8869 285.455 75.8869C285.039 75.8869 284.687 76.0096 284.399 76.2549C284.111 76.4896 283.802 76.8629 283.471 77.3749V83.3589H281.999V77.5189C281.999 76.4309 281.604 75.8869 280.815 75.8869C280.388 75.8869 280.031 76.0096 279.743 76.2549C279.455 76.5002 279.151 76.8736 278.831 77.3749V83.3589H277.359V74.9269H278.623L278.751 76.1589C279.38 75.2096 280.191 74.7349 281.183 74.7349C281.706 74.7349 282.148 74.8682 282.511 75.1349C282.884 75.4016 283.151 75.7749 283.311 76.2549C283.642 75.7642 284.004 75.3909 284.399 75.1349C284.804 74.8682 285.279 74.7349 285.823 74.7349ZM297.446 78.8949C297.446 79.1402 297.435 79.3909 297.414 79.6469H292.038C292.102 80.5749 292.337 81.2576 292.742 81.6949C293.147 82.1322 293.67 82.3509 294.31 82.3509C294.715 82.3509 295.089 82.2922 295.43 82.1749C295.771 82.0576 296.129 81.8709 296.502 81.6149L297.142 82.4949C296.246 83.1989 295.265 83.5509 294.198 83.5509C293.025 83.5509 292.107 83.1669 291.446 82.3989C290.795 81.6309 290.47 80.5749 290.47 79.2309C290.47 78.3562 290.609 77.5829 290.886 76.9109C291.174 76.2282 291.579 75.6949 292.102 75.3109C292.635 74.9269 293.259 74.7349 293.974 74.7349C295.094 74.7349 295.953 75.1029 296.55 75.8389C297.147 76.5749 297.446 77.5936 297.446 78.8949ZM295.99 78.4629C295.99 77.6309 295.825 76.9962 295.494 76.5589C295.163 76.1216 294.667 75.9029 294.006 75.9029C292.801 75.9029 292.145 76.7882 292.038 78.5589H295.99V78.4629Z" fill="#001826" fill-opacity="0.9"/>
<path d="M242.027 119.359C242.027 117.15 243.817 115.359 246.027 115.359H278.027C280.236 115.359 282.027 117.15 282.027 119.359V151.359C282.027 153.568 280.236 155.359 278.027 155.359H246.027C243.817 155.359 242.027 153.568 242.027 151.359V119.359Z" fill="white"/>
<path d="M242.527 119.359C242.527 117.426 244.094 115.859 246.027 115.859H278.027C279.96 115.859 281.527 117.426 281.527 119.359V151.359C281.527 153.292 279.96 154.859 278.027 154.859H246.027C244.094 154.859 242.527 153.292 242.527 151.359V119.359Z" stroke="#004166" stroke-opacity="0.1"/>
<path d="M217.226 165.713V174.197H221.188L221.034 175.359H215.896V165.713H217.226ZM224.087 167.981V175.359H222.799V167.981H224.087ZM223.429 164.439C223.7 164.439 223.919 164.523 224.087 164.691C224.255 164.859 224.339 165.069 224.339 165.321C224.339 165.573 224.255 165.783 224.087 165.951C223.919 166.11 223.7 166.189 223.429 166.189C223.168 166.189 222.953 166.11 222.785 165.951C222.617 165.783 222.533 165.573 222.533 165.321C222.533 165.069 222.617 164.859 222.785 164.691C222.953 164.523 223.168 164.439 223.429 164.439ZM232.7 168.317C232.42 168.41 232.112 168.471 231.776 168.499C231.44 168.527 231.029 168.541 230.544 168.541C231.412 168.933 231.846 169.554 231.846 170.403C231.846 171.14 231.594 171.742 231.09 172.209C230.586 172.676 229.9 172.909 229.032 172.909C228.696 172.909 228.383 172.862 228.094 172.769C227.982 172.844 227.893 172.946 227.828 173.077C227.763 173.198 227.73 173.324 227.73 173.455C227.73 173.856 228.052 174.057 228.696 174.057H229.872C230.367 174.057 230.805 174.146 231.188 174.323C231.571 174.5 231.865 174.743 232.07 175.051C232.285 175.359 232.392 175.709 232.392 176.101C232.392 176.82 232.098 177.37 231.51 177.753C230.922 178.145 230.063 178.341 228.934 178.341C228.141 178.341 227.511 178.257 227.044 178.089C226.587 177.93 226.26 177.688 226.064 177.361C225.868 177.034 225.77 176.614 225.77 176.101H226.932C226.932 176.4 226.988 176.633 227.1 176.801C227.212 176.978 227.413 177.109 227.702 177.193C227.991 177.286 228.402 177.333 228.934 177.333C229.709 177.333 230.259 177.235 230.586 177.039C230.922 176.852 231.09 176.568 231.09 176.185C231.09 175.84 230.959 175.578 230.698 175.401C230.437 175.224 230.073 175.135 229.606 175.135H228.444C227.819 175.135 227.343 175.004 227.016 174.743C226.699 174.472 226.54 174.136 226.54 173.735C226.54 173.492 226.61 173.259 226.75 173.035C226.89 172.811 227.091 172.61 227.352 172.433C226.923 172.209 226.605 171.934 226.4 171.607C226.204 171.271 226.106 170.865 226.106 170.389C226.106 169.894 226.227 169.451 226.47 169.059C226.722 168.667 227.063 168.364 227.492 168.149C227.931 167.925 228.416 167.813 228.948 167.813C229.527 167.822 230.012 167.804 230.404 167.757C230.796 167.701 231.118 167.631 231.37 167.547C231.631 167.454 231.949 167.323 232.322 167.155L232.7 168.317ZM228.948 168.737C228.463 168.737 228.085 168.891 227.814 169.199C227.553 169.498 227.422 169.894 227.422 170.389C227.422 170.893 227.557 171.299 227.828 171.607C228.099 171.906 228.481 172.055 228.976 172.055C229.48 172.055 229.863 171.91 230.124 171.621C230.395 171.322 230.53 170.907 230.53 170.375C230.53 169.283 230.003 168.737 228.948 168.737ZM237.496 167.813C238.168 167.813 238.69 168.014 239.064 168.415C239.446 168.816 239.638 169.367 239.638 170.067V175.359H238.35V170.249C238.35 169.726 238.247 169.358 238.042 169.143C237.846 168.928 237.556 168.821 237.174 168.821C236.791 168.821 236.45 168.933 236.152 169.157C235.853 169.381 235.573 169.698 235.312 170.109V175.359H234.024V165.027L235.312 164.887V169.003C235.89 168.21 236.618 167.813 237.496 167.813ZM245.951 175.023C245.465 175.359 244.915 175.527 244.299 175.527C243.673 175.527 243.183 175.35 242.829 174.995C242.483 174.631 242.311 174.108 242.311 173.427V168.975H241.023V167.981H242.311V166.315L243.599 166.161V167.981H245.349L245.209 168.975H243.599V173.371C243.599 173.754 243.664 174.034 243.795 174.211C243.935 174.379 244.163 174.463 244.481 174.463C244.77 174.463 245.097 174.365 245.461 174.169L245.951 175.023ZM256.94 168.317C256.66 168.41 256.352 168.471 256.016 168.499C255.68 168.527 255.27 168.541 254.784 168.541C255.652 168.933 256.086 169.554 256.086 170.403C256.086 171.14 255.834 171.742 255.33 172.209C254.826 172.676 254.14 172.909 253.272 172.909C252.936 172.909 252.624 172.862 252.334 172.769C252.222 172.844 252.134 172.946 252.068 173.077C252.003 173.198 251.97 173.324 251.97 173.455C251.97 173.856 252.292 174.057 252.936 174.057H254.112C254.607 174.057 255.046 174.146 255.428 174.323C255.811 174.5 256.105 174.743 256.31 175.051C256.525 175.359 256.632 175.709 256.632 176.101C256.632 176.82 256.338 177.37 255.75 177.753C255.162 178.145 254.304 178.341 253.174 178.341C252.381 178.341 251.751 178.257 251.284 178.089C250.827 177.93 250.5 177.688 250.304 177.361C250.108 177.034 250.01 176.614 250.01 176.101H251.172C251.172 176.4 251.228 176.633 251.34 176.801C251.452 176.978 251.653 177.109 251.942 177.193C252.232 177.286 252.642 177.333 253.174 177.333C253.949 177.333 254.5 177.235 254.826 177.039C255.162 176.852 255.33 176.568 255.33 176.185C255.33 175.84 255.2 175.578 254.938 175.401C254.677 175.224 254.313 175.135 253.846 175.135H252.684C252.059 175.135 251.583 175.004 251.256 174.743C250.939 174.472 250.78 174.136 250.78 173.735C250.78 173.492 250.85 173.259 250.99 173.035C251.13 172.811 251.331 172.61 251.592 172.433C251.163 172.209 250.846 171.934 250.64 171.607C250.444 171.271 250.346 170.865 250.346 170.389C250.346 169.894 250.468 169.451 250.71 169.059C250.962 168.667 251.303 168.364 251.732 168.149C252.171 167.925 252.656 167.813 253.188 167.813C253.767 167.822 254.252 167.804 254.644 167.757C255.036 167.701 255.358 167.631 255.61 167.547C255.872 167.454 256.189 167.323 256.562 167.155L256.94 168.317ZM253.188 168.737C252.703 168.737 252.325 168.891 252.054 169.199C251.793 169.498 251.662 169.894 251.662 170.389C251.662 170.893 251.798 171.299 252.068 171.607C252.339 171.906 252.722 172.055 253.216 172.055C253.72 172.055 254.103 171.91 254.364 171.621C254.635 171.322 254.77 170.907 254.77 170.375C254.77 169.283 254.243 168.737 253.188 168.737ZM261.47 167.813C261.731 167.813 261.974 167.841 262.198 167.897L261.96 169.157C261.736 169.101 261.521 169.073 261.316 169.073C260.859 169.073 260.49 169.241 260.21 169.577C259.93 169.913 259.711 170.436 259.552 171.145V175.359H258.264V167.981H259.37L259.496 169.479C259.692 168.928 259.958 168.513 260.294 168.233C260.63 167.953 261.022 167.813 261.47 167.813ZM268.812 171.453C268.812 171.668 268.803 171.887 268.784 172.111H264.08C264.136 172.923 264.342 173.52 264.696 173.903C265.051 174.286 265.508 174.477 266.068 174.477C266.423 174.477 266.75 174.426 267.048 174.323C267.347 174.22 267.66 174.057 267.986 173.833L268.546 174.603C267.762 175.219 266.904 175.527 265.97 175.527C264.944 175.527 264.141 175.191 263.562 174.519C262.993 173.847 262.708 172.923 262.708 171.747C262.708 170.982 262.83 170.305 263.072 169.717C263.324 169.12 263.679 168.653 264.136 168.317C264.603 167.981 265.149 167.813 265.774 167.813C266.754 167.813 267.506 168.135 268.028 168.779C268.551 169.423 268.812 170.314 268.812 171.453ZM267.538 171.075C267.538 170.347 267.394 169.792 267.104 169.409C266.815 169.026 266.381 168.835 265.802 168.835C264.748 168.835 264.174 169.61 264.08 171.159H267.538V171.075ZM273.769 175.401C273.479 176.26 273.073 176.936 272.551 177.431C272.037 177.935 271.3 178.238 270.339 178.341L270.199 177.333C270.684 177.249 271.071 177.128 271.361 176.969C271.65 176.81 271.879 176.605 272.047 176.353C272.224 176.11 272.387 175.779 272.537 175.359H272.103L269.625 167.981H270.997L272.971 174.421L274.903 167.981H276.233L273.769 175.401ZM284.602 165.993V175.359H283.314V167.365L281.13 168.695L280.57 167.785L283.468 165.993H284.602ZM290.043 165.853C291.079 165.853 291.858 166.268 292.381 167.099C292.913 167.92 293.179 169.115 293.179 170.683C293.179 172.251 292.913 173.45 292.381 174.281C291.858 175.112 291.079 175.527 290.043 175.527C289.007 175.527 288.223 175.112 287.691 174.281C287.168 173.45 286.907 172.251 286.907 170.683C286.907 169.115 287.168 167.92 287.691 167.099C288.223 166.268 289.007 165.853 290.043 165.853ZM290.043 166.875C289.436 166.875 288.984 167.174 288.685 167.771C288.396 168.368 288.251 169.339 288.251 170.683C288.251 172.027 288.396 173.002 288.685 173.609C288.984 174.206 289.436 174.505 290.043 174.505C290.64 174.505 291.088 174.206 291.387 173.609C291.686 173.002 291.835 172.027 291.835 170.683C291.835 169.348 291.686 168.382 291.387 167.785C291.088 167.178 290.64 166.875 290.043 166.875ZM297.85 165.853C298.886 165.853 299.665 166.268 300.188 167.099C300.72 167.92 300.986 169.115 300.986 170.683C300.986 172.251 300.72 173.45 300.188 174.281C299.665 175.112 298.886 175.527 297.85 175.527C296.814 175.527 296.03 175.112 295.498 174.281C294.975 173.45 294.714 172.251 294.714 170.683C294.714 169.115 294.975 167.92 295.498 167.099C296.03 166.268 296.814 165.853 297.85 165.853ZM297.85 166.875C297.243 166.875 296.79 167.174 296.492 167.771C296.202 168.368 296.058 169.339 296.058 170.683C296.058 172.027 296.202 173.002 296.492 173.609C296.79 174.206 297.243 174.505 297.85 174.505C298.447 174.505 298.895 174.206 299.194 173.609C299.492 173.002 299.642 172.027 299.642 170.683C299.642 169.348 299.492 168.382 299.194 167.785C298.895 167.178 298.447 166.875 297.85 166.875ZM305.656 165.853C306.692 165.853 307.472 166.268 307.994 167.099C308.526 167.92 308.792 169.115 308.792 170.683C308.792 172.251 308.526 173.45 307.994 174.281C307.472 175.112 306.692 175.527 305.656 175.527C304.62 175.527 303.836 175.112 303.304 174.281C302.782 173.45 302.52 172.251 302.52 170.683C302.52 169.115 302.782 167.92 303.304 167.099C303.836 166.268 304.62 165.853 305.656 165.853ZM305.656 166.875C305.05 166.875 304.597 167.174 304.298 167.771C304.009 168.368 303.864 169.339 303.864 170.683C303.864 172.027 304.009 173.002 304.298 173.609C304.597 174.206 305.05 174.505 305.656 174.505C306.254 174.505 306.702 174.206 307 173.609C307.299 173.002 307.448 172.027 307.448 170.683C307.448 169.348 307.299 168.382 307 167.785C306.702 167.178 306.254 166.875 305.656 166.875Z" fill="#002033" fill-opacity="0.65"/>
<path d="M242.027 209.359C242.027 207.15 243.817 205.359 246.027 205.359H278.027C280.236 205.359 282.027 207.15 282.027 209.359V241.359C282.027 243.568 280.236 245.359 278.027 245.359H246.027C243.817 245.359 242.027 243.568 242.027 241.359V209.359Z" fill="white" fill-opacity="0.78"/>
<path d="M242.527 209.359C242.527 207.426 244.094 205.859 246.027 205.859H278.027C279.96 205.859 281.527 207.426 281.527 209.359V241.359C281.527 243.292 279.96 244.859 278.027 244.859H246.027C244.094 244.859 242.527 243.292 242.527 241.359V209.359Z" stroke="#004166" stroke-opacity="0.1"/>
<path d="M256.988 251.993V252.959L253.488 261.499L252.312 261.107L255.686 253.043H251.542V251.993H256.988ZM261.154 251.853C262.19 251.853 262.97 252.268 263.492 253.099C264.024 253.92 264.29 255.115 264.29 256.683C264.29 258.251 264.024 259.45 263.492 260.281C262.97 261.112 262.19 261.527 261.154 261.527C260.118 261.527 259.334 261.112 258.802 260.281C258.28 259.45 258.018 258.251 258.018 256.683C258.018 255.115 258.28 253.92 258.802 253.099C259.334 252.268 260.118 251.853 261.154 251.853ZM261.154 252.875C260.548 252.875 260.095 253.174 259.796 253.771C259.507 254.368 259.362 255.339 259.362 256.683C259.362 258.027 259.507 259.002 259.796 259.609C260.095 260.206 260.548 260.505 261.154 260.505C261.752 260.505 262.2 260.206 262.498 259.609C262.797 259.002 262.946 258.027 262.946 256.683C262.946 255.348 262.797 254.382 262.498 253.785C262.2 253.178 261.752 252.875 261.154 252.875ZM268.961 251.853C269.997 251.853 270.776 252.268 271.299 253.099C271.831 253.92 272.097 255.115 272.097 256.683C272.097 258.251 271.831 259.45 271.299 260.281C270.776 261.112 269.997 261.527 268.961 261.527C267.925 261.527 267.141 261.112 266.609 260.281C266.086 259.45 265.825 258.251 265.825 256.683C265.825 255.115 266.086 253.92 266.609 253.099C267.141 252.268 267.925 251.853 268.961 251.853ZM268.961 252.875C268.354 252.875 267.902 253.174 267.603 253.771C267.314 254.368 267.169 255.339 267.169 256.683C267.169 258.027 267.314 259.002 267.603 259.609C267.902 260.206 268.354 260.505 268.961 260.505C269.558 260.505 270.006 260.206 270.305 259.609C270.604 259.002 270.753 258.027 270.753 256.683C270.753 255.348 270.604 254.382 270.305 253.785C270.006 253.178 269.558 252.875 268.961 252.875Z" fill="#002033" fill-opacity="0.65"/>
<path d="M242.027 295.359C242.027 293.15 243.817 291.359 246.027 291.359H278.027C280.236 291.359 282.027 293.15 282.027 295.359V327.359C282.027 329.568 280.236 331.359 278.027 331.359H246.027C243.817 331.359 242.027 329.568 242.027 327.359V295.359Z" fill="white" fill-opacity="0.6"/>
<path d="M242.527 295.359C242.527 293.426 244.094 291.859 246.027 291.859H278.027C279.96 291.859 281.527 293.426 281.527 295.359V327.359C281.527 329.292 279.96 330.859 278.027 330.859H246.027C244.094 330.859 242.527 329.292 242.527 327.359V295.359Z" stroke="#004166" stroke-opacity="0.1"/>
<path d="M256.593 339.001H252.939V341.759C253.415 341.516 253.914 341.395 254.437 341.395C255.24 341.395 255.884 341.661 256.369 342.193C256.854 342.716 257.097 343.439 257.097 344.363C257.097 344.979 256.962 345.53 256.691 346.015C256.42 346.491 256.038 346.864 255.543 347.135C255.058 347.396 254.493 347.527 253.849 347.527C253.28 347.527 252.771 347.429 252.323 347.233C251.875 347.028 251.46 346.729 251.077 346.337L251.833 345.595C252.132 345.894 252.44 346.118 252.757 346.267C253.074 346.407 253.434 346.477 253.835 346.477C254.432 346.477 254.899 346.29 255.235 345.917C255.58 345.544 255.753 345.016 255.753 344.335C255.753 343.654 255.599 343.159 255.291 342.851C254.983 342.543 254.568 342.389 254.045 342.389C253.802 342.389 253.578 342.417 253.373 342.473C253.168 342.52 252.948 342.599 252.715 342.711H251.707V337.993H256.775L256.593 339.001ZM261.633 337.853C262.669 337.853 263.448 338.268 263.971 339.099C264.503 339.92 264.769 341.115 264.769 342.683C264.769 344.251 264.503 345.45 263.971 346.281C263.448 347.112 262.669 347.527 261.633 347.527C260.597 347.527 259.813 347.112 259.281 346.281C258.758 345.45 258.497 344.251 258.497 342.683C258.497 341.115 258.758 339.92 259.281 339.099C259.813 338.268 260.597 337.853 261.633 337.853ZM261.633 338.875C261.026 338.875 260.573 339.174 260.275 339.771C259.985 340.368 259.841 341.339 259.841 342.683C259.841 344.027 259.985 345.002 260.275 345.609C260.573 346.206 261.026 346.505 261.633 346.505C262.23 346.505 262.678 346.206 262.977 345.609C263.275 345.002 263.425 344.027 263.425 342.683C263.425 341.348 263.275 340.382 262.977 339.785C262.678 339.178 262.23 338.875 261.633 338.875ZM269.439 337.853C270.475 337.853 271.255 338.268 271.777 339.099C272.309 339.92 272.575 341.115 272.575 342.683C272.575 344.251 272.309 345.45 271.777 346.281C271.255 347.112 270.475 347.527 269.439 347.527C268.403 347.527 267.619 347.112 267.087 346.281C266.565 345.45 266.303 344.251 266.303 342.683C266.303 341.115 266.565 339.92 267.087 339.099C267.619 338.268 268.403 337.853 269.439 337.853ZM269.439 338.875C268.833 338.875 268.38 339.174 268.081 339.771C267.792 340.368 267.647 341.339 267.647 342.683C267.647 344.027 267.792 345.002 268.081 345.609C268.38 346.206 268.833 346.505 269.439 346.505C270.037 346.505 270.485 346.206 270.783 345.609C271.082 345.002 271.231 344.027 271.231 342.683C271.231 341.348 271.082 340.382 270.783 339.785C270.485 339.178 270.037 338.875 269.439 338.875Z" fill="#002033" fill-opacity="0.65"/>
<path d="M242.027 381.359C242.027 379.15 243.817 377.359 246.027 377.359H278.027C280.236 377.359 282.027 379.15 282.027 381.359V413.359C282.027 415.568 280.236 417.359 278.027 417.359H246.027C243.817 417.359 242.027 415.568 242.027 413.359V381.359Z" fill="white" fill-opacity="0.2"/>
<path d="M242.527 381.359C242.527 379.426 244.094 377.859 246.027 377.859H278.027C279.96 377.859 281.527 379.426 281.527 381.359V413.359C281.527 415.292 279.96 416.859 278.027 416.859H246.027C244.094 416.859 242.527 415.292 242.527 413.359V381.359Z" stroke="#004166" stroke-opacity="0.1"/>
<path d="M253.946 423.853C254.506 423.853 254.996 423.965 255.416 424.189C255.845 424.413 256.177 424.721 256.41 425.113C256.643 425.496 256.76 425.93 256.76 426.415C256.76 426.984 256.629 427.53 256.368 428.053C256.116 428.576 255.724 429.14 255.192 429.747C254.66 430.354 253.853 431.198 252.77 432.281H256.984L256.83 433.359H251.3V432.337C252.551 431.04 253.437 430.092 253.96 429.495C254.483 428.888 254.856 428.361 255.08 427.913C255.304 427.465 255.416 426.984 255.416 426.471C255.416 425.986 255.276 425.608 254.996 425.337C254.716 425.057 254.343 424.917 253.876 424.917C253.493 424.917 253.157 424.996 252.868 425.155C252.579 425.314 252.271 425.575 251.944 425.939L251.104 425.267C251.487 424.791 251.911 424.436 252.378 424.203C252.845 423.97 253.367 423.853 253.946 423.853ZM261.592 423.853C262.628 423.853 263.407 424.268 263.93 425.099C264.462 425.92 264.728 427.115 264.728 428.683C264.728 430.251 264.462 431.45 263.93 432.281C263.407 433.112 262.628 433.527 261.592 433.527C260.556 433.527 259.772 433.112 259.24 432.281C258.717 431.45 258.456 430.251 258.456 428.683C258.456 427.115 258.717 425.92 259.24 425.099C259.772 424.268 260.556 423.853 261.592 423.853ZM261.592 424.875C260.985 424.875 260.532 425.174 260.234 425.771C259.944 426.368 259.8 427.339 259.8 428.683C259.8 430.027 259.944 431.002 260.234 431.609C260.532 432.206 260.985 432.505 261.592 432.505C262.189 432.505 262.637 432.206 262.936 431.609C263.234 431.002 263.384 430.027 263.384 428.683C263.384 427.348 263.234 426.382 262.936 425.785C262.637 425.178 262.189 424.875 261.592 424.875ZM269.398 423.853C270.434 423.853 271.214 424.268 271.736 425.099C272.268 425.92 272.534 427.115 272.534 428.683C272.534 430.251 272.268 431.45 271.736 432.281C271.214 433.112 270.434 433.527 269.398 433.527C268.362 433.527 267.578 433.112 267.046 432.281C266.524 431.45 266.262 430.251 266.262 428.683C266.262 427.115 266.524 425.92 267.046 425.099C267.578 424.268 268.362 423.853 269.398 423.853ZM269.398 424.875C268.792 424.875 268.339 425.174 268.04 425.771C267.751 426.368 267.606 427.339 267.606 428.683C267.606 430.027 267.751 431.002 268.04 431.609C268.339 432.206 268.792 432.505 269.398 432.505C269.996 432.505 270.444 432.206 270.742 431.609C271.041 431.002 271.19 430.027 271.19 428.683C271.19 427.348 271.041 426.382 270.742 425.785C270.444 425.178 269.996 424.875 269.398 424.875Z" fill="#002033" fill-opacity="0.65"/>
<path d="M242.027 467.359C242.027 465.15 243.817 463.359 246.027 463.359H278.027C280.236 463.359 282.027 465.15 282.027 467.359V499.359C282.027 501.568 280.236 503.359 278.027 503.359H246.027C243.817 503.359 242.027 501.568 242.027 499.359V467.359Z" fill="white" fill-opacity="0.12"/>
<path d="M242.527 467.359C242.527 465.426 244.094 463.859 246.027 463.859H278.027C279.96 463.859 281.527 465.426 281.527 467.359V499.359C281.527 501.292 279.96 502.859 278.027 502.859H246.027C244.094 502.859 242.527 501.292 242.527 499.359V467.359Z" stroke="#004166" stroke-opacity="0.1"/>
<path d="M255.714 509.993V519.359H254.426V511.365L252.242 512.695L251.682 511.785L254.58 509.993H255.714ZM261.154 509.853C262.19 509.853 262.97 510.268 263.492 511.099C264.024 511.92 264.29 513.115 264.29 514.683C264.29 516.251 264.024 517.45 263.492 518.281C262.97 519.112 262.19 519.527 261.154 519.527C260.118 519.527 259.334 519.112 258.802 518.281C258.28 517.45 258.018 516.251 258.018 514.683C258.018 513.115 258.28 511.92 258.802 511.099C259.334 510.268 260.118 509.853 261.154 509.853ZM261.154 510.875C260.548 510.875 260.095 511.174 259.796 511.771C259.507 512.368 259.362 513.339 259.362 514.683C259.362 516.027 259.507 517.002 259.796 517.609C260.095 518.206 260.548 518.505 261.154 518.505C261.752 518.505 262.2 518.206 262.498 517.609C262.797 517.002 262.946 516.027 262.946 514.683C262.946 513.348 262.797 512.382 262.498 511.785C262.2 511.178 261.752 510.875 261.154 510.875ZM268.961 509.853C269.997 509.853 270.776 510.268 271.299 511.099C271.831 511.92 272.097 513.115 272.097 514.683C272.097 516.251 271.831 517.45 271.299 518.281C270.776 519.112 269.997 519.527 268.961 519.527C267.925 519.527 267.141 519.112 266.609 518.281C266.086 517.45 265.825 516.251 265.825 514.683C265.825 513.115 266.086 511.92 266.609 511.099C267.141 510.268 267.925 509.853 268.961 509.853ZM268.961 510.875C268.354 510.875 267.902 511.174 267.603 511.771C267.314 512.368 267.169 513.339 267.169 514.683C267.169 516.027 267.314 517.002 267.603 517.609C267.902 518.206 268.354 518.505 268.961 518.505C269.558 518.505 270.006 518.206 270.305 517.609C270.604 517.002 270.753 516.027 270.753 514.683C270.753 513.348 270.604 512.382 270.305 511.785C270.006 511.178 269.558 510.875 268.961 510.875Z" fill="#002033" fill-opacity="0.65"/>
<path d="M242.027 553.359C242.027 551.15 243.817 549.359 246.027 549.359H278.027C280.236 549.359 282.027 551.15 282.027 553.359V585.359C282.027 587.568 280.236 589.359 278.027 589.359H246.027C243.817 589.359 242.027 587.568 242.027 585.359V553.359Z" fill="white" fill-opacity="0.06"/>
<path d="M242.527 553.359C242.527 551.426 244.094 549.859 246.027 549.859H278.027C279.96 549.859 281.527 551.426 281.527 553.359V585.359C281.527 587.292 279.96 588.859 278.027 588.859H246.027C244.094 588.859 242.527 587.292 242.527 585.359V553.359Z" stroke="#004166" stroke-opacity="0.1"/>
<path d="M260.496 597.001H256.842V599.759C257.318 599.516 257.818 599.395 258.34 599.395C259.143 599.395 259.787 599.661 260.272 600.193C260.758 600.716 261 601.439 261 602.363C261 602.979 260.865 603.53 260.594 604.015C260.324 604.491 259.941 604.864 259.446 605.135C258.961 605.396 258.396 605.527 257.752 605.527C257.183 605.527 256.674 605.429 256.226 605.233C255.778 605.028 255.363 604.729 254.98 604.337L255.736 603.595C256.035 603.894 256.343 604.118 256.66 604.267C256.978 604.407 257.337 604.477 257.738 604.477C258.336 604.477 258.802 604.29 259.138 603.917C259.484 603.544 259.656 603.016 259.656 602.335C259.656 601.654 259.502 601.159 259.194 600.851C258.886 600.543 258.471 600.389 257.948 600.389C257.706 600.389 257.482 600.417 257.276 600.473C257.071 600.52 256.852 600.599 256.618 600.711H255.61V595.993H260.678L260.496 597.001ZM265.536 595.853C266.572 595.853 267.351 596.268 267.874 597.099C268.406 597.92 268.672 599.115 268.672 600.683C268.672 602.251 268.406 603.45 267.874 604.281C267.351 605.112 266.572 605.527 265.536 605.527C264.5 605.527 263.716 605.112 263.184 604.281C262.661 603.45 262.4 602.251 262.4 600.683C262.4 599.115 262.661 597.92 263.184 597.099C263.716 596.268 264.5 595.853 265.536 595.853ZM265.536 596.875C264.929 596.875 264.477 597.174 264.178 597.771C263.889 598.368 263.744 599.339 263.744 600.683C263.744 602.027 263.889 603.002 264.178 603.609C264.477 604.206 264.929 604.505 265.536 604.505C266.133 604.505 266.581 604.206 266.88 603.609C267.179 603.002 267.328 602.027 267.328 600.683C267.328 599.348 267.179 598.382 266.88 597.785C266.581 597.178 266.133 596.875 265.536 596.875Z" fill="#002033" fill-opacity="0.65"/>
<path d="M242.027 639.359C242.027 637.15 243.817 635.359 246.027 635.359H278.027C280.236 635.359 282.027 637.15 282.027 639.359V671.359C282.027 673.568 280.236 675.359 278.027 675.359H246.027C243.817 675.359 242.027 673.568 242.027 671.359V639.359Z" fill="white" fill-opacity="0.03"/>
<path d="M242.527 639.359C242.527 637.426 244.094 635.859 246.027 635.859H278.027C279.96 635.859 281.527 637.426 281.527 639.359V671.359C281.527 673.292 279.96 674.859 278.027 674.859H246.027C244.094 674.859 242.527 673.292 242.527 671.359V639.359Z" stroke="#004166" stroke-opacity="0.1"/>
<path d="M258.246 681.853C258.806 681.853 259.296 681.965 259.716 682.189C260.145 682.413 260.477 682.721 260.71 683.113C260.943 683.496 261.06 683.93 261.06 684.415C261.06 684.984 260.929 685.53 260.668 686.053C260.416 686.576 260.024 687.14 259.492 687.747C258.96 688.354 258.153 689.198 257.07 690.281H261.284L261.13 691.359H255.6V690.337C256.851 689.04 257.737 688.092 258.26 687.495C258.783 686.888 259.156 686.361 259.38 685.913C259.604 685.465 259.716 684.984 259.716 684.471C259.716 683.986 259.576 683.608 259.296 683.337C259.016 683.057 258.643 682.917 258.176 682.917C257.793 682.917 257.457 682.996 257.168 683.155C256.879 683.314 256.571 683.575 256.244 683.939L255.404 683.267C255.787 682.791 256.211 682.436 256.678 682.203C257.145 681.97 257.667 681.853 258.246 681.853ZM267.866 683.001H264.212V685.759C264.688 685.516 265.187 685.395 265.71 685.395C266.512 685.395 267.156 685.661 267.642 686.193C268.127 686.716 268.37 687.439 268.37 688.363C268.37 688.979 268.234 689.53 267.964 690.015C267.693 690.491 267.31 690.864 266.816 691.135C266.33 691.396 265.766 691.527 265.122 691.527C264.552 691.527 264.044 691.429 263.596 691.233C263.148 691.028 262.732 690.729 262.35 690.337L263.106 689.595C263.404 689.894 263.712 690.118 264.03 690.267C264.347 690.407 264.706 690.477 265.108 690.477C265.705 690.477 266.172 690.29 266.508 689.917C266.853 689.544 267.026 689.016 267.026 688.335C267.026 687.654 266.872 687.159 266.564 686.851C266.256 686.543 265.84 686.389 265.318 686.389C265.075 686.389 264.851 686.417 264.646 686.473C264.44 686.52 264.221 686.599 263.988 686.711H262.98V681.993H268.048L267.866 683.001Z" fill="#002033" fill-opacity="0.65"/>
</svg>
